<?xml version="1.0" encoding="UTF-8"?>
<svg xmlns="http://www.w3.org/2000/svg" xmlns:xlink="http://www.w3.org/1999/xlink" xmlns:svgjs="http://svgjs.com/svgjs" version="1.1" width="512" height="512" x="0" y="0" viewBox="0 0 24 24" style="enable-background:new 0 0 512 512" xml:space="preserve" class="">
  <g>
    <g xmlns="http://www.w3.org/2000/svg" id="Chat">
      <path d="m12 1a10.9889 10.9889 0 0 0 -9.458 16.6025l-.5342 4.2735a1.0007 1.0007 0 0 0 .9922 1.124.9781.9781 0 0 0 .2427-.03l4.0805-1.02a10.8582 10.8582 0 0 0 4.6768 1.05 11 11 0 0 0 0-22zm-5 12a1 1 0 1 1 1-1 1 1 0 0 1 -1 1zm5 0a1 1 0 1 1 1-1 1 1 0 0 1 -1 1zm5 0a1 1 0 1 1 1-1 1 1 0 0 1 -1 1z" fill="#ffd54f" data-original="#000000" style="" class=""/>
    </g>
  </g>
</svg>
