<svg xmlns="http://www.w3.org/2000/svg" width="37.972" height="33.034" viewBox="0 0 37.972 33.034"><defs><style>.a{fill:#193802;}.b{fill:#469a09;}.c{fill:#2b2929;}.d{fill:#5e5e5e;}.e{fill:#fff;}</style></defs><g transform="translate(-325 -323.766)"><g transform="translate(320 318.766)"><path class="a" d="M41.277,12.066a2.7,2.7,0,0,0-2.085-.982H12.057l-.782-3.91A2.71,2.71,0,0,0,8.623,5H6.352a1.352,1.352,0,0,0,0,2.7H8.623s4.119,20.558,4.151,20.631a4.056,4.056,0,0,0,3.907,3.029H35.218a4.062,4.062,0,0,0,3.983-3.29L41.851,14.3a2.7,2.7,0,0,0-.573-2.233Z" transform="translate(1.073 1.073)"/><path class="b" d="M41.277,12.066a2.7,2.7,0,0,0-2.085-.982H12.057l-.782-3.91A2.71,2.71,0,0,0,8.623,5H6.352a1.352,1.352,0,0,0,0,2.7H8.623s4.119,20.558,4.151,20.631a4.056,4.056,0,0,0,3.907,3.029H35.218a4.062,4.062,0,0,0,3.983-3.29L41.851,14.3a2.7,2.7,0,0,0-.573-2.233Z" transform="translate(0 0)"/><g transform="translate(15.189 29.454)"><path class="c" d="M4.29,0A4.29,4.29,0,1,1,0,4.29,4.29,4.29,0,0,1,4.29,0Z" transform="translate(0)"/><path class="c" d="M4.29,0A4.29,4.29,0,1,1,0,4.29,4.29,4.29,0,0,1,4.29,0Z" transform="translate(13.943)"/></g><path class="d" d="M4,0A4.272,4.272,0,0,1,8,4.5,4.272,4.272,0,0,1,4,9,4.272,4.272,0,0,1,0,4.5,4.272,4.272,0,0,1,4,0Z" transform="translate(15 28.234)"/><path class="d" d="M4,0A4.272,4.272,0,0,1,8,4.5,4.272,4.272,0,0,1,4,9,4.272,4.272,0,0,1,0,4.5,4.272,4.272,0,0,1,4,0Z" transform="translate(29 28.234)"/></g><path class="e" d="M5.866-8.5A1.365,1.365,0,0,1,4.3-6.983H.594v2.8A6.228,6.228,0,0,0,.855-2.755a.982.982,0,0,1-.784.522q-1.639,0-1.639-1.472V-6.983h-4.56a2.171,2.171,0,0,1-.356-1A1.194,1.194,0,0,1-6.151-8.8a1,1,0,0,1,.76-.368,12.065,12.065,0,0,1,1.259.095,12.065,12.065,0,0,0,1.259.1h1.306v-4.346A2.454,2.454,0,0,1-.5-13.656a1.94,1.94,0,0,1,.938.309q.534.309.534.665a5.371,5.371,0,0,1-.19,1.176,5.371,5.371,0,0,0-.19,1.176v1.354H3.776A7.457,7.457,0,0,0,5.3-9.215Q5.866-8.906,5.866-8.5Z" transform="translate(346 348)"/><path class="e" d="M-.5-14.156A2.4,2.4,0,0,1,.69-13.78a1.3,1.3,0,0,1,.784,1.1,5.763,5.763,0,0,1-.2,1.3,4.784,4.784,0,0,0-.176,1.056v.854H3.776A6.8,6.8,0,0,0,5.183-9.7l.185-.043.167.09A1.317,1.317,0,0,1,6.366-8.5,1.861,1.861,0,0,1,4.3-6.483H1.094v2.3a5.6,5.6,0,0,0,.244,1.3l.059.222-.129.19a1.449,1.449,0,0,1-1.2.741A1.875,1.875,0,0,1-2.068-3.705V-6.483H-6.416l-.144-.25A2.6,2.6,0,0,1-6.984-7.98a1.684,1.684,0,0,1,.461-1.155,1.505,1.505,0,0,1,1.131-.533,12.393,12.393,0,0,1,1.316.1,11.679,11.679,0,0,0,1.2.092h.806v-4.15l.27-.14A2.9,2.9,0,0,1-.5-14.156Zm.972,1.478c-.006-.014-.054-.1-.285-.237A1.446,1.446,0,0,0-.5-13.156a1.512,1.512,0,0,0-.569.148v4.53H-2.874a12.392,12.392,0,0,1-1.316-.1,11.679,11.679,0,0,0-1.2-.092.5.5,0,0,0-.389.2.7.7,0,0,0-.2.484,1.241,1.241,0,0,0,.156.5h4.76v3.778c0,.584.194.972,1.139.972A.371.371,0,0,0,.309-2.87,5.793,5.793,0,0,1,.094-4.18v-3.3H4.3c.768,0,1.068-.286,1.068-1.02,0-.028-.036-.093-.158-.18a7.108,7.108,0,0,1-1.432.2H.094v-1.854a5.763,5.763,0,0,1,.2-1.3A4.831,4.831,0,0,0,.474-12.678Z" transform="translate(346 348)"/></g></svg>