<svg xmlns="http://www.w3.org/2000/svg" width="23.069" height="22.862" viewBox="0 0 23.069 22.862"><defs><style>.a{fill:#2f6c15;}.b{fill:#469a22;}</style></defs><g transform="translate(-114.501 -37.568)"><path class="a" d="M-12025.8,9627.432a1,1,0,0,1-1-1v-5a1,1,0,0,1,1-1h.452v-2.639a5.106,5.106,0,0,1-3.652-4.908,5.041,5.041,0,0,1,1.549-3.6,5.047,5.047,0,0,1,3.646-1.455c.178.006.356.018.534.039a6.528,6.528,0,0,1,5.4-2.865,6.526,6.526,0,0,1,5.4,2.865,5.529,5.529,0,0,1,.673-.039,5.057,5.057,0,0,1,3.535,1.467,5.06,5.06,0,0,1,1.524,3.511,5.1,5.1,0,0,1-1.155,3.339,5.1,5.1,0,0,1-2.283,1.588v2.7h.369a1,1,0,0,1,1,1v5a1,1,0,0,1-1,1Z" transform="translate(12144.299 -9567.001)"/><path class="b" d="M-12025.8,9627.432a1,1,0,0,1-1-1v-5a1,1,0,0,1,1-1h.452v-2.639a5.106,5.106,0,0,1-3.652-4.908,5.041,5.041,0,0,1,1.549-3.6,5.047,5.047,0,0,1,3.646-1.455c.178.006.356.018.534.039a6.528,6.528,0,0,1,5.4-2.865,6.526,6.526,0,0,1,5.4,2.865,5.529,5.529,0,0,1,.673-.039,5.057,5.057,0,0,1,3.535,1.467,5.06,5.06,0,0,1,1.524,3.511,5.1,5.1,0,0,1-1.155,3.339,5.1,5.1,0,0,1-2.283,1.588v2.7h.369a1,1,0,0,1,1,1v5a1,1,0,0,1-1,1Z" transform="translate(12143.5 -9567.433)"/></g></svg>