<svg xmlns="http://www.w3.org/2000/svg" xmlns:xlink="http://www.w3.org/1999/xlink" width="78.736" height="53.019" viewBox="0 0 78.736 53.019"><defs><style>.a{fill:#fff;}.b{fill:#ff223d;}.c{fill:#514c68;}.d{fill:#00b8f0;}.e{fill:#8b9da5;}.f{fill:#11b8f0;}.g{fill:#3f0f33;}.h{fill:#d10028;}.i{fill:#f3e8d7;}.j{fill:#fc4e51;}.k{fill:#ea3942;}.l{fill:#912c2c;}.m{fill:#7c1e1e;}.n{fill:#efa335;}.o{fill:#fd8f31;}.p{fill:#fccf3f;}.q{fill:#a0796d;}.r{fill:#a0e557;}.s{fill:#93cc4a;}.t{fill:#efc03c;}.u{filter:url(#a);}</style><filter id="a" x="0" y="0" width="78.736" height="53.019" filterUnits="userSpaceOnUse"><feOffset dy="1" input="SourceAlpha"/><feGaussianBlur stdDeviation="4" result="b"/><feFlood flood-opacity="0.486"/><feComposite operator="in" in2="b"/><feComposite in="SourceGraphic"/></filter></defs><g transform="translate(11.999 2.935)"><g transform="translate(0.553 8.606)"><path class="a" d="M71.509,138.97l-.383-.214a19.6,19.6,0,0,1-7.847-8.534,10.991,10.991,0,0,0-9.887-6.122H22.455a3.027,3.027,0,0,0-3.055,3.01V149a3.034,3.034,0,0,0,3.055,3.01h2.57a5.795,5.795,0,1,1,10.485,0H53.56a5.795,5.795,0,1,1,10.485,0h5.93A3.027,3.027,0,0,0,73.031,149v-7.43A3,3,0,0,0,71.509,138.97Z" transform="translate(-19.4 -124.1)"/></g><g transform="translate(0.553 8.617)"><path class="a" d="M47.9,152.114,27.7,124.2H22.455a3.027,3.027,0,0,0-3.055,3.01V149.1a3.034,3.034,0,0,0,3.055,3.01h2.57a5.795,5.795,0,1,1,10.485,0Z" transform="translate(-19.4 -124.2)"/></g><g transform="translate(0.553 23.86)"><path class="b" d="M19.4,259.4H72.546v6.043H19.4Z" transform="translate(-19.4 -259.4)"/></g><g transform="translate(5.638 28.279)"><ellipse class="c" cx="5.795" cy="5.795" rx="5.795" ry="5.795" transform="translate(0 0)"/></g><g transform="translate(34.195 28.279)"><ellipse class="c" cx="5.795" cy="5.795" rx="5.795" ry="5.795" transform="translate(0 0)"/></g><g transform="translate(32.222 11.605)"><path class="d" d="M310.345,154.86a7.61,7.61,0,0,1-1.578-2.041,8.3,8.3,0,0,0-1.477-1.184c-.124-.045-.248-.079-.372-.124a.939.939,0,0,1-.5-.349,6.941,6.941,0,0,0-.8-.316.745.745,0,0,1-.282-.147h-4.679a.356.356,0,0,0-.361.361v9.109a.356.356,0,0,0,.361.361h9.651a.428.428,0,0,0,.428-.428v-4.5A6.838,6.838,0,0,0,310.345,154.86Z" transform="translate(-300.3 -150.7)"/></g><g transform="translate(29.279 4.582)"><path class="b" d="M274.2,95.14l.237-2.568a1.126,1.126,0,0,1,1.082-1.072h3.54a1.134,1.134,0,0,1,1.082,1.072l.237,2.568" transform="translate(-274.2 -91.5)"/></g><g transform="translate(8.535 31.176)"><ellipse class="e" cx="2.897" cy="2.897" rx="2.897" ry="2.897" transform="translate(0 0)"/></g><g transform="translate(37.092 31.176)"><ellipse class="e" cx="2.897" cy="2.897" rx="2.897" ry="2.897" transform="translate(0 0)"/></g><g transform="translate(32.233 11.977)"><path class="f" d="M302.023,163.481H308.9a1.9,1.9,0,0,0,.913-.237L301.02,154a1.62,1.62,0,0,0-.62,1.263v6.6A1.631,1.631,0,0,0,302.023,163.481Z" transform="translate(-300.4 -154)"/></g><g transform="translate(0.001 3.331)"><g transform="translate(7.993 27.304)"><path class="g" d="M88.839,326.377a3.439,3.439,0,1,1,3.439-3.439A3.445,3.445,0,0,1,88.839,326.377Zm0-5.783a2.345,2.345,0,1,0,2.345,2.345A2.343,2.343,0,0,0,88.839,320.594Z" transform="translate(-85.4 -319.5)"/></g><g transform="translate(36.551 27.304)"><path class="g" d="M342.139,326.377a3.439,3.439,0,1,1,3.439-3.439A3.445,3.445,0,0,1,342.139,326.377Zm0-5.783a2.345,2.345,0,1,0,2.345,2.345A2.343,2.343,0,0,0,342.139,320.594Z" transform="translate(-338.7 -319.5)"/></g><g transform="translate(5.085 24.396)"><path class="g" d="M65.947,306.394a6.347,6.347,0,1,1,6.347-6.347A6.354,6.354,0,0,1,65.947,306.394Zm0-11.6a5.254,5.254,0,1,0,5.254,5.254A5.259,5.259,0,0,0,65.947,294.794Z" transform="translate(-59.6 -293.7)"/></g><g transform="translate(33.642 24.396)"><path class="g" d="M319.247,306.394a6.347,6.347,0,1,1,6.347-6.347A6.354,6.354,0,0,1,319.247,306.394Zm0-11.6a5.254,5.254,0,1,0,5.254,5.254A5.259,5.259,0,0,0,319.247,294.794Z" transform="translate(-312.9 -293.7)"/></g><g transform="translate(0 4.734)"><g class="u" transform="matrix(1, 0, 0, 1, -12, -11)"><path class="g" d="M65.628,148.308H59.743a.555.555,0,0,1-.5-.789,5.254,5.254,0,1,0-9.515,0,.555.555,0,0,1-.5.789H31.186a.555.555,0,0,1-.5-.789,5.251,5.251,0,1,0-9.515.011.555.555,0,0,1-.5.789h-2.57a3.594,3.594,0,0,1-3.608-3.563V122.863a3.587,3.587,0,0,1,3.608-3.563H49.044a11.607,11.607,0,0,1,10.383,6.426,19.127,19.127,0,0,0,7.621,8.3l.383.214a3.553,3.553,0,0,1,1.8,3.089v7.43A3.578,3.578,0,0,1,65.628,148.308Zm-5.085-1.094h5.085a2.481,2.481,0,0,0,2.5-2.458v-7.43a2.446,2.446,0,0,0-1.251-2.131l-.383-.214a20.109,20.109,0,0,1-8.061-8.771,10.49,10.49,0,0,0-9.391-5.806H18.108a2.481,2.481,0,0,0-2.5,2.458v21.894a2.488,2.488,0,0,0,2.5,2.458h1.77a6.347,6.347,0,1,1,12.108,0H48.435a6.347,6.347,0,1,1,12.108,0Z" transform="translate(-2.5 -108.3)"/></g></g><g transform="translate(31.68 7.722)"><path class="g" d="M304.812,156.747h-7.351a1.963,1.963,0,0,1-1.962-1.962v-7.024a1.963,1.963,0,0,1,1.962-1.962h2.187a7.4,7.4,0,0,1,7.4,7.4v1.3A2.235,2.235,0,0,1,304.812,156.747Zm-7.351-9.831a.856.856,0,0,0-.857.857V154.8a.856.856,0,0,0,.857.857h7.351a1.136,1.136,0,0,0,1.139-1.139v-1.3a6.3,6.3,0,0,0-6.291-6.291h-2.2Z" transform="translate(-295.5 -145.8)"/></g><g transform="translate(28.747 0)"><path class="g" d="M276.2,92.143a.6.6,0,0,1-.541-.616l-.237-2.883a.6.6,0,0,0-.53-.6h-3.54a.588.588,0,0,0-.53.6l-.237,2.883c-.034.378-.293.658-.6.616a.671.671,0,0,1-.5-.742l.237-2.883a1.817,1.817,0,0,1,1.623-1.819h3.54a1.8,1.8,0,0,1,1.623,1.819l.237,2.883a.644.644,0,0,1-.5.742Z" transform="translate(-269.486 -86.7)"/></g></g><g transform="translate(25.144 0)"><g transform="matrix(0.899, 0.438, -0.438, 0.899, 2.549, 0)"><path class="h" d="M.563,3.647a.236.236,0,0,1-.215-.139,4.256,4.256,0,0,1,0-3.37.236.236,0,0,1,.43.195,3.764,3.764,0,0,0,0,2.981.236.236,0,0,1-.215.333Z" transform="translate(2.216 1.215)"/><path class="h" d="M.66,4.591a.236.236,0,0,1-.215-.139,5.447,5.447,0,0,1,0-4.314.236.236,0,0,1,.43.195,4.955,4.955,0,0,0,0,3.924.236.236,0,0,1-.215.333Z" transform="translate(1.223 0.743)"/><path class="h" d="M.836,5.814a.3.3,0,0,1-.272-.176,6.9,6.9,0,0,1,0-5.463.3.3,0,0,1,.544.247,6.276,6.276,0,0,0,0,4.97.3.3,0,0,1-.272.422Z" transform="translate(0 0)"/></g><g transform="matrix(-0.899, 0.438, -0.438, -0.899, 14.381, 5.226)"><path class="h" d="M.563,0A.236.236,0,0,0,.348.139a4.256,4.256,0,0,0,0,3.37.236.236,0,0,0,.43-.195,3.764,3.764,0,0,1,0-2.981A.236.236,0,0,0,.563,0Z" transform="translate(2.216 0.952)"/><path class="h" d="M.66,0A.236.236,0,0,0,.445.139a5.447,5.447,0,0,0,0,4.314.236.236,0,1,0,.43-.195,4.955,4.955,0,0,1,0-3.924A.236.236,0,0,0,.66,0Z" transform="translate(1.223 0.48)"/><path class="h" d="M.836,0A.3.3,0,0,0,.564.175a6.9,6.9,0,0,0,0,5.463.3.3,0,0,0,.544-.247,6.275,6.275,0,0,1,0-4.97A.3.3,0,0,0,.836,0Z" transform="translate(0 0)"/></g></g><g transform="translate(7.798 9.033)"><path class="i" d="M65.013,147.254H54.441L56.092,161.5a.439.439,0,0,0,.43.4h6.409a.439.439,0,0,0,.43-.4Zm0,0" transform="translate(-52.061 -142.678)"/><path class="j" d="M57.03,151.566H54.937l1.629,14.059a.439.439,0,0,0,.43.4h1.009Zm0,0" transform="translate(-52.535 -146.801)"/><path class="j" d="M150.591,166.021h1.464l.325-14.454h-2.114Zm0,0" transform="translate(-143.657 -146.801)"/><path class="k" d="M227.048,151.566h-2.092l-.976,14.454h1.009a.439.439,0,0,0,.43-.4Zm0,0" transform="translate(-214.119 -146.801)"/><path class="i" d="M73.976,101.848H65.6a.254.254,0,0,0-.246.208l-.385,1.932h9.642l-.385-1.932A.253.253,0,0,0,73.976,101.848Zm0,0" transform="translate(-62.12 -99.276)"/><path class="i" d="M71.47,102.556H65.254l-.285,1.432h9.454l.157-.16-.353-1.773a.253.253,0,0,0-.246-.208H71.662l.078.379A.275.275,0,0,1,71.47,102.556Zm0,0" transform="translate(-62.124 -99.276)"/><path class="i" d="M50.44,132.909H39.248a.377.377,0,0,1-.377-.377V131.5a.377.377,0,0,1,.377-.377H50.44a.377.377,0,0,1,.377.377v1.03A.377.377,0,0,1,50.44,132.909Zm0,0" transform="translate(-37.178 -127.261)"/><path class="i" d="M50.44,131.121H48.232v.859a.465.465,0,0,1-.465.465H39.248a.377.377,0,0,1-.377-.377v.459a.377.377,0,0,0,.377.377H50.44a.377.377,0,0,0,.377-.377V131.5A.377.377,0,0,0,50.44,131.121Zm0,0" transform="translate(-37.178 -127.257)"/><path class="l" d="M193.354,383.324h-8.648a.538.538,0,0,0-.538.538v1.009h9.724v-1.009A.538.538,0,0,0,193.354,383.324Zm0,0" transform="translate(-176.063 -368.332)"/><path class="m" d="M336.361,383.324h-2.584a.538.538,0,0,1,.538.538v1.009H336.9v-1.009A.538.538,0,0,0,336.361,383.324Zm0,0" transform="translate(-319.071 -368.332)"/><path class="n" d="M181.794,417.27h-9.967a.44.44,0,0,0-.44.44,2.29,2.29,0,0,0,2.29,2.29h6.269a2.289,2.289,0,0,0,2.289-2.29A.441.441,0,0,0,181.794,417.27Zm0,0" transform="translate(-163.846 -400.779)"/><path class="o" d="M320.747,417.27H318.6v.881A1.849,1.849,0,0,1,316.754,420H318.9a2.29,2.29,0,0,0,2.289-2.289A.441.441,0,0,0,320.747,417.27Zm0,0" transform="translate(-302.799 -400.779)"/><path class="p" d="M177.376,360.2c-.242.385-.021,1.255.283,1.255h6.065a.413.413,0,0,1,.269.1l.861.738a.63.63,0,0,0,.859-.037l.665-.677a.413.413,0,0,1,.295-.124h.53c.206,0,.4-.263.4-.57a2.238,2.238,0,0,0-.078-.685Zm0,0" transform="translate(-169.473 -346.227)"/><path class="q" d="M26.472,476.43H8.5a.467.467,0,0,0-.467.467v.3a.467.467,0,0,0,.467.467h17.97a.467.467,0,0,0,.467-.467v-.3A.467.467,0,0,0,26.472,476.43Zm0,0" transform="translate(-7.703 -457.329)"/><path class="r" d="M186.169,338.035c.28,0,.516.464.516.756,0,.417-.475.638-1.028.557-.516-.075-.522-.313-1.045-.313s-.522.313-1.045.313-.522-.313-1.045-.313-.522.313-1.045.313-.522-.313-1.045-.313-.522.313-1.045.313-.522-.313-1.045-.313-.529.237-1.045.313c-.552.081-1.028-.14-1.027-.557,0-.292.236-.756.516-.756Zm0,0" transform="translate(-168.517 -325.041)"/><path class="n" d="M176.811,247.645c-5.05,0-5.424,3.333-5.424,3.8a.44.44,0,0,0,.44.44h9.967a.44.44,0,0,0,.44-.44C182.234,250.978,181.861,247.646,176.811,247.645Zm0,0" transform="translate(-163.846 -238.639)"/><path class="o" d="M266.316,247.645a9.692,9.692,0,0,0-1.292.082c3.824.515,4.132,3.295,4.132,3.723a.44.44,0,0,1-.44.44H271.3a.44.44,0,0,0,.44-.44C271.739,250.978,271.365,247.646,266.316,247.645Zm0,0" transform="translate(-253.351 -238.639)"/><path class="s" d="M355.162,343.766h-2.4v.918a.924.924,0,0,1,.553-.174c.522,0,.529.237,1.045.313a.9.9,0,0,0,.987-.359v-.436a1.1,1.1,0,0,0-.123-.265A.441.441,0,0,1,355.162,343.766Zm0,0" transform="translate(-337.214 -330.515)"/><path class="t" d="M354.359,361.02c-.516-.075-.523-.313-1.045-.313a.923.923,0,0,0-.552.174v2a.63.63,0,0,0,.7-.138l.664-.677a.414.414,0,0,1,.295-.124h.53c.206,0,.4-.263.4-.57a3.1,3.1,0,0,0-.053-.617A.982.982,0,0,1,354.359,361.02Zm0,0" transform="translate(-337.218 -346.713)"/><path d="M19.27,19.768h-.8a2.619,2.619,0,0,0,.751-1.837.774.774,0,0,0-.56-.743V16.53a.887.887,0,0,0-.012-.141.985.985,0,0,0,.311-.733,4.136,4.136,0,0,0-.036-.557A.817.817,0,0,0,19,14.75a1.166,1.166,0,0,0-.059-.346.772.772,0,0,0,.279-.594,3.939,3.939,0,0,0-.8-2.176c-.111-.147-.641.255-.531.4a3.257,3.257,0,0,1,.67,1.775.108.108,0,0,1-.108.108H8.481a.108.108,0,0,1-.108-.108,3.274,3.274,0,0,1,.744-1.869,4.04,4.04,0,0,1,1.969-1.278.335.335,0,0,0,.08-.025,7.422,7.422,0,0,1,1.769-.287h0l.032,0c.161-.008.326-.012.495-.012a5.908,5.908,0,0,1,3.346.753c.9.585,1.056.944,1.056.944l.582-.4a2.8,2.8,0,0,0-1.3-1.117,7.8,7.8,0,0,0-3.682-.845h-.153l.312-2.694h.138a.71.71,0,0,0,.709-.709V5.24a.71.71,0,0,0-.709-.709h-.671l-.163-.816a.588.588,0,0,0-.572-.476H8.519V2.428a.078.078,0,0,1,.045-.074l1.913-.71a.333.333,0,0,0-.231-.624l-1.914.71a.745.745,0,0,0-.478.7v.811H3.976a.588.588,0,0,0-.572.476l-.163.816H2.57a.71.71,0,0,0-.709.709V6.27a.71.71,0,0,0,.709.709h.138L4.19,19.768H1.3a.8.8,0,0,0-.8.8v.3a.8.8,0,0,0,.8.8H19.27a.8.8,0,0,0,.8-.8v-.3A.8.8,0,0,0,19.27,19.768ZM8.624,14.583H18.3a.547.547,0,0,1,.035.167.152.152,0,0,1-.06.125.767.767,0,0,1-.587.1,1.007,1.007,0,0,1-.379-.132,1.349,1.349,0,0,0-.714-.184,1.216,1.216,0,0,0-.693.2.621.621,0,0,1-.7,0,1.281,1.281,0,0,0-1.386,0,.621.621,0,0,1-.7,0,1.281,1.281,0,0,0-1.387,0,.621.621,0,0,1-.7,0,1.216,1.216,0,0,0-.693-.2,1.349,1.349,0,0,0-.713.184,1.008,1.008,0,0,1-.379.132.767.767,0,0,1-.587-.1.215.215,0,0,1-.027-.028h0a.147.147,0,0,1-.033-.1A.56.56,0,0,1,8.624,14.583ZM17.7,15.894a.75.75,0,0,0-.532.223l-.665.677a.3.3,0,0,1-.405.017l-.861-.738a.747.747,0,0,0-.485-.179h-6a.808.808,0,0,1-.1-.284s0,0,0-.006a1.677,1.677,0,0,0,.681.032,1.655,1.655,0,0,0,.594-.2.7.7,0,0,1,.4-.107.567.567,0,0,1,.351.109,1.281,1.281,0,0,0,1.387,0,.621.621,0,0,1,.7,0,1.281,1.281,0,0,0,1.386,0,.621.621,0,0,1,.7,0,1.281,1.281,0,0,0,1.386,0,.567.567,0,0,1,.351-.109.7.7,0,0,1,.4.107,1.654,1.654,0,0,0,.594.2,1.884,1.884,0,0,0,.273.02A1.537,1.537,0,0,0,18.3,15.6c0,.02,0,.039,0,.059a.329.329,0,0,1-.087.238Zm.3.665v.6h-.918l.564-.574a.08.08,0,0,1,.057-.024Zm-2.516.6H8.937v-.6h5.815a.081.081,0,0,1,.052.019Zm-7,.665h9.967a.108.108,0,0,1,.108.108,1.955,1.955,0,0,1-1.285,1.837H9.658A1.954,1.954,0,0,1,8.373,17.93.108.108,0,0,1,8.481,17.822Zm-.022,1.945h-.7l-.036-1.585A2.618,2.618,0,0,0,8.459,19.768Zm.306-8.436c-.056.062-.112.125-.164.19a3.951,3.951,0,0,0-.893,2.289.772.772,0,0,0,.275.591,1.171,1.171,0,0,0-.06.349A.817.817,0,0,0,8,15.1a1.653,1.653,0,0,0,.2,1.167.824.824,0,0,0,.086.107.862.862,0,0,0-.015.157v.657a.774.774,0,0,0-.559.658L7.469,6.98H8.863Zm1.947-1.246a5.051,5.051,0,0,0-1.268.647L9.528,6.98h1.394ZM12.638,9.7a8.337,8.337,0,0,0-1.246.186l.2-2.91h1.366ZM2.57,6.314a.044.044,0,0,1-.044-.044V5.24A.044.044,0,0,1,2.57,5.2H7.708c.184,0-1.435-.149-1.435-.332s.184-.333,0-.333H3.919L4.044,3.9h8.244l.125.627H6.193a.333.333,0,0,0,0,.665h7.569a.044.044,0,0,1,.044.044V6.27a.044.044,0,0,1-.044.044ZM7.091,19.768H6.273L5.41,6.98H6.8ZM3.378,6.98H4.743l.863,12.788H4.859ZM19.4,20.87A.135.135,0,0,1,19.27,21H1.3a.135.135,0,0,1-.135-.135v-.3a.135.135,0,0,1,.135-.135H19.27a.135.135,0,0,1,.135.135v.3Zm0,0" transform="translate(-0.5 -1)"/></g></g></svg>