<svg xmlns="http://www.w3.org/2000/svg" width="27.144" height="27.012" viewBox="0 0 27.144 27.012"><defs><style>.a{fill:#cbcac7;opacity:0.762;}.b{fill:#1c82c8;}.c{fill:#f0efeb;}</style></defs><path class="a" d="M13.249,0A13.249,13.249,0,1,1,0,13.249,13.249,13.249,0,0,1,13.249,0Z" transform="translate(0.645 0.513)"/><g transform="translate(0 0)"><path class="b" d="M25.644,12.822c0,.158,0,.316-.009.473A12.809,12.809,0,0,1,25.4,15.3,12.66,12.66,0,0,1,25,16.855q-.119.362-.26.713A12.824,12.824,0,0,1,0,12.822q0-.219.007-.436.01-.305.035-.606.018-.226.044-.449a12.822,12.822,0,0,1,25.558,1.491Z" transform="translate(0 0)"/><path class="c" d="M24.719,185.42h.952l-.476-1.212Z" transform="translate(-23.481 -174.982)"/><path class="c" d="M22.454,161.74v.52l-.26-.52H20.16v.52l-.26-.52h-2.77a2.641,2.641,0,0,0-1.212.26v-.26H13.971V162a1.251,1.251,0,0,0-.822-.26H6.181L5.7,162.822l-.476-1.082H3.021v.52l-.26-.52H1.036a12.754,12.754,0,0,0-.811,3.23l1.109-2.624H2.415l1.212,2.9v-2.9H4.8l.952,2.077.866-2.077H7.826v3.03H7.09v-2.381l-1.039,2.381H5.4l-1.039-2.381v2.381H2.891l-.3-.649H1.117l-.26.692H.181q-.024.3-.035.606h1.1l.26-.692h.606l.26.692h2.51v-.519l.217.519H6.354l.217-.519v.519h6.016V164.9h.086c.086,0,.086,0,.086.13v.952h3.117v-.26a2.592,2.592,0,0,0,1.169.26h1.3l.26-.693h.605l.26.693h2.51v-.649l.389.649H24.4V161.74Zm-11.686,1.255H9.08v.563h1.645v.606H9.08v.606h1.688v.649H8.345v-3.073h2.424Zm3.376,2.424h-.736v-.389a1.032,1.032,0,0,0-.13-.606c-.13-.13-.26-.13-.52-.13H11.98v1.125h-.736v-3.073h1.644a1.659,1.659,0,0,1,.866.13.737.737,0,0,1,.346.692.861.861,0,0,1-.519.822.825.825,0,0,1,.433.26,1.084,1.084,0,0,1,.13.563v.606Zm1.169-.043h-.736V162.3h.736Zm8.439,0H22.8l-1.385-2.294v2.294H19.943l-.26-.649H18.169l-.26.692h-.823a1.3,1.3,0,0,1-1.428-1.515,1.777,1.777,0,0,1,.389-1.212,1.365,1.365,0,0,1,1.082-.346h.692v.649h-.692a.8.8,0,0,0-.563.173,1.016,1.016,0,0,0-.217.692.941.941,0,0,0,.217.736.69.69,0,0,0,.519.173h.3l1-2.38h1.082l1.212,2.9v-2.9h1.082l1.255,2.121v-2.121h.736v2.986Z" transform="translate(-0.138 -153.639)"/><path class="c" d="M125.82,289.63v.563h1.6v.606h-1.6v.649h1.775l.822-.909-.779-.909Z" transform="translate(-119.518 -275.124)"/><path class="c" d="M117.427,266.69a.64.64,0,0,0-.3.043c-.086.043-.086.13-.086.216,0,.13.043.173.173.217a.549.549,0,0,0,.26.043h.389a1.133,1.133,0,0,1,.794.234,12.812,12.812,0,0,0,.231-2.009h-1.5a1.418,1.418,0,0,0-.908.26v-.26h-1.991a1.373,1.373,0,0,0-.866.26v-.26h-3.505v.26a1.675,1.675,0,0,0-.952-.26h-2.337v.26a1.645,1.645,0,0,0-1-.26h-2.6l-.606.649-.563-.649h-3.9v4.241h3.809l.605-.649.563.649h2.337v-1h.3a2.634,2.634,0,0,0,1-.13v1.169h1.947v-1.125h.087c.13,0,.13,0,.13.13v1h5.886a1.7,1.7,0,0,0,1-.26v.26h1.861c.1,0,.2,0,.3-.01q.14-.352.26-.713a1.671,1.671,0,0,1-.517.075h-1.385v-.649h1.385a.366.366,0,0,0,.3-.086.314.314,0,0,0,0-.433.366.366,0,0,0-.26-.087c-.692-.043-1.515,0-1.515-.952,0-.433.26-.909,1.039-.909h1.428v.736Zm-11.642,1.385h-.866v1.038h-1.385l-.866-1-.909,1H98.9v-3.073h2.9l.866,1,.909-1h2.294c.563,0,1.212.173,1.212,1C107.04,267.9,106.434,268.075,105.785,268.075Zm4.328-.173a.983.983,0,0,1,.13.563v.606h-.736v-.39a.966.966,0,0,0-.13-.605c-.086-.13-.26-.13-.519-.13h-.779v1.126h-.736V266h1.645a1.745,1.745,0,0,1,.866.13.766.766,0,0,1,.389.692.863.863,0,0,1-.519.823A.737.737,0,0,1,110.113,267.9Zm2.986-1.256h-1.688v.563h1.644v.605h-1.644v.606H113.1v.649h-2.424V266H113.1Zm1.818,2.424h-1.385v-.649h1.385a.366.366,0,0,0,.3-.086.313.313,0,0,0,0-.433.364.364,0,0,0-.26-.087c-.692-.043-1.515,0-1.515-.952,0-.433.26-.909,1.038-.909h1.428v.736h-1.341a.64.64,0,0,0-.3.043c-.087.043-.087.13-.087.216,0,.13.087.173.173.217a.548.548,0,0,0,.26.043H115a1.1,1.1,0,0,1,.822.26.9.9,0,0,1,.217.649C116.043,268.768,115.653,269.071,114.917,269.071Z" transform="translate(-93.251 -252.141)"/><path class="c" d="M237.639,187.45a.337.337,0,0,0,.13-.3.241.241,0,0,0-.13-.3.844.844,0,0,0-.346-.043h-.866v.692h.866A.844.844,0,0,0,237.639,187.45Z" transform="translate(-224.585 -177.445)"/><path class="c" d="M365.7,184.208l-.519,1.212h1Z" transform="translate(-346.89 -174.982)"/><path class="c" d="M196.939,286.048v-2.467l-1.125,1.212Z" transform="translate(-186.006 -269.378)"/><path class="c" d="M233.879,289.63h-.909v.779h.952c.26,0,.433-.13.433-.389A.436.436,0,0,0,233.879,289.63Z" transform="translate(-221.301 -275.124)"/><path class="c" d="M298.127,290.537a.843.843,0,0,0-.346-.043h-.866v.692h.866a.844.844,0,0,0,.346-.043.337.337,0,0,0,.13-.3A.241.241,0,0,0,298.127,290.537Z" transform="translate(-282.044 -275.944)"/></g></svg>