<svg xmlns="http://www.w3.org/2000/svg" width="45.324" height="28.932" viewBox="0 0 45.324 28.932"><defs><style>.a{fill:#ffd54f;}</style></defs><path class="a" d="M-4564.25,6561.932a.978.978,0,0,1-.581-.173l-4.254-3.261-2.1,1.352a.993.993,0,0,1-.532.143.786.786,0,0,1-.727-.347l-3.535-7.605a.321.321,0,0,1,.032-.337.847.847,0,0,1,.685-.288,1.176,1.176,0,0,1,.222.021l11.814,2.276a.616.616,0,0,1,.53.4.394.394,0,0,1-.213.411l-2.1,1.352,5.066,2.74a.451.451,0,0,1,.268.358.41.41,0,0,1-.221.356l-3.819,2.46A1,1,0,0,1-4564.25,6561.932Zm-20.167-3.039c-.416,0-.754-.219-.754-.487v-.852c0-.268.338-.486.754-.486s.756.218.756.486v.852C-4583.66,6558.674-4584,6558.893-4584.417,6558.893Zm-7.506-1.326a.749.749,0,0,1-.738-.388.379.379,0,0,1,.206-.442l.933-.6a1,1,0,0,1,.535-.142,1,1,0,0,1,.535.142.422.422,0,0,1,.22.344.422.422,0,0,1-.22.344l-.935.6A.992.992,0,0,1-4591.922,6557.567Zm14.222-3.651h-22.013c-2.915,0-5.287-1.527-5.287-3.4v-9.132c0-1.877,2.372-3.4,5.287-3.4h30.594c2.915,0,5.287,1.527,5.287,3.4v9.132a2.48,2.48,0,0,1-.577,1.544.858.858,0,0,1-.667.262,1.136,1.136,0,0,1-.218-.021l-9.312-1.793a3.5,3.5,0,0,0-.66-.063,2.546,2.546,0,0,0-2.059.864.967.967,0,0,0-.1,1.014l.452.972a.33.33,0,0,1-.035.34A.856.856,0,0,1-4577.7,6553.917Zm-.145-18.017a.75.75,0,0,1-.739-.388.379.379,0,0,1,.206-.442l.935-.6a.993.993,0,0,1,.533-.142,1,1,0,0,1,.535.142.421.421,0,0,1,.221.344.421.421,0,0,1-.221.344l-.935.6A.994.994,0,0,1-4577.845,6535.9Zm-13.142,0a1,1,0,0,1-.535-.143l-.933-.6a.421.421,0,0,1-.222-.344.421.421,0,0,1,.222-.344.993.993,0,0,1,.533-.142,1,1,0,0,1,.535.142l.935.6a.379.379,0,0,1,.205.442A.752.752,0,0,1-4590.987,6535.9Zm6.571-1.077c-.416,0-.754-.218-.754-.486v-.852c0-.268.338-.486.754-.486s.756.218.756.486v.852C-4583.66,6534.605-4584,6534.823-4584.417,6534.823Z" transform="translate(4605 -6533)"/></svg>