<svg xmlns="http://www.w3.org/2000/svg" width="21.839" height="21.883" viewBox="0 0 21.839 21.883"><defs><style>.a{fill:#285309;}.b{fill:#469a09;}</style></defs><g transform="translate(-272.996 -41)"><path class="a" d="M20.832,15.326l-2.914-2.914a1.938,1.938,0,0,0-3.226.729,1.983,1.983,0,0,1-2.29,1.249A8.987,8.987,0,0,1,6.989,8.977a1.886,1.886,0,0,1,1.249-2.29,1.938,1.938,0,0,0,.729-3.226L6.052.546a2.079,2.079,0,0,0-2.81,0L1.265,2.524c-1.978,2.082.208,7.6,5.1,12.49s10.408,7.182,12.49,5.1l1.978-1.978A2.079,2.079,0,0,0,20.832,15.326Z" transform="translate(273.457 42)"/><path class="b" d="M20.832,15.326l-2.914-2.914a1.938,1.938,0,0,0-3.226.729,1.983,1.983,0,0,1-2.29,1.249A8.987,8.987,0,0,1,6.989,8.977a1.886,1.886,0,0,1,1.249-2.29,1.938,1.938,0,0,0,.729-3.226L6.052.546a2.079,2.079,0,0,0-2.81,0L1.265,2.524c-1.978,2.082.208,7.6,5.1,12.49s10.408,7.182,12.49,5.1l1.978-1.978A2.079,2.079,0,0,0,20.832,15.326Z" transform="translate(272.457 41)"/></g></svg>