<svg xmlns="http://www.w3.org/2000/svg" width="33.014" height="31.403" viewBox="0 0 33.014 31.403"><defs><style>.a{fill:#d9d9d9;}.b{fill:#fcfcfc;}.c{fill:#deb635;}.d{fill:#ffd54f;}</style></defs><g transform="translate(-0.713 -0.739)"><path class="a" d="M16.507,0c9.117,0,16.507,7.03,16.507,15.7s-7.39,15.7-16.507,15.7S0,24.373,0,15.7,7.39,0,16.507,0Z" transform="translate(0.713 0.739)"/><path class="b" d="M16.507,2A14.843,14.843,0,0,0,6.213,6.048a13.166,13.166,0,0,0,0,19.307A14.843,14.843,0,0,0,16.507,29.4,14.843,14.843,0,0,0,26.8,25.355a13.166,13.166,0,0,0,0-19.307A14.843,14.843,0,0,0,16.507,2m0-2c9.117,0,16.507,7.03,16.507,15.7s-7.39,15.7-16.507,15.7S0,24.373,0,15.7,7.39,0,16.507,0Z" transform="translate(0.713 0.739)"/><path class="c" d="M-3488.849,8814.061h-15.018a2.136,2.136,0,0,1-2.133-2.135v-8.83a2.136,2.136,0,0,1,2.133-2.133h2.621v-.736a1.869,1.869,0,0,1,1.866-1.867h6.038a1.869,1.869,0,0,1,1.866,1.867v.736h2.626a2.137,2.137,0,0,1,2.132,2.133v8.832A2.137,2.137,0,0,1-3488.849,8814.061Zm-7.509-11.259a4.716,4.716,0,0,0-4.71,4.71,4.713,4.713,0,0,0,4.71,4.708,4.719,4.719,0,0,0,4.708-4.708A4.715,4.715,0,0,0-3496.358,8802.8Zm5.657-.014a.806.806,0,0,0-.806.807.807.807,0,0,0,.806.806.807.807,0,0,0,.805-.806A.805.805,0,0,0-3490.7,8802.788Zm-5.657,7.833a3.113,3.113,0,0,1-3.109-3.109,3.113,3.113,0,0,1,3.109-3.109,3.116,3.116,0,0,1,3.109,3.109A3.113,3.113,0,0,1-3496.358,8810.621Z" transform="translate(3513.96 -8789.971)"/><path class="d" d="M-3488.849,8814.061h-15.018a2.136,2.136,0,0,1-2.133-2.135v-8.83a2.136,2.136,0,0,1,2.133-2.133h2.621v-.736a1.869,1.869,0,0,1,1.866-1.867h6.038a1.869,1.869,0,0,1,1.866,1.867v.736h2.626a2.137,2.137,0,0,1,2.132,2.133v8.832A2.137,2.137,0,0,1-3488.849,8814.061Zm-7.509-11.259a4.716,4.716,0,0,0-4.71,4.71,4.713,4.713,0,0,0,4.71,4.708,4.719,4.719,0,0,0,4.708-4.708A4.715,4.715,0,0,0-3496.358,8802.8Zm5.657-.014a.806.806,0,0,0-.806.807.807.807,0,0,0,.806.806.807.807,0,0,0,.805-.806A.805.805,0,0,0-3490.7,8802.788Zm-5.657,7.833a3.113,3.113,0,0,1-3.109-3.109,3.113,3.113,0,0,1,3.109-3.109,3.116,3.116,0,0,1,3.109,3.109A3.113,3.113,0,0,1-3496.358,8810.621Z" transform="translate(3513.155 -8790.774)"/></g></svg>