<svg xmlns="http://www.w3.org/2000/svg" width="18.984" height="18.984" viewBox="0 0 18.984 18.984"><defs><style>.a{fill:#bf2604;}</style></defs><path class="a" d="M11.143,2.822a9.111,9.111,0,0,0,3.672-.747A9.721,9.721,0,0,0,17.842.02,9.668,9.668,0,0,0,19.893-3a9.128,9.128,0,0,0,.742-3.667,9.128,9.128,0,0,0-.742-3.667,9.685,9.685,0,0,0-2.056-3.027A9.669,9.669,0,0,0,14.8-15.42a9.162,9.162,0,0,0-3.672-.742,9.114,9.114,0,0,0-3.652.742,9.669,9.669,0,0,0-3.032,2.056,9.685,9.685,0,0,0-2.056,3.027A9.128,9.128,0,0,0,1.65-6.67,9.076,9.076,0,0,0,2.4-3,9.737,9.737,0,0,0,4.453.02,9.721,9.721,0,0,0,7.48,2.075,9.087,9.087,0,0,0,11.143,2.822ZM8.34-2.285a.8.8,0,0,1-.566-.21.686.686,0,0,1-.225-.522.962.962,0,0,1,.205-.566l2.324-3.2-2.2-3.037a.976.976,0,0,1-.244-.615.715.715,0,0,1,.244-.547.823.823,0,0,1,.576-.225.85.85,0,0,1,.449.107,1.191,1.191,0,0,1,.352.381L11.191-7.91h.059l1.885-2.8a1.252,1.252,0,0,1,.352-.386.782.782,0,0,1,.43-.112.8.8,0,0,1,.562.21.7.7,0,0,1,.229.542.907.907,0,0,1-.215.566L12.178-6.748l2.3,3.125a.946.946,0,0,1,.205.576.716.716,0,0,1-.229.547.83.83,0,0,1-.591.215.758.758,0,0,1-.425-.112,1.633,1.633,0,0,1-.376-.386l-1.934-2.8h-.049l-1.953,2.8a1.633,1.633,0,0,1-.376.386A.739.739,0,0,1,8.34-2.285Z" transform="translate(-1.65 16.162)"/></svg>