<svg xmlns="http://www.w3.org/2000/svg" width="16" height="16" viewBox="0 0 16 16"><defs><style>.a{fill:#e24c4b;}.b{fill:#d1403f;}.c{fill:#fff;}</style></defs><g transform="translate(0.349 0.042)"><path class="a" d="M8,0A8,8,0,1,1,0,8,8,8,0,0,1,8,0Z" transform="translate(-0.349 -0.042)"/><path class="b" d="M63.724,55.9a7.853,7.853,0,0,1-7.83,7.83,7.705,7.705,0,0,1-6.117-2.936A7.725,7.725,0,0,0,54.671,62.5a7.853,7.853,0,0,0,7.83-7.83,7.725,7.725,0,0,0-1.713-4.894A7.7,7.7,0,0,1,63.724,55.9Z" transform="translate(-48.113 -48.067)"/><path class="c" d="M124.7,124.7a.768.768,0,0,1-1.077,0l-2.5-2.5-2.5,2.5a.761.761,0,0,1-1.077-1.077l2.5-2.5-2.5-2.5a.761.761,0,0,1,1.077-1.077l2.5,2.5,2.5-2.5a.761.761,0,0,1,1.077,1.077l-2.5,2.5,2.5,2.5A.768.768,0,0,1,124.7,124.7Z" transform="translate(-113.346 -113.298)"/></g></svg>