<svg xmlns="http://www.w3.org/2000/svg" width="37.972" height="33.034" viewBox="0 0 37.972 33.034"><defs><style>.a{fill:#193802;}.b{fill:#469a09;}.c{fill:#2b2929;}.d{fill:#5e5e5e;}</style></defs><g transform="translate(-325 -323.766)"><g transform="translate(320 318.766)"><path class="a" d="M41.277,12.066a2.7,2.7,0,0,0-2.085-.982H12.057l-.782-3.91A2.71,2.71,0,0,0,8.623,5H6.352a1.352,1.352,0,0,0,0,2.7H8.623s4.119,20.558,4.151,20.631a4.056,4.056,0,0,0,3.907,3.029H35.218a4.062,4.062,0,0,0,3.983-3.29L41.851,14.3a2.7,2.7,0,0,0-.573-2.233Z" transform="translate(1.073 1.073)"/><path class="b" d="M41.277,12.066a2.7,2.7,0,0,0-2.085-.982H12.057l-.782-3.91A2.71,2.71,0,0,0,8.623,5H6.352a1.352,1.352,0,0,0,0,2.7H8.623s4.119,20.558,4.151,20.631a4.056,4.056,0,0,0,3.907,3.029H35.218a4.062,4.062,0,0,0,3.983-3.29L41.851,14.3a2.7,2.7,0,0,0-.573-2.233Z" transform="translate(0 0)"/><g transform="translate(15.189 29.454)"><path class="c" d="M4.29,0A4.29,4.29,0,1,1,0,4.29,4.29,4.29,0,0,1,4.29,0Z" transform="translate(0)"/><path class="c" d="M4.29,0A4.29,4.29,0,1,1,0,4.29,4.29,4.29,0,0,1,4.29,0Z" transform="translate(13.943)"/></g><path class="d" d="M4,0A4.272,4.272,0,0,1,8,4.5,4.272,4.272,0,0,1,4,9,4.272,4.272,0,0,1,0,4.5,4.272,4.272,0,0,1,4,0Z" transform="translate(15 28.234)"/><path class="d" d="M4,0A4.272,4.272,0,0,1,8,4.5,4.272,4.272,0,0,1,4,9,4.272,4.272,0,0,1,0,4.5,4.272,4.272,0,0,1,4,0Z" transform="translate(29 28.234)"/></g></g></svg>