<svg xmlns="http://www.w3.org/2000/svg" width="24.953" height="22.085" viewBox="0 0 24.953 22.085"><defs><style>.a{fill:#469a09;}.b{fill:#fafafa;}.c{fill:#464040;}.d{fill:#ffd54f;}</style></defs><path class="a" d="M10.43,0A10.442,10.442,0,0,0,0,10.43v9.778a.652.652,0,0,0,.652.652H10.43A10.43,10.43,0,0,0,10.43,0Z"/><g transform="translate(5.215 7.822)"><path class="b" d="M133.867,289.3h-5.215a.652.652,0,1,1,0-1.3h5.215a.652.652,0,1,1,0,1.3Z" transform="translate(-128 -284.089)"/><path class="b" d="M137.778,193.3h-9.126a.652.652,0,0,1,0-1.3h9.126a.652.652,0,0,1,0,1.3Z" transform="translate(-128 -192)"/></g><path class="c" d="M293.95,166.054l-6.856-4.525a1.16,1.16,0,0,0-1.8.968v2.116h-5.541a1.116,1.116,0,0,0-1.116,1.116v2.586a1.116,1.116,0,0,0,1.116,1.116H285.3v2.116a1.16,1.16,0,0,0,1.8.968l6.856-4.525a1.16,1.16,0,0,0,0-1.936Z" transform="translate(-269.518 -150.623)"/><path class="d" d="M293.95,166.054l-6.856-4.525a1.16,1.16,0,0,0-1.8.968v2.116h-5.541a1.116,1.116,0,0,0-1.116,1.116v2.586a1.116,1.116,0,0,0,1.116,1.116H285.3v2.116a1.16,1.16,0,0,0,1.8.968l6.856-4.525a1.16,1.16,0,0,0,0-1.936Z" transform="translate(-269.518 -151.623)"/></svg>