<svg xmlns="http://www.w3.org/2000/svg" width="38.626" height="38.626" viewBox="0 0 38.626 38.626"><defs><style>.a{fill:#469a21;}</style></defs><path class="a" d="M38.626,13.539a8.832,8.832,0,0,0-9.938-8.565,11.32,11.32,0,0,0-18.747,0,8.863,8.863,0,0,0-.927-.068A8.753,8.753,0,0,0,2.69,7.428,8.745,8.745,0,0,0,0,13.677a8.862,8.862,0,0,0,6.337,8.516V34.1a4.531,4.531,0,0,0,4.527,4.527H28.142A4.532,4.532,0,0,0,32.668,34.1c0-.833-.676-6.111-1.509-6.111S29.65,33.267,29.65,34.1a1.511,1.511,0,0,1-1.509,1.509H10.865A1.511,1.511,0,0,1,9.356,34.1V27.989h20.71c.833,0,.418-3.018-.416-3.018H9.356V20.979a1.509,1.509,0,0,0-1.3-1.495,5.834,5.834,0,0,1-5.034-5.79A5.878,5.878,0,0,1,8.951,7.923a5.818,5.818,0,0,1,1.353.188,1.51,1.51,0,0,0,1.709-.741A8.3,8.3,0,0,1,25.656,5.962a8.8,8.8,0,0,0-4.682,7.768,1.509,1.509,0,1,0,3.018,0,5.778,5.778,0,0,1,5.771-5.771,1.528,1.528,0,0,0,.3-.03A5.848,5.848,0,0,1,35.609,13.6a5.788,5.788,0,0,1-4.728,5.836,1.508,1.508,0,0,0-1.23,1.483V34.1c0,.833.675-6.111,1.509-6.111s1.509,6.944,1.509,6.111V22.08a8.83,8.83,0,0,0,5.958-8.541Zm0,0" transform="translate(-0.002)"/></svg>