<svg xmlns="http://www.w3.org/2000/svg" width="35.421" height="30.11" viewBox="0 0 35.421 30.11"><defs><style>.a{fill:#469a09;}</style></defs><path class="a" d="M-7574.816,12217.795a1.182,1.182,0,0,1-1.184-1.184V12193.6a1.184,1.184,0,0,1,1.184-1.184h1.181v-1.181a1.184,1.184,0,0,1,1.184-1.184h1.184v-1.18a1.179,1.179,0,0,1,1.18-1.184h28.329a1.175,1.175,0,0,1,1.181,1.184v23.012a1.18,1.18,0,0,1-1.181,1.184h-1.184v1.184a1.181,1.181,0,0,1-1.183,1.181h-1.181v1.184a1.184,1.184,0,0,1-1.184,1.184Zm2.37-25.983v.589h25.968a1.181,1.181,0,0,1,1.184,1.18v20.658h.589a.584.584,0,0,0,.585-.586l-.006-21.841a.586.586,0,0,0-.586-.589h-27.146A.589.589,0,0,0-7572.446,12191.812Zm2.358-2.358v.589h25.968a1.182,1.182,0,0,1,1.184,1.181v20.651h.589a.589.589,0,0,0,.588-.589h-.009v-21.832a.583.583,0,0,0-.586-.585H-7569.5A.586.586,0,0,0-7570.088,12189.453Zm5.707,9.006,10.18,9.046,3.735-4.274a.592.592,0,0,1,.892,0l3.091,3.541v-12.6a.586.586,0,0,0-.588-.586h-27.143a.586.586,0,0,0-.589.586v12.851l9.64-8.567a.576.576,0,0,1,.391-.151A.576.576,0,0,1-7564.382,12198.459Zm7.282,1.021a2.36,2.36,0,0,1,2.358-2.355,2.36,2.36,0,0,1,2.358,2.355,2.361,2.361,0,0,1-2.358,2.36A2.361,2.361,0,0,1-7557.1,12199.48Z" transform="translate(7576 -12187.685)"/></svg>