<svg xmlns="http://www.w3.org/2000/svg" width="12.448" height="12.442" viewBox="0 0 12.448 12.442"><path d="M2.242-9.32,12.094.539a1.227,1.227,0,0,0,.586.32,1.413,1.413,0,0,0,.676-.008,1.255,1.255,0,0,0,.59-.336,1.227,1.227,0,0,0,.344-.59,1.381,1.381,0,0,0,0-.676,1.207,1.207,0,0,0-.324-.578L4.109-11.187a1.188,1.188,0,0,0-.57-.316,1.428,1.428,0,0,0-.68,0,1.275,1.275,0,0,0-.6.332,1.275,1.275,0,0,0-.332.6,1.428,1.428,0,0,0,0,.68A1.188,1.188,0,0,0,2.242-9.32Zm0,7.992a1.189,1.189,0,0,0-.316.574,1.445,1.445,0,0,0,0,.684,1.227,1.227,0,0,0,.332.594,1.275,1.275,0,0,0,.6.332,1.428,1.428,0,0,0,.68,0,1.188,1.188,0,0,0,.57-.316l9.859-9.852a1.256,1.256,0,0,0,.324-.586,1.381,1.381,0,0,0,0-.676,1.227,1.227,0,0,0-.344-.59,1.255,1.255,0,0,0-.59-.336,1.413,1.413,0,0,0-.676-.008,1.227,1.227,0,0,0-.586.32Z" transform="translate(-1.885 11.545)"/></svg>