<svg xmlns="http://www.w3.org/2000/svg" width="21.711" height="21.714" viewBox="0 0 21.711 21.714"><defs><style>.a{fill:#ffd54f;}.b{fill:#464040;}</style></defs><g transform="translate(0.297 0.3)"><path class="a" d="M11.557,1A10.546,10.546,0,0,0,2.48,16.934l-.513,4.1a.96.96,0,0,0,.952,1.079.939.939,0,0,0,.233-.029l3.916-.979a10.421,10.421,0,0,0,4.489,1.008A10.557,10.557,0,1,0,11.557,1Zm-4.8,11.517a.96.96,0,1,1,.96-.96A.96.96,0,0,1,6.758,12.517Zm4.8,0a.96.96,0,1,1,.96-.96A.96.96,0,0,1,11.557,12.517Zm4.8,0a.96.96,0,1,1,.96-.96A.96.96,0,0,1,16.356,12.517Z" transform="translate(-1 -1)"/><path class="b" d="M11.546.7h.011a10.857,10.857,0,0,1,7.677,18.534,10.786,10.786,0,0,1-7.677,3.18h-.018a10.791,10.791,0,0,1-4.5-.991l-3.813.953a1.237,1.237,0,0,1-.3.038A1.26,1.26,0,0,1,1.67,21l.5-4A10.846,10.846,0,0,1,11.546.7Zm-.007,21.114h.017a10.257,10.257,0,1,0,0-20.514h-.011A10.246,10.246,0,0,0,2.738,16.781l.053.088-.525,4.2a.66.66,0,0,0,.655.742.643.643,0,0,0,.159-.02L7.1,20.789l.1.046A10.184,10.184,0,0,0,11.539,21.814ZM6.758,10.3a1.26,1.26,0,1,1-1.26,1.26A1.261,1.261,0,0,1,6.758,10.3Zm0,1.919a.66.66,0,1,0-.66-.66A.66.66,0,0,0,6.758,12.217Zm4.8-1.919a1.26,1.26,0,1,1-1.26,1.26A1.261,1.261,0,0,1,11.557,10.3Zm0,1.919a.66.66,0,1,0-.66-.66A.66.66,0,0,0,11.557,12.217Zm4.8-1.919a1.26,1.26,0,1,1-1.26,1.26A1.261,1.261,0,0,1,16.356,10.3Zm0,1.919a.66.66,0,1,0-.66-.66A.66.66,0,0,0,16.356,12.217Z" transform="translate(-1 -1)"/></g></svg>