<svg xmlns="http://www.w3.org/2000/svg" width="37.906" height="28.064" viewBox="0 0 37.906 28.064"><defs><style>.a{fill:#a3520d;}.b{fill:#f29226;}.c{fill:#f2e110;}.d{fill:#f2e134;}.e{fill:#f29326;}.f{fill:#fede3a;}.g{fill:#e3bc52;}</style></defs><g transform="translate(0 0)"><g transform="translate(0)"><path class="a" d="M146.27,74.544a1.6,1.6,0,0,0-1.6,1.6,1.52,1.52,0,0,0,.157.69c.021.042.052.094.073.136a1.335,1.335,0,0,0,.24.3,1.146,1.146,0,0,0,.115.1.22.22,0,0,0,.063.042l-3.658,4.2-2.592-9.866a2.167,2.167,0,0,0,.366-.125c.042-.021.094-.052.136-.073a1.336,1.336,0,0,0,.3-.24,1.582,1.582,0,0,0,.272-.366.372.372,0,0,0,.042-.094,1.6,1.6,0,1,0-3.052-.669,1.568,1.568,0,0,0,.146.669c.01.031.031.063.042.094a1.582,1.582,0,0,0,.272.366,1.708,1.708,0,0,0,.3.24l.063.031L134,79.634,129.307,67.2c.042-.021.084-.031.125-.052a1.594,1.594,0,0,0,.752-.752,1.553,1.553,0,0,0,.157-.69,1.6,1.6,0,0,0-3.2,0,1.52,1.52,0,0,0,.157.69,1.594,1.594,0,0,0,.752.752.648.648,0,0,0,.125.052l-4.557,12.092-3.794-7.713.063-.031a1.334,1.334,0,0,0,.3-.24,1.58,1.58,0,0,0,.272-.366.374.374,0,0,0,.042-.094,1.6,1.6,0,1,0-3.052-.669,1.568,1.568,0,0,0,.146.669c.01.031.031.063.042.094a1.581,1.581,0,0,0,.272.366,1.709,1.709,0,0,0,.3.24.851.851,0,0,0,.136.073,2.144,2.144,0,0,0,.366.125l-2.561,9.876-3.637-4.191c.021-.01.042-.031.063-.042a1.046,1.046,0,0,0,.115-.1,1.713,1.713,0,0,0,.24-.3.854.854,0,0,0,.073-.136,1.552,1.552,0,0,0,.157-.69,1.6,1.6,0,0,0-3.2,0,1.52,1.52,0,0,0,.157.69c.021.042.052.094.073.136a1.335,1.335,0,0,0,.24.3,1.145,1.145,0,0,0,.115.1,1.564,1.564,0,0,0,1.014.366h.073a21.728,21.728,0,0,1,1.077,6.291h-1.359a.678.678,0,0,0-.679.679V84.8l.031.157c.01.021.021.052.031.073.021.042.052.084.073.125,0,.01.01.01.01.021a.688.688,0,0,0,.523.24h1.014v5h-1.014a.678.678,0,0,0-.679.679v.073l.031.157c.01.021.021.052.031.073.021.042.052.084.073.125,0,.01.01.01.01.021a.688.688,0,0,0,.523.24h34.813a.682.682,0,0,0,.679-.617v-.073a.678.678,0,0,0-.679-.679H145.14v-5h1.014a.682.682,0,0,0,.679-.617v-.073a.678.678,0,0,0-.679-.679h-1.045a21.727,21.727,0,0,1,1.077-6.291h.073a1.564,1.564,0,0,0,1.014-.366,1.042,1.042,0,0,0,.115-.1,1.711,1.711,0,0,0,.24-.3.852.852,0,0,0,.073-.136,1.553,1.553,0,0,0,.157-.69A1.59,1.59,0,0,0,146.27,74.544Z" transform="translate(-109.963 -63.713)"/><g transform="translate(0 0)"><path class="b" d="M0,0H32.785V6.365H0Z" transform="translate(2.404 20.599)"/><path class="c" d="M0,0H23.484V6.365H0Z" transform="translate(7.065 20.599)"/><g transform="translate(11.381)"><g transform="translate(0 1.599)"><path class="b" d="M173.1,64.819,165.683,84.5h14.841Z" transform="translate(-165.683 -64.819)"/><path class="d" d="M185.776,64.819,181.606,84.5h8.34Z" transform="translate(-178.356 -64.819)"/></g><g transform="translate(5.821)"><path class="d" d="M1.6,0A1.6,1.6,0,1,1,0,1.6,1.6,1.6,0,0,1,1.6,0Z"/><path class="b" d="M195.8,64.456a1.6,1.6,0,0,1-1.568-1.275,1.71,1.71,0,0,0-.031.324,1.6,1.6,0,1,0,3.167-.324A1.6,1.6,0,0,1,195.8,64.456Z" transform="translate(-194.201 -61.916)"/></g></g><g transform="translate(0 4.473)"><g transform="translate(0.763 1.599)"><path class="b" d="M113.664,112.026a21.928,21.928,0,0,1,1.965,10.033h6.741Z" transform="translate(-113.664 -106.863)"/><path class="b" d="M139.416,86.733l-3.992,15.206h11.465Z" transform="translate(-130.982 -86.733)"/><path class="d" d="M150.378,86.733,149.2,101.939h8.653Z" transform="translate(-141.944 -86.733)"/><path class="d" d="M113.664,112.026c1.7,3.585,3.909,10.033,3.909,10.033h4.807Z" transform="translate(-113.664 -106.863)"/></g><g transform="translate(7.514)"><path class="d" d="M1.6,0A1.6,1.6,0,1,1,0,1.6,1.6,1.6,0,0,1,1.6,0Z"/><path class="b" d="M148.338,86.421a1.6,1.6,0,0,1-1.568-1.275,1.708,1.708,0,0,0-.031.324,1.6,1.6,0,1,0,3.167-.324A1.6,1.6,0,0,1,148.338,86.421Z" transform="translate(-146.739 -83.871)"/></g><g transform="translate(0 5.957)"><path class="d" d="M1.6,0A1.6,1.6,0,1,1,0,1.6,1.6,1.6,0,0,1,1.6,0Z"/><path class="e" d="M111.525,115.6a1.6,1.6,0,0,1-1.568-1.275,1.709,1.709,0,0,0-.031.324,1.6,1.6,0,1,0,3.167-.324A1.613,1.613,0,0,1,111.525,115.6Z" transform="translate(-109.926 -113.055)"/></g></g><g transform="translate(21.226 4.473)"><g transform="translate(0 1.599)"><path class="b" d="M257.947,112.026a21.928,21.928,0,0,0-1.965,10.033h-6.741Z" transform="translate(-242.03 -106.863)"/><path class="b" d="M221.387,86.733l3.992,15.206H213.914Z" transform="translate(-213.914 -86.733)"/><path class="d" d="M221.387,86.733l1.181,15.206h-8.653Z" transform="translate(-213.914 -86.733)"/><path class="d" d="M257.906,112.026c-1.7,3.585-3.909,10.033-3.909,10.033H249.19Z" transform="translate(-241.989 -106.863)"/></g><g transform="translate(5.957)"><path class="d" d="M1.6,0A1.6,1.6,0,1,1,0,1.6,1.6,1.6,0,0,1,1.6,0Z" transform="translate(0)"/><path class="b" d="M244.7,86.421a1.6,1.6,0,0,0,1.568-1.275,1.706,1.706,0,0,1,.032.324,1.6,1.6,0,1,1-3.167-.324A1.6,1.6,0,0,0,244.7,86.421Z" transform="translate(-243.097 -83.871)"/></g><g transform="translate(13.482 5.957)"><path class="d" d="M1.6,0A1.6,1.6,0,1,1,0,1.6,1.6,1.6,0,0,1,1.6,0Z" transform="translate(0)"/><path class="b" d="M281.56,115.6a1.6,1.6,0,0,0,1.568-1.275,1.7,1.7,0,0,1,.031.324,1.6,1.6,0,0,1-3.2,0,1.62,1.62,0,0,1,.031-.324A1.6,1.6,0,0,0,281.56,115.6Z" transform="translate(-279.961 -113.055)"/></g></g><path class="f" d="M6182.679,17549.725a.681.681,0,0,1,0-1.361h34.812a.677.677,0,0,1,.678.684.65.65,0,0,1-.3.561.673.673,0,0,1-.382.117Zm0-6.363a.681.681,0,0,1,0-1.361h34.812a.681.681,0,0,1,0,1.361Z" transform="translate(-6181.289 -17522.08)"/></g><path class="g" d="M0,0H32.785V.627H0Z" transform="translate(2.404 21.279)"/></g></g></svg>