<svg xmlns="http://www.w3.org/2000/svg" width="26.27" height="26.27" viewBox="0 0 26.27 26.27"><defs><style>.a{fill:#5b5353;}.b{fill:#facb78;}.c{fill:#ff9326;}.d{fill:#d9d9d9;}</style></defs><g transform="translate(0 0)"><g transform="translate(0 10.828)"><path class="a" d="M7.846,226.475a7.842,7.842,0,0,1-2.041-15.416.77.77,0,0,1,.881,1.1,6.231,6.231,0,0,0-.725,2.93,6.285,6.285,0,0,0,7.948,6.083.77.77,0,0,1,.881,1.1,7.83,7.83,0,0,1-6.945,4.2Z" transform="translate(0 -211.032)"/></g><path class="b" d="M212.172,15.206a.767.767,0,0,1-.224-.033l-2-.608-2,.608a.77.77,0,0,1-.838-.272l-1.257-1.665-1.971-.683a.77.77,0,0,1-.518-.712l-.041-2.086-1.193-1.712a.77.77,0,0,1,0-.88l1.193-1.712.041-2.086a.77.77,0,0,1,.518-.712l1.971-.682L207.118.306a.77.77,0,0,1,.838-.272l2,.608,2-.608a.77.77,0,0,1,.838.272l1.257,1.665,1.971.683a.77.77,0,0,1,.518.712l.041,2.086,1.193,1.712a.77.77,0,0,1,0,.88l-1.193,1.712-.041,2.086a.77.77,0,0,1-.518.712l-1.971.683L212.786,14.9A.77.77,0,0,1,212.172,15.206Z" transform="translate(-191.635 0)"/><path class="b" d="M364.815,7.163l-1.193-1.712-.041-2.086a.77.77,0,0,0-.518-.712l-1.971-.683L359.835.306A.77.77,0,0,0,359,.033l-2,.608V14.564l2,.608a.769.769,0,0,0,.838-.272l1.258-1.665,1.971-.682a.77.77,0,0,0,.518-.712l.041-2.086,1.193-1.712a.77.77,0,0,0,0-.88Z" transform="translate(-338.683 0)"/><path class="c" d="M281.1,76.392a4.1,4.1,0,1,1,4.1-4.1A4.109,4.109,0,0,1,281.1,76.392Z" transform="translate(-262.788 -64.685)"/><path class="d" d="M312.549,323.279l-2.052-2.052a.77.77,0,0,0-1.088,0l-2.052,2.052a.77.77,0,0,0,1.088,1.088l.661-.661a5.4,5.4,0,0,1-5.31,4.478H302.77a.77.77,0,1,0,0,1.539H303.8a6.936,6.936,0,0,0,6.882-6.14l.783.783a.77.77,0,0,0,1.088-1.088Z" transform="translate(-286.505 -304.531)"/><path class="d" d="M10.006,21H8.98A6.936,6.936,0,0,0,2.1,27.141l-.783-.783A.77.77,0,0,0,.226,27.446L2.278,29.5a.769.769,0,0,0,1.088,0l2.052-2.052a.77.77,0,0,0-1.088-1.088l-.661.661A5.4,5.4,0,0,1,8.98,22.54h1.026a.77.77,0,0,0,0-1.539Z" transform="translate(0 -19.924)"/><path class="c" d="M357,68.183v8.209a4.1,4.1,0,1,0,0-8.209Z" transform="translate(-338.683 -64.685)"/><g transform="translate(2.303 18.881)"><path class="a" d="M57.369,371.18a.77.77,0,0,0-.881-1.1,6.26,6.26,0,0,1-6.517-2.087l-5.09,5.09a7.838,7.838,0,0,0,12.488-1.9Z" transform="translate(-44.881 -367.991)"/></g></g></svg>