<svg xmlns="http://www.w3.org/2000/svg" width="25.041" height="28.49" viewBox="0 0 25.041 28.49"><defs><style>.a{fill:#bf2604;}</style></defs><path class="a" d="M-7689.292,12214.244a2.515,2.515,0,0,1-2.492-2.3l-1.48-17.846h21.568l-1.478,17.846a2.518,2.518,0,0,1-2.5,2.3Zm5.978-17.639v13.466a.835.835,0,0,0,.833.834.833.833,0,0,0,.834-.834v-13.466a.834.834,0,0,0-.834-.837A.835.835,0,0,0-7683.314,12196.605Zm-4.224-.834a.831.831,0,0,0-.782.886l.834,13.467a.834.834,0,0,0,.833.781.837.837,0,0,0,.834-.886l-.837-13.466a.818.818,0,0,0-.82-.784Zm9.233.782-.834,13.466a.833.833,0,0,0,.782.883.831.831,0,0,0,.883-.778l.837-13.467a.835.835,0,0,0-.782-.886h-.03A.845.845,0,0,0-7678.306,12196.554Zm-15.023-4.123a1.67,1.67,0,0,1-1.671-1.668,1.67,1.67,0,0,1,1.671-1.67h5.006v-.834a2.507,2.507,0,0,1,2.5-2.5h6.676a2.506,2.506,0,0,1,2.5,2.5v.834h5.009a1.67,1.67,0,0,1,1.67,1.67,1.67,1.67,0,0,1-1.67,1.668Zm6.676-4.172v.834h8.347v-.834a.838.838,0,0,0-.837-.837h-6.676A.837.837,0,0,0-7686.653,12188.259Z" transform="translate(7695 -12185.754)"/></svg>