<svg xmlns="http://www.w3.org/2000/svg" width="27.144" height="27.011" viewBox="0 0 27.144 27.011"><defs><style>.a{fill:#cbcac7;opacity:0.762;}.b{fill:#f0efeb;}.c{fill:#5c5560;}.d{fill:#f98200;}.e{fill:#df5000;}</style></defs><path class="a" d="M13.249,0A13.249,13.249,0,1,1,0,13.249,13.249,13.249,0,0,1,13.249,0Z" transform="translate(0.645 0.513)"/><path class="b" d="M25.644,12.822q0,.463-.033.918-.037.535-.119,1.056a12.49,12.49,0,0,1-.263,1.274,12.929,12.929,0,1,1,.415-3.361C25.644,12.747,25.644,12.784,25.644,12.822Z"/><g transform="translate(15.821 10.498)"><path class="c" d="M466.819,211.817a12.811,12.811,0,0,0-.171-1.988,1.9,1.9,0,0,0-.968-.223h-1.243v4.3h.839v-1.727h.109l1.16,1.727h.123q.082-.521.119-1.056l-.564-.755A1.291,1.291,0,0,0,466.819,211.817Zm-1.3-.232h-.244v-1.3h.257c.522,0,.806.219.806.636C466.339,211.352,466.055,211.585,465.52,211.585Z" transform="translate(-456.996 -209.606)"/><path class="c" d="M408.281,213.181v.727H405.9v-4.3h2.376v.728h-1.539v.954h1.483v.728h-1.483v1.16Z" transform="translate(-401.396 -209.611)"/><path class="c" d="M320,209.611l-1.857,4.407H317.7l-1.824-4.407h.916l1.146,2.886,1.161-2.886Z" transform="translate(-315.875 -209.611)"/></g><path class="d" d="M234.392,209.464a2.283,2.283,0,0,1-.047.462c-.007.033-.017.066-.025.1s-.019.079-.032.119a2.286,2.286,0,1,1,.1-.68Z" transform="translate(-218.309 -196.802)"/><path class="e" d="M230.239,209.883a2.285,2.285,0,0,1,3.679-1.812,2.286,2.286,0,1,0-3.205,3.2A2.274,2.274,0,0,1,230.239,209.883Z" transform="translate(-218.309 -196.801)"/><g transform="translate(0 10.403)"><path class="c" d="M161.408,207.976v.986a1.4,1.4,0,0,0-1.051-.484,1.429,1.429,0,0,0-1.4,1.476,1.4,1.4,0,0,0,1.443,1.482,1.341,1.341,0,0,0,1.011-.471v.986a2.294,2.294,0,0,1-1.051.251,2.225,2.225,0,0,1-2.267-2.242,2.258,2.258,0,0,1,2.288-2.248A2.132,2.132,0,0,1,161.408,207.976Z" transform="translate(-150.171 -207.712)"/><path class="c" d="M96.357,208.691l-.438.575a.868.868,0,0,0-.676-.349c-.362,0-.625.205-.625.476,0,.231.148.355.652.541.952.348,1.235.657,1.235,1.339a1.388,1.388,0,0,1-1.482,1.413,1.671,1.671,0,0,1-1.487-.819l.542-.522a.991.991,0,0,0,.914.573.613.613,0,0,0,.651-.606.514.514,0,0,0-.251-.445,3.357,3.357,0,0,0-.579-.244c-.787-.284-1.057-.586-1.057-1.178a1.261,1.261,0,0,1,1.339-1.231A1.886,1.886,0,0,1,96.357,208.691Z" transform="translate(-88.85 -208.19)"/><rect class="c" width="0.837" height="4.298" transform="translate(3.531 0.095)"/><path class="c" d="M.838,209.617H.21a12.95,12.95,0,0,0-.059,4.3H.833a2.239,2.239,0,0,0,1.533-.5,2.161,2.161,0,0,0,.778-1.65A2.135,2.135,0,0,0,.838,209.617Zm.979,3.228a1.586,1.586,0,0,1-1.145.342H.446v-2.842H.672a1.552,1.552,0,0,1,1.145.347,1.448,1.448,0,0,1,.465,1.07A1.472,1.472,0,0,1,1.817,212.845Z" transform="translate(0 -209.522)"/></g><path class="d" d="M122.739,320.857a12.826,12.826,0,0,1-20.088,7.02A63.086,63.086,0,0,0,122.739,320.857Z" transform="translate(-97.509 -304.787)"/></svg>