<?xml version="1.0" encoding="utf-8"?>
<!-- Generator: Adobe Illustrator 24.3.0, SVG Export Plug-In . SVG Version: 6.00 Build 0)  -->
<svg version="1.1" id="Layer_1" xmlns="http://www.w3.org/2000/svg" xmlns:xlink="http://www.w3.org/1999/xlink" x="0px" y="0px"
	 viewBox="0 0 10.4 6.3" style="enable-background:new 0 0 10.4 6.3;" xml:space="preserve">
<style type="text/css">
	.st0{fill:#469A09;}
</style>
<path id="_Back_btn" class="st0" d="M5.2,6.3c0.3,0,0.7-0.1,0.9-0.4l4-4.1c0.2-0.2,0.3-0.5,0.3-0.7C10.4,0.5,9.9,0,9.3,0
	C9,0,8.7,0.1,8.5,0.4L5.2,3.8L1.8,0.4C1.6,0.1,1.3,0,1,0C0.5,0,0,0.5,0,1.1c0,0.3,0.1,0.5,0.3,0.7l4,4.1C4.5,6.1,4.8,6.3,5.2,6.3z"
	/>
</svg>
