<svg xmlns="http://www.w3.org/2000/svg" width="14.828" height="9.391" viewBox="0 0 14.828 9.391"><defs><style>.a{fill:#ffd54f;}.b{fill:rgba(0,0,0,0);}</style></defs><g transform="translate(0.5 0.5)"><path class="a" d="M8.8-.953a1.523,1.523,0,0,0,.613-.137,2.067,2.067,0,0,0,.559-.4l5.336-5.477a1.293,1.293,0,0,0,.4-.961,1.36,1.36,0,0,0-.191-.711,1.481,1.481,0,0,0-.5-.512,1.319,1.319,0,0,0-.7-.191,1.393,1.393,0,0,0-1.031.461L8.555-3.961h.508L4.313-8.883a1.41,1.41,0,0,0-1.031-.461,1.325,1.325,0,0,0-.7.191,1.47,1.47,0,0,0-.508.512,1.36,1.36,0,0,0-.191.711,1.283,1.283,0,0,0,.1.516,1.584,1.584,0,0,0,.3.445L7.625-1.492A1.642,1.642,0,0,0,8.8-.953Z" transform="translate(-1.883 9.344)"/><path class="b" d="M8.81-.453H8.8a2.131,2.131,0,0,1-1.533-.686l0,0L1.914-6.629a2.089,2.089,0,0,1-.389-.586,1.786,1.786,0,0,1-.143-.714A1.859,1.859,0,0,1,1.645-8.9a1.972,1.972,0,0,1,.678-.683,1.824,1.824,0,0,1,.958-.264,1.9,1.9,0,0,1,1.388.61L8.807-4.946l4.114-4.284a1.882,1.882,0,0,1,1.392-.615,1.818,1.818,0,0,1,.964.265,1.983,1.983,0,0,1,.672.682,1.859,1.859,0,0,1,.262.967,1.782,1.782,0,0,1-.544,1.314L10.325-1.134a2.57,2.57,0,0,1-.7.5,2.026,2.026,0,0,1-.812.183Zm-.83-1.39a1.156,1.156,0,0,0,.818.39,1.017,1.017,0,0,0,.408-.09,1.577,1.577,0,0,0,.416-.3l5.339-5.48a.8.8,0,0,0,.248-.6.861.861,0,0,0-.121-.454.98.98,0,0,0-.336-.342.822.822,0,0,0-.442-.118.894.894,0,0,0-.672.308L9.5-4.226l.738.765H7.381l.733-.763L3.953-8.536a.907.907,0,0,0-.671-.308.827.827,0,0,0-.44.119.969.969,0,0,0-.337.34.861.861,0,0,0-.121.454.783.783,0,0,0,.06.317,1.09,1.09,0,0,0,.2.3Z" transform="translate(-1.883 9.344)"/></g></svg>