<svg xmlns="http://www.w3.org/2000/svg" width="11.741" height="14.172" viewBox="0 0 11.741 14.172"><g transform="translate(-91)"><path d="M91,13.71c-.035.25.216.462.53.462h10.66a.516.516,0,0,0,.544-.368c.036-.25-.216-.462-.53-.462h-1.027a2.069,2.069,0,0,0,.5-1.306c-.018-2.2-4.274-3.941-4.274-4.922,0-1,4.255-2.808,4.257-5.006A2.06,2.06,0,0,0,101.177.83h1.016a.516.516,0,0,0,.544-.368c.036-.25-.216-.462-.53-.462H91.547A.516.516,0,0,0,91,.368c-.035.25.216.462.53.462h1.03a2.06,2.06,0,0,0-.484,1.277c0,2.2,4.257,4,4.257,5.006,0,.977-4.256,2.731-4.274,4.922a2.069,2.069,0,0,0,.5,1.306H91.547A.516.516,0,0,0,91,13.71Zm2.144-11.6A1.734,1.734,0,0,1,93.9.83h5.947a1.734,1.734,0,0,1,.75,1.277c0,1.408-2.637,2.786-3.723,3.95C95.787,4.9,93.148,3.514,93.147,2.107Zm-.017,9.934c.012-1.4,2.655-2.744,3.74-3.886,1.085,1.142,3.729,2.487,3.74,3.886a1.755,1.755,0,0,1-.766,1.3H93.9A1.755,1.755,0,0,1,93.13,12.041Z" transform="translate(0)"/><path d="M186.141,60H181.9a.486.486,0,0,0-.536.44c0,.714,1.613,1.8,2.28,2.343a.647.647,0,0,0,.751,0c.665-.538,2.277-1.629,2.28-2.345A.486.486,0,0,0,186.141,60Zm-2.119,1.9a13.421,13.421,0,0,1-1.28-1.074H185.3A13.414,13.414,0,0,1,184.021,61.9Z" transform="translate(-87.151 -58.339)"/></g></svg>