<svg xmlns="http://www.w3.org/2000/svg" width="48.928" height="48.928" viewBox="0 0 48.928 48.928"><defs><style>.a{fill:#aaa6a6;}.b{fill:#fff;}</style></defs><g transform="translate(0.002)"><path class="a" d="M37.415,47.4H9.976A9.978,9.978,0,0,1,0,37.417V9.978A9.978,9.978,0,0,1,9.976,0H37.415a9.978,9.978,0,0,1,9.978,9.978V37.417A9.978,9.978,0,0,1,37.415,47.4ZM9.96,18.141V31.965a3.449,3.449,0,0,0,3.44,3.44H34.494a3.449,3.449,0,0,0,3.44-3.44V18.141l-13.48,8.724a.936.936,0,0,1-1.013,0ZM13.4,12.26a3.435,3.435,0,0,0-3.387,2.927L23.947,24.2l13.935-9.017a3.435,3.435,0,0,0-3.388-2.927Z" transform="translate(1.532 1.532)"/><path class="b" d="M37.415,47.4H9.976A9.978,9.978,0,0,1,0,37.417V9.978A9.978,9.978,0,0,1,9.976,0H37.415a9.978,9.978,0,0,1,9.978,9.978V37.417A9.978,9.978,0,0,1,37.415,47.4ZM9.96,18.141V31.965a3.449,3.449,0,0,0,3.44,3.44H34.494a3.449,3.449,0,0,0,3.44-3.44V18.141l-13.48,8.724a.936.936,0,0,1-1.013,0ZM13.4,12.26a3.435,3.435,0,0,0-3.387,2.927L23.947,24.2l13.935-9.017a3.435,3.435,0,0,0-3.388-2.927Z" transform="translate(0 0)"/></g></svg>