<svg xmlns="http://www.w3.org/2000/svg" width="42.154" height="28.932" viewBox="0 0 42.154 28.932"><defs><style>.a{fill:#ffd54f;}.b{fill:#464040;font-size:9px;font-family:Montserrat-Bold, Montserrat;font-weight:700;}</style></defs><g transform="translate(17481 8192)"><path class="a" d="M-4567.1,6561.932a.866.866,0,0,1-.541-.173l-3.957-3.261-1.954,1.352a.874.874,0,0,1-.495.143.717.717,0,0,1-.676-.347l-3.287-7.605a.34.34,0,0,1,.03-.337.764.764,0,0,1,.637-.288,1.018,1.018,0,0,1,.206.021l10.988,2.276a.583.583,0,0,1,.493.4.4.4,0,0,1-.2.411l-1.955,1.352,4.712,2.74a.449.449,0,0,1,.25.358.416.416,0,0,1-.205.356l-3.552,2.46A.879.879,0,0,1-4567.1,6561.932Zm-18.756-3.039c-.387,0-.7-.219-.7-.487v-.852c0-.268.314-.486.7-.486s.7.218.7.486v.852C-4585.152,6558.674-4585.468,6558.893-4585.856,6558.893Zm-6.981-1.326a.687.687,0,0,1-.687-.388.389.389,0,0,1,.191-.442l.868-.6a.879.879,0,0,1,.5-.142.883.883,0,0,1,.5.142.426.426,0,0,1,.205.344.426.426,0,0,1-.205.344l-.87.6A.873.873,0,0,1-4592.837,6557.567Zm13.228-3.651h-20.474c-2.711,0-4.917-1.527-4.917-3.4v-9.132c0-1.877,2.206-3.4,4.917-3.4h28.454c2.711,0,4.917,1.527,4.917,3.4v9.132a2.594,2.594,0,0,1-.537,1.544.771.771,0,0,1-.62.262.989.989,0,0,1-.2-.021l-8.661-1.793a3.034,3.034,0,0,0-.613-.063,2.3,2.3,0,0,0-1.916.864,1.028,1.028,0,0,0-.094,1.014l.42.972a.35.35,0,0,1-.033.34A.771.771,0,0,1-4579.609,6553.917Zm-.135-18.017a.689.689,0,0,1-.687-.388.39.39,0,0,1,.191-.442l.87-.6a.876.876,0,0,1,.5-.142.879.879,0,0,1,.5.142.425.425,0,0,1,.206.344.425.425,0,0,1-.206.344l-.87.6A.875.875,0,0,1-4579.744,6535.9Zm-12.223,0a.882.882,0,0,1-.5-.143l-.868-.6a.425.425,0,0,1-.206-.344.425.425,0,0,1,.206-.344.876.876,0,0,1,.5-.142.879.879,0,0,1,.5.142l.87.6a.39.39,0,0,1,.191.442A.69.69,0,0,1-4591.967,6535.9Zm6.111-1.077c-.387,0-.7-.218-.7-.486v-.852c0-.268.314-.486.7-.486s.7.218.7.486v.852C-4585.152,6534.605-4585.468,6534.823-4585.856,6534.823Z" transform="translate(-12876 -14725)"/><text class="b" transform="translate(-17472 -8175.6)"><tspan x="0" y="0">BUY</tspan></text></g></svg>