<svg xmlns="http://www.w3.org/2000/svg" width="43.042" height="43.042" viewBox="0 0 43.042 43.042"><defs><style>.a{fill:#d62929;}</style></defs><path class="a" d="M24.521,3A21.521,21.521,0,1,0,46.042,24.521,21.529,21.529,0,0,0,24.521,3Zm2.152,32.281a3.273,3.273,0,0,1-4.3,0,3.273,3.273,0,0,1,0-4.3,3.273,3.273,0,0,1,4.3,0A3.273,3.273,0,0,1,26.673,35.281Zm0-8.608s-1.076,1.714-2.152,1.714-2.152-1.714-2.152-1.714-1.076-9.684,0-12.912c.469-1.407.647-2.448,2.063-2.418s1.634.6,2.241,2.418C27.749,16.988,26.673,26.673,26.673,26.673Z" transform="translate(-3 -3)"/></svg>