<svg xmlns="http://www.w3.org/2000/svg" width="36" height="30.85" viewBox="0 0 36 30.85"><defs><style>.a{fill:#d12a18;}</style></defs><path class="a" d="M22.051,3.938a1.877,1.877,0,0,0,.731-.176,8.732,8.732,0,0,0,.788-.387,57.249,57.249,0,0,0,8.72-6.284A28.332,28.332,0,0,0,38.03-9.677,13.777,13.777,0,0,0,40.061-16.7a10.526,10.526,0,0,0-.788-4.122A9.922,9.922,0,0,0,37.1-24.064a9.635,9.635,0,0,0-3.226-2.109,10.607,10.607,0,0,0-3.985-.738,8.54,8.54,0,0,0-4.63,1.248,9.547,9.547,0,0,0-3.207,3.322,9.506,9.506,0,0,0-3.188-3.313,8.529,8.529,0,0,0-4.649-1.257,10.628,10.628,0,0,0-3.976.738A9.612,9.612,0,0,0,7-24.064a9.8,9.8,0,0,0-2.163,3.243A10.638,10.638,0,0,0,4.061-16.7,13.777,13.777,0,0,0,6.091-9.677a28.424,28.424,0,0,0,5.731,6.768,56.425,56.425,0,0,0,8.73,6.284,7.024,7.024,0,0,0,.769.387A1.877,1.877,0,0,0,22.051,3.938Z" transform="translate(-4.061 26.912)"/></svg>