<svg xmlns="http://www.w3.org/2000/svg" width="28.632" height="34.269" viewBox="0 0 28.632 34.269"><defs><style>.a{fill:#716a6a;}.b{fill:#5b5353;}.c{fill:#469a09;}.d{fill:#ffd54f;}.e{fill:#bf2604;}</style></defs><g transform="translate(-330.316 -38.088)"><g transform="translate(331.4 39.169)"><path class="a" d="M-3604.8,10628.649a3.484,3.484,0,0,1-3.351-3.479,3.492,3.492,0,0,1,1.934-3.12V10598.1a1.554,1.554,0,0,1,1.553-1.552,1.554,1.554,0,0,1,1.554,1.552v23.957a3.49,3.49,0,0,1,1.924,3.112,3.486,3.486,0,0,1-3.33,3.478,1.235,1.235,0,0,1-.148.009C-3604.709,10628.656-3604.755,10628.653-3604.8,10628.649Zm-11.168-1.549v-11.586a3.485,3.485,0,0,1-1.937-3.121,3.489,3.489,0,0,1,1.937-3.122V10598.1a1.552,1.552,0,0,1,1.554-1.552,1.552,1.552,0,0,1,1.551,1.552v11.179a3.486,3.486,0,0,1,1.923,3.114,3.488,3.488,0,0,1-1.923,3.115v11.592a1.554,1.554,0,0,1-1.551,1.556A1.555,1.555,0,0,1-3615.969,10627.1Zm-9.754,0v-23.951a3.481,3.481,0,0,1-1.937-3.118,3.487,3.487,0,0,1,3.484-3.482h.007a.327.327,0,0,1,.043,0,3.484,3.484,0,0,1,3.433,3.48,3.486,3.486,0,0,1-1.923,3.113v23.956a1.557,1.557,0,0,1-1.554,1.556A1.556,1.556,0,0,1-3625.722,10627.1Z" transform="translate(3628.674 -10595.625)"/><path class="b" d="M-3290,10673.109h-.007a3.488,3.488,0,0,1-3.481-3.484,3.482,3.482,0,0,1,1.935-3.12v-23.947A1.555,1.555,0,0,1-3290,10641a1.558,1.558,0,0,1,1.556,1.553v23.954a3.49,3.49,0,0,1,1.917,3.113,3.489,3.489,0,0,1-3.429,3.484Zm-2.982-3.484a2.972,2.972,0,0,0,1.6,2.636,1.547,1.547,0,0,1-.17-.7v-4.469A2.963,2.963,0,0,0-3292.986,10669.625Zm4.539,1.933a1.537,1.537,0,0,1-.167.691,2.982,2.982,0,0,0,1.579-2.624,2.975,2.975,0,0,0-1.412-2.529Zm-12.863,0v-11.585a3.493,3.493,0,0,1-1.936-3.122,3.5,3.5,0,0,1,1.936-3.126v-11.167a1.555,1.555,0,0,1,1.553-1.553,1.555,1.555,0,0,1,1.553,1.553v11.18a3.48,3.48,0,0,1,1.921,3.113,3.483,3.483,0,0,1-1.921,3.111v11.6a1.555,1.555,0,0,1-1.553,1.552A1.555,1.555,0,0,1-3301.311,10671.558Zm-1.429-14.707a2.972,2.972,0,0,0,1.429,2.538v-5.08A2.979,2.979,0,0,0-3302.74,10656.851Zm4.535,2.527a2.97,2.97,0,0,0,1.415-2.527,2.973,2.973,0,0,0-1.415-2.531Zm-12.861,12.176v-23.945a3.5,3.5,0,0,1-1.935-3.126,3.486,3.486,0,0,1,3.481-3.48h.051a3.487,3.487,0,0,1,3.431,3.48,3.487,3.487,0,0,1-1.922,3.115v23.956a1.553,1.553,0,0,1-1.553,1.551A1.553,1.553,0,0,1-3311.065,10671.554Zm-1.429-27.071a2.973,2.973,0,0,0,1.429,2.537v-4.466a1.545,1.545,0,0,1,.17-.707A2.986,2.986,0,0,0-3312.494,10644.482Zm4.535-1.929v4.46a2.975,2.975,0,0,0,1.415-2.531,2.976,2.976,0,0,0-1.58-2.624A1.539,1.539,0,0,1-3307.959,10642.554Z" transform="translate(3313 -10641.002)"/></g><path class="c" d="M3.228,0A3.228,3.228,0,1,1,0,3.228,3.228,3.228,0,0,1,3.228,0Z" transform="translate(349.818 67.793) rotate(-45)"/><path class="d" d="M3.228,0A3.228,3.228,0,1,1,0,3.228,3.228,3.228,0,0,1,3.228,0Z" transform="translate(341.407 51.789)"/><path class="e" d="M3.228,0A3.228,3.228,0,1,1,0,3.228,3.228,3.228,0,0,1,3.228,0Z" transform="translate(330.316 42.653) rotate(-45)"/></g></svg>