<svg xmlns="http://www.w3.org/2000/svg" width="34.019" height="39.854" viewBox="0 0 34.019 39.854"><defs><style>.a{fill:#3d3838;}</style></defs><path class="a" d="M4962.039,17663.883v-5.535a6.93,6.93,0,0,1,0-13.1v-17.621a1.659,1.659,0,1,1,3.31,0v17.6a6.93,6.93,0,0,1,0,13.1v5.535a1.659,1.659,0,1,1-3.31.02Zm-1.371-12.1a3.034,3.034,0,1,0,3.023-3.258A3.143,3.143,0,0,0,4960.668,17651.781Zm-9.315,12.082V17639.2a6.832,6.832,0,0,1-4.627-7.482,6.293,6.293,0,0,1,12.563,0,6.832,6.832,0,0,1-4.627,7.482v24.668a1.66,1.66,0,1,1-3.31,0Zm.484-34.227a3.272,3.272,0,0,0-1.856,3.027,3.142,3.142,0,0,0,3.024,3.236,3.035,3.035,0,0,0,2.8-2.016,3.442,3.442,0,0,0-.666-3.551,2.931,2.931,0,0,0-2.139-.947A2.825,2.825,0,0,0,4951.837,17629.637Zm-11.17,34.227V17652.3a6.93,6.93,0,0,1,0-13.1v-11.57a1.659,1.659,0,1,1,3.31,0v11.57a6.93,6.93,0,0,1,0,13.1v11.566a1.66,1.66,0,1,1-3.31,0Zm1.653-21.375a3.149,3.149,0,0,0-3.008,3.256,3.276,3.276,0,0,0,1.872,3.016,2.885,2.885,0,0,0,3.3-.717,3.44,3.44,0,0,0,.645-3.557,3.028,3.028,0,0,0-2.789-2Z" transform="translate(-4935.999 -17625.795)"/></svg>