<svg xmlns="http://www.w3.org/2000/svg" width="47.97" height="39.742" viewBox="0 0 47.97 39.742"><defs><style>.a{fill:#3d3838;}</style></defs><path class="a" d="M4968.708,17663.773v-5.52a6.831,6.831,0,0,1,0-13.064v-17.57a1.715,1.715,0,1,1,3.427,0v17.553a6.83,6.83,0,0,1,0,13.064v5.52a1.714,1.714,0,1,1-3.427.018Zm-1.42-12.066a3.136,3.136,0,1,0,3.131-3.25A3.188,3.188,0,0,0,4967.288,17651.707Zm-16.018,12.049v-24.6a6.8,6.8,0,0,1-4.791-7.461,6.536,6.536,0,0,1,13.009,0,6.8,6.8,0,0,1-4.792,7.461v24.6a1.715,1.715,0,1,1-3.427,0Zm.5-34.133a3.255,3.255,0,0,0-1.921,3.02,3.186,3.186,0,0,0,3.131,3.227,3.138,3.138,0,0,0,2.9-2.008,3.339,3.339,0,0,0-.689-3.543,3.084,3.084,0,0,0-2.215-.945A3.049,3.049,0,0,0,4951.771,17629.623Zm-17.938,34.133v-11.535a6.832,6.832,0,0,1,0-13.066v-11.535a1.715,1.715,0,1,1,3.427,0v11.535a6.832,6.832,0,0,1,0,13.066v11.535a1.715,1.715,0,1,1-3.427,0Zm1.711-21.316a3.189,3.189,0,0,0-3.114,3.246,3.254,3.254,0,0,0,1.938,3.006,3.061,3.061,0,0,0,3.418-.713,3.333,3.333,0,0,0,.667-3.547,3.131,3.131,0,0,0-2.888-1.992Z" transform="translate(-4928.999 -17625.793)"/></svg>