<svg xmlns="http://www.w3.org/2000/svg" width="16.911" height="16" viewBox="0 0 16.911 16"><defs><style>.a{fill:#469a09;}</style></defs><path class="a" d="M7.741,14.723H2.313a.624.624,0,0,1-.594-.815,4.813,4.813,0,0,1,4.573-3.256,4.666,4.666,0,0,1,2.682.841.624.624,0,1,0,.714-1.023,5.928,5.928,0,0,0-1.244-.664,3.176,3.176,0,0,0,1.033-2.1,4.7,4.7,0,0,1,5.954-.487A.624.624,0,1,0,16.145,6.2,5.928,5.928,0,0,0,14.9,5.536a3.182,3.182,0,1,0-4.284-.007q-.131.05-.259.107a5.923,5.923,0,0,0-1.1.631,3.181,3.181,0,1,0-5.1,3.527A6,6,0,0,0,.532,13.526a1.872,1.872,0,0,0,1.782,2.445H7.741a.624.624,0,0,0,0-1.248ZM12.763,1.248a1.934,1.934,0,1,1-1.934,1.934A1.936,1.936,0,0,1,12.763,1.248ZM6.306,5.517A1.934,1.934,0,1,1,4.372,7.451,1.936,1.936,0,0,1,6.306,5.517Z" transform="translate(-0.44)"/><path class="a" d="M271.5,320.458a.624.624,0,0,0-.87.144l-4.014,6.3a.356.356,0,0,1-.513.027l-1.991-1.911a.624.624,0,0,0-.864.9l1.993,1.913a1.609,1.609,0,0,0,1.107.442q.053,0,.106,0a1.609,1.609,0,0,0,1.144-.6l.021-.028,4.026-6.32A.624.624,0,0,0,271.5,320.458Z" transform="translate(-254.85 -312.276)"/></svg>