<svg xmlns="http://www.w3.org/2000/svg" width="13.5" height="14" viewBox="0 0 13.5 14"><defs><style>.a{fill:#469a09;}</style></defs><g transform="translate(-2 -2)"><path class="a" d="M20,18a3,3,0,1,0,3,3,3,3,0,0,0-3-3Zm1,3.5h-.5V22a.5.5,0,0,1-1,0v-.5H19a.5.5,0,0,1,0-1h.5V20a.5.5,0,1,1,1,0v.5H21a.5.5,0,0,1,0,1Z" transform="translate(-7.5 -8)"/><path class="a" d="M8.5,19a4.005,4.005,0,0,1,3.6-3.98A2.685,2.685,0,0,0,9.99,14a.5.5,0,0,0-.4.2,3.083,3.083,0,0,1-4.179,0,.5.5,0,0,0-.4-.2A2.687,2.687,0,0,0,2.32,16.455L2,20a2,2,0,0,0,2,2H9.863A3.988,3.988,0,0,1,8.5,19Z" transform="translate(0 -6)"/><path class="a" d="M10,2C6,2,6,8,10,8S14,2,10,2Z" transform="translate(-2.5)"/></g></svg>