<svg xmlns="http://www.w3.org/2000/svg" width="12.894" height="12.383" viewBox="0 0 12.894 12.383"><defs><style>.a{fill:#ffde46;}.b{fill:#707070;}</style></defs><g transform="translate(40.246 -177.183)"><path class="a" d="M9.585,185.769a1.107,1.107,0,0,1-.431-.087L6.348,184.5l-2.807,1.185A1.109,1.109,0,0,1,2,184.566l.26-3.036-1.994-2.3a1.109,1.109,0,0,1,.587-1.806l2.967-.691L5.4,174.122a1.109,1.109,0,0,1,1.9,0l1.574,2.608,2.967.691a1.109,1.109,0,0,1,.587,1.806l-1.994,2.3.26,3.036a1.109,1.109,0,0,1-1.1,1.2Z" transform="translate(-40.146 3.697)"/><path class="b" d="M9.585,185.869a1.2,1.2,0,0,1-.47-.1l-2.768-1.168L3.58,185.774a1.209,1.209,0,0,1-1.181-.136,1.215,1.215,0,0,1-.494-1.081l.256-2.993L.195,179.292a1.209,1.209,0,0,1,.639-1.968l2.926-.682,1.553-2.572a1.209,1.209,0,0,1,2.07,0l1.553,2.572,2.926.682a1.209,1.209,0,0,1,.639,1.968l-1.966,2.271.256,2.993a1.215,1.215,0,0,1-.494,1.081A1.2,1.2,0,0,1,9.585,185.869Zm-3.238-1.481,2.846,1.2a1.009,1.009,0,0,0,.985-.113,1.014,1.014,0,0,0,.412-.9l-.263-3.078,2.022-2.335a1.009,1.009,0,0,0-.534-1.643l-3.008-.7-1.6-2.644a1.009,1.009,0,0,0-1.727,0l-1.6,2.644-3.008.7a1.009,1.009,0,0,0-.534,1.643L2.368,181.5,2.1,184.574a1.014,1.014,0,0,0,.412.9,1.009,1.009,0,0,0,.985.113Z" transform="translate(-40.146 3.697)"/></g></svg>