<svg xmlns="http://www.w3.org/2000/svg" width="18.689" height="18.689" viewBox="0 0 18.689 18.689"><defs><style>.a{fill:#3f8f22;}</style></defs><g transform="translate(-26 -196.311)"><path class="a" d="M9.344,0a9.344,9.344,0,1,0,9.344,9.344A9.345,9.345,0,0,0,9.344,0Zm0,17.481c-4.645,0-7.859-3.492-7.859-8.137A7.6,7.6,0,0,1,9.344,1.36a7.739,7.739,0,0,1,8.03,7.985A7.872,7.872,0,0,1,9.344,17.481Z" transform="translate(26 196.311)"/><path class="a" d="M-4545.508,6873.856a.594.594,0,0,1-.492-.576.488.488,0,0,1,.492-.468h.789v-5.606h-.321a.468.468,0,0,1-.468-.468.467.467,0,0,1,.468-.467h.933c.259,0,.633.208.633.467v6.074h.769a.464.464,0,0,1,.462.468c0,.257-.205.576-.462.576Zm-.012-9.682a1.174,1.174,0,0,1,1.173-1.175,1.175,1.175,0,0,1,1.175,1.175,1.175,1.175,0,0,1-1.175,1.175A1.173,1.173,0,0,1-4545.521,6864.174Z" transform="translate(4579.451 -6662.951)"/></g></svg>