<svg xmlns="http://www.w3.org/2000/svg" width="12.894" height="12.383" viewBox="0 0 12.894 12.383"><defs><style>.a{fill:#ffde46;}.b{fill:#707070;}.c{fill:#fff;}</style></defs><g transform="translate(-0.021 -177.183)"><g transform="translate(0.12 177.283)"><path class="a" d="M179.2,185.768a1.107,1.107,0,0,1-.431-.087L175.96,184.5l-2.807,1.185a1.109,1.109,0,0,1-1.536-1.116l.26-3.036-1.994-2.3a1.109,1.109,0,0,1,.587-1.806l2.967-.691,1.574-2.608a1.109,1.109,0,0,1,1.9,0l1.574,2.608,2.967.691a1.109,1.109,0,0,1,.587,1.806l-1.994,2.3.26,3.036a1.109,1.109,0,0,1-1.1,1.2Z" transform="translate(-169.612 -173.585)"/><path class="b" d="M179.2,185.868a1.2,1.2,0,0,1-.47-.1L175.96,184.6l-2.768,1.168a1.209,1.209,0,0,1-1.181-.136,1.215,1.215,0,0,1-.494-1.081l.256-2.993-1.967-2.271a1.209,1.209,0,0,1,.64-1.968l2.926-.682,1.553-2.572a1.209,1.209,0,0,1,2.07,0l1.553,2.572,2.926.682a1.209,1.209,0,0,1,.639,1.968l-1.966,2.271.256,2.993a1.215,1.215,0,0,1-.494,1.081A1.2,1.2,0,0,1,179.2,185.868Zm-3.238-1.481,2.846,1.2a1.009,1.009,0,0,0,.985-.113,1.014,1.014,0,0,0,.412-.9l-.263-3.078,2.022-2.335a1.009,1.009,0,0,0-.534-1.643l-3.008-.7-1.6-2.644a1.009,1.009,0,0,0-1.727,0l-1.6,2.644-3.008.7a1.009,1.009,0,0,0-.534,1.643l2.022,2.335-.263,3.078a1.014,1.014,0,0,0,.412.9,1.009,1.009,0,0,0,.985.113Z" transform="translate(-169.612 -173.585)"/></g><path class="c" d="M261.684,178.06a1.163,1.163,0,0,0-.839-.719l-2.886-.677-1.531-2.554a1.077,1.077,0,0,0-.922-.525v10.682l2.729,1.16a1.265,1.265,0,0,0,.44.141.949.949,0,0,0,.61-.141,1.317,1.317,0,0,0,.443-1.092l-.252-2.972,2-2.266A1.073,1.073,0,0,0,261.684,178.06Z" transform="translate(-249.012 3.807)"/></g></svg>