<svg xmlns="http://www.w3.org/2000/svg" width="67.445" height="67.445" viewBox="0 0 67.445 67.445"><defs><style>.a{fill:#bf2612;}.b{fill:rgba(255,255,255,0.6);}</style></defs><g transform="translate(-155.276 -680.967)"><path class="a" d="M39,9.912A31.887,31.887,0,0,0,51.851,7.3,34.023,34.023,0,0,0,62.446.1a33.837,33.837,0,0,0,7.178-10.579,31.946,31.946,0,0,0,2.6-12.834,31.946,31.946,0,0,0-2.6-12.834,33.9,33.9,0,0,0-7.195-10.6,33.843,33.843,0,0,0-10.613-7.195,32.068,32.068,0,0,0-12.852-2.6,31.9,31.9,0,0,0-12.783,2.6,33.843,33.843,0,0,0-10.613,7.195,33.9,33.9,0,0,0-7.195,10.6,31.947,31.947,0,0,0-2.6,12.834A31.767,31.767,0,0,0,8.391-10.476,34.08,34.08,0,0,0,15.586.1,34.023,34.023,0,0,0,26.182,7.3,31.8,31.8,0,0,0,39,9.912ZM16.338-20.132v-.308a9.031,9.031,0,0,1,1.948-5.776A15.069,15.069,0,0,1,23.5-30.3a29.084,29.084,0,0,1,7.28-2.427,42.465,42.465,0,0,1,16.44,0A29.084,29.084,0,0,1,54.5-30.3a15.069,15.069,0,0,1,5.212,4.084,9.031,9.031,0,0,1,1.948,5.776v.308a5.867,5.867,0,0,1-.427,2.307,3.544,3.544,0,0,1-1.282,1.589,3.683,3.683,0,0,1-2.119.581q-1.4,0-3.213-.171A23.188,23.188,0,0,1,50-16.885a4.839,4.839,0,0,1-2.375-1.384,4.242,4.242,0,0,1-.8-2.717l-.034-1.982a.829.829,0,0,0-.649-.786,20.478,20.478,0,0,0-2.649-.513A31.538,31.538,0,0,0,39-24.541a31.538,31.538,0,0,0-4.495.273,20.478,20.478,0,0,0-2.649.513.829.829,0,0,0-.649.786l-.034,1.982a4.242,4.242,0,0,1-.8,2.717,4.839,4.839,0,0,1-2.375,1.384,23.188,23.188,0,0,1-4.614,1.06q-1.812.171-3.213.171a3.683,3.683,0,0,1-2.119-.581,3.544,3.544,0,0,1-1.282-1.589A5.868,5.868,0,0,1,16.338-20.132Z" transform="translate(150 738)"/><path class="b" d="M39,10.412A32.447,32.447,0,0,1,25.982,7.756a34.678,34.678,0,0,1-10.75-7.3,34.735,34.735,0,0,1-7.3-10.732A32.41,32.41,0,0,1,5.276-23.311,32.59,32.59,0,0,1,7.915-36.344a34.553,34.553,0,0,1,7.3-10.751,34.5,34.5,0,0,1,10.768-7.3,32.543,32.543,0,0,1,12.981-2.639,32.712,32.712,0,0,1,13.05,2.639,34.5,34.5,0,0,1,10.768,7.3,34.553,34.553,0,0,1,7.3,10.751,32.59,32.59,0,0,1,2.639,13.033,32.59,32.59,0,0,1-2.639,13.033A34.491,34.491,0,0,1,62.8.456a34.678,34.678,0,0,1-10.75,7.3A32.531,32.531,0,0,1,39,10.412Zm-.034-66.445A31.549,31.549,0,0,0,26.38-53.477a33.5,33.5,0,0,0-10.457,7.089,33.557,33.557,0,0,0-7.09,10.441A31.6,31.6,0,0,0,6.276-23.311,31.416,31.416,0,0,0,8.849-10.676,33.74,33.74,0,0,0,15.939-.251a33.682,33.682,0,0,0,10.441,7.09A31.453,31.453,0,0,0,39,9.412,31.537,31.537,0,0,0,51.651,6.839,33.682,33.682,0,0,0,62.093-.251a33.495,33.495,0,0,0,7.072-10.424,31.6,31.6,0,0,0,2.556-12.636,31.6,31.6,0,0,0-2.556-12.636,33.557,33.557,0,0,0-7.09-10.441,33.5,33.5,0,0,0-10.457-7.089A31.718,31.718,0,0,0,38.965-56.033ZM57.832-15.154c-.945,0-2.042-.058-3.26-.173a23.766,23.766,0,0,1-4.715-1.08,5.339,5.339,0,0,1-2.609-1.538,4.731,4.731,0,0,1-.922-3.031l-.034-1.992c0-.073,0-.195-.309-.312a20.438,20.438,0,0,0-2.562-.492A31.2,31.2,0,0,0,39-24.041a31.2,31.2,0,0,0-4.422.268,20.435,20.435,0,0,0-2.562.492c-.309.117-.309.239-.309.312v.009l-.034,1.982a4.732,4.732,0,0,1-.922,3.032,5.339,5.339,0,0,1-2.609,1.538,23.766,23.766,0,0,1-4.715,1.08c-1.218.115-2.314.173-3.26.173a4.187,4.187,0,0,1-2.4-.668A4.052,4.052,0,0,1,16.3-17.63a6.389,6.389,0,0,1-.467-2.5v-.308a9.559,9.559,0,0,1,2.056-6.087,15.633,15.633,0,0,1,5.382-4.222,29.718,29.718,0,0,1,7.4-2.469,42.964,42.964,0,0,1,16.637,0,29.719,29.719,0,0,1,7.4,2.469A15.633,15.633,0,0,1,60.1-26.526a9.559,9.559,0,0,1,2.056,6.087v.308a6.389,6.389,0,0,1-.467,2.5,4.052,4.052,0,0,1-1.461,1.808A4.187,4.187,0,0,1,57.832-15.154Zm-10.54-7.82.034,1.979a3.8,3.8,0,0,0,.684,2.4,4.384,4.384,0,0,0,2.137,1.229l.008,0a22.824,22.824,0,0,0,4.51,1.038c1.187.112,2.252.169,3.166.169a3.213,3.213,0,0,0,1.838-.495,3.027,3.027,0,0,0,1.1-1.371,5.4,5.4,0,0,0,.388-2.112v-.308a8.583,8.583,0,0,0-1.84-5.466,14.644,14.644,0,0,0-5.043-3.947,28.721,28.721,0,0,0-7.156-2.384,41.964,41.964,0,0,0-16.244,0,28.721,28.721,0,0,0-7.156,2.384,14.644,14.644,0,0,0-5.043,3.947,8.583,8.583,0,0,0-1.84,5.466v.308a5.4,5.4,0,0,0,.388,2.112,3.027,3.027,0,0,0,1.1,1.371,3.213,3.213,0,0,0,1.838.495c.914,0,1.979-.057,3.166-.169a22.824,22.824,0,0,0,4.51-1.038l.008,0a4.384,4.384,0,0,0,2.137-1.229,3.8,3.8,0,0,0,.684-2.4l.034-1.978a1.306,1.306,0,0,1,.977-1.25l.027-.009a20.681,20.681,0,0,1,2.722-.529A32.179,32.179,0,0,1,39-25.041a32.179,32.179,0,0,1,4.567.279,20.682,20.682,0,0,1,2.722.529l.027.009A1.306,1.306,0,0,1,47.292-22.974Z" transform="translate(150 738)"/></g></svg>