<svg xmlns="http://www.w3.org/2000/svg" width="24.542" height="20.218" viewBox="0 0 24.542 20.218"><defs><style>.a{fill:#d12a18;}</style></defs><path class="a" d="M49.771,96.21a3.067,3.067,0,0,1-1.658-.485,41.118,41.118,0,0,1-6.388-5.016c-2.8-2.778-4.224-5.394-4.224-7.777a7.151,7.151,0,0,1,1.416-4.388,6.47,6.47,0,0,1,7.744-2.008,7.77,7.77,0,0,1,3.111,2.527,7.723,7.723,0,0,1,3.111-2.527,6.47,6.47,0,0,1,7.744,2.008,7.151,7.151,0,0,1,1.416,4.388c0,2.383-1.421,5-4.224,7.775a41.066,41.066,0,0,1-6.388,5.016,3.067,3.067,0,0,1-1.658.487ZM44.052,77.4a5.021,5.021,0,0,0-1.315.174,5.107,5.107,0,0,0-2.7,1.822A5.764,5.764,0,0,0,38.9,82.934c0,1.995,1.281,4.275,3.808,6.777a39.312,39.312,0,0,0,6.159,4.83,1.669,1.669,0,0,0,1.8,0,39.694,39.694,0,0,0,6.159-4.83c2.527-2.5,3.808-4.783,3.808-6.777A5.769,5.769,0,0,0,59.507,79.4a5.107,5.107,0,0,0-2.7-1.822c-1.919-.521-4.615.024-6.429,3.116a.7.7,0,0,1-1.211,0A5.922,5.922,0,0,0,44.052,77.4Z" transform="translate(-37.5 -75.992)"/></svg>