<svg xmlns="http://www.w3.org/2000/svg" width="28" height="28" viewBox="0 0 28 28"><defs><style>.a{fill:#707070;opacity:0;}.b{fill:#3f8f22;}</style></defs><g transform="translate(0 0.431)"><path class="a" d="M1,1V27H27V1H1M0,0H28V28H0Z" transform="translate(0 -0.431)"/><g transform="translate(2 2)"><path class="b" d="M12.292,0A12.292,12.292,0,1,0,24.584,12.292,12.34,12.34,0,0,0,12.292,0Zm0,20.935a1.44,1.44,0,1,1,1.44-1.44A1.44,1.44,0,0,1,12.292,20.935Zm2.552-9.478a2.472,2.472,0,0,0-1.112,1.9v.379a1.44,1.44,0,0,1-2.881,0v-.379A5.273,5.273,0,0,1,13.14,9.134a1.44,1.44,0,1,0-2.289-1.163,1.44,1.44,0,1,1-2.881,0,4.321,4.321,0,1,1,6.874,3.486Z"/></g></g></svg>