<svg xmlns="http://www.w3.org/2000/svg" width="256.5" height="1" viewBox="0 0 256.5 1"><defs><style>.a{fill:#dedede;}</style></defs><path class="a" d="M0,0H4A.5.5,0,1,1,4,1H0ZM7,0h4a.5.5,0,0,1,0,1H7A.5.5,0,0,1,7,0Zm7,0h4a.5.5,0,0,1,0,1H14a.5.5,0,0,1,0-1Zm7,0h4a.5.5,0,0,1,0,1H21a.5.5,0,0,1,0-1Zm7,0h4a.5.5,0,0,1,0,1H28a.5.5,0,0,1,0-1Zm7,0h4a.5.5,0,0,1,0,1H35a.5.5,0,0,1,0-1Zm7,0h4a.5.5,0,0,1,0,1H42a.5.5,0,0,1,0-1Zm7,0h4a.5.5,0,0,1,0,1H49a.5.5,0,0,1,0-1Zm7,0h4a.5.5,0,0,1,0,1H56a.5.5,0,0,1,0-1Zm7,0h4a.5.5,0,0,1,0,1H63a.5.5,0,0,1,0-1Zm7,0h4a.5.5,0,0,1,0,1H70a.5.5,0,0,1,0-1Zm7,0h4a.5.5,0,0,1,0,1H77a.5.5,0,0,1,0-1Zm7,0h4a.5.5,0,0,1,0,1H84a.5.5,0,0,1,0-1Zm7,0h4a.5.5,0,0,1,0,1H91a.5.5,0,0,1,0-1Zm7,0h4a.5.5,0,0,1,0,1H98a.5.5,0,0,1,0-1Zm7,0h4a.5.5,0,0,1,0,1h-4a.5.5,0,0,1,0-1Zm7,0h4a.5.5,0,0,1,0,1h-4a.5.5,0,0,1,0-1Zm7,0h4a.5.5,0,0,1,0,1h-4a.5.5,0,0,1,0-1Zm7,0h4a.5.5,0,0,1,0,1h-4a.5.5,0,0,1,0-1Zm7,0h4a.5.5,0,0,1,0,1h-4a.5.5,0,0,1,0-1Zm7,0h4a.5.5,0,0,1,0,1h-4a.5.5,0,0,1,0-1Zm7,0h4a.5.5,0,0,1,0,1h-4a.5.5,0,0,1,0-1Zm7,0h4a.5.5,0,0,1,0,1h-4a.5.5,0,0,1,0-1Zm7,0h4a.5.5,0,0,1,0,1h-4a.5.5,0,0,1,0-1Zm7,0h4a.5.5,0,0,1,0,1h-4a.5.5,0,0,1,0-1Zm7,0h4a.5.5,0,0,1,0,1h-4a.5.5,0,0,1,0-1Zm7,0h4a.5.5,0,0,1,0,1h-4a.5.5,0,0,1,0-1Zm7,0h4a.5.5,0,1,1,0,1h-4a.5.5,0,0,1,0-1Zm7,0h4a.5.5,0,0,1,0,1h-4a.5.5,0,0,1,0-1Zm7,0h4a.5.5,0,0,1,0,1h-4a.5.5,0,0,1,0-1Zm7,0h4a.5.5,0,0,1,0,1h-4a.5.5,0,0,1,0-1Zm7,0h4a.5.5,0,0,1,0,1h-4a.5.5,0,0,1,0-1Zm7,0h4a.5.5,0,0,1,0,1h-4a.5.5,0,0,1,0-1Zm7,0h4a.5.5,0,0,1,0,1h-4a.5.5,0,0,1,0-1Zm7,0h4a.5.5,0,0,1,0,1h-4a.5.5,0,0,1,0-1Zm7,0h4a.5.5,0,0,1,0,1h-4a.5.5,0,0,1,0-1Zm7,0h4a.5.5,0,0,1,0,1h-4a.5.5,0,0,1,0-1Z" transform="translate(0)"/></svg>