<svg xmlns="http://www.w3.org/2000/svg" width="27.144" height="27" viewBox="0 0 27.144 27"><defs><style>.a{fill:#cbcac7;opacity:0.762;}.b{fill:#f0efeb;}.c{fill:#00529e;}.d{fill:#c70c2f;}.e{fill:#28a032;}</style></defs><path class="a" d="M12.822,0A12.822,12.822,0,1,1,0,12.822,12.822,12.822,0,0,1,12.822,0Z" transform="translate(1.5 1.356)"/><path class="b" d="M25.644,12.822a12.775,12.775,0,1,1-.354-3A12.834,12.834,0,0,1,25.644,12.822Z" transform="translate(0)"/><path class="c" d="M14.7,94.866v15.653a3.093,3.093,0,0,1-2.383,3.01A12.85,12.85,0,0,1,7.409,107.1a12.613,12.613,0,0,0,1.759.262,9.886,9.886,0,0,0,2.532-.066,3.566,3.566,0,0,0,1.543-.6,2.066,2.066,0,0,0,.846-1.476,4,4,0,0,0,.022-.494c0-1.124,0-2.386,0-3.51H11.426c0,1.195.01,2.524,0,3.718a1.434,1.434,0,0,1-1.41,1.462,5.191,5.191,0,0,1-2.066-.321,8.477,8.477,0,0,1-.791-.328.3.3,0,0,1-.081-.062V97.958a3.09,3.09,0,0,1,3.092-3.092Z" transform="translate(-6.719 -90.115)"/><path class="d" d="M183.266,94.868a3.092,3.092,0,0,0-3.092,3.092v4.091l.011.007c.016-.012.035-.024.053-.038a3.518,3.518,0,0,1,.9-.508,7.041,7.041,0,0,1,2.361-.436,12.4,12.4,0,0,1,3.392.361c.1.023.114.059.113.147q-.007.548,0,1.1c0,.089-.02.1-.1.061a5.31,5.31,0,0,0-.8-.341,4.859,4.859,0,0,0-2.48-.246,1.909,1.909,0,0,0-1.586,1.339,2.53,2.53,0,0,0,0,1.509,1.809,1.809,0,0,0,.979,1.147,2.546,2.546,0,0,0,.987.247,5.706,5.706,0,0,0,2.738-.57,1.785,1.785,0,0,1,.259-.11c0,.417,0,.826,0,1.234,0,.069-.031.086-.085.1a13.55,13.55,0,0,1-1.771.31,11.041,11.041,0,0,1-2.552-.019,4.746,4.746,0,0,1-2.42-.917v7.189h4.533a3.092,3.092,0,0,0,3.092-3.092V94.868Z" transform="translate(-171.15 -90.117)"/><g transform="translate(17.664 4.751)"><path class="e" d="M360.31,94.866v11.075a12.838,12.838,0,0,1-5.362,7.67h-2.263v-6.365s3.208,0,4.756.007a2.569,2.569,0,0,0,1.291-.295,1.418,1.418,0,0,0,.663-1.81,1.572,1.572,0,0,0-.972-.833,3.645,3.645,0,0,0-.7-.158,2.752,2.752,0,0,0,.595-.185,1.336,1.336,0,0,0,.818-1.218,1.287,1.287,0,0,0-.744-1.251,2.143,2.143,0,0,0-.738-.227,5.892,5.892,0,0,0-.787-.043l-4.185.006v-3.28a3.092,3.092,0,0,1,3.092-3.092Z" transform="translate(-352.685 -94.866)"/><path class="e" d="M384.736,242.208a.74.74,0,0,0,.747-.752.727.727,0,0,0-.724-.744c-.27-.014-1.717,0-1.717,0v1.5S384.2,242.221,384.736,242.208Z" transform="translate(-381.522 -233.401)"/><path class="e" d="M383.026,290.909s1.212,0,1.766,0a1.125,1.125,0,0,0,.349-.042.826.826,0,0,0-.24-1.6c-.287,0-1.875,0-1.875,0Z" transform="translate(-381.505 -279.523)"/></g></svg>