<svg xmlns="http://www.w3.org/2000/svg" width="22.781" height="22.781" viewBox="0 0 22.781 22.781"><defs><style>.a{fill:#3f8f22;}</style></defs><path class="a" d="M13.371,2.6a3.508,3.508,0,0,0,2.191-.791A6.907,6.907,0,0,0,17.355-.416a13.465,13.465,0,0,0,1.219-3.363,18.657,18.657,0,0,0,.445-4.2,19.054,19.054,0,0,0-.439-4.213,13.147,13.147,0,0,0-1.219-3.375,7.04,7.04,0,0,0-1.8-2.232,3.492,3.492,0,0,0-2.191-.8,3.492,3.492,0,0,0-2.191.8,6.976,6.976,0,0,0-1.793,2.232A13.147,13.147,0,0,0,8.18-12.193,19.3,19.3,0,0,0,7.746-7.98a19.141,19.141,0,0,0,.434,4.2A13.163,13.163,0,0,0,9.387-.416a6.867,6.867,0,0,0,1.8,2.227A3.516,3.516,0,0,0,13.371,2.6Zm0-19.793a2.177,2.177,0,0,1,1.553.738,6.772,6.772,0,0,1,1.307,2.021,13.942,13.942,0,0,1,.908,2.941,17.751,17.751,0,0,1,.334,3.51,17.565,17.565,0,0,1-.334,3.475,13.942,13.942,0,0,1-.908,2.941A6.772,6.772,0,0,1,14.924.457a2.177,2.177,0,0,1-1.553.738A2.194,2.194,0,0,1,11.83.457a6.637,6.637,0,0,1-1.318-2.021A13.942,13.942,0,0,1,9.6-4.506,17.565,17.565,0,0,1,9.27-7.98,17.751,17.751,0,0,1,9.6-11.49a13.942,13.942,0,0,1,.908-2.941,6.637,6.637,0,0,1,1.318-2.021A2.194,2.194,0,0,1,13.371-17.191Zm-.75-1.254V2.391h1.512V-18.445Zm.75,14.438a17.832,17.832,0,0,0-3.258.287,13.363,13.363,0,0,0-2.777.809,7.033,7.033,0,0,0-2,1.225L6.48-.727a6.805,6.805,0,0,1,1.77-.967,11.675,11.675,0,0,1,2.326-.6A17.894,17.894,0,0,1,13.371-2.5a17.976,17.976,0,0,1,2.807.205,11.675,11.675,0,0,1,2.326.6,6.6,6.6,0,0,1,1.758.967l1.148-.961a6.853,6.853,0,0,0-1.992-1.225,13.363,13.363,0,0,0-2.777-.809A17.9,17.9,0,0,0,13.371-4.008Zm10.2-4.746H3.188v1.5H23.566Zm-10.2-3.2a18.262,18.262,0,0,0,3.27-.281,12.9,12.9,0,0,0,2.777-.809,6.945,6.945,0,0,0,1.992-1.23l-1.148-.949a6.938,6.938,0,0,1-1.758.961,11.166,11.166,0,0,1-2.326.6,18.5,18.5,0,0,1-2.807.2,18.294,18.294,0,0,1-2.789-.2,11.3,11.3,0,0,1-2.326-.6,7.133,7.133,0,0,1-1.775-.961l-1.148.949a7.129,7.129,0,0,0,2,1.23,12.9,12.9,0,0,0,2.777.809A18.193,18.193,0,0,0,13.371-11.953Zm0,15.34a10.933,10.933,0,0,0,4.406-.9A11.665,11.665,0,0,0,21.41.023,11.6,11.6,0,0,0,23.871-3.6,10.953,10.953,0,0,0,24.762-8a10.953,10.953,0,0,0-.891-4.4A11.623,11.623,0,0,0,21.4-16.037,11.6,11.6,0,0,0,17.766-18.5a11,11,0,0,0-4.406-.891,10.937,10.937,0,0,0-4.383.891,11.6,11.6,0,0,0-3.639,2.467A11.623,11.623,0,0,0,2.871-12.4,10.953,10.953,0,0,0,1.98-8a10.891,10.891,0,0,0,.9,4.4A11.685,11.685,0,0,0,5.344.023,11.665,11.665,0,0,0,8.977,2.49,10.9,10.9,0,0,0,13.371,3.387Zm0-1.664A9.329,9.329,0,0,1,9.621.961a9.992,9.992,0,0,1-3.105-2.1,9.772,9.772,0,0,1-2.1-3.105A9.433,9.433,0,0,1,3.656-8a9.391,9.391,0,0,1,.756-3.75,9.86,9.86,0,0,1,2.1-3.105,9.962,9.962,0,0,1,3.1-2.109,9.288,9.288,0,0,1,3.744-.762,9.358,9.358,0,0,1,3.762.762,9.943,9.943,0,0,1,3.105,2.109,9.943,9.943,0,0,1,2.109,3.105A9.329,9.329,0,0,1,23.1-8a9.371,9.371,0,0,1-.762,3.756,9.9,9.9,0,0,1-2.1,3.105,9.9,9.9,0,0,1-3.105,2.1A9.371,9.371,0,0,1,13.371,1.723Z" transform="translate(-1.98 19.395)"/></svg>