<svg xmlns="http://www.w3.org/2000/svg" xmlns:xlink="http://www.w3.org/1999/xlink" width="15.181" height="23.354" viewBox="0 0 15.181 23.354"><defs><style>.a{fill:#469a09;stroke:#469a21;stroke-linecap:round;stroke-linejoin:round;}.b{filter:url(#a);}</style><filter id="a" x="0" y="0" width="15.181" height="23.354" filterUnits="userSpaceOnUse"><feOffset dy="0.2" input="SourceAlpha"/><feGaussianBlur stdDeviation="0.5" result="b"/><feFlood flood-opacity="0.161"/><feComposite operator="in" in2="b"/><feComposite in="SourceGraphic"/></filter></defs><g class="b" transform="matrix(1, 0, 0, 1, 0, 0)"><path class="a" d="M.3,8.922,8.707.309a1.018,1.018,0,0,1,1.461,0l.619.634a1.079,1.079,0,0,1,0,1.5L3.729,9.673,10.8,16.914a1.08,1.08,0,0,1,0,1.5l-.619.634a1.018,1.018,0,0,1-1.461,0L.3,10.425a1.087,1.087,0,0,1,0-1.5Z" transform="translate(2 1.8)"/></g></svg>