<svg xmlns="http://www.w3.org/2000/svg" width="37" height="35" viewBox="0 0 37 35"><defs><style>.a{fill:#fff;}.b{fill:#235a0a;}.c{fill:#469a21;}</style></defs><g transform="translate(-13 -204)"><path class="a" d="M18.5,0C28.717,0,37,7.835,37,17.5S28.717,35,18.5,35,0,27.165,0,17.5,8.283,0,18.5,0Z" transform="translate(13 204)"/><path class="b" d="M21.6,10.373,14.054,2.551c-.661-.685-1.7-.129-1.7.935v4.12C5.463,7.7,0,9.358,0,17.192a11.208,11.208,0,0,0,3.574,7.933c.586.511,1.42-.13,1.2-.959-1.945-7.464.922-9.445,7.574-9.56v4.525c0,1.065,1.042,1.619,1.7.935L21.6,12.243A1.4,1.4,0,0,0,21.6,10.373Z" transform="translate(22 208.75)"/><path class="c" d="M21.6,10.373,14.054,2.551c-.661-.685-1.7-.129-1.7.935v4.12C5.463,7.7,0,9.358,0,17.192a11.208,11.208,0,0,0,3.574,7.933c.586.511,1.42-.13,1.2-.959-1.945-7.464.922-9.445,7.574-9.56v4.525c0,1.065,1.042,1.619,1.7.935L21.6,12.243A1.4,1.4,0,0,0,21.6,10.373Z" transform="translate(21 207.75)"/></g></svg>