<svg xmlns="http://www.w3.org/2000/svg" width="15.085" height="15.086" viewBox="0 0 15.085 15.086"><defs><style>.a{fill:#5b5353;}.b{fill:#ffd54f;}.c{fill:silver;}.d{fill:#758f9b;}</style></defs><g transform="translate(-4.769 -5.004)"><path class="a" d="M230.969,93.148a2.317,2.317,0,0,1-1.649-.683l-.408-.408a2.332,2.332,0,0,1,0-3.3l3.276-3.276a2.332,2.332,0,0,1,3.3,0l.408.408a2.335,2.335,0,0,1,0,3.3h0l-3.276,3.276A2.317,2.317,0,0,1,230.969,93.148Zm2.868-6.885a.867.867,0,0,0-.615.254l-3.276,3.276a.87.87,0,0,0,0,1.229l.408.408a.869.869,0,0,0,1.23,0l3.276-3.276h0a.87.87,0,0,0,0-1.229l-.408-.408A.867.867,0,0,0,233.837,86.263Z" transform="translate(-216.723 -79.796)"/><path class="b" d="M253.931,103.932l-.227-.227-1.034,1.034.227.227a.87.87,0,0,1,0,1.229h0l-3.276,3.276a.869.869,0,0,1-1.23,0l-.227-.227-1.034,1.034.227.227a2.332,2.332,0,0,0,3.3,0l3.276-3.276h0A2.335,2.335,0,0,0,253.931,103.932Z" transform="translate(-234.76 -97.837)"/><path class="b" d="M83.572,240.569a2.317,2.317,0,0,1-1.649-.683l-.408-.408a2.335,2.335,0,0,1,0-3.3l3.276-3.276a2.332,2.332,0,0,1,3.3,0l.408.408a2.335,2.335,0,0,1,0,3.3l-3.276,3.276A2.317,2.317,0,0,1,83.572,240.569Zm2.868-6.885a.867.867,0,0,0-.615.254l-3.276,3.276a.87.87,0,0,0,0,1.23l.408.408a.87.87,0,0,0,1.229,0l3.276-3.276h0a.87.87,0,0,0,0-1.229l-.408-.408A.867.867,0,0,0,86.44,233.684Z" transform="translate(-76.064 -220.479)"/><g transform="translate(4.769 5.868)"><path class="a" d="M253.931,103.932l-.227-.227-1.034,1.034.227.227a.87.87,0,0,1,0,1.229h0l-3.276,3.276a.869.869,0,0,1-1.23,0l-.227-.227-1.034,1.034.227.227a2.332,2.332,0,0,0,3.3,0l3.276-3.276h0A2.335,2.335,0,0,0,253.931,103.932Z" transform="translate(-239.529 -103.705)"/><path class="a" d="M83.572,240.569a2.317,2.317,0,0,1-1.649-.683l-.408-.408a2.335,2.335,0,0,1,0-3.3l3.276-3.276a2.332,2.332,0,0,1,3.3,0l.408.408a2.335,2.335,0,0,1,0,3.3l-3.276,3.276A2.317,2.317,0,0,1,83.572,240.569Zm2.868-6.885a.867.867,0,0,0-.615.254l-3.276,3.276a.87.87,0,0,0,0,1.23l.408.408a.87.87,0,0,0,1.229,0l3.276-3.276h0a.87.87,0,0,0,0-1.229l-.408-.408A.867.867,0,0,0,86.44,233.684Z" transform="translate(-80.833 -226.347)"/></g><path class="a" d="M106.286,251.124l-1.034,1.034.227.227a.87.87,0,0,1,0,1.23h0l-3.276,3.276a.87.87,0,0,1-1.229,0l-.227-.227L99.712,257.7l.227.227a2.332,2.332,0,0,0,3.3,0l3.276-3.276a2.335,2.335,0,0,0,0-3.3Z" transform="translate(-94.08 -238.518)"/><path class="c" d="M0,0H1.463V4.852H0Z" transform="translate(11.065 14.853) rotate(-135)"/><path class="d" d="M0,0H.782V4.852H0Z" transform="translate(13.943 10.87) rotate(45)"/></g></svg>