<svg xmlns="http://www.w3.org/2000/svg" width="27.183" height="27.011" viewBox="0 0 27.183 27.011"><defs><style>.a{fill:#cbcac7;opacity:0.762;}.b{fill:#f0efeb;}.c{fill:#ee0005;}.d{fill:#f9a000;}.e{fill:#ff6300;}.f{fill:#171614;}</style></defs><path class="a" d="M13.249,0A13.249,13.249,0,1,1,0,13.249,13.249,13.249,0,0,1,13.249,0Z" transform="translate(0.684 0.513)"/><g transform="translate(0 0)"><path class="b" d="M25.644,12.822A12.822,12.822,0,0,1,2.786,20.8q-.258-.324-.5-.665a12.822,12.822,0,1,1,23.354-7.315Z" transform="translate(0)"/><circle class="c" cx="6.609" cy="6.609" r="6.609" transform="translate(2.107 3.961)"/><circle class="d" cx="6.609" cy="6.609" r="6.609" transform="translate(10.318 3.961)"/><path class="e" d="M206.012,112.82a6.6,6.6,0,0,0,2.5,5.179,6.609,6.609,0,0,0,0-10.358A6.6,6.6,0,0,0,206.012,112.82Z" transform="translate(-195.694 -102.25)"/><g transform="translate(2.29 17.86)"><path class="f" d="M48.151,382.6a.8.8,0,0,0-.712.472.677.677,0,0,0-.619-.472.7.7,0,0,0-.627.359v-.17c0-.094-.1-.16-.222-.16-.146,0-.245.066-.245.16v.786q.237.341.5.665v-.71a.45.45,0,0,1,.439-.491.456.456,0,0,1,.439.486v1.18c0,.113.132.16.245.16s.25-.047.25-.16V383.52a.444.444,0,1,1,.883.009V384.7c0,.08.118.165.245.165s.25-.085.25-.165v-1.171A.849.849,0,0,0,48.151,382.6Z" transform="translate(-45.725 -381.297)"/><path class="f" d="M118.572,382.6c-.321,0-.713.132-.713.3,0,.113.062.25.18.25.094,0,.18-.142.524-.142a.46.46,0,0,1,.467.51v.085h-.208c-.656,0-1.1.142-1.1.675a.58.58,0,0,0,.627.623.925.925,0,0,0,.713-.368v.165c0,.09.1.165.227.165s.241-.075.241-.165v-1.185A.859.859,0,0,0,118.572,382.6Zm.458,1.453a.549.549,0,0,1-.505.472.28.28,0,0,1-.307-.307c0-.3.335-.34.693-.34h.118Z" transform="translate(-114.112 -381.297)"/><path class="f" d="M161.746,383.255c0-.118.1-.274.382-.274s.411.137.51.137c.118,0,.189-.17.189-.241,0-.151-.354-.278-.708-.278-.595,0-.807.354-.807.679,0,.783,1.138.491,1.138.986,0,.127-.09.255-.4.255-.406,0-.5-.217-.627-.217-.1,0-.17.137-.17.222,0,.179.345.377.812.377.533,0,.831-.255.831-.656C162.892,383.4,161.746,383.67,161.746,383.255Z" transform="translate(-155.464 -381.296)"/><path class="f" d="M202.854,365.552h-.165c-.245,0-.33-.085-.33-.312v-1.132h.576c.085,0,.137-.09.137-.184s-.052-.184-.137-.184h-.576v-.864c0-.094-.128-.16-.25-.16s-.245.066-.245.16v2.364c0,.514.288.736.826.736h.165a.212.212,0,0,0,0-.424Z" transform="translate(-194.043 -362.409)"/><path class="f" d="M232.942,384.322c-.128,0-.241.18-.576.18-.364,0-.614-.2-.614-.514v-.109h1c.212,0,.43-.014.43-.406a.9.9,0,0,0-.939-.873.957.957,0,0,0-.982.915v.449a.978.978,0,0,0,1.1.939c.476,0,.783-.217.783-.358C233.136,384.459,233.06,384.322,232.942,384.322Zm-1.19-.9a.48.48,0,0,1,.958.009c0,.113-.038.141-.175.141h-.783v-.151Z" transform="translate(-221.965 -381.297)"/><path class="f" d="M278.837,382.6h-.151a.7.7,0,0,0-.6.4v-.208c0-.094-.1-.16-.227-.16-.141,0-.241.066-.241.16V384.7c0,.08.1.165.241.165s.255-.085.255-.165v-.968a.63.63,0,0,1,.571-.694h.151a.222.222,0,0,0,0-.439Z" transform="translate(-266.005 -381.297)"/><path class="f" d="M311.556,384.308c-.108,0-.184.156-.5.156a.456.456,0,0,1-.524-.5v-.425a.457.457,0,0,1,.519-.5c.3,0,.387.146.486.146.118,0,.2-.146.2-.241,0-.165-.293-.344-.722-.344a.878.878,0,0,0-.977.939v.425a.875.875,0,0,0,.981.939c.434,0,.746-.193.746-.359A.235.235,0,0,0,311.556,384.308Z" transform="translate(-296.803 -381.297)"/><path class="f" d="M349.714,382.6c-.321,0-.713.132-.713.3,0,.113.062.25.18.25.095,0,.18-.142.524-.142a.46.46,0,0,1,.467.51v.085h-.208c-.656,0-1.1.142-1.1.675a.58.58,0,0,0,.627.623.924.924,0,0,0,.713-.368v.165c0,.09.1.165.227.165s.241-.075.241-.165v-1.185A.859.859,0,0,0,349.714,382.6Zm.458,1.453a.549.549,0,0,1-.505.472.28.28,0,0,1-.307-.307c0-.3.335-.34.693-.34h.118v.175Z" transform="translate(-333.677 -381.297)"/><path class="f" d="M396.251,382.6H396.1a.7.7,0,0,0-.6.4v-.208c0-.094-.1-.16-.227-.16-.142,0-.241.066-.241.16V384.7c0,.08.1.165.241.165s.255-.085.255-.165v-.968a.63.63,0,0,1,.571-.694h.151a.222.222,0,0,0,0-.439Z" transform="translate(-377.539 -381.297)"/><path class="f" d="M428.966,356.592c-.141,0-.25.066-.25.16v1.5a.7.7,0,0,0-.613-.358.9.9,0,0,0-.845.929v.434a.919.919,0,0,0,.831.939c.022,0,.043,0,.065,0a12.854,12.854,0,0,0,1.058-1.325v-2.117C429.212,356.658,429.108,356.592,428.966,356.592Zm-.25,2.775a.536.536,0,0,1-.486.392.505.505,0,0,1-.476-.5v-.434a.5.5,0,0,1,.481-.491.482.482,0,0,1,.481.491Z" transform="translate(-408.149 -356.592)"/></g></g></svg>