<svg xmlns="http://www.w3.org/2000/svg" width="68.818" height="68.818" viewBox="0 0 68.818 68.818"><defs><style>.a{fill:#d4d4d4;}.b{fill:#3d3838;}.c{fill:#ffcf54;}</style></defs><path class="a" d="M32.913,2A30.885,30.885,0,0,0,2,32.913V35.9A30.885,30.885,0,0,0,32.913,66.818H35.9A30.885,30.885,0,0,0,66.818,35.9V32.913A30.885,30.885,0,0,0,35.9,2H32.913m0-2H35.9A32.913,32.913,0,0,1,68.818,32.913V35.9A32.913,32.913,0,0,1,35.9,68.818H32.913A32.913,32.913,0,0,1,0,35.9V32.913A32.913,32.913,0,0,1,32.913,0Z"/><path class="b" d="M29.921.324c16.525,0,29.921,12.911,29.921,29.436A29.921,29.921,0,1,1,0,29.76C0,13.235,13.4.324,29.921.324Z" transform="translate(4.488 4.649)"/><g transform="translate(16.137 15.96)"><path class="c" d="M34.923,3.921l-6.5,6.841v-.318a7.944,7.944,0,0,0-15.889,0V20.479a7.855,7.855,0,0,0,1.522,4.65l-.594.594a8.735,8.735,0,0,1-1.756-5.252,1.254,1.254,0,0,0-2.509,0,11.233,11.233,0,0,0,2.475,7.041L4.145,35a1.247,1.247,0,0,0,0,1.773,1.252,1.252,0,0,0,1.773,0l7.52-7.481a11.263,11.263,0,0,0,5.787,2.4V35.95H13.789a1.254,1.254,0,1,0,0,2.509h13.38a1.254,1.254,0,1,0,0-2.509H21.733V31.693A11.3,11.3,0,0,0,31.768,20.479a1.254,1.254,0,0,0-2.509,0A8.768,8.768,0,0,1,15.227,27.5l.594-.594a7.939,7.939,0,0,0,12.6-6.431V14.307L36.7,5.694a1.254,1.254,0,0,0-1.773-1.773Z" transform="translate(-2.498 -2.497)"/></g></svg>