<svg xmlns="http://www.w3.org/2000/svg" width="41.919" height="47.092" viewBox="0 0 41.919 47.092"><defs><style>.a{fill:#3d3838;}</style></defs><path class="a" d="M4850.2,17668.83h-9.553a3.653,3.653,0,0,1-2.373-6.428,1.264,1.264,0,0,1,.168-.123,14.043,14.043,0,0,0,4.817-10.58v-5.824a14.627,14.627,0,0,1,14.607-14.611,6.066,6.066,0,0,1,1.029.063,1.561,1.561,0,0,1,1.18.926,10.435,10.435,0,1,1,11.9,16.02,1.558,1.558,0,0,1,.506,1.152v2.275a14.034,14.034,0,0,0,4.822,10.584,1.291,1.291,0,0,1,.16.125,3.649,3.649,0,0,1-2.373,6.422h-9.548a7.827,7.827,0,0,1-15.339,0Zm7.667,3.133a4.7,4.7,0,0,0,4.429-3.133h-8.858A4.707,4.707,0,0,0,4857.871,17671.963Zm17.22-6.26a.531.531,0,0,0,.523-.523.508.508,0,0,0-.115-.324.932.932,0,0,1-.089-.07,17.166,17.166,0,0,1-6.059-13.086v-2.275a1.577,1.577,0,0,1,.118-.6q-.488.047-.987.047a10.435,10.435,0,0,1-9.633-14.453,1.478,1.478,0,0,1-.463-.008,3.481,3.481,0,0,0-.514-.018,11.5,11.5,0,0,0-11.48,11.48v5.824a17.16,17.16,0,0,1-6.059,13.086.932.932,0,0,1-.089.07.507.507,0,0,0-.111.324.527.527,0,0,0,.519.523h34.44Zm-13.915-27.268a7.306,7.306,0,1,0,7.306-7.3A7.312,7.312,0,0,0,4861.176,17638.436Z" transform="translate(-4837 -17628.002)"/></svg>