<svg xmlns="http://www.w3.org/2000/svg" width="28" height="28" viewBox="0 0 28 28"><defs><style>.a{fill:none;}.b,.c{fill:#3f8f22;}.b{fill-rule:evenodd;}.d{fill:#707070;opacity:0;}</style></defs><g transform="translate(3.68 3.5)"><rect class="a" width="20" height="20" transform="translate(0.366)"/><path class="b" d="M19.076,17.82H12.712a2.546,2.546,0,0,1-5.092,0H1.256A1.223,1.223,0,0,1,.11,16.929a1.359,1.359,0,0,1,.382-1.4,5.124,5.124,0,0,0,2.037-4.073V7.637a7.637,7.637,0,0,1,15.275,0v3.819a5.124,5.124,0,0,0,2.037,4.073,1.205,1.205,0,0,1,.382,1.4A1.223,1.223,0,0,1,19.076,17.82Z" transform="translate(-0.063)"/><path class="c" d="M10.166,21.366a3.552,3.552,0,0,1-3.4-2.546H1.256A2.232,2.232,0,0,1-.86,17.172a2.34,2.34,0,0,1,.753-2.444,4.126,4.126,0,0,0,1.636-3.272V7.637a8.628,8.628,0,0,1,14.738-6.1,8.576,8.576,0,0,1,2.536,6.1v3.819a4.132,4.132,0,0,0,1.661,3.292,1,1,0,0,1,.082.074,2.185,2.185,0,0,1,.615,2.456,2.237,2.237,0,0,1-2.086,1.542H13.568A3.552,3.552,0,0,1,10.166,21.366ZM1.1,16.326a.655.655,0,0,0-.015.36.242.242,0,0,0,.175.134H7.62a1,1,0,0,1,1,1,1.546,1.546,0,1,0,3.092,0,1,1,0,0,1,1-1h6.364a.242.242,0,0,0,.175-.134,1,1,0,0,1,.069-.191.712.712,0,0,0-.156-.227A6.14,6.14,0,0,1,16.8,11.456V7.637a6.637,6.637,0,0,0-13.275,0v3.819A6.148,6.148,0,0,1,1.117,16.31Z" transform="translate(-0.063)"/></g><path class="d" d="M1,1V27H27V1H1M0,0H28V28H0Z"/></svg>