<svg xmlns="http://www.w3.org/2000/svg" xmlns:xlink="http://www.w3.org/1999/xlink" width="100" height="98" viewBox="0 0 100 98"><defs><style>.a{fill:#469a21;}.b{fill:#fff;}.c{filter:url(#c);}.d{filter:url(#a);}</style><filter id="a" x="0" y="0" width="100" height="98" filterUnits="userSpaceOnUse"><feOffset dx="-5" dy="3" input="SourceAlpha"/><feGaussianBlur stdDeviation="3" result="b"/><feFlood flood-opacity="0.161"/><feComposite operator="in" in2="b"/><feComposite in="SourceGraphic"/></filter><filter id="c" x="26.78" y="33.76" width="49.12" height="32.48" filterUnits="userSpaceOnUse"><feOffset dy="3" input="SourceAlpha"/><feGaussianBlur stdDeviation="3" result="d"/><feFlood flood-opacity="0.161"/><feComposite operator="in" in2="d"/><feComposite in="SourceGraphic"/></filter></defs><g transform="translate(-257 -305)"><g class="d" transform="matrix(1, 0, 0, 1, 257, 305)"><path class="a" d="M32,0H44A38,38,0,0,1,82,38v4A38,38,0,0,1,44,80H25A25,25,0,0,1,0,55V32A32,32,0,0,1,32,0Z" transform="translate(14 6)"/></g><g class="c" transform="matrix(1, 0, 0, 1, 257, 305)"><path class="b" d="M8.44.24C12.84.24,16.1-2.82,16.1-7s-3.26-7.24-7.66-7.24C4.02-14.24.78-11.16.78-7S4.02.24,8.44.24Zm0-2.76A4.271,4.271,0,0,1,4.06-7a4.271,4.271,0,0,1,4.38-4.48A4.271,4.271,0,0,1,12.82-7,4.271,4.271,0,0,1,8.44-2.52ZM28.12,0H31.9L25.76-7.76,31.56-14h-3.6l-6.2,6.54V-14H18.54V0h3.22V-3.54L23.64-5.5Z" transform="translate(35 54)"/></g></g></svg>