<svg xmlns="http://www.w3.org/2000/svg" xmlns:xlink="http://www.w3.org/1999/xlink" width="100" height="98" viewBox="0 0 100 98"><defs><style>.a{fill:#fff;}.b{fill:#21a323;}.c{filter:url(#a);}</style><filter id="a" x="0" y="0" width="100" height="98" filterUnits="userSpaceOnUse"><feOffset dx="-5" dy="3" input="SourceAlpha"/><feGaussianBlur stdDeviation="3" result="b"/><feFlood flood-opacity="0.161"/><feComposite operator="in" in2="b"/><feComposite in="SourceGraphic"/></filter></defs><g transform="translate(-40.076 -49.076)"><g class="c" transform="matrix(1, 0, 0, 1, 40.08, 49.08)"><path class="a" d="M32,0H44A38,38,0,0,1,82,38v4A38,38,0,0,1,44,80H25A25,25,0,0,1,0,55V32A32,32,0,0,1,32,0Z" transform="translate(14 6)"/></g><path class="b" d="M2806.072,14562.077h0a30.034,30.034,0,0,1-30-30q0-.873.05-1.733a30.035,30.035,0,0,1,29.948-28.268h0a30,30,0,1,1,0,60Zm-4.612-17.308h.15a4.691,4.691,0,0,0,.643-.069,4.642,4.642,0,0,0,1.395-.485,4.575,4.575,0,0,0,1.281-1.024l1.144-1.309v0l0,0,15.009-17.154a4.615,4.615,0,0,0-3.464-7.649,4.653,4.653,0,0,0-3.483,1.575l-8.062,9.214-4.842,5.529h0l0,0-5.738-5.741a4.617,4.617,0,0,0-3.264-1.352h-.111a4.61,4.61,0,0,0-2.424.757l-.008,0-.05.033a4.64,4.64,0,0,0-.668.556,4.606,4.606,0,0,0,0,6.527l9.228,9.231a4.725,4.725,0,0,0,.612.515,4.615,4.615,0,0,0,2.289.823l.019,0h.014Q2801.293,14544.77,2801.46,14544.77Z" transform="translate(-2711 -14437)"/></g></svg>