<svg xmlns="http://www.w3.org/2000/svg" xmlns:xlink="http://www.w3.org/1999/xlink" width="100" height="98" viewBox="0 0 100 98"><defs><style>.a{fill:#fff;}.b{fill:#d62929;}.c{filter:url(#a);}</style><filter id="a" x="0" y="0" width="100" height="98" filterUnits="userSpaceOnUse"><feOffset dx="-5" dy="3" input="SourceAlpha"/><feGaussianBlur stdDeviation="3" result="b"/><feFlood flood-opacity="0.161"/><feComposite operator="in" in2="b"/><feComposite in="SourceGraphic"/></filter></defs><g transform="translate(-257 -305)"><g class="c" transform="matrix(1, 0, 0, 1, 257, 305)"><path class="a" d="M32,0H44A38.063,38.063,0,0,1,72.089,12.407,37.677,37.677,0,0,1,82,38v4A38.068,38.068,0,0,1,69.287,70.366,37.667,37.667,0,0,1,44,80H25A25.1,25.1,0,0,1,6.044,71.3,24.71,24.71,0,0,1,0,55V32A32.087,32.087,0,0,1,13.254,6.063,31.645,31.645,0,0,1,32,0Z" transform="translate(14 6)"/></g><path class="b" d="M33,3A30,30,0,1,0,63,33,30.011,30.011,0,0,0,33,3Zm3,45a4.562,4.562,0,0,1-6,0,4.563,4.563,0,0,1,0-6,4.563,4.563,0,0,1,6,0A4.563,4.563,0,0,1,36,48Zm0-12s-1.5,2.39-3,2.39S30,36,30,36s-1.5-13.5,0-18c.654-1.962.9-3.413,2.876-3.37S35.154,15.462,36,18C37.5,22.5,36,36,36,36Z" transform="translate(279 318)"/></g></svg>