<svg xmlns="http://www.w3.org/2000/svg" width="19.639" height="28.407" viewBox="0 0 19.639 28.407"><defs><style>.a{fill:#296f0a;}.b{fill:#469a21;}</style></defs><g transform="translate(-12.012 -8)"><path class="a" d="M170.234,11.461h-.684V7.018c0-3.87-3.463-7.018-7.718-7.018s-7.719,3.148-7.719,7.018v4.442h-.684a1.357,1.357,0,0,0-1.416,1.288V26.119a1.357,1.357,0,0,0,1.416,1.288h16.806a1.357,1.357,0,0,0,1.416-1.288V12.749A1.357,1.357,0,0,0,170.234,11.461Zm-3.517,0h-9.771V7.018a4.908,4.908,0,0,1,9.771,0Z" transform="translate(-140 9)"/><path class="b" d="M168.581,11.461h-.622V7.018a7.018,7.018,0,1,0-14.037,0v4.442H153.3a1.288,1.288,0,0,0-1.288,1.288V26.119a1.288,1.288,0,0,0,1.288,1.288h15.281a1.288,1.288,0,0,0,1.288-1.288V12.749A1.288,1.288,0,0,0,168.581,11.461Zm-3.2,0H156.5V7.018a4.442,4.442,0,0,1,8.885,0Z" transform="translate(-139.958 8)"/></g></svg>