<?xml version="1.0" encoding="utf-8"?>
<!-- Generator: Adobe Illustrator 24.3.0, SVG Export Plug-In . SVG Version: 6.00 Build 0)  -->
<svg version="1.1" id="Layer_1" xmlns="http://www.w3.org/2000/svg" xmlns:xlink="http://www.w3.org/1999/xlink" x="0px" y="0px"
	 viewBox="0 0 21.4 28.4" style="enable-background:new 0 0 21.4 28.4;" xml:space="preserve">
<style type="text/css">
	.st0{fill:#469A09;stroke:#469A21;stroke-width:0.2;stroke-linecap:round;}
</style>
<path class="st0" d="M1.6,28.3c-0.8,0-1.5-0.7-1.5-1.5c0,0,0-23.2,0-23.2C0,2.7,0.6,1.7,1.6,1.8c0,0,5.3,0,5.3,0
	C7.2,1.5,7.5,1.4,7.7,1C8,0.4,8.5,0.1,9.1,0.1h3.1c0.6,0,1.2,0.3,1.4,0.9c0.2,0.4,0.6,0.6,0.8,0.8h5.3c0.8,0,1.5,0.7,1.5,1.5v23.5
	c0,0.8-0.7,1.5-1.5,1.5L1.6,28.3z M0.9,26.8c0,0.4,0.3,0.7,0.7,0.7h18.2c1,0,0.6-1.3,0.7-1.9H0.9L0.9,26.8z M20.5,24.7V3.3
	c0-0.4-0.3-0.7-0.7-0.7h-4.7c0.1,0.2,0.1,0.5,0.1,0.8c0,0.5-0.4,0.9-0.9,0.9c0,0-7.4,0-7.4,0c-0.9,0-1-1-0.7-1.7H1.6
	c-0.4,0-0.7,0.3-0.7,0.7v0.3c0,0,0,0,0,0c0,0,0,21.1,0,21.1L20.5,24.7L20.5,24.7z M8.4,1.3C8,2.4,6.9,2.3,7,3.4h7.4
	c0.1-1.1-0.9-1.1-1.4-2.1c-0.1-0.3-0.4-0.4-0.7-0.4H9.1C8.8,0.9,8.6,1.1,8.4,1.3L8.4,1.3z M11.8,24.1c-0.6,0-1.1-0.5-1.1-1.1v-5
	c0-0.6,0.4-1,0.9-1.1v-0.7c-0.1-0.8,0.5-1.5,1.4-1.6h4.6c0.8,0.1,1.4,0.8,1.4,1.6v0.7c0.5,0.2,0.8,0.6,0.8,1.1v5
	c0,0.6-0.5,1.1-1.1,1.1H11.8z M14,19.9c0,0.5,0.3,0.9,0.8,1.1v0.8c0,0.2,0.2,0.4,0.4,0.4c0.2,0,0.4-0.2,0.4-0.4v-0.8
	c0.5-0.2,0.8-0.6,0.8-1.1c0-0.6-0.5-1.2-1.1-1.1C14.5,18.7,14,19.2,14,19.9C14,19.8,14,19.8,14,19.9L14,19.9z M18.2,16.8v-0.7
	c0-0.4-0.3-0.8-0.7-0.8h-4.6c-0.4,0-0.7,0.4-0.7,0.8v0.6C15.9,16.8,12.4,16.8,18.2,16.8L18.2,16.8z M2.9,20.3c-0.5,0-0.5-0.8,0-0.8
	c0,0,5.7,0,5.7,0c0.2,0,0.4,0.2,0.4,0.4c0,0.2-0.2,0.4-0.4,0.4H2.9z M2.9,18.1c-0.5,0-0.5-0.8,0-0.8c0,0,5.7,0,5.7,0
	c0.2,0,0.4,0.2,0.4,0.4c0,0.2-0.2,0.4-0.4,0.4H2.9z M2.9,15.8c-0.5,0-0.5-0.8,0-0.8c0,0,5.7,0,5.7,0C8.8,15,9,15.1,9,15.4
	c0,0.2-0.2,0.4-0.4,0.4H2.9z M2.9,13.5c-0.5,0-0.5-0.8,0-0.8c0,0,15.5,0,15.5,0c0.5,0,0.5,0.8,0,0.8C18.5,13.5,2.9,13.5,2.9,13.5z
	 M2.9,11.2c-0.5,0-0.5-0.8,0-0.8c0,0,15.5,0,15.5,0c0.5,0,0.5,0.8,0,0.8C18.5,11.2,2.9,11.2,2.9,11.2z M2.9,9c-0.5,0-0.5-0.8,0-0.8
	c0,0,15.5,0,15.5,0C19,8.1,19,9,18.5,9C18.5,9,2.9,9,2.9,9z M4.7,6.7c-0.5,0-0.5-0.8,0-0.8c0,0,13.8,0,13.8,0c0.5,0,0.5,0.8,0,0.8
	C18.5,6.7,4.7,6.7,4.7,6.7z M9.1,2.6c-0.5,0-0.5-0.8,0-0.8c0,0,3.3,0,3.3,0c0.5,0,0.5,0.8,0,0.8C12.4,2.6,9.1,2.6,9.1,2.6z"/>
</svg>
