<svg xmlns="http://www.w3.org/2000/svg" width="13.448" height="13.441" viewBox="0 0 13.448 13.441"><defs><style>.a{fill:rgba(0,0,0,0);}</style></defs><path class="a" d="M13-12.045a1.95,1.95,0,0,1,.478.06,1.754,1.754,0,0,1,.818.464,1.725,1.725,0,0,1,.478.824,1.882,1.882,0,0,1,0,.917,1.756,1.756,0,0,1-.451.815l-.006.006-3.64,3.637,3.64,3.64a1.706,1.706,0,0,1,.456.813,1.882,1.882,0,0,1,0,.917A1.725,1.725,0,0,1,14.3.872a1.754,1.754,0,0,1-.818.464,1.921,1.921,0,0,1-.912.01A1.726,1.726,0,0,1,11.746.9L11.74.892,8.1-2.746,4.463.893a1.686,1.686,0,0,1-.805.448,1.937,1.937,0,0,1-.914,0A1.775,1.775,0,0,1,1.91.882L1.9.877A1.725,1.725,0,0,1,1.439.046a1.947,1.947,0,0,1,0-.917,1.687,1.687,0,0,1,.449-.81l3.64-3.643L1.888-8.967a1.686,1.686,0,0,1-.448-.805,1.93,1.93,0,0,1,0-.914A1.774,1.774,0,0,1,1.9-11.52l.011-.011a1.775,1.775,0,0,1,.834-.459,1.937,1.937,0,0,1,.914,0,1.687,1.687,0,0,1,.805.449L8.1-7.9l3.643-3.646a1.726,1.726,0,0,1,.821-.448A1.919,1.919,0,0,1,13-12.045Zm.611,2.382a.758.758,0,0,0,.2-.354.88.88,0,0,0,0-.435.73.73,0,0,0-.207-.353l-.005-.005a.757.757,0,0,0-.359-.2.917.917,0,0,0-.44-.006.729.729,0,0,0-.349.19L8.81-7.194,9.975-6.029ZM7.4-7.194l-3.64-3.64a.691.691,0,0,0-.335-.184.933.933,0,0,0-.445,0,.776.776,0,0,0-.364.2.776.776,0,0,0-.2.364.927.927,0,0,0,0,.445.691.691,0,0,0,.184.335L6.235-6.032ZM9.268-5.322,8.1-6.486,6.942-5.324,8.105-4.16ZM7.4-3.453,6.235-4.617h0L2.6-.975a.692.692,0,0,0-.184.338.943.943,0,0,0,0,.45.729.729,0,0,0,.2.353.777.777,0,0,0,.367.2.933.933,0,0,0,.445,0A.691.691,0,0,0,3.756.186ZM13,.4a.95.95,0,0,0,.232-.03.757.757,0,0,0,.359-.2L13.6.157A.73.73,0,0,0,13.8-.2a.88.88,0,0,0,0-.435.71.71,0,0,0-.192-.343l-3.64-3.64L8.812-3.453,12.444.182a.729.729,0,0,0,.349.19A.918.918,0,0,0,13,.4Z" transform="translate(-1.385 12.045)"/></svg>