<svg xmlns="http://www.w3.org/2000/svg" width="576" height="575.95" viewBox="0 0 576 575.95"><g transform="translate(-139.959 -106.049)"><g transform="translate(139.999 105.999)"><path d="M296.5,584.5a290.7,290.7,0,0,1-58.1-5.9,287.729,287.729,0,0,1-224-224.1,290.942,290.942,0,0,1,0-116.1,287.729,287.729,0,0,1,224.1-224,290.942,290.942,0,0,1,116.1,0A287.981,287.981,0,0,1,578.7,238.5a290.943,290.943,0,0,1,0,116.1A287.981,287.981,0,0,1,354.6,578.7,298.909,298.909,0,0,1,296.5,584.5ZM218.6,270.6c-3.7,7.2-4,6.3-5.1,15.2.3,10.6,6,12.2,8.2,15.7,1.4,3.1-2.2,10.4.2,18.3,2,4.6,2.5,6.1,5.8,10.7l3.1,3.5c.8.8,1.7,2,2.6,2.8l.1,5.8A243.047,243.047,0,0,0,99.1,429.1a4.132,4.132,0,0,0,.7,5.8,3.916,3.916,0,0,0,2.6.9H478.7a4.335,4.335,0,0,0,3-1.3,5.032,5.032,0,0,0,1.2-2.9,4.317,4.317,0,0,0-.9-2.6,242.324,242.324,0,0,0-134.3-86.4v-8.9c.8-.7,1.7-1.5,2.5-2.3h0c1.1-1,2.2-2.1,3.2-3.1h0l.1-.1c7.2-7.2,12.2-14.3,14.8-20.9h0a32.363,32.363,0,0,0,2.3-11.1c0-1.4-.1-2.9-.2-4.4,4-.8,8.1-4.2,11.5-9.7a44.625,44.625,0,0,0,6.2-17.7v-.2h0v-.1h0v-.2h0a25.515,25.515,0,0,0-.1-7.3.756.756,0,0,0-.1-.4h0v-.1h0v-.2h0v-.3h0v-.1h0a12.873,12.873,0,0,0-5.5-7.6,21.8,21.8,0,0,0-9.4-3.1,24.329,24.329,0,0,0-3.8-.3,16.67,16.67,0,0,0-8.5,2,13.94,13.94,0,0,0-5.9,7,59.022,59.022,0,0,1-4.6-22.7v-5a5.372,5.372,0,0,0,3.2-5V206.3a12.925,12.925,0,0,1,3.9-9.3,13.466,13.466,0,0,1,8.7-3.9h.4a39.116,39.116,0,0,0,15.5-73.8,4.953,4.953,0,0,1-2.1-2.2,5.374,5.374,0,0,1-.5-2.1h0a39.114,39.114,0,0,0-39.2-39.1,38.535,38.535,0,0,0-13.9,2.6,4.671,4.671,0,0,1-1.7.3,4.458,4.458,0,0,1-3.6-1.7,39.186,39.186,0,0,0-55.1-5.5,40.834,40.834,0,0,0-5.5,5.5,4.6,4.6,0,0,1-3.6,1.7,4.671,4.671,0,0,1-1.7-.3A39.11,39.11,0,0,0,201.9,115h0a4.815,4.815,0,0,1-2.6,4.3,39.139,39.139,0,0,0,15.5,73.8h.4a13.135,13.135,0,0,1,10,5.4h0a13.056,13.056,0,0,1,2.6,7.8v14.6c0,2.2,1.7,5.3,4.3,5.1l-.5,7.2a56.351,56.351,0,0,1-5,23.9C223.3,263.9,222.3,263.4,218.6,270.6Z" transform="translate(-8.59 -8.5)" fill="#464040"/><path d="M180,99.8c1.6-7.1-.5-14.4-6.8-20.7-3.5-3.5-11.5-7.6-20-9.1-22.4-4-34.3-11.8-50.2-27.8l-22-5L31.7,109.7,30,123c4.4,4.4-1.1,23.9,14.3,39.4,37.3,37.4,121.4,43.8,134.4,41.1,9.3-10.8,24.9-34.4,23-62.6C200.9,105.9,181.9,109.3,180,99.8Z" transform="translate(332.264 90.4) rotate(45)" fill="#efada0"/><path d="M103.6,39.5c4.1-4.1-22.2-3.4-25.1-6.4,0,0-35.2,35.7-39.2,45.6-3.2,7.9-16.5,42.6-2.7,33.2C41,109,92.3,50.1,103.6,39.5Z" transform="translate(332.264 90.4) rotate(45)" fill="#ded0cb"/><path d="M28.8,1s5.8,8.1,6.7,15.8c2.6,22.3,4.3,22.5,4.3,22.5,8.2,2.5,11,8.4,10.2,14.6-.7,5.2-4,9.6-8.9,9.6,0,0-5.1-.1-8.1,3.3-2.5,2.8-5.3,3.9-7.4,3.9s-4.9-1-7.4-3.9c-3-3.3-5.1-3.3-5.1-3.3-4.9,0-8.2-4.3-8.9-9.6-.8-6.2-1-12.1,7.3-14.5,0,0,1.7-.1,4.3-22.5a139.476,139.476,0,0,0,.9-15.8H28.8Z" transform="translate(237.912 235.109)" fill="#d8978a"/><path d="M39.8,39.4s-1.7-.1-4.3-22.5A73.356,73.356,0,0,0,31.2,1H29.6a93.462,93.462,0,0,1,3.3,16.4C34,29.8,36.1,37,37,39.6a2.254,2.254,0,0,0,1.5,1.5c7.7,2.7,10.4,8.6,9.6,14.8a13.4,13.4,0,0,1-2,5.8,11.874,11.874,0,0,0,4-7.8C50.8,47.7,48,41.8,39.8,39.4Z" transform="translate(237.912 235.109)" fill="#d58f81"/><path d="M41.1,63.5a11.019,11.019,0,0,0,1.8-.2,2.777,2.777,0,0,0-.5-3.7c-.9-.8-2.8,0-2.8,0-3.3,1.6-6.6,7.1-6.6,7.1C36,63.4,41.1,63.5,41.1,63.5Z" transform="translate(237.912 235.109)" fill="#eb9d8e"/><path d="M10,63.5a11.019,11.019,0,0,1-1.8-.2,2.777,2.777,0,0,1,.5-3.7c.9-.8,2.8,0,2.8,0,3.3,1.6,6.6,7.1,6.6,7.1C15.2,63.4,10,63.5,10,63.5Z" transform="translate(237.912 235.109)" fill="#eb9d8e"/><path d="M7.4,42.1a.9.9,0,0,0,.5-.1,13.089,13.089,0,0,1,3.7-1.5c.6-.1,1.2-.8,1.9-3.6a165.2,165.2,0,0,0,3.2-19.8,141.682,141.682,0,0,0,.9-16,.945.945,0,0,0-1-1h0a1,1,0,0,0-1,1,137.727,137.727,0,0,1-.9,15.7c-2.1,17.4-3.5,21-3.9,21.7a17.063,17.063,0,0,0-3.9,1.7,1,1,0,0,0-.5,1.1A1.215,1.215,0,0,0,7.4,42.1Z" transform="translate(237.912 235.109)" fill="#e39f92"/><path d="M49.1,44.6a15.452,15.452,0,0,0-8.8-6.2,66.889,66.889,0,0,1-4.6-17c-.1-.6-.1.8-.7.9s-1.1-1-1-.5a122.179,122.179,0,0,0,4,16.1c.5,1.6,1,2.3,1.6,2.4,6.9,2,10.3,6.9,9.5,13.4-.5,4-2.8,8-6.9,8.6h0a.984.984,0,0,0-1.3-.4h-.1c-.2.1-.3.2-.5.3-.1,0-.1.1-.2.1a11.433,11.433,0,0,0-3.2.7A10.673,10.673,0,0,1,40,60.5a1.15,1.15,0,0,0,.5-1.4,1.02,1.02,0,0,0-1.2-.6h-.1c-3.3,1.6-6.5,6.7-7,7.4a9.639,9.639,0,0,1-6.7,3.5,9.46,9.46,0,0,1-6.7-3.5c-.5-.8-3.7-5.9-7-7.4a1.027,1.027,0,0,0-1.3.5v.1a1.15,1.15,0,0,0,.5,1.4A12.61,12.61,0,0,1,14.1,63a11.336,11.336,0,0,0-3.2-.6c-.1,0-.1-.1-.2-.1-.2-.1-.3-.2-.5-.3a.948.948,0,0,0-1.3.2v.1h0c-4-.6-1.3-4.6-1.9-8.6-.5-3.5-1.6-6.6.3-9L7.6,42l-.9-.5V40.4l-.7,3C3.6,46.2,4.6,49.9,5.2,54a14.051,14.051,0,0,0,3.1,7.3c1.8,2.1-.9,3.2,1.8,3.2,0,0,4.7,0,7.4,3a11.393,11.393,0,0,0,8.2,4.2,11.579,11.579,0,0,0,8.2-4.2c2.6-3,7.3-3,7.4-3a9,9,0,0,0,6.8-3.2A14.051,14.051,0,0,0,51.2,54a15.547,15.547,0,0,0-2.1-9.4Z" transform="translate(237.912 235.109)" fill="#d58f81"/><path d="M33,22.2a1.009,1.009,0,0,0,1.1.9h0a1.037,1.037,0,0,0,.8-1.2c-.2-1.3-.3-2.7-.5-4.1A94.249,94.249,0,0,0,30.7,2.1c0-.6.5-1,0-1H29.1c-.5,0-1.7.5-1.7,1,0,.1,4.1,8.2,5,16,.2,1.4.4,2.7.6,4.1C33.1,22.7,32.8,20.8,33,22.2Z" transform="translate(237.912 235.109)" fill="#d58f81"/><path d="M149.1,21.7s-2.8-3.4-2.7-.5a2.276,2.276,0,0,0,1,1.9c6.6,4.8,7.4,11.2,4.9,16.9a13.576,13.576,0,0,1-3.6,4.9,12.1,12.1,0,0,0,6.1-6.3C157.2,32.9,156.2,26.4,149.1,21.7Z" transform="translate(237.912 235.109)" fill="#d58f81"/><path d="M182.2,137.1a66.835,66.835,0,0,1-6.6,7.5,72.831,72.831,0,0,1-43.7,21.3,29.779,29.779,0,0,0-24.3,19,27.291,27.291,0,0,0-1.1,16.7,26.573,26.573,0,0,0-16.7,1.1c-10.3,4,35.2,21,33.9,16.1a25.773,25.773,0,0,0,16-.9,77.108,77.108,0,0,0,27-17.3c17.5-17.5,24.5-41.1,20.7-62.5a2.836,2.836,0,0,0-3.5-2.2A2.981,2.981,0,0,0,182.2,137.1Z" transform="translate(332.264 90.4) rotate(45)" fill="#766e6e"/><path d="M182.2,137.1a66.835,66.835,0,0,1-6.6,7.5,76.254,76.254,0,0,1-11.6,9.5c2.4,20.4-4.8,42.4-21.2,58.8a79.214,79.214,0,0,1-6.9,6.1c1.3-.3,2.6-.7,3.9-1.1a77.108,77.108,0,0,0,27-17.3c17.5-17.5,24.5-41.1,20.7-62.5a2.836,2.836,0,0,0-3.5-2.2A2.912,2.912,0,0,0,182.2,137.1Z" transform="translate(332.264 90.4) rotate(45)" fill="#5b5353"/><path d="M105.3,78.3c-.7.6-2.7,2.7-3.4,3.4A134.6,134.6,0,0,0,87.3,98.2a103.713,103.713,0,0,0-10.6,16.6c-1.1,3-7.2-7.7-5.8-7.3-.4-1.4.8-5.4,1.4-7,1-2.8,11.2-13.9,13.5-16.2,5-5,10.7-9.5,16.9-8.5C103.5,75.9,105.9,77.8,105.3,78.3Z" transform="translate(332.264 90.4) rotate(45)" fill="#766e6e"/><path d="M15.9,0A15.982,15.982,0,0,1,31.8,16.1,15.9,15.9,0,1,1,0,16.1,16.047,16.047,0,0,1,15.9,0Z" transform="translate(329.355 224.559) rotate(45)" fill="#e4e7e7"/><path d="M15.9,5.4a10.753,10.753,0,1,1,.5,21.5,10.866,10.866,0,0,1-11-10.5v-.2A10.628,10.628,0,0,1,15.9,5.4Z" transform="translate(329.355 224.559) rotate(45)" fill="#066b8d"/><path d="M15.9,9.7a6.5,6.5,0,1,1-6.5,6.5,6.487,6.487,0,0,1,6.5-6.5Z" transform="translate(329.355 224.559) rotate(45)" fill="#324d5b"/><path d="M20.3,10a2.7,2.7,0,1,1-2.7,2.7h0A2.689,2.689,0,0,1,20.3,10Z" transform="translate(329.355 224.559) rotate(45)" fill="#d4edf6"/><path d="M21.8,14.9a6.106,6.106,0,0,0-3.3-4.2,2.686,2.686,0,0,0-.1,3.8A2.725,2.725,0,0,0,21.8,14.9Z" transform="translate(329.355 224.559) rotate(45)" fill="#d6dbde"/><path d="M17.3,26.7A11.865,11.865,0,0,1,5.4,14.8a12.136,12.136,0,0,1,3-7.9A11.9,11.9,0,0,0,24.1,24.8a11.408,11.408,0,0,0,1.1-1.1A12.136,12.136,0,0,1,17.3,26.7Z" transform="translate(329.355 224.559) rotate(45)" fill="#2296bd"/></g><g transform="translate(390.929 260.493) rotate(6)"><path d="M160.6,501.3H695.3a278.513,278.513,0,0,1-22.8,44.9c-5.1,8.3-10.5,15.6-10.5,15.6l-467.8.4C177,539.2,164,510.5,160.6,501.3Z" transform="translate(-416.016 -218.202) rotate(-6)" fill="#fff"/><path d="M226.6,544.2a23.617,23.617,0,0,1-.3,2.4,12.134,12.134,0,0,0,1,1.4,6.06,6.06,0,0,0-1.4,2.9h-1.6A66.038,66.038,0,0,1,204,548a36.292,36.292,0,0,1-14.6-8.4,28.588,28.588,0,0,1-6.3-9.1,29.308,29.308,0,0,1-2.3-12.1,26.622,26.622,0,0,1,2.3-11.1,31.209,31.209,0,0,1,6-8.8,37.553,37.553,0,0,1,14.5-8.6,58.638,58.638,0,0,1,19.5-3.2h2.1c0,.6,2.3,3.2,2.3,3.2s-1.9,2.1-1.8,3.5H224a61.393,61.393,0,0,0-12.1,1.3,34.994,34.994,0,0,0-10.8,3.9,24.238,24.238,0,0,0-9.1,8.6,21.807,21.807,0,0,0-3.2,11.4,22.126,22.126,0,0,0,2.9,11.5,22.812,22.812,0,0,0,9,8.7A37.535,37.535,0,0,0,212,543a58.054,58.054,0,0,0,12.4,1.3h.9A5.278,5.278,0,0,1,226.6,544.2Zm66.9,5.7h-7.7c0-1.9.1-5.3.1-10.4,0-5,.1-11.3.1-18.9H248c0,8.7,0,15.3.1,19.7,0,4.5.1,7.6.1,9.5l-3.5,3.7-4.3-3.7c0-1.9.1-5.2.1-10,.1-4.8.1-12.9.1-24.2,0-3.4,0-7.6-.1-12.6,0-4.9-.1-10.3-.2-16H248c0,4.8,0,9.4-.1,14s-.1,8.9-.1,13.1h38c0-4.1,0-8.5-.1-13-.1-4.6-.1-9.2-.1-14l3.8-2.7,3.9,2.7c-.1,4.7-.1,10.2-.2,16.4,0,6.2-.1,11.2-.1,15.1,0,9.2,0,16.2.1,21.1C293.5,544.7,293.5,548.1,293.5,549.9Zm61.8-.1H323.8c-1.5,0-4.6,2.4-4.6,2.4s-2.5-2.3-3.8-2.3c.1-1.8.1-5.7.2-11.8,0-6,.1-12.3.1-18.7v-14c0-5.8-.1-11.8-.2-18,1.2,0,3.8-2,3.8-2s3,2,4.6,2.1h31V494c-.3,0-2.3,0-5.9-.1-3.6,0-8.1-.1-13.5-.1H323.3c0,3.5,0,7.1-.1,10.6s-.1,6.8-.1,10h10.1c5.5,0,10.4,0,14.7-.1,4.3,0,6.6-.1,6.9-.1l1.9,3.1-1.9,3.4c-.2,0-2.8,0-7.7-.1-4.9,0-9.4-.1-13.5-.1H323v14.1c0,3.5.1,6.4.1,8.7,1.8,0,4.1.1,6.7.1h25.5v6.4Zm56.5-56c-.5,0-2.6,0-6.1-.1-3.6,0-7.9-.1-13.1-.1H381.2c0,3.5,0,7.4-.1,11.5s-.1,7.7-.1,10.9h8.3c5.1,0,10,0,14.5-.1,4.5,0,7.1-.1,7.6-.1l2.7,3.4-2.7,3.1c-.6,0-3.5,0-8.6-.1-5.2,0-9.8-.1-13.9-.1H381c0,5.5,0,10.8.1,15.7s.1,8.9.1,11.9l-4,3.7-3.7-3.7c.1-1.9.1-5.2.2-10,0-4.8.1-11.7.1-20.7V505c0-5.8-.1-11.8-.2-18H412l2.2,2.5Z" transform="translate(-275.136 -134.972) rotate(-6)" fill="#ffd54f"/><path d="M244.9,557l-7-6v-1.2c0-1.9.1-5.2.1-10,.1-4.7.1-12.9.1-24.2,0-3.4,0-7.6-.1-12.5,0-4.9-.1-10.3-.2-16v-2.5h12.8v2.5c0,4.8,0,9.5-.1,14,0,3.6-.1,7.2-.1,10.5h33c0-3.3,0-6.9-.1-10.5-.1-4.5-.1-9.3-.1-14.1v-1.3l6.3-4.4,6.4,4.4V487c-.1,4.7-.1,10.2-.2,16.3,0,6.2-.1,11.2-.1,15.1,0,9.1,0,16.2.1,21.1s.1,8.3.1,10.1v2.5H283v-2.5c0-1.9.1-5.3.1-10.4,0-4.4.1-9.9.1-16.3H250.1c0,7.4,0,13.2.1,17.2,0,4.5.1,7.6.1,9.5v1Zm-2-8.2,1.6,1.3,1.1-1.2c0-1.9-.1-4.8-.1-8.5,0-4.5-.1-11.1-.1-19.8v-2.5h42.9v2.5c0,7.5,0,13.9-.1,18.9,0,3.3-.1,5.9-.1,7.9h2.7c0-1.9-.1-4.4-.1-7.6-.1-4.9-.1-12-.1-21.1,0-3.9,0-9,.1-15.2,0-5.6.1-10.6.1-15l-1.4-.9-1.3.9c0,4.3,0,8.6.1,12.7.1,4.6.1,9,.1,13.1v2.5h-43v-2.5c0-4.1,0-8.5.1-13.1.1-3.7.1-7.6.1-11.5H243c.1,4.8.1,9.3.1,13.5,0,4.9.1,9.1.1,12.6,0,11.3,0,19.5-.1,24.3C243,543.9,243,546.8,242.9,548.8ZM377,557l-6.2-6.1v-1.1c.1-1.8.1-5.2.2-10,0-4.8.1-11.5.1-20.7v-14c0-5.7-.1-11.7-.2-17.9v-2.5h42l4.1,4.6-3.7,6.9h-1.5c-.5,0-2.6,0-6.2-.1-3.6,0-8-.1-13.1-.1h-8.9c0,2.8,0,5.9-.1,9,0,3-.1,5.8-.1,8.4h5.9c5.1,0,10,0,14.5-.1,4.6,0,7.1-.1,7.6-.1h1.2l4.7,5.9-4.7,5.5h-1.1c-.6,0-3.5,0-8.7-.1-5.2,0-9.8-.1-13.9-.1h-5.4c0,4.6,0,9,.1,13.2,0,4.9.1,8.9.1,11.9v1.1Zm-1.1-8.1,1.2,1.2,1.4-1.3c0-2.8-.1-6.4-.1-10.8,0-4.9-.1-10.2-.1-15.7v-2.5h10.4c4.1,0,8.7,0,13.9.1,3.6,0,6.1.1,7.5.1l.6-.7-.6-.8c-1.2,0-3.3,0-6.3.1-4.5,0-9.4.1-14.5.1H378.5v-2.5c0-3.1,0-6.8.1-10.9s.1-7.9.1-11.4v-2.5h14c5.2,0,9.6,0,13.2.1,2,0,3.6,0,4.6.1l.6-1.2-.3-.3H376c.1,5.3.1,10.5.2,15.4v14c0,9.2,0,15.9-.1,20.7C376,543.9,375.9,546.9,375.9,548.9ZM319,555.4l-1.5-1.4a7.833,7.833,0,0,0-2.2-1.6h-2.4l.1-2.6c.1-1.8.1-5.7.2-11.7,0-6,.1-12.3.1-18.7v-14c0-5.8-.1-11.8-.2-18v-2.5h2.4a12.313,12.313,0,0,0,2.4-1.5l1.4-1.1,1.5,1a10.232,10.232,0,0,0,3.2,1.6h33.4v11.5h-2.5c-.3,0-2.3,0-5.9-.1-3.7,0-8.2-.1-13.4-.1h-9.8c0,2.7,0,5.4-.1,8.1,0,2.6-.1,5.1-.1,7.4h7.6c5.5,0,10.4,0,14.7-.1,4.3,0,6.7-.1,6.9-.1h1.4l3.5,5.5-3.4,6h-1.5c-.3,0-2.8,0-7.8-.1-4.9,0-9.4-.1-13.4-.1h-8v11.5c0,2.4,0,4.4.1,6.3h32.2v9h-2.5v2.5h-6.2c-3.9,0-8.6-.1-14.4,0H324a11.755,11.755,0,0,0-3.2,1.9Zm-1.1-7.3c.5.3.9.6,1.4.9a9.342,9.342,0,0,1,4.4-1.7h29v-1.5H329.6c-2.6,0-4.9,0-6.7-.1h-2.4v-2.4c0-2.3-.1-5.3-.1-8.7V518h13.1c4.1,0,8.6,0,13.5.1,2.9,0,5,0,6.3.1l.5-.8-.4-.6c-1.1,0-3,0-5.5.1-4.3,0-9.3.1-14.8.1H320.4v-2.5c0-3.1,0-6.5.1-10s.1-7,.1-10.5v-2.5h14.7c5.3,0,9.8,0,13.5.1h3.4v-1.5H323.7a9.436,9.436,0,0,1-4.4-1.6c-.4.3-.9.5-1.3.8.1,5.6.1,11,.2,16.3v14c0,6.4,0,12.7-.1,18.7C318,542.6,318,546,317.9,548.1Zm-94.7,5.2a67.792,67.792,0,0,1-20-3,39.221,39.221,0,0,1-15.6-8.9,30.523,30.523,0,0,1-6.9-9.9,31.2,31.2,0,0,1-2.5-13.1,28.248,28.248,0,0,1,2.5-12.1,32.74,32.74,0,0,1,6.5-9.5,41.733,41.733,0,0,1,15.5-9.3,62.879,62.879,0,0,1,20.2-3.3h4.5l.1,1.9a19.062,19.062,0,0,0,1.7,2.2l1.4,1.7-1.5,1.6a5.938,5.938,0,0,0-1.1,1.7l.2,2.6H224a56.392,56.392,0,0,0-11.6,1.2,34.736,34.736,0,0,0-10.1,3.6,21.9,21.9,0,0,0-8.2,7.8,18.667,18.667,0,0,0-2.8,10,20.491,20.491,0,0,0,2.6,10.3,21.132,21.132,0,0,0,8,7.7,37.9,37.9,0,0,0,10.6,4,60.4,60.4,0,0,0,12,1.3h2l3-.2L229,546a1.38,1.38,0,0,1,.3.4l1.4,1.6-1.4,1.6a3.7,3.7,0,0,0-.8,1.8l-.4,2h-3.7A5.286,5.286,0,0,0,223.2,553.3Zm-.7-64.2a53.558,53.558,0,0,0-18.2,3.1,34.285,34.285,0,0,0-13.6,8.1,27.509,27.509,0,0,0-5.4,8,24.7,24.7,0,0,0-2.1,10.1,26.894,26.894,0,0,0,2.1,11.2,26.178,26.178,0,0,0,5.7,8.3,34.329,34.329,0,0,0,13.6,7.8,64.345,64.345,0,0,0,19.5,2.8c0-.1.1-.2.1-.3l-.1-.1-.4-.7V547a57.49,57.49,0,0,1-12.4-1.4,39.571,39.571,0,0,1-12-4.5,25.617,25.617,0,0,1-10-9.6,25.356,25.356,0,0,1-3.2-12.8,23.614,23.614,0,0,1,3.6-12.6,26.8,26.8,0,0,1,10-9.5,36.5,36.5,0,0,1,11.6-4.1,62.6,62.6,0,0,1,12.3-1.3c.2-.3.3-.6.5-.9-.2-.3-.4-.5-.6-.8h-.7C222.8,489.1,222.7,489.1,222.5,489.1Zm4.9-3.3Z" transform="translate(-275.136 -134.972) rotate(-6)" fill="#fdd65c"/><path d="M175.8,411.7a25.163,25.163,0,0,1-5.1,15.6,29.249,29.249,0,0,1-13.8,9.9,45.779,45.779,0,0,1-10.9,2.7,100.321,100.321,0,0,1-12.2,1l.1,22.3-9.7,5.8-10-5.8c0-3.6.1-8.5.1-14.8.1-6.3.1-15.7.1-28.2,0-4.5,0-9.9-.1-16.4,0-6.4-.1-13.2-.2-20.4,1.9,0,6.8-4.2,6.8-4.2s4.1,4.1,6.1,4.1a152.546,152.546,0,0,1,20.3,1.1,46.687,46.687,0,0,1,13.2,3.9,26.559,26.559,0,0,1,11.3,9.4,24.813,24.813,0,0,1,4,14ZM155.6,413a14.008,14.008,0,0,0-8.3-13.4,18.1,18.1,0,0,0-6-1.8c-2.1-.2-4.3-.3-6.5-.3H133c0,.6,0,2.9-.1,6.9,0,4.1-.1,7.4-.1,9.9V429h1.9a45.986,45.986,0,0,0,6.4-.5,16.863,16.863,0,0,0,5.8-1.7,16.461,16.461,0,0,0,6.4-5.3,14.186,14.186,0,0,0,2.3-8.5ZM210,463.2l-9.8,3.3-10-3.3c0-3.4.1-8.3.1-14.7.1-6.4.1-15.1.1-26,0-4.6,0-10.4-.1-17.5,0-7-.1-14.2-.2-21.6l10-3.3,9.8,3.3c0,5.4-.1,11.7-.1,18.8-.1,7.1-.1,13.4-.1,18.9,0,11.2,0,19.9.1,26.1C209.9,453.3,209.9,458.6,210,463.2Zm97.5-79.8c-.1,6.9-.1,13.8-.2,20.8,0,7-.1,12.4-.1,16.4,0,9,0,17.1.1,24.2s.1,11.7.1,13.6l-9.3,10.5c-10-13.3-24.3-29.9-32.9-40.3s-13.8-16.7-15.6-18.9l-.3.1c0,8.5,0,18.9.1,31s.1,19.6.2,22.4l-7.9,5.8-10.4-5.8c0-2,.1-6.4.1-13.1.1-6.7.1-15.1.1-25.2,0-4.1,0-9.3-.1-15.8s-.1-13.3-.2-20.6l15.4-6.2c1.7,2.1,6.9,8.5,15.5,19.1s17.6,21.4,26.9,32.4l.2-.1c0-5.5-.1-13.6-.2-24.4s-.2-19.4-.2-25.9l9.1-3.3Z" transform="translate(-275.136 -134.972) rotate(-6)" fill="#469a09"/><path d="M298.1,471.3l-1.1-1.5c-7.3-9.7-17-21.3-24.7-30.6-3-3.6-5.7-6.9-8.1-9.7-6.1-7.5-10.6-12.9-13.3-16.1,0,7.8.1,17,.1,27.3.1,12.1.1,19.6.2,22.4v.8l-9.3,6.8L229.8,464v-.9c0-2,.1-6.4.1-13.1.1-6.7.1-15.2.1-25.2,0-4.1,0-9.3-.1-15.7,0-6.4-.1-13.3-.2-20.6v-1l17.4-7,.7.8c1.8,2.1,7,8.5,15.6,19.1,7.8,9.7,16.1,19.6,24.5,29.5,0-5.2-.1-12.1-.2-20.7-.1-10.7-.2-19.4-.2-25.9v-1.1l10.6-3.8,10.9,3.8v1.1c-.1,6.9-.1,13.8-.2,20.8s-.1,12.4-.1,16.4c0,8.9,0,17.1.1,24.2.1,7.2.1,11.7.1,13.6v.6Zm-65.2-9,8.8,4.9,6.5-4.7c0-3.2-.1-10.5-.1-21.6-.1-12-.1-22.5-.1-31v-1l2.2-.9.7.8c1.9,2.2,7.1,8.5,15.7,18.9,2.3,2.8,5.1,6.1,8.1,9.7,7.4,8.9,16.6,19.8,23.7,29.2l7.7-8.7c0-2.2,0-6.5-.1-13-.1-7.2-.1-15.3-.1-24.3,0-4,0-9.4.1-16.4,0-6.6.1-13.2.2-19.8l-7.8-2.7-7.6,2.7c0,6.4.1,14.7.2,24.8.1,10.7.2,18.9.2,24.4v.9l-2.1,1.1-.8-.9c-9.3-10.9-18.3-21.8-26.9-32.4-7.6-9.4-12.6-15.6-14.8-18.3l-13.5,5.4c.1,7,.1,13.5.2,19.6,0,6.4.1,11.7.1,15.8,0,10,0,18.5-.1,25.2C233,455.9,232.9,460,232.9,462.3Zm-108.8,8.4-11.5-6.6v-.9c0-3.6.1-8.5.1-14.8.1-6.2.1-15.7.1-28.2,0-4.5,0-9.9-.1-16.3,0-6.4-.1-13.2-.2-20.4V382H114c.8,0,3.5-1.9,5.9-3.9l1.1-.9,1,1c1.9,1.9,4.3,3.7,5,3.7a156.485,156.485,0,0,1,20.5,1.1,48.027,48.027,0,0,1,13.7,4.1,28.633,28.633,0,0,1,11.9,9.9,26.184,26.184,0,0,1,4.3,14.9v.1a26.4,26.4,0,0,1-5.4,16.3,30.987,30.987,0,0,1-14.5,10.4,48.377,48.377,0,0,1-11.2,2.8,100.1,100.1,0,0,1-10.9.9l.1,21.7Zm-8.5-8.4,8.5,4.9,8.2-4.9-.1-22.9h1.5a95.474,95.474,0,0,0,12-.9,48.52,48.52,0,0,0,10.6-2.7,28.2,28.2,0,0,0,13.1-9.4,23.486,23.486,0,0,0,4.8-14.6v-1.5h0a22.443,22.443,0,0,0-3.7-11.6,26.223,26.223,0,0,0-10.7-8.8,44.875,44.875,0,0,0-12.8-3.8,149.568,149.568,0,0,0-20.1-1.1h0c-1.9,0-4.6-2.2-6.2-3.6a22.191,22.191,0,0,1-5.2,3.4c.1,6.8.1,13.2.2,19.2,0,6.4.1,11.9.1,16.4,0,12.5,0,22-.1,28.2C115.7,454.1,115.7,458.8,115.6,462.3Zm84.6,5.8-11.5-3.8v-1.1c0-3.4.1-8.3.1-14.7.1-6.4.1-15.1.1-26,0-4.6,0-10.4-.1-17.5,0-7-.1-14.2-.2-21.6v-1.1l11.5-3.8,11.3,3.8v1.1c0,5.4-.1,11.7-.1,18.8-.1,7.1-.1,13.4-.1,18.9,0,11.2,0,19.9.1,26l.2,17.1Zm-8.4-6,8.4,2.8,8.3-2.8-.1-14.9c-.1-6.1-.1-14.9-.1-26.1,0-5.5,0-11.9.1-18.9.1-6.6.1-12.5.1-17.7l-8.3-2.8-8.4,2.8c.1,7,.1,13.8.2,20.5,0,7.1.1,12.9.1,17.5,0,10.9,0,19.7-.1,26C191.8,454.3,191.8,458.8,191.8,462.1Zm-58.9-31.6h-1.5V414.3c0-2.5,0-5.9.1-9.9,0-4.1.1-6.4.1-6.9V396h3.3q3.3,0,6.6.3a18.1,18.1,0,0,1,6.5,1.9,15.214,15.214,0,0,1,6.8,6,16.122,16.122,0,0,1,2.3,8.8,17.147,17.147,0,0,1-2.4,9.4l-.1.1a17.928,17.928,0,0,1-7,5.8,19.972,19.972,0,0,1-6.2,1.8,47.671,47.671,0,0,1-6.6.5h-1.9Zm1.5-3h.4a43.186,43.186,0,0,0,6.2-.5,16.846,16.846,0,0,0,5.4-1.6,14.6,14.6,0,0,0,5.7-4.7A13.022,13.022,0,0,0,154,413v-.2a13.191,13.191,0,0,0-1.9-7.2,12.23,12.23,0,0,0-5.5-4.8,15.751,15.751,0,0,0-5.5-1.6q-3.15-.3-6.3-.3h-.3c0,1.2,0,3-.1,5.5,0,4.1-.1,7.4-.1,9.9v13.2Z" transform="translate(-275.136 -134.972) rotate(-6)" fill="#469a21"/><path d="M102.1,6.3a95.769,95.769,0,1,1-67.7,28,95.442,95.442,0,0,1,67.7-28Z" fill="#fff" opacity="0.26"/><path d="M250.3,263.9,261.2,253a10.382,10.382,0,0,0,0-14.6l-68-68-25.5,25.5,68,68A10.381,10.381,0,0,0,250.3,263.9Z" transform="translate(0 0.002)" fill="#5b6a6a"/><path d="M183.7,162.9l-23.4,23.4a9.6,9.6,0,0,0,0,13.5h0l1.2,1.2a9.6,9.6,0,0,0,13.5,0h0l23.4-23.4a9.6,9.6,0,0,0,0-13.5h0l-1.2-1.2a9.6,9.6,0,0,0-13.5,0Z" transform="translate(0)" fill="#e8efee"/><path d="M179.4,167.3,164.6,182a8.028,8.028,0,0,0,0,11.3l3.3,3.3a8.028,8.028,0,0,0,11.3,0L194,181.8a8.028,8.028,0,0,0,0-11.3l-3.3-3.3A7.937,7.937,0,0,0,179.4,167.3Z" transform="translate(0)" fill="#97aaaa"/><path d="M173.9,172.7l-3.9,3.9a5.252,5.252,0,0,0,0,7.5h0l7.2,7.2a5.252,5.252,0,0,0,7.5,0h0l3.9-3.9a5.252,5.252,0,0,0,0-7.5h0l-7.2-7.2a5.252,5.252,0,0,0-7.5,0Z" transform="translate(0)" fill="#e8efee"/><g transform="translate(-3.554 -2.632)" fill="none"><path d="M103.615,0c57.225,0,103.615,47.031,103.615,105.047s-46.39,105.047-103.615,105.047S0,163.063,0,105.047,46.39,0,103.615,0Z" stroke="none"/><path d="M 103.614631652832 20 C 57.50935363769531 20 20 58.15194702148438 20 105.0470886230469 C 20 151.9422302246094 57.50935363769531 190.0941772460938 103.614631652832 190.0941772460938 C 149.7199096679688 190.0941772460938 187.2292633056641 151.9422302246094 187.2292633056641 105.0470886230469 C 187.2292633056641 58.15194702148438 149.7199096679688 20 103.614631652832 20 M 103.614631652832 0 C 160.8394012451172 0 207.2292633056641 47.03117370605469 207.2292633056641 105.0470886230469 C 207.2292633056641 163.06298828125 160.8394012451172 210.0941772460938 103.614631652832 210.0941772460938 C 46.38986206054688 210.0941772460938 0 163.06298828125 0 105.0470886230469 C 0 47.03117370605469 46.38986206054688 0 103.614631652832 0 Z" stroke="none" fill="#5b6a6a"/></g></g></g></svg>