<svg xmlns="http://www.w3.org/2000/svg" xmlns:xlink="http://www.w3.org/1999/xlink" width="46.282" height="38.04" viewBox="0 0 46.282 38.04"><defs><style>.a{fill:url(#a);}.b{fill:#fff;}.c{fill:#464040;}</style><linearGradient id="a" x1="1.086" y1="0.5" x2="-0.013" y2="0.5" gradientUnits="objectBoundingBox"><stop offset="0" stop-color="#b5adb6"/><stop offset="0.511" stop-color="#918291"/><stop offset="1" stop-color="#554e56"/></linearGradient></defs><g transform="translate(37.046 -2.019) rotate(76)"><path class="a" d="M-13060.182-1468.989l0,0-2.793-2.793,1.6-1.606h0l2.2-2.2,2.8,2.8-3.807,3.806Z" transform="translate(13086.425 1483.718)"/><path class="b" d="M14.916,0A14.916,14.916,0,0,0,4.368,25.463a14.821,14.821,0,0,0,10.548,4.369c.032,0,.064,0,.1,0h.27l.015,0c.026,0,.053,0,.081,0h.1A14.916,14.916,0,0,0,25.462,4.369,14.814,14.814,0,0,0,14.916,0Zm0,25.451a10.536,10.536,0,0,1,0-21.071c.028,0,.057,0,.085,0h.1a10.535,10.535,0,0,1-.081,21.067h-.106Z" transform="translate(0 8.348)"/><path class="c" d="M11.322,1.142a3.9,3.9,0,0,1-.468,5.914L3.7,12.243a1.159,1.159,0,0,1-1.5-.119L.339,10.262a1.159,1.159,0,0,1-.119-1.5L5.407,1.61a3.9,3.9,0,0,1,5.914-.468Z" transform="translate(25.715 0)"/><path class="c" d="M.34,10.262,2.2,12.124a1.159,1.159,0,0,0,1.5.119l.954-.692L3.366,10.262a1.159,1.159,0,0,1-.119-1.5L8.434,1.61A3.874,3.874,0,0,1,10.078.3,3.9,3.9,0,0,0,5.407,1.61L.221,8.763A1.159,1.159,0,0,0,.34,10.262Z" transform="translate(25.715 0)"/></g></svg>