<svg xmlns="http://www.w3.org/2000/svg" xmlns:xlink="http://www.w3.org/1999/xlink" width="36.893" height="30.323" viewBox="0 0 36.893 30.323"><defs><style>.a{fill:url(#a);}.b{fill:#d6dbde;}.c{fill:#464040;}</style><linearGradient id="a" x1="1.086" y1="0.5" x2="-0.013" y2="0.5" gradientUnits="objectBoundingBox"><stop offset="0" stop-color="#b5adb6"/><stop offset="0.511" stop-color="#918291"/><stop offset="1" stop-color="#554e56"/></linearGradient></defs><g transform="translate(29.531 -1.61) rotate(76)"><path class="a" d="M2.228,5.262h0L0,3.037,1.277,1.756h0L3.033,0,5.263,2.229,2.229,5.263Z" transform="translate(18.691 6.479)"/><path class="b" d="M11.89,0A11.89,11.89,0,0,0,3.482,20.3,11.814,11.814,0,0,0,11.89,23.78c.025,0,.051,0,.076,0h.226c.021,0,.042,0,.064,0h.083A11.89,11.89,0,0,0,20.3,3.483,11.809,11.809,0,0,0,11.89,0Zm0,20.288a8.4,8.4,0,0,1,0-16.8c.022,0,.046,0,.068,0h.081a8.4,8.4,0,0,1-.064,16.793H11.89Z" transform="translate(0 6.654)"/><path class="c" d="M9.025.911a3.109,3.109,0,0,1-.373,4.715L2.95,9.76a.924.924,0,0,1-1.2-.095L.271,8.181a.924.924,0,0,1-.095-1.2l4.134-5.7A3.108,3.108,0,0,1,9.025.911Z" transform="translate(20.498 0)"/><path class="c" d="M.271,8.181,1.755,9.665a.924.924,0,0,0,1.2.095l.76-.551L2.683,8.181a.924.924,0,0,1-.095-1.2l4.134-5.7A3.088,3.088,0,0,1,8.034.242,3.11,3.11,0,0,0,4.31,1.284L.176,6.985A.924.924,0,0,0,.271,8.181Z" transform="translate(20.498 0)"/></g></svg>