<svg xmlns="http://www.w3.org/2000/svg" width="38.388" height="38.388" viewBox="0 0 38.388 38.388"><defs><style>.a{fill:#ffd54f;}</style></defs><g transform="translate(-1 -1)"><path class="a" d="M14.98,8a6.98,6.98,0,1,0,6.98,6.98A6.98,6.98,0,0,0,14.98,8Zm0,10.469a3.49,3.49,0,1,1,3.49-3.49A3.49,3.49,0,0,1,14.98,18.469Z" transform="translate(5.215 5.214)"/><path class="a" d="M35.882,14.959H33.165l-.113-.225L34.989,12.8a3.512,3.512,0,0,0,0-4.959L32.546,5.4a3.589,3.589,0,0,0-4.959,0L25.668,7.315l-.239-.068V4.505A3.509,3.509,0,0,0,21.923,1H18.465a3.509,3.509,0,0,0-3.505,3.505V7.259c-.038.014-.174.061-.215.077L12.8,5.4a3.589,3.589,0,0,0-4.959,0L5.4,7.843a3.512,3.512,0,0,0,0,4.959L7.32,14.8c0,.016-.07.147-.075.162H4.505A3.509,3.509,0,0,0,1,18.465v3.458a3.509,3.509,0,0,0,3.505,3.505H7.222l.113.225L5.4,27.59a3.512,3.512,0,0,0,0,4.959l2.443,2.443a3.514,3.514,0,0,0,4.959,0L14.8,33.073c.016,0,.147.07.162.075v2.741a3.509,3.509,0,0,0,3.507,3.5h3.458a3.509,3.509,0,0,0,3.505-3.506V33.165l.225-.113,1.937,1.937a3.514,3.514,0,0,0,4.959,0l2.443-2.443a3.512,3.512,0,0,0,0-4.959l-1.919-1.994c0-.016.07-.147.075-.162h2.741a3.509,3.509,0,0,0,3.5-3.507V18.465A3.509,3.509,0,0,0,35.882,14.959Zm0,6.98H33.141a3.664,3.664,0,0,0-2.556,6.177l1.935,1.961L30.053,32.52l-1.937-1.935a3.664,3.664,0,0,0-6.177,2.556L21.923,35.9l-3.474-.016V33.141a3.567,3.567,0,0,0-2.279-3.282,3.739,3.739,0,0,0-1.426-.286,3.49,3.49,0,0,0-2.473,1.012L10.311,32.52,7.868,30.053,9.8,28.116a3.664,3.664,0,0,0-2.556-6.177L4.49,21.923l.016-3.474H7.247A3.664,3.664,0,0,0,9.8,12.272L7.868,10.311l2.467-2.443L12.272,9.8a3.664,3.664,0,0,0,6.177-2.556l.016-2.757,3.474.016V7.247A3.664,3.664,0,0,0,28.116,9.8l1.961-1.935,2.443,2.467-1.935,1.937a3.664,3.664,0,0,0,2.556,6.177h2.741l.016.016Z"/></g></svg>