<svg xmlns="http://www.w3.org/2000/svg" width="21.968" height="23.748" viewBox="0 0 21.968 23.748"><defs><style>.a{fill:#ffca30;}.b{fill:rgba(0,0,0,0.93);}</style></defs><g transform="translate(-25.2 0.3)"><g transform="translate(25.5)"><path class="a" d="M42.416,14.245A4.437,4.437,0,0,0,38.673,16.3l-4.767-2.724a4.184,4.184,0,0,0,.288-3.284l4.96-2.834a4.437,4.437,0,1,0-1.189-3.009,4.411,4.411,0,0,0,.209,1.279l-4.96,2.835a4.457,4.457,0,1,0-.574,6.535l5.373,3.114a4.553,4.553,0,0,0-.048.482,4.452,4.452,0,1,0,4.452-4.452Z" transform="translate(-25.5)"/><path class="b" d="M42.416,23.448A4.757,4.757,0,0,1,37.664,18.7a2.421,2.421,0,0,1,.025-.322l-5.031-2.916a4.678,4.678,0,0,1-2.707.867,4.752,4.752,0,1,1,0-9.5A4.68,4.68,0,0,1,33.267,8.19l4.554-2.6a4.413,4.413,0,0,1-.157-1.135A4.752,4.752,0,1,1,42.416,9.2,4.683,4.683,0,0,1,39.1,7.837l-4.554,2.6a4.412,4.412,0,0,1,.157,1.135,4.638,4.638,0,0,1-.407,1.882l4.285,2.449a4.748,4.748,0,1,1,3.834,7.543Zm-9.8-8.708,5.715,3.312-.02.193c-.006.054-.013.107-.02.161a2.214,2.214,0,0,0-.027.29,4.175,4.175,0,1,0,.661-2.231l-.154.24L33.51,13.7l.129-.255a3.885,3.885,0,0,0,.268-3.062l-.069-.229,5.375-3.071.162.176A4.1,4.1,0,0,0,42.416,8.6a4.152,4.152,0,1,0-4.152-4.152,4.072,4.072,0,0,0,.2,1.193l.069.229L33.155,8.945l-.162-.176a4.1,4.1,0,0,0-3.041-1.346,4.152,4.152,0,0,0,0,8.3,4.1,4.1,0,0,0,2.506-.863Z" transform="translate(-25.5)"/></g></g></svg>