<svg xmlns="http://www.w3.org/2000/svg" width="20.377" height="22.138" viewBox="0 0 20.377 22.138"><defs><style>.a{fill:#3f8f22;}</style></defs><g transform="translate(0.5 0.5)"><path class="a" d="M320.393,18.862A2.862,2.862,0,1,1,317.53,16,2.862,2.862,0,0,1,320.393,18.862Zm0,0" transform="translate(-301.677 -15.339)"/><path class="a" d="M317.53,22.225a3.362,3.362,0,1,1,3.362-3.363A3.366,3.366,0,0,1,317.53,22.225Zm0-5.725a2.362,2.362,0,1,0,2.362,2.362A2.365,2.365,0,0,0,317.53,16.5Z" transform="translate(-301.677 -15.339)"/><path class="a" d="M302.191,7.046a3.523,3.523,0,1,1,3.523-3.523A3.527,3.527,0,0,1,302.191,7.046Zm0-5.725a2.2,2.2,0,1,0,2.2,2.2A2.2,2.2,0,0,0,302.191,1.321Zm0,0" transform="translate(-286.337)"/><path class="a" d="M302.191,7.546a4.023,4.023,0,1,1,4.023-4.023A4.028,4.028,0,0,1,302.191,7.546Zm0-7.046a3.023,3.023,0,1,0,3.023,3.023A3.026,3.026,0,0,0,302.191.5Zm0,5.725a2.7,2.7,0,1,1,2.7-2.7A2.7,2.7,0,0,1,302.191,6.225Zm0-4.4a1.7,1.7,0,1,0,1.7,1.7A1.7,1.7,0,0,0,302.191,1.821Z" transform="translate(-286.337)"/><path class="a" d="M320.393,360.195a2.862,2.862,0,1,1-2.862-2.863A2.862,2.862,0,0,1,320.393,360.195Zm0,0" transform="translate(-301.677 -342.579)"/><path class="a" d="M317.53,363.557a3.362,3.362,0,1,1,3.362-3.362A3.366,3.366,0,0,1,317.53,363.557Zm0-5.725a2.362,2.362,0,1,0,2.362,2.363A2.365,2.365,0,0,0,317.53,357.832Z" transform="translate(-301.677 -342.579)"/><path class="a" d="M302.191,348.378a3.523,3.523,0,1,1,3.523-3.523A3.527,3.527,0,0,1,302.191,348.378Zm0-5.725a2.2,2.2,0,1,0,2.2,2.2A2.2,2.2,0,0,0,302.191,342.653Zm0,0" transform="translate(-286.337 -327.24)"/><path class="a" d="M302.191,348.878a4.023,4.023,0,1,1,4.023-4.023A4.028,4.028,0,0,1,302.191,348.878Zm0-7.046a3.023,3.023,0,1,0,3.023,3.023A3.026,3.026,0,0,0,302.191,341.832Zm0,5.725a2.7,2.7,0,1,1,2.7-2.7A2.7,2.7,0,0,1,302.191,347.557Zm0-4.4a1.7,1.7,0,1,0,1.7,1.7A1.7,1.7,0,0,0,302.191,343.153Z" transform="translate(-286.337 -327.24)"/><path class="a" d="M21.725,189.53a2.862,2.862,0,1,1-2.863-2.862A2.862,2.862,0,0,1,21.725,189.53Zm0,0" transform="translate(-15.339 -178.961)"/><path class="a" d="M18.862,192.893a3.362,3.362,0,1,1,3.363-3.362A3.366,3.366,0,0,1,18.862,192.893Zm0-5.725a2.362,2.362,0,1,0,2.363,2.362A2.365,2.365,0,0,0,18.862,187.168Z" transform="translate(-15.339 -178.961)"/><path class="a" d="M3.523,177.714a3.523,3.523,0,1,1,3.523-3.523A3.527,3.527,0,0,1,3.523,177.714Zm0-5.725a2.2,2.2,0,1,0,2.2,2.2A2.2,2.2,0,0,0,3.523,171.989Zm0,0" transform="translate(0 -163.622)"/><path class="a" d="M3.523,178.214a4.023,4.023,0,1,1,4.023-4.023A4.028,4.028,0,0,1,3.523,178.214Zm0-7.046a3.023,3.023,0,1,0,3.023,3.023A3.026,3.026,0,0,0,3.523,171.168Zm0,5.725a2.7,2.7,0,1,1,2.7-2.7A2.7,2.7,0,0,1,3.523,176.893Zm0-4.4a1.7,1.7,0,1,0,1.7,1.7A1.7,1.7,0,0,0,3.523,172.489Z" transform="translate(0 -163.622)"/><path class="a" d="M115.23,96.636a.881.881,0,0,1-.437-1.646l8.172-4.659a.881.881,0,1,1,.872,1.531l-8.173,4.659A.875.875,0,0,1,115.23,96.636Zm0,0" transform="translate(-109.628 -86.49)"/><path class="a" d="M115.23,97.136a1.381,1.381,0,0,1-.685-2.58l8.173-4.66a1.381,1.381,0,0,1,1.368,2.4l-8.173,4.66A1.38,1.38,0,0,1,115.23,97.136Zm8.171-6.422a.37.37,0,0,0-.186.05l-8.174,4.66a.381.381,0,0,0,.189.712.373.373,0,0,0,.187-.05l8.173-4.659a.382.382,0,0,0-.189-.713Z" transform="translate(-109.628 -86.49)"/><path class="a" d="M123.423,272.64a.876.876,0,0,1-.435-.115l-8.173-4.659a.881.881,0,0,1,.872-1.531l8.173,4.659a.881.881,0,0,1-.437,1.646Zm0,0" transform="translate(-109.649 -255.228)"/><path class="a" d="M123.423,273.14a1.381,1.381,0,0,1-.683-.181l-8.173-4.659a1.381,1.381,0,1,1,1.368-2.4l8.172,4.659a1.381,1.381,0,0,1-.685,2.581Zm-8.171-6.422a.381.381,0,0,0-.189.713l8.173,4.659a.374.374,0,0,0,.187.05.381.381,0,0,0,.189-.712l-8.173-4.659A.373.373,0,0,0,115.252,266.719Z" transform="translate(-109.649 -255.228)"/></g></svg>