<svg xmlns="http://www.w3.org/2000/svg" width="44.24" height="38.627" viewBox="0 0 44.24 38.627"><defs><style>.a{fill:#ffd54f;}</style></defs><path class="a" d="M257.194,263.75h-6.011a2.986,2.986,0,0,0-2.983,2.983v4.61a2.986,2.986,0,0,0,2.983,2.983h6.011a2.986,2.986,0,0,0,2.983-2.983v-4.61A2.986,2.986,0,0,0,257.194,263.75Zm.813,7.593a.816.816,0,0,1-.813.814h-6.011a.816.816,0,0,1-.814-.814v-4.61a.816.816,0,0,1,.814-.814h6.011a.816.816,0,0,1,.813.814Z" transform="translate(-225.763 -242.715)"/><path class="a" d="M44.24,43.706a1.007,1.007,0,0,0-.145-.533L37.515,31.6a1.091,1.091,0,0,0-.94-.551H7.657a1.072,1.072,0,0,0-.94.551L.145,43.172A1.1,1.1,0,0,0,0,43.706a6.346,6.346,0,0,0,3.8,5.8V68.592a1.088,1.088,0,0,0,1.085,1.085H39.35a1.088,1.088,0,0,0,1.085-1.085V49.645a.477.477,0,0,0-.009-.117A6.363,6.363,0,0,0,44.24,43.706ZM8.289,33.229H35.942l5.144,9.049H3.155Zm23.2,11.209a4.169,4.169,0,0,1-8.208,0Zm-10.513,0a4.175,4.175,0,0,1-8.217,0Zm-18.73,0h8.217a4.175,4.175,0,0,1-8.217,0ZM18.224,67.507H11.987V55.8a1.545,1.545,0,0,1,1.546-1.546h3.155A1.545,1.545,0,0,1,18.233,55.8V67.507Zm20.041,0H20.394V55.8a3.721,3.721,0,0,0-3.715-3.715H13.523A3.721,3.721,0,0,0,9.808,55.8V67.516H5.966V50.042c.127.009.253.009.38.009a6.338,6.338,0,0,0,5.261-2.8,6.34,6.34,0,0,0,10.522,0,6.323,6.323,0,0,0,10.5,0,6.338,6.338,0,0,0,5.261,2.8c.127,0,.244-.009.371-.009V67.507Zm-.371-19.625a4.167,4.167,0,0,1-4.1-3.435h8.217A4.192,4.192,0,0,1,37.894,47.882Z" transform="translate(0 -31.05)"/></svg>