<svg xmlns="http://www.w3.org/2000/svg" width="68.818" height="68.818" viewBox="0 0 68.818 68.818"><defs><style>.a{fill:#d4d4d4;}.b{fill:#3d3838;}.c{fill:#ffcf54;}</style></defs><g transform="translate(-10.472 -10.472)"><g transform="translate(10.472 10.472)"><path class="a" d="M32.913,2A30.885,30.885,0,0,0,2,32.913V35.9A30.885,30.885,0,0,0,32.913,66.818H35.9A30.885,30.885,0,0,0,66.818,35.9V32.913A30.885,30.885,0,0,0,35.9,2H32.913m0-2H35.9A32.913,32.913,0,0,1,68.818,32.913V35.9A32.913,32.913,0,0,1,35.9,68.818H32.913A32.913,32.913,0,0,1,0,35.9V32.913A32.913,32.913,0,0,1,32.913,0Z"/><path class="b" d="M29.921.164A29.8,29.8,0,1,1,0,29.84,29.713,29.713,0,0,1,29.921.164Z" transform="translate(4.488 4.569)"/></g><g transform="translate(28.425 28.425)"><path class="c" d="M3.063,143.94H6.127v14.3H3.063A3.067,3.067,0,0,1,0,155.173V147A3.067,3.067,0,0,1,3.063,143.94Z" transform="translate(0 -134.761)"/><path class="c" d="M140.764,3.772V29.14c0,2.664-2.006,4.153-3.74,3.485-.589-.227-.1.118-9.024-7.578V7.911L136.231.769c1.878-1.629,4.533-.017,4.533,3Z" transform="translate(-119.831 -0.122)"/><path class="c" d="M413.021,130.321a1.021,1.021,0,1,1,0-2.042c1.57,0,3.319-2.936,3.319-7.148s-1.749-7.148-3.319-7.148a1.021,1.021,0,1,1,0-2.042c4.908,0,6.956,9.826,3.971,15.446C415.986,129.278,414.576,130.321,413.021,130.321Z" transform="translate(-385.705 -104.804)"/><path class="c" d="M368.164,170.2a1.021,1.021,0,0,1,0-2.042c.7,0,1.769-1.687,1.769-4.23s-1.065-4.23-1.769-4.23a1.021,1.021,0,0,1,0-2.042c3.53,0,4.887,6.678,2.875,10.465a3.365,3.365,0,0,1-2.875,2.08Z" transform="translate(-343.711 -147.6)"/></g></g></svg>