<svg xmlns="http://www.w3.org/2000/svg" width="40.101" height="38.626" viewBox="0 0 40.101 38.626"><defs><style>.a{fill:#ffd54f;}</style></defs><path class="a" d="M9.717,40.426a3.388,3.388,0,0,1-2.006-.6,3.6,3.6,0,0,1-1.4-3.369l1.8-9.747L1.173,19.93a3.541,3.541,0,0,1-1-3.57,3.489,3.489,0,0,1,2.768-2.407l9.747-1.4L17.1,3.806A3.558,3.558,0,0,1,20.266,1.8a3.513,3.513,0,0,1,3.169,2.006l4.372,8.744,9.747,1.4A4.045,4.045,0,0,1,39.96,16.36a3.891,3.891,0,0,1-.8,3.57l-7.14,6.779,1.6,9.546a3.559,3.559,0,0,1-1.4,3.369,3.285,3.285,0,0,1-3.57.2l-8.584-4.372-8.544,4.573A5.856,5.856,0,0,1,9.717,40.426Zm10.349-8.945a3.778,3.778,0,0,1,1.6.4l7.942,4.172-1.4-8.945a3.2,3.2,0,0,1,1-2.968l6.378-6.378-8.945-1.2a2.948,2.948,0,0,1-2.567-2.006L20.065,6.413l-3.971,8.142a3.8,3.8,0,0,1-2.567,2.006l-8.945,1.4,6.378,6.378a3.45,3.45,0,0,1,1,2.968l-1.6,8.945,7.38-3.891c.281-.16.562-.361.842-.521a2.279,2.279,0,0,1,1.484-.361Z" transform="translate(-0.017 -1.8)"/></svg>