<svg xmlns="http://www.w3.org/2000/svg" width="23.928" height="23" viewBox="0 0 23.928 23"><defs><style>.a{fill:#facb78;}</style></defs><g transform="translate(0.501 0.5)"><path class="a" d="M22.822,18.591a1.985,1.985,0,0,0-1.915-1.39H15.18l-1.8-5.477a1.984,1.984,0,0,0-1.913-1.385h-.009a1.985,1.985,0,0,0-1.911,1.4L7.794,17.2H2.019a2.015,2.015,0,0,0-1.18,3.647l4.672,3.377-1.8,5.462a1.984,1.984,0,0,0,.724,2.256,1.984,1.984,0,0,0,2.37.007l4.68-3.383,4.625,3.377A2.015,2.015,0,0,0,19.218,29.7l-1.756-5.477L22.1,20.843a1.985,1.985,0,0,0,.727-2.252Z" transform="translate(0 -10.34)"/><path class="a" d="M11.464,9.84a2.478,2.478,0,0,1,2.388,1.728l1.69,5.133h5.365a2.515,2.515,0,0,1,1.483,4.546l-4.341,3.17,1.646,5.133a2.478,2.478,0,0,1-.923,2.807,2.485,2.485,0,0,1-2.955-.008l-4.331-3.163L7.1,32.356a2.484,2.484,0,0,1-2.958-.008,2.477,2.477,0,0,1-.9-2.816l1.684-5.114L.546,21.254A2.515,2.515,0,0,1,2.019,16.7h5.41l1.64-5.114A2.477,2.477,0,0,1,11.453,9.84h.011Zm5.836,22a1.51,1.51,0,0,0,.887-.294,1.492,1.492,0,0,0,.556-1.691l-1.866-5.82,4.924-3.6a1.515,1.515,0,0,0-.893-2.738H14.818L12.9,11.881a1.493,1.493,0,0,0-1.438-1.041v-.5l0,.5a1.494,1.494,0,0,0-1.441,1.052L8.158,17.7H2.019a1.515,1.515,0,0,0-.887,2.742L6.1,24.035,4.187,29.844a1.492,1.492,0,0,0,.545,1.7,1.485,1.485,0,0,0,1.782.005l4.975-3.6,4.918,3.592A1.509,1.509,0,0,0,17.3,31.84Z" transform="translate(0 -10.34)"/></g></svg>