<svg xmlns="http://www.w3.org/2000/svg" width="37.806" height="41.799" viewBox="0 0 37.806 41.799"><defs><style>.a{fill:#facb78;}</style></defs><g transform="translate(30 -68)"><path class="a" d="M18.666,41.8H5.506c-2.5,0-4.008-.776-4.76-2.443-.682-1.51-.734-3.634-.734-6.47v-22.3c0-.252,0-.516-.005-.8C-.017,7.439-.048,4.228,1.487,2.46,2.967.736,4.922,0,8.024,0h7.35l3.431.062a23.428,23.428,0,0,1,4.214.95c.445.2.786.326,1.148.464.606.232,1.292.494,2.705,1.141.327.2,2.424,1.542,3.023,2.011.3.274.46.408.645.562.209.174.446.371.945.82.319.314.5.517,1.024,1.122l.359.411c.828,1.014,1.619,2.163,1.92,2.61l1.416,2.825,1,3.03.54,3.433a14.346,14.346,0,0,1-.055,3.2c0,.122-.134,1.555-.258,2.213l-.569,2.266-.824,2.248-.991,1.927-1.356,2.093-1.414,1.726-1.624,1.574L28.522,38.37,26.593,39.5l-1.739.805-1.634.635-1.731.435-1.457.275-1.367.15ZM10.484,25a1.043,1.043,0,0,0-.772.362,1.6,1.6,0,0,0-.084,1.966,10.819,10.819,0,0,0,8.563,4.637,10.82,10.82,0,0,0,8.564-4.637,1.6,1.6,0,0,0-.084-1.966A1.045,1.045,0,0,0,25.9,25a1.09,1.09,0,0,0-.861.46,8.541,8.541,0,0,1-6.848,3.718,8.541,8.541,0,0,1-6.847-3.718A1.087,1.087,0,0,0,10.484,25Zm13.093-12.53a2.785,2.785,0,1,0,2.785,2.785A2.788,2.788,0,0,0,23.576,12.468Zm-10.909,0a2.785,2.785,0,1,0,2.785,2.785A2.788,2.788,0,0,0,12.668,12.468Z" transform="translate(-30 68)"/></g></svg>