<svg xmlns="http://www.w3.org/2000/svg" width="32.586" height="36.027" viewBox="0 0 32.586 36.027"><defs><style>.a{fill:#facb78;}</style></defs><path class="a" d="M16.088,36.027H4.746c-2.151,0-3.455-.669-4.1-2.105C.055,32.62.01,30.789.01,28.346V9.122c0-.217,0-.445,0-.685C-.014,6.412-.041,3.644,1.282,2.12,2.558.634,4.243,0,6.917,0h6.335l2.957.053a20.193,20.193,0,0,1,3.632.819c.383.168.678.281.989.4.522.2,1.114.426,2.332.983.282.173,2.089,1.329,2.605,1.733.258.237.4.351.556.484.18.15.384.32.815.706.275.271.428.446.883.967l.31.354c.714.874,1.4,1.865,1.655,2.25l1.22,2.434.859,2.612.465,2.959a12.365,12.365,0,0,1-.048,2.754c0,.106-.116,1.341-.222,1.907L31.77,23.37l-.71,1.938-.854,1.66-1.169,1.8L27.818,30.26l-1.4,1.356-1.835,1.455-1.662.973-1.5.694-1.408.547-1.492.375-1.255.237-1.178.13ZM7.119,21.546a1.2,1.2,0,0,0-.888,2.007,11.883,11.883,0,0,0,17.778,0,1.2,1.2,0,0,0-.888-2,1.211,1.211,0,0,0-.894.4,9.483,9.483,0,0,1-14.215,0A1.208,1.208,0,0,0,7.119,21.546Zm15.2-10.8a2.4,2.4,0,1,0,2.4,2.4A2.4,2.4,0,0,0,22.322,10.746Zm-14.4,0a2.4,2.4,0,1,0,2.4,2.4A2.4,2.4,0,0,0,7.919,10.746Z" transform="translate(0 0)"/></svg>