<svg xmlns="http://www.w3.org/2000/svg" width="19.427" height="21.365" viewBox="0 0 19.427 21.365"><defs><style>.a{fill:#469a09;}.b{fill:#d9d9d9;}.c{fill:#ffd064;}.d{fill:#5b5353;}</style></defs><g transform="translate(-20.202 -0.564)"><path class="a" d="M144.537,7.5v4.163l-9.714.363-9.713-.363V7.5Z" transform="translate(-104.908 -6.936)"/><path class="a" d="M333.679,7.5v4.163H331.2v-2.6A1.559,1.559,0,0,0,329.64,7.5Z" transform="translate(-294.051 -6.936)"/><path class="b" d="M125.11,62.84h19.427v17.2H125.11Z" transform="translate(-104.908 -58.112)"/><path class="c" d="M201.06,172.488v1.084a1.111,1.111,0,0,1-1.11,1.11H192.44a1.111,1.111,0,0,1-1.11-1.11v-1.084a1.111,1.111,0,0,1,1.11-1.111h7.509A1.111,1.111,0,0,1,201.06,172.488Z" transform="translate(-166.146 -154.483)"/><path class="b" d="M331.8,62.84v17.2H327.61a1.711,1.711,0,0,0,1.711-1.712V62.84Z" transform="translate(-292.173 -58.112)"/><path class="d" d="M259.645,101.861h-5.986a.564.564,0,0,0,0,1.129h5.986a.564.564,0,1,0,0-1.129Z" transform="translate(-226.265 -94.198)"/><path class="d" d="M259.645,101.861h-5.986a.564.564,0,0,0,0,1.129h5.986a.564.564,0,1,0,0-1.129Z" transform="translate(-226.265 -91.198)"/><path class="d" d="M259.645,101.861h-5.986a.564.564,0,0,0,0,1.129h5.986a.564.564,0,1,0,0-1.129Z" transform="translate(-226.265 -88.198)"/><path class="d" d="M210.339,28.036H203.8a.564.564,0,1,0,0,1.129h6.543a.564.564,0,0,0,0-1.129Z" transform="translate(-177.152 -25.927)"/></g></svg>