<svg xmlns="http://www.w3.org/2000/svg" width="32.44" height="26.413" viewBox="0 0 32.44 26.413"><defs><style>.a{fill:#469a09;}</style></defs><path class="a" d="M21.452,18.756a5.231,5.231,0,1,1-5.232-5.232A5.238,5.238,0,0,1,21.452,18.756ZM32.44,11.327V26.186a3.587,3.587,0,0,1-3.587,3.587H3.587A3.587,3.587,0,0,1,0,26.186V11.327A3.587,3.587,0,0,1,3.587,7.74H8V6.5A3.138,3.138,0,0,1,11.138,3.36H21.3A3.138,3.138,0,0,1,24.441,6.5v1.24h4.412A3.589,3.589,0,0,1,32.44,11.327Zm-8.3,7.429a7.922,7.922,0,1,0-7.922,7.922A7.931,7.931,0,0,0,24.142,18.756Z" transform="translate(0 -3.36)"/></svg>