<svg xmlns="http://www.w3.org/2000/svg" xmlns:xlink="http://www.w3.org/1999/xlink" width="29.774" height="22.573" viewBox="0 0 29.774 22.573"><defs><style>.a{fill:#469a21;}.b{fill:#5b5353;}.c{fill:#3a312a;}.d{fill:#fff;}.e{filter:url(#s);}.f{filter:url(#q);}.g{filter:url(#o);}.h{filter:url(#m);}.i{filter:url(#k);}.j{filter:url(#i);}.k{filter:url(#g);}.l{filter:url(#e);}.m{filter:url(#c);}.n{filter:url(#a);}</style><filter id="a" x="17.923" y="0" width="9.381" height="9.89" filterUnits="userSpaceOnUse"><feOffset dx="0.5" dy="2" input="SourceAlpha"/><feGaussianBlur stdDeviation="1.5" result="b"/><feFlood flood-opacity="0.161"/><feComposite operator="in" in2="b"/><feComposite in="SourceGraphic"/></filter><filter id="c" x="17.923" y="1.445" width="9.381" height="19.683" filterUnits="userSpaceOnUse"><feOffset dx="0.5" dy="2" input="SourceAlpha"/><feGaussianBlur stdDeviation="1.5" result="d"/><feFlood flood-opacity="0.161"/><feComposite operator="in" in2="d"/><feComposite in="SourceGraphic"/></filter><filter id="e" x="17.923" y="12.683" width="9.381" height="9.89" filterUnits="userSpaceOnUse"><feOffset dx="0.5" dy="2" input="SourceAlpha"/><feGaussianBlur stdDeviation="1.5" result="f"/><feFlood flood-opacity="0.161"/><feComposite operator="in" in2="f"/><feComposite in="SourceGraphic"/></filter><filter id="g" x="21.839" y="8.73" width="6.381" height="12.23" filterUnits="userSpaceOnUse"><feOffset dx="0.5" dy="3" input="SourceAlpha"/><feGaussianBlur stdDeviation="1" result="h"/><feFlood flood-opacity="0.161"/><feComposite operator="in" in2="h"/><feComposite in="SourceGraphic"/></filter><filter id="i" x="23.153" y="8.73" width="6.381" height="12.23" filterUnits="userSpaceOnUse"><feOffset dx="0.5" dy="3" input="SourceAlpha"/><feGaussianBlur stdDeviation="1" result="j"/><feFlood flood-opacity="0.161"/><feComposite operator="in" in2="j"/><feComposite in="SourceGraphic"/></filter><filter id="k" x="21.246" y="3.068" width="8.331" height="8.331" filterUnits="userSpaceOnUse"><feOffset dx="0.5" dy="2" input="SourceAlpha"/><feGaussianBlur stdDeviation="1" result="l"/><feFlood flood-opacity="0.161"/><feComposite operator="in" in2="l"/><feComposite in="SourceGraphic"/></filter><filter id="m" x="1.017" y="6.864" width="22.198" height="9.381" filterUnits="userSpaceOnUse"><feOffset dx="0.5" dy="2" input="SourceAlpha"/><feGaussianBlur stdDeviation="1.5" result="n"/><feFlood flood-opacity="0.161"/><feComposite operator="in" in2="n"/><feComposite in="SourceGraphic"/></filter><filter id="o" x="0" y="4.322" width="24.245" height="9.381" filterUnits="userSpaceOnUse"><feOffset dx="0.5" dy="2" input="SourceAlpha"/><feGaussianBlur stdDeviation="1.5" result="p"/><feFlood flood-opacity="0.161"/><feComposite operator="in" in2="p"/><feComposite in="SourceGraphic"/></filter><filter id="q" x="0" y="2.16" width="24.245" height="9.381" filterUnits="userSpaceOnUse"><feOffset dx="0.5" dy="2" input="SourceAlpha"/><feGaussianBlur stdDeviation="1.5" result="r"/><feFlood flood-opacity="0.161"/><feComposite operator="in" in2="r"/><feComposite in="SourceGraphic"/></filter><filter id="s" x="1.405" y="10.957" width="13.933" height="7.768" filterUnits="userSpaceOnUse"><feOffset dx="0.5" dy="1" input="SourceAlpha"/><feGaussianBlur stdDeviation="1" result="t"/><feFlood flood-opacity="0.161"/><feComposite operator="in" in2="t"/><feComposite in="SourceGraphic"/></filter></defs><g transform="translate(-13.771 -71.928)"><g transform="translate(14.94 74.619)"><path class="a" d="M44.654,80.961h.01V77.1a1.17,1.17,0,0,0-1.171-1.171H17.42A1.17,1.17,0,0,0,16.249,77.1v3.861h.032a1.589,1.589,0,0,1,0,3.178h-.032V88A1.17,1.17,0,0,0,17.42,89.17H43.493A1.17,1.17,0,0,0,44.664,88v-3.86h-.01a1.589,1.589,0,1,1,0-3.178Z" transform="translate(-16.249 -75.93)"/></g><g transform="translate(14.749 74.428)"><g transform="translate(0 0)"><path class="b" d="M43.355,79.843a.191.191,0,0,0,.191-.191v-3.86a1.363,1.363,0,0,0-1.362-1.362H20.233a.191.191,0,1,0,0,.381H42.184a.981.981,0,0,1,.98.98v3.678a1.78,1.78,0,0,0,0,3.541v3.679a.981.981,0,0,1-.98.98H16.111a.981.981,0,0,1-.98-.98V83.014a1.78,1.78,0,0,0,0-3.546V75.793a.981.981,0,0,1,.98-.98h4.122c.105,0-.133-.085-.133-.191s.238-.191.133-.191H16.111a1.363,1.363,0,0,0-1.362,1.362v3.861a.194.194,0,0,0,.068.144.2.2,0,0,0,.154.046,1.4,1.4,0,1,1-.009,2.8.191.191,0,0,0-.214.189v3.861a1.363,1.363,0,0,0,1.362,1.362H42.184a1.363,1.363,0,0,0,1.362-1.362v-3.86a.2.2,0,0,0-.2-.191,1.4,1.4,0,1,1,.01-2.8Z" transform="translate(-14.749 -74.431)"/></g></g><g transform="translate(35.695 74.428)"><g transform="translate(0 0)"><g class="n" transform="matrix(1, 0, 0, 1, -21.92, -2.5)"><path class="c" d="M179.69,74.428a.191.191,0,0,0-.191.191v.509a.191.191,0,1,0,.381,0v-.509A.191.191,0,0,0,179.69,74.428Z" transform="translate(-157.58 -71.93)"/></g><g class="m" transform="matrix(1, 0, 0, 1, -21.92, -2.5)"><path class="c" d="M179.69,93.286a.191.191,0,0,0-.191.191v.936a.191.191,0,1,0,.381,0v-.936A.191.191,0,0,0,179.69,93.286Zm0-1.873a.191.191,0,0,0-.191.191v.936a.191.191,0,1,0,.381,0V91.6A.191.191,0,0,0,179.69,91.413Zm0,3.746a.191.191,0,0,0-.191.191v.936a.191.191,0,0,0,.381,0V95.35A.191.191,0,0,0,179.69,95.159Zm0-5.619a.191.191,0,0,0-.191.191v.936a.191.191,0,1,0,.381,0v-.936A.191.191,0,0,0,179.69,89.54Zm0-1.873a.191.191,0,0,0-.191.191v.936a.191.191,0,1,0,.381,0v-.936A.191.191,0,0,0,179.69,87.667Zm0-1.873a.191.191,0,0,0-.191.191v.936a.191.191,0,1,0,.381,0v-.936A.191.191,0,0,0,179.69,85.794Z" transform="translate(-157.58 -81.85)"/></g><g class="l" transform="matrix(1, 0, 0, 1, -21.92, -2.5)"><path class="c" d="M179.69,174.187a.191.191,0,0,0-.191.191v.509a.191.191,0,0,0,.381,0v-.509A.191.191,0,0,0,179.69,174.187Z" transform="translate(-157.58 -159)"/></g></g></g><g transform="translate(27.982 86.209)"><g transform="translate(0 0)"><path class="c" d="M124.871,167.094h-5.848a.191.191,0,1,0,0,.381h5.848a.191.191,0,1,0,0-.381Z" transform="translate(-118.832 -167.094)"/></g></g><g transform="translate(27.982 84.895)"><path class="c" d="M124.871,156.761h-5.848a.191.191,0,0,0,0,.381h5.848a.191.191,0,0,0,0-.381Z" transform="translate(-118.832 -156.761)"/></g><g transform="translate(38.11 80.658)"><g class="k" transform="matrix(1, 0, 0, 1, -24.34, -8.73)"><path class="c" d="M198.69,123.428a.191.191,0,0,0-.191.191v5.848a.191.191,0,1,0,.381,0v-5.848A.191.191,0,0,0,198.69,123.428Z" transform="translate(-174.16 -114.7)"/></g><g class="j" transform="matrix(1, 0, 0, 1, -24.34, -8.73)"><path class="c" d="M209.023,123.428a.191.191,0,0,0-.191.191v5.848a.191.191,0,1,0,.381,0v-5.848A.191.191,0,0,0,209.023,123.428Z" transform="translate(-183.18 -114.7)"/></g></g><g transform="translate(37.708 76.187)"><g transform="translate(0 0)"><rect class="d" width="1.949" height="1.949"/></g></g><g class="i" transform="matrix(1, 0, 0, 1, 13.77, 71.93)"><path class="b" d="M123.972,84.761h-1.949a.191.191,0,0,0-.191.191V86.9a.191.191,0,0,0,.191.191h1.949a.191.191,0,0,0,.191-.191V84.952A.191.191,0,0,0,123.972,84.761Zm-.191,1.949h-1.568V85.142h1.568Z" transform="translate(-98.09 -80.69)"/></g><g transform="translate(17.771 76.588)"><g class="h" transform="matrix(1, 0, 0, 1, -4, -4.66)"><path class="c" d="M51.393,128.421H38.845c-.18,0-.325.085-.325.191s.145.191.325.191H51.393c.18,0,.325-.085.325-.191S51.573,128.421,51.393,128.421Z" transform="translate(-33.5 -119.06)"/></g><g class="g" transform="matrix(1, 0, 0, 1, -4, -4.66)"><path class="c" d="M53.389,100.421H38.9c-.207,0-.375.085-.375.191s.168.191.375.191H53.389c.207,0,.375-.085.375-.191S53.6,100.421,53.389,100.421Z" transform="translate(-34.52 -93.6)"/></g><g class="f" transform="matrix(1, 0, 0, 1, -4, -4.66)"><path class="c" d="M53.389,100.421H38.9c-.207,0-.375.085-.375.191s.168.191.375.191H53.389c.207,0,.375-.085.375-.191S53.6,100.421,53.389,100.421Z" transform="translate(-34.52 -95.76)"/></g></g><g transform="translate(17.867 85.075)"><g transform="translate(0 0)"><path class="d" d="M46.135,143.176H39.97a.693.693,0,0,0,0,1.386h6.165a.693.693,0,1,0,0-1.386Z" transform="translate(-39.277 -143.176)"/></g></g><g transform="translate(17.677 84.885)"><g class="e" transform="matrix(1, 0, 0, 1, -3.91, -12.96)"><path class="b" d="M44.825,141.676H38.66a.884.884,0,1,0,0,1.768h6.165a.884.884,0,0,0,0-1.768Zm0,1.386H38.66a.5.5,0,1,1,0-1h6.165a.5.5,0,0,1,0,1Z" transform="translate(-33.87 -128.72)"/></g></g></g></svg>