<svg xmlns="http://www.w3.org/2000/svg" width="43" height="43.001" viewBox="0 0 43 43.001"><defs><style>.a{fill:#21a323;}</style></defs><g transform="translate(-65.076 -65.076)"><path class="a" d="M21.5,43A21.5,21.5,0,1,1,43,21.5,21.524,21.524,0,0,1,21.5,43ZM11.577,17.365a3.307,3.307,0,0,0-2.338,5.647l6.615,6.615a3.286,3.286,0,0,0,2.338.969H18.3a3.322,3.322,0,0,0,2.378-1.131l.82-.936L32.256,16.234a3.3,3.3,0,0,0-2.483-5.481,3.322,3.322,0,0,0-2.495,1.128l-5.779,6.6-3.47,3.961-4.115-4.115a3.313,3.313,0,0,0-2.339-.967Z" transform="translate(65.076 65.076)"/><path class="a" d="M32.5,11a21.5,21.5,0,0,0,0,43V39.529l-.82.936A3.306,3.306,0,0,1,29.3,41.6h-.109a3.3,3.3,0,0,1-2.338-.969l-6.615-6.615a3.307,3.307,0,1,1,4.677-4.677l4.114,4.115L32.5,29.487Z" transform="translate(54.076 54.076)"/></g></svg>