<svg xmlns="http://www.w3.org/2000/svg" width="13" height="13.003" viewBox="0 0 13 13.003"><g transform="translate(-3.938 -3.938)"><path d="M10.439,16.941A6.5,6.5,0,0,1,5.927,5.758a.522.522,0,0,1,.725.751,5.456,5.456,0,1,0,4.307-1.5V7.042a.523.523,0,1,1-1.047,0V4.461a.523.523,0,0,1,.523-.523,6.5,6.5,0,0,1,0,13Z" transform="translate(0)"/><path d="M11.768,11.313,15,13.637a.979.979,0,0,1-1.138,1.593A.945.945,0,0,1,13.637,15l-2.324-3.235a.326.326,0,0,1,.455-.455Z" transform="translate(-3.933 -3.933)"/></g></svg>