<svg xmlns="http://www.w3.org/2000/svg" width="27.144" height="27" viewBox="0 0 27.144 27"><defs><style>.a{fill:#cbcac7;opacity:0.762;}.b{fill:#f0efeb;}.c{fill:#e4363a;}.d{fill:#004a87;}.e{fill:#008286;}.f{fill:#fff;}</style></defs><path class="a" d="M13.249,0A13.249,13.249,0,1,1,0,13.249,13.249,13.249,0,0,1,13.249,0Z" transform="translate(0.645 0.502)"/><path class="b" d="M25.385,15.407A12.758,12.758,0,0,1,12.692,28.229a12.6,12.6,0,0,1-9.4-4.2,12.827,12.827,0,0,1-3.168-6.8A13.029,13.029,0,0,1,0,15.407,12.758,12.758,0,0,1,12.692,2.585,12.758,12.758,0,0,1,25.385,15.407Z" transform="translate(0 -2.585)"/><path class="c" d="M13.973,92.847a1.558,1.558,0,0,0-.83-.191q-3.24,0-6.48,0c-.182,0-.364.019-.547.029-.066.09-.178.08-.266.118a2.249,2.249,0,0,0-1.376,1.588c-.111.451-1.117,4.818-1.93,8.349a12.826,12.826,0,0,0,3.168,6.8c1.166,0,2.333,0,3.5.015a2.365,2.365,0,0,0,2.246-1.8c.4-1.833.838-3.657,1.26-5.485q.913-3.952,1.826-7.9A1.348,1.348,0,0,0,13.973,92.847Z" transform="translate(-2.417 -88.099)"/><path class="d" d="M102.205,94.389a2.249,2.249,0,0,1,1.376-1.588c.089-.038.2-.028.266-.118.182-.01.364-.028.546-.029q3.24,0,6.481,0a1.556,1.556,0,0,1,.83.191,1.348,1.348,0,0,1,.57,1.517l-1.825,7.9c-.422,1.828-.859,3.652-1.26,5.485a2.365,2.365,0,0,1-2.246,1.8c-2.123-.031-4.247-.009-6.371-.011-.188,0-.375-.017-.563-.026a.229.229,0,0,0-.152-.073,1.3,1.3,0,0,1-.791-1.092,4.394,4.394,0,0,1,.162-1.054S102.015,95.157,102.205,94.389Z" transform="translate(-94.104 -88.096)"/><path class="e" d="M250.518,94.389a2.249,2.249,0,0,1,1.376-1.588c.089-.038.2-.028.266-.118.182-.01.364-.028.546-.029q3.24,0,6.481,0a1.556,1.556,0,0,1,.83.191,1.348,1.348,0,0,1,.57,1.517l-1.825,7.9c-.422,1.828-.859,3.652-1.26,5.485a2.365,2.365,0,0,1-2.246,1.8c-2.123-.031-4.247-.009-6.371-.011-.188,0-.375-.017-.563-.026a.229.229,0,0,0-.152-.073,1.3,1.3,0,0,1-.792-1.092,4.393,4.393,0,0,1,.162-1.054S250.328,95.157,250.518,94.389Z" transform="translate(-234.989 -88.096)"/><g transform="translate(0.976 9.579)"><path class="f" d="M294.3,197.547c-.173,0-.346,0-.519,0-.072,0-.1.02-.117.1-.083.432-.173.863-.257,1.295-.015.08-.043.11-.129.106-.2-.008-.409-.008-.613,0-.1,0-.126-.02-.1-.122.13-.621.254-1.243.381-1.864.139-.68.28-1.359.415-2.039.017-.084.046-.107.129-.106.578,0,1.156,0,1.734,0a1.674,1.674,0,0,1,.408.05.784.784,0,0,1,.641.741,1.673,1.673,0,0,1-1,1.734,1.588,1.588,0,0,1-.611.111Zm.039-.72h.319a.675.675,0,0,0,.736-.646c.052-.334-.054-.5-.379-.543a7.192,7.192,0,0,0-.884-.017c-.046,0-.057.025-.065.066-.07.354-.14.708-.216,1.061-.015.069,0,.082.064.081C294.051,196.824,294.192,196.826,294.334,196.826Z" transform="translate(-278.872 -194.758)"/><path class="f" d="M407.919,227.755a.2.2,0,0,0,.068-.112c.21-.492.42-.982.626-1.476a.123.123,0,0,1,.138-.092c.177.006.354.006.531,0,.1,0,.1.021.062.1q-.667,1.358-1.33,2.719a6.036,6.036,0,0,1-.648,1.131,1.453,1.453,0,0,1-.9.609.89.89,0,0,1-.383.017c.014-.122.027-.243.042-.365a.077.077,0,0,1,.049-.073,1.561,1.561,0,0,0,.73-.717c.121-.2.215-.414.318-.624a.25.25,0,0,0,.014-.139c-.068-.847-.134-1.695-.2-2.542-.008-.092.016-.117.1-.115.2,0,.409,0,.614-.007.1,0,.133.022.135.129C407.892,226.716,407.907,227.228,407.919,227.755Z" transform="translate(-386.723 -224.345)"/><path class="f" d="M360.431,231.4c-.04,0-.081,0-.1-.042-.055-.1-.126-.083-.216-.045a1.506,1.506,0,0,1-.537.125.615.615,0,0,1-.683-.577,1.973,1.973,0,0,1,.444-1.521.909.909,0,0,1,1.263-.129c.075.055.13.074.2,0l.136-.142a.078.078,0,0,1,.054-.024l.594-.02c.1,0,.091.037.056.2-.154.7-.308,1.4-.458,2.1-.016.073-.04.1-.115.095C360.962,231.411,360.537,231.4,360.431,231.4Zm.171-1.361a.737.737,0,0,0-.06-.3.282.282,0,0,0-.4-.143.505.505,0,0,0-.153.109,1.124,1.124,0,0,0-.315.9.492.492,0,0,0,.064.2.277.277,0,0,0,.371.132.546.546,0,0,0,.2-.145A1.171,1.171,0,0,0,360.6,230.037Z" transform="translate(-341.878 -227.135)"/><path class="f" d="M184.213,224.913a.916.916,0,0,1,.992.716,1.655,1.655,0,0,1-1.2,1.928,1.263,1.263,0,0,1-.809-.065.828.828,0,0,1-.5-.675,1.769,1.769,0,0,1,.79-1.717A1.451,1.451,0,0,1,184.213,224.913Zm-.863,1.556c0,.329.11.508.326.547a.6.6,0,0,0,.653-.253,1.352,1.352,0,0,0,.228-.915.4.4,0,0,0-.392-.374.616.616,0,0,0-.6.3A1.5,1.5,0,0,0,183.349,226.469Z" transform="translate(-174.512 -223.242)"/><path class="f" d="M239.3,224.959a1.077,1.077,0,0,0-.93.376,2.115,2.115,0,0,1,.043-.232c.024-.082-.007-.094-.078-.091-.145,0-.291.006-.437,0-.075,0-.1.023-.114.1-.055.282-.375,1.892-.473,2.37-.015.072,0,.089.071.087h.46c.082,0,.107-.029.119-.1.032-.188.254-1.285.3-1.461a.611.611,0,0,1,.64-.49.279.279,0,0,1,.3.331,1.544,1.544,0,0,1-.03.2c-.094.479-.187.957-.285,1.435-.015.072,0,.089.071.087h.46c.082,0,.107-.029.119-.1.032-.188.073-.374.108-.561.076-.413.181-.822.233-1.239A.587.587,0,0,0,239.3,224.959Z" transform="translate(-226.399 -223.282)"/><path class="f" d="M95.587,225.513a.608.608,0,0,0-.529.518c-.094.417-.171.839-.252,1.259-.051.262-.048.263-.315.263-.094,0-.189-.006-.283,0s-.1-.022-.082-.1c.106-.521.208-1.042.311-1.563.052-.261.106-.521.154-.782.014-.077.034-.117.125-.111.149.01.3.005.448,0,.06,0,.076.02.063.076a1.607,1.607,0,0,0-.039.255,1.277,1.277,0,0,1,.132-.131,1.069,1.069,0,0,1,.783-.253.835.835,0,0,1,.112.017.583.583,0,0,1,.466.712c-.067.41-.154.818-.233,1.226-.035.183-.075.365-.107.548-.013.073-.034.109-.117.105-.149-.008-.3-.005-.448,0-.075,0-.1-.007-.08-.1q.158-.768.3-1.54C96.053,225.607,95.9,225.462,95.587,225.513Z" transform="translate(-90.381 -223.271)"/><path class="f" d="M151.6,228.647a.074.074,0,0,1-.072-.09c.1-.475.2-.941.3-1.407.067-.314.137-.628.2-.943.016-.079.039-.115.127-.11h.5c.074,0,.092.012.074.093-.172.791-.339,1.582-.507,2.374-.009.043-.011.085-.075.084C151.967,228.646,151.788,228.647,151.6,228.647Z" transform="translate(-144.916 -224.367)"/><path class="f" d="M164.674,207.781c-.085,0-.17,0-.255,0h-.087c-.077,0-.146,0-.215,0-.045,0-.074.01-.084.06q-.048.245-.1.488c-.011.052,0,.072.056.07.085,0,.17,0,.255,0h.087c.077,0,.146,0,.215,0,.045,0,.074-.01.084-.06q.048-.245.1-.488C164.741,207.8,164.729,207.78,164.674,207.781Z" transform="translate(-156.695 -206.978)"/><path class="f" d="M20.9,196.273a1.887,1.887,0,0,1-.888-.183.975.975,0,0,1-.527-.82,3.384,3.384,0,0,1,.13-.964c.152-.758.312-1.514.463-2.272.02-.1.057-.134.159-.129.216.009.433.007.649,0,.09,0,.1.027.088.108q-.243,1.17-.482,2.342c-.033.163-.071.326-.094.49a.528.528,0,0,0,.509.655.967.967,0,0,0,1.13-.843c.179-.886.363-1.771.543-2.657.013-.064.032-.1.1-.094.24,0,.48,0,.72,0,.052,0,.079,0,.065.072-.2.958-.383,1.921-.6,2.875a1.724,1.724,0,0,1-1.508,1.377c-.05.009-.1.018-.151.022C21.1,196.262,21,196.267,20.9,196.273Z" transform="translate(-19.48 -191.904)"/></g></svg>