<svg xmlns="http://www.w3.org/2000/svg" xmlns:xlink="http://www.w3.org/1999/xlink" width="23.354" height="15.181" viewBox="0 0 23.354 15.181"><defs><style>.a{fill:#469a09;stroke:#469a21;stroke-linecap:round;stroke-linejoin:round;}.b{filter:url(#a);}</style><filter id="a" x="0" y="0" width="23.354" height="15.181" filterUnits="userSpaceOnUse"><feOffset dy="0.2" input="SourceAlpha"/><feGaussianBlur stdDeviation="0.5" result="b"/><feFlood flood-opacity="0.161"/><feComposite operator="in" in2="b"/><feComposite in="SourceGraphic"/></filter></defs><g class="b" transform="matrix(1, 0, 0, 1, 0, 0)"><path class="a" d="M.3,10.432l8.406,8.613a1.018,1.018,0,0,0,1.461,0l.619-.634a1.079,1.079,0,0,0,0-1.5L3.729,9.681,10.8,2.441a1.08,1.08,0,0,0,0-1.5L10.176.309a1.018,1.018,0,0,0-1.461,0L.3,8.93a1.087,1.087,0,0,0,0,1.5Z" transform="translate(21.35 1.8) rotate(90)"/></g></svg>