<svg xmlns="http://www.w3.org/2000/svg" width="1" height="583.5" viewBox="0 0 1 583.5"><defs><style>.a{fill:#656565;opacity:0.417;}</style></defs><path class="a" d="M580.643,0H583a.5.5,0,0,1,0,1h-2.357a.5.5,0,0,1,0-1Zm-7,0H576a.5.5,0,0,1,0,1h-2.357a.5.5,0,0,1,0-1Zm-7,0H569a.5.5,0,0,1,0,1h-2.357a.5.5,0,0,1,0-1Zm-7,0H562a.5.5,0,0,1,0,1h-2.357a.5.5,0,0,1,0-1Zm-7,0H555a.5.5,0,0,1,0,1h-2.357a.5.5,0,0,1,0-1Zm-7,0H548a.5.5,0,0,1,0,1h-2.357a.5.5,0,0,1,0-1Zm-7,0H541a.5.5,0,0,1,0,1h-2.357a.5.5,0,0,1,0-1Zm-7,0H534a.5.5,0,0,1,0,1h-2.357a.5.5,0,0,1,0-1Zm-7,0H527a.5.5,0,0,1,0,1h-2.357a.5.5,0,0,1,0-1Zm-7,0H520a.5.5,0,0,1,0,1h-2.357a.5.5,0,0,1,0-1Zm-7,0H513a.5.5,0,0,1,0,1h-2.357a.5.5,0,0,1,0-1Zm-7,0H506a.5.5,0,0,1,0,1h-2.357a.5.5,0,0,1,0-1Zm-7,0H499a.5.5,0,0,1,0,1h-2.357a.5.5,0,0,1,0-1Zm-7,0H492a.5.5,0,0,1,0,1h-2.357a.5.5,0,0,1,0-1Zm-7,0H485a.5.5,0,0,1,0,1h-2.357a.5.5,0,0,1,0-1Zm-7,0H478a.5.5,0,0,1,0,1h-2.357a.5.5,0,0,1,0-1Zm-7,0H471a.5.5,0,0,1,0,1h-2.357a.5.5,0,0,1,0-1Zm-7,0H464a.5.5,0,0,1,0,1h-2.357a.5.5,0,0,1,0-1Zm-7,0H457a.5.5,0,0,1,0,1h-2.357a.5.5,0,0,1,0-1Zm-7,0H450a.5.5,0,0,1,0,1h-2.357a.5.5,0,0,1,0-1Zm-7,0H443a.5.5,0,0,1,0,1h-2.357a.5.5,0,0,1,0-1Zm-7,0H436a.5.5,0,0,1,0,1h-2.357a.5.5,0,0,1,0-1Zm-7,0H429a.5.5,0,0,1,0,1h-2.357a.5.5,0,0,1,0-1Zm-7,0H422a.5.5,0,0,1,0,1h-2.357a.5.5,0,0,1,0-1Zm-7,0H415a.5.5,0,0,1,0,1h-2.357a.5.5,0,0,1,0-1Zm-7,0H408a.5.5,0,0,1,0,1h-2.357a.5.5,0,0,1,0-1Zm-7,0H401a.5.5,0,0,1,0,1h-2.357a.5.5,0,0,1,0-1Zm-7,0H394a.5.5,0,0,1,0,1h-2.357a.5.5,0,0,1,0-1Zm-7,0H387a.5.5,0,0,1,0,1h-2.357a.5.5,0,0,1,0-1Zm-7,0H380a.5.5,0,0,1,0,1h-2.357a.5.5,0,0,1,0-1Zm-7,0H373a.5.5,0,0,1,0,1h-2.357a.5.5,0,0,1,0-1Zm-7,0H366a.5.5,0,0,1,0,1h-2.357a.5.5,0,0,1,0-1Zm-7,0H359a.5.5,0,0,1,0,1h-2.357a.5.5,0,0,1,0-1Zm-7,0H352a.5.5,0,0,1,0,1h-2.357a.5.5,0,0,1,0-1Zm-7,0H345a.5.5,0,0,1,0,1h-2.357a.5.5,0,0,1,0-1Zm-7,0H338a.5.5,0,0,1,0,1h-2.357a.5.5,0,0,1,0-1Zm-7,0H331a.5.5,0,0,1,0,1h-2.357a.5.5,0,0,1,0-1Zm-7,0H324a.5.5,0,0,1,0,1h-2.357a.5.5,0,0,1,0-1Zm-7,0H317a.5.5,0,0,1,0,1h-2.357a.5.5,0,0,1,0-1Zm-7,0H310a.5.5,0,0,1,0,1h-2.357a.5.5,0,0,1,0-1Zm-7,0H303a.5.5,0,0,1,0,1h-2.357a.5.5,0,0,1,0-1Zm-7,0H296a.5.5,0,0,1,0,1h-2.357a.5.5,0,0,1,0-1Zm-7,0H289a.5.5,0,0,1,0,1h-2.357a.5.5,0,0,1,0-1Zm-7,0H282a.5.5,0,0,1,0,1h-2.357a.5.5,0,0,1,0-1Zm-7,0H275a.5.5,0,0,1,0,1h-2.357a.5.5,0,0,1,0-1Zm-7,0H268a.5.5,0,0,1,0,1h-2.357a.5.5,0,0,1,0-1Zm-7,0H261a.5.5,0,0,1,0,1h-2.357a.5.5,0,0,1,0-1Zm-7,0H254a.5.5,0,0,1,0,1h-2.357a.5.5,0,0,1,0-1Zm-7,0H247a.5.5,0,0,1,0,1h-2.357a.5.5,0,0,1,0-1Zm-7,0H240a.5.5,0,0,1,0,1h-2.357a.5.5,0,0,1,0-1Zm-7,0H233a.5.5,0,0,1,0,1h-2.357a.5.5,0,0,1,0-1Zm-7,0H226a.5.5,0,0,1,0,1h-2.357a.5.5,0,0,1,0-1Zm-7,0H219a.5.5,0,0,1,0,1h-2.357a.5.5,0,0,1,0-1Zm-7,0H212a.5.5,0,0,1,0,1h-2.357a.5.5,0,0,1,0-1Zm-7,0H205a.5.5,0,0,1,0,1h-2.357a.5.5,0,0,1,0-1Zm-7,0H198a.5.5,0,0,1,0,1h-2.357a.5.5,0,0,1,0-1Zm-7,0H191a.5.5,0,0,1,0,1h-2.357a.5.5,0,0,1,0-1Zm-7,0H184a.5.5,0,0,1,0,1h-2.357a.5.5,0,0,1,0-1Zm-7,0H177a.5.5,0,0,1,0,1h-2.357a.5.5,0,0,1,0-1Zm-7,0H170a.5.5,0,0,1,0,1h-2.357a.5.5,0,0,1,0-1Zm-7,0H163a.5.5,0,0,1,0,1h-2.357a.5.5,0,0,1,0-1Zm-7,0H156a.5.5,0,0,1,0,1h-2.357a.5.5,0,0,1,0-1Zm-7,0H149a.5.5,0,0,1,0,1h-2.357a.5.5,0,0,1,0-1Zm-7,0H142a.5.5,0,0,1,0,1h-2.357a.5.5,0,0,1,0-1Zm-7,0H135a.5.5,0,0,1,0,1h-2.357a.5.5,0,0,1,0-1Zm-7,0H128a.5.5,0,0,1,0,1h-2.357a.5.5,0,0,1,0-1Zm-7,0H121a.5.5,0,0,1,0,1h-2.357a.5.5,0,0,1,0-1Zm-7,0H114a.5.5,0,0,1,0,1h-2.357a.5.5,0,0,1,0-1Zm-7,0H107a.5.5,0,0,1,0,1h-2.357a.5.5,0,0,1,0-1Zm-7,0H100a.5.5,0,1,1,0,1H97.643a.5.5,0,0,1,0-1Zm-7,0H93a.5.5,0,0,1,0,1H90.643a.5.5,0,0,1,0-1Zm-7,0H86a.5.5,0,0,1,0,1H83.643a.5.5,0,0,1,0-1Zm-7,0H79a.5.5,0,0,1,0,1H76.643a.5.5,0,0,1,0-1Zm-7,0H72a.5.5,0,0,1,0,1H69.643a.5.5,0,0,1,0-1Zm-7,0H65a.5.5,0,0,1,0,1H62.643a.5.5,0,0,1,0-1Zm-7,0H58a.5.5,0,0,1,0,1H55.643a.5.5,0,0,1,0-1Zm-7,0H51a.5.5,0,0,1,0,1H48.643a.5.5,0,0,1,0-1Zm-7,0H44a.5.5,0,0,1,0,1H41.643a.5.5,0,0,1,0-1Zm-7,0H37a.5.5,0,0,1,0,1H34.643a.5.5,0,0,1,0-1Zm-7,0H30a.5.5,0,0,1,0,1H27.643a.5.5,0,0,1,0-1Zm-7,0H23a.5.5,0,0,1,0,1H20.643a.5.5,0,0,1,0-1Zm-7,0H16a.5.5,0,0,1,0,1H13.643a.5.5,0,0,1,0-1Zm-7,0H9A.5.5,0,0,1,9,1H6.643a.5.5,0,0,1,0-1ZM0,0H2A.5.5,0,0,1,2,1H0Z" transform="translate(1) rotate(90)"/></svg>