<svg xmlns="http://www.w3.org/2000/svg" width="68.818" height="68.818" viewBox="0 0 68.818 68.818"><defs><style>.a{fill:#d4d4d4;}.b{fill:#3d3838;}.c{fill:#ffcf54;}</style></defs><path class="a" d="M32.913,2A30.885,30.885,0,0,0,2,32.913V35.9A30.885,30.885,0,0,0,32.913,66.818H35.9A30.885,30.885,0,0,0,66.818,35.9V32.913A30.885,30.885,0,0,0,35.9,2H32.913m0-2H35.9A32.913,32.913,0,0,1,68.818,32.913V35.9A32.913,32.913,0,0,1,35.9,68.818H32.913A32.913,32.913,0,0,1,0,35.9V32.913A32.913,32.913,0,0,1,32.913,0Z"/><path class="b" d="M29.921.343c16.525,0,29.921,12.883,29.921,29.408A29.921,29.921,0,0,1,0,29.751C0,13.226,13.4.343,29.921.343Z" transform="translate(4.488 4.658)"/><g transform="translate(17.276 21.692)"><path class="c" d="M20.123,24.563H5.526a5.345,5.345,0,0,1-3.9-1.621A5.351,5.351,0,0,1,0,19.037V5.528A5.353,5.353,0,0,1,1.621,1.621,5.345,5.345,0,0,1,5.526,0h14.6a5.345,5.345,0,0,1,3.9,1.621,5.347,5.347,0,0,1,1.621,3.906V8.694l.005,7.163-.005,3.181a5.536,5.536,0,0,1-5.526,5.526Zm14.124-.615a1.134,1.134,0,0,1-.864-.363l-6.642-6.642V7.6L33.383.98a1.15,1.15,0,0,1,.864-.365,1.341,1.341,0,0,1,.479.1,1.152,1.152,0,0,1,.749,1.132V22.721a1.152,1.152,0,0,1-.749,1.132A1.341,1.341,0,0,1,34.247,23.949Z" transform="translate(0)"/></g></svg>