<svg xmlns="http://www.w3.org/2000/svg" xmlns:xlink="http://www.w3.org/1999/xlink" width="81.502" height="81.502" viewBox="0 0 81.502 81.502"><defs><style>.a{fill:#0577e8;}.b{filter:url(#a);}</style><filter id="a" x="0" y="0" width="81.502" height="81.502" filterUnits="userSpaceOnUse"><feOffset dy="3" input="SourceAlpha"/><feGaussianBlur stdDeviation="3" result="b"/><feFlood flood-opacity="0.161"/><feComposite operator="in" in2="b"/><feComposite in="SourceGraphic"/></filter></defs><g class="b" transform="matrix(1, 0, 0, 1, 0, 0)"><path class="a" d="M63.5,31.751A31.751,31.751,0,1,0,31.751,63.5c.186,0,.372,0,.558-.012V38.783H25.488v-7.95h6.822V24.979c0-6.784,4.143-10.48,10.2-10.48a55.413,55.413,0,0,1,6.115.31V21.9H44.451c-3.287,0-3.932,1.563-3.932,3.857v5.06H48.4l-1.029,7.95H40.52v23.5A31.761,31.761,0,0,0,63.5,31.751Z" transform="translate(9 6)"/></g></svg>