<svg xmlns="http://www.w3.org/2000/svg" xmlns:xlink="http://www.w3.org/1999/xlink" width="81.502" height="81.502" viewBox="0 0 81.502 81.502"><defs><style>.a{fill:#27cc3f;}.b{filter:url(#c);}.c{filter:url(#a);}</style><filter id="a" x="0" y="0" width="81.502" height="81.502" filterUnits="userSpaceOnUse"><feOffset dy="3" input="SourceAlpha"/><feGaussianBlur stdDeviation="3" result="b"/><feFlood flood-opacity="0.161"/><feComposite operator="in" in2="b"/><feComposite in="SourceGraphic"/></filter><filter id="c" x="16.628" y="15.438" width="49.59" height="49.591" filterUnits="userSpaceOnUse"><feOffset dy="3" input="SourceAlpha"/><feGaussianBlur stdDeviation="3" result="d"/><feFlood flood-opacity="0.161"/><feComposite operator="in" in2="d"/><feComposite in="SourceGraphic"/></filter></defs><g transform="translate(9 6)"><g class="c" transform="matrix(1, 0, 0, 1, -9, -6)"><path class="a" d="M31.751,0A31.751,31.751,0,1,0,63.5,31.751,31.754,31.754,0,0,0,31.751,0Zm.673,50.237h-.008a19,19,0,0,1-9.082-2.312L13.261,50.567l2.7-9.845a19,19,0,1,1,16.467,9.515Zm0,0" transform="translate(9 6)"/></g><g class="b" transform="matrix(1, 0, 0, 1, -9, -6)"><path class="a" d="M149.872,124.469a15.8,15.8,0,0,0-13.387,24.192l.375.6-1.6,5.827,5.978-1.568.577.342a15.769,15.769,0,0,0,8.039,2.2h.006a15.8,15.8,0,0,0,.007-31.591Zm9.29,22.577c-.4,1.108-2.293,2.121-3.2,2.257a6.516,6.516,0,0,1-2.991-.188,27.415,27.415,0,0,1-2.707-1c-4.763-2.056-7.874-6.851-8.111-7.167a9.233,9.233,0,0,1-1.939-4.911,5.322,5.322,0,0,1,1.662-3.96,1.745,1.745,0,0,1,1.266-.594c.316,0,.633,0,.91.016.292.015.683-.111,1.068.815.4.951,1.345,3.287,1.464,3.524a.875.875,0,0,1,.04.832,13.529,13.529,0,0,1-1.187,1.624c-.211.261-.485.494-.208.969a14.313,14.313,0,0,0,2.641,3.288,12.98,12.98,0,0,0,3.819,2.356c.474.237.751.2,1.029-.119s1.187-1.386,1.5-1.861.633-.4,1.068-.237,2.77,1.307,3.245,1.544.791.357.91.555A3.96,3.96,0,0,1,159.163,147.046Zm0,0" transform="translate(-108.44 -103.03)"/></g></g></svg>