<svg xmlns="http://www.w3.org/2000/svg" xmlns:xlink="http://www.w3.org/1999/xlink" width="81.502" height="81.502" viewBox="0 0 81.502 81.502"><defs><style>.a{fill:#0d9be4;}.b{filter:url(#c);}.c{filter:url(#a);}</style><filter id="a" x="22.237" y="19.461" width="37.037" height="41.632" filterUnits="userSpaceOnUse"><feOffset dy="3" input="SourceAlpha"/><feGaussianBlur stdDeviation="3" result="b"/><feFlood flood-opacity="0.161"/><feComposite operator="in" in2="b"/><feComposite in="SourceGraphic"/></filter><filter id="c" x="0" y="0" width="81.502" height="81.502" filterUnits="userSpaceOnUse"><feOffset dy="3" input="SourceAlpha"/><feGaussianBlur stdDeviation="3" result="d"/><feFlood flood-opacity="0.161"/><feComposite operator="in" in2="d"/><feComposite in="SourceGraphic"/></filter></defs><g transform="translate(9 6)"><g class="c" transform="matrix(1, 0, 0, 1, -9, -6)"><path class="a" d="M192.334,166.938l-4.366-.969c-1.661-.378-3.573-.878-3.573-2.444s1.341-2.666,3.762-2.666c4.879,0,4.434,3.353,6.856,3.353a2.157,2.157,0,0,0,2.39-2.038c0-3.007-4.813-5.264-8.9-5.264-4.432,0-9.152,1.882-9.152,6.9,0,2.414.862,4.982,5.613,6.174l5.9,1.473c1.785.44,2.232,1.444,2.232,2.35,0,1.507-1.5,2.979-4.208,2.979-5.3,0-4.561-4.075-7.4-4.075a2.085,2.085,0,0,0-2.2,2.132c0,2.444,2.967,5.7,9.6,5.7,6.31,0,9.437-3.042,9.437-7.115C198.33,170.8,197.117,168,192.334,166.938Zm0,0" transform="translate(-148.06 -131.45)"/></g><g class="b" transform="matrix(1, 0, 0, 1, -9, -6)"><path class="a" d="M31.751,0A31.751,31.751,0,1,0,63.5,31.751,31.754,31.754,0,0,0,31.751,0ZM48.282,48.235a11.044,11.044,0,0,1-13.251,1.8,18.762,18.762,0,0,1-3.269.291,18.657,18.657,0,0,1-18.67-18.67,18.8,18.8,0,0,1,.281-3.218A11.045,11.045,0,0,1,28.218,13.326h.009a18.828,18.828,0,0,1,3.535-.334A18.656,18.656,0,0,1,50.431,31.659a18.779,18.779,0,0,1-.311,3.384,11.042,11.042,0,0,1-1.838,13.191Zm0,0" transform="translate(9 6)"/></g></g></svg>