<svg xmlns="http://www.w3.org/2000/svg" xmlns:xlink="http://www.w3.org/1999/xlink" width="81.502" height="81.502" viewBox="0 0 81.502 81.502"><defs><style>.a{fill:#0466c1;}.b{filter:url(#a);}</style><filter id="a" x="0" y="0" width="81.502" height="81.502" filterUnits="userSpaceOnUse"><feOffset dy="3" input="SourceAlpha"/><feGaussianBlur stdDeviation="3" result="b"/><feFlood flood-opacity="0.161"/><feComposite operator="in" in2="b"/><feComposite in="SourceGraphic"/></filter></defs><g class="b" transform="matrix(1, 0, 0, 1, 0, 0)"><path class="a" d="M31.751,0A31.751,31.751,0,1,0,63.5,31.751,31.754,31.754,0,0,0,31.751,0ZM22.525,48H14.792V24.734h7.733ZM18.658,21.558h-.05a4.03,4.03,0,1,1,.1-8.039,4.032,4.032,0,1,1-.051,8.039ZM50.407,48H42.676V35.553c0-3.128-1.12-5.261-3.918-5.261a4.233,4.233,0,0,0-3.967,2.828,5.3,5.3,0,0,0-.254,1.887V48H26.8s.1-21.082,0-23.264h7.732v3.294a7.677,7.677,0,0,1,6.969-3.84c5.088,0,8.9,3.325,8.9,10.471Zm0,0" transform="translate(9 6)"/></g></svg>