<svg xmlns="http://www.w3.org/2000/svg" xmlns:xlink="http://www.w3.org/1999/xlink" width="81.502" height="81.502" viewBox="0 0 81.502 81.502"><defs><style>.a{fill:url(#a);}.b{fill:url(#g);}.c{filter:url(#h);}.d{filter:url(#e);}.e{filter:url(#b);}</style><linearGradient id="a" x1="0.5" x2="0.5" y2="1" gradientUnits="objectBoundingBox"><stop offset="0" stop-color="#6f27aa"/><stop offset="0.261" stop-color="#df146c"/><stop offset="0.68" stop-color="#f81e51"/><stop offset="1" stop-color="#e68723"/></linearGradient><filter id="b" x="25.674" y="25.674" width="30.155" height="30.155" filterUnits="userSpaceOnUse"><feOffset dy="3" input="SourceAlpha"/><feGaussianBlur stdDeviation="3" result="c"/><feFlood flood-opacity="0.161"/><feComposite operator="in" in2="c"/><feComposite in="SourceGraphic"/></filter><filter id="e" x="16.804" y="16.804" width="47.894" height="47.894" filterUnits="userSpaceOnUse"><feOffset dy="3" input="SourceAlpha"/><feGaussianBlur stdDeviation="3" result="f"/><feFlood flood-opacity="0.161"/><feComposite operator="in" in2="f"/><feComposite in="SourceGraphic"/></filter><linearGradient id="g" x1="0.654" y1="-0.066" x2="0.264" y2="1" gradientUnits="objectBoundingBox"><stop offset="0" stop-color="#6f27aa"/><stop offset="0.308" stop-color="#df146c"/><stop offset="0.567" stop-color="#f81e51"/><stop offset="1" stop-color="#e68723"/></linearGradient><filter id="h" x="0" y="0" width="81.502" height="81.502" filterUnits="userSpaceOnUse"><feOffset dy="3" input="SourceAlpha"/><feGaussianBlur stdDeviation="3" result="i"/><feFlood flood-opacity="0.161"/><feComposite operator="in" in2="i"/><feComposite in="SourceGraphic"/></filter></defs><g transform="translate(9 6)"><g class="e" transform="matrix(1, 0, 0, 1, -9, -6)"><path class="a" d="M219.155,213.077A6.077,6.077,0,1,1,213.077,207,6.077,6.077,0,0,1,219.155,213.077Zm0,0" transform="translate(-172.33 -175.33)"/></g><g class="d" transform="matrix(1, 0, 0, 1, -9, -6)"><path class="a" d="M164.644,139.682a6.038,6.038,0,0,0-3.46-3.46,10.087,10.087,0,0,0-3.385-.627c-1.923-.088-2.5-.107-7.368-.107s-5.445.018-7.368.106a10.094,10.094,0,0,0-3.385.628,6.04,6.04,0,0,0-3.461,3.46,10.091,10.091,0,0,0-.627,3.386c-.088,1.922-.107,2.5-.107,7.368s.019,5.445.107,7.368a10.087,10.087,0,0,0,.627,3.385,6.037,6.037,0,0,0,3.46,3.46,10.074,10.074,0,0,0,3.386.628c1.922.088,2.5.106,7.367.106s5.446-.018,7.368-.106a10.074,10.074,0,0,0,3.386-.628,6.038,6.038,0,0,0,3.46-3.46,10.1,10.1,0,0,0,.628-3.385c.088-1.923.106-2.5.106-7.368s-.018-5.445-.106-7.368A10.075,10.075,0,0,0,164.644,139.682ZM150.432,159.8a9.362,9.362,0,1,1,9.362-9.362A9.362,9.362,0,0,1,150.432,159.8Zm9.732-16.906a2.188,2.188,0,1,1,2.188-2.188A2.188,2.188,0,0,1,160.164,142.891Zm0,0" transform="translate(-109.68 -112.68)"/></g><g class="c" transform="matrix(1, 0, 0, 1, -9, -6)"><path class="b" d="M31.751,0A31.751,31.751,0,1,0,63.5,31.751,31.754,31.754,0,0,0,31.751,0ZM49.873,39.268a13.376,13.376,0,0,1-.847,4.426,9.322,9.322,0,0,1-5.332,5.332,13.386,13.386,0,0,1-4.425.847c-1.944.089-2.565.11-7.517.11s-5.573-.021-7.517-.11a13.386,13.386,0,0,1-4.425-.847,9.322,9.322,0,0,1-5.332-5.332,13.373,13.373,0,0,1-.847-4.425c-.09-1.945-.11-2.566-.11-7.517s.021-5.573.11-7.517a13.378,13.378,0,0,1,.847-4.426,9.329,9.329,0,0,1,5.333-5.332,13.389,13.389,0,0,1,4.426-.847c1.944-.089,2.565-.11,7.517-.11s5.573.021,7.517.11a13.392,13.392,0,0,1,4.426.846,9.325,9.325,0,0,1,5.332,5.333,13.375,13.375,0,0,1,.848,4.426c.089,1.944.109,2.565.109,7.517S49.962,37.324,49.873,39.268Zm0,0" transform="translate(9 6)"/></g></g></svg>