<svg xmlns="http://www.w3.org/2000/svg" xmlns:xlink="http://www.w3.org/1999/xlink" width="81.502" height="81.502" viewBox="0 0 81.502 81.502"><defs><style>.a{fill:#1da1f2;}.b{filter:url(#a);}</style><filter id="a" x="0" y="0" width="81.502" height="81.502" filterUnits="userSpaceOnUse"><feOffset dy="3" input="SourceAlpha"/><feGaussianBlur stdDeviation="3" result="b"/><feFlood flood-opacity="0.161"/><feComposite operator="in" in2="b"/><feComposite in="SourceGraphic"/></filter></defs><g class="b" transform="matrix(1, 0, 0, 1, 0, 0)"><path class="a" d="M31.751,0A31.751,31.751,0,1,0,63.5,31.751,31.754,31.754,0,0,0,31.751,0Zm14.5,24.756q.021.469.021.942c0,9.63-7.33,20.735-20.735,20.735h0A20.628,20.628,0,0,1,14.363,43.16a14.823,14.823,0,0,0,1.738.1,14.623,14.623,0,0,0,9.052-3.12,7.3,7.3,0,0,1-6.808-5.062,7.263,7.263,0,0,0,3.292-.125,7.29,7.29,0,0,1-5.847-7.144c0-.033,0-.062,0-.093a7.237,7.237,0,0,0,3.3.911A7.294,7.294,0,0,1,16.835,18.9a20.691,20.691,0,0,0,15.022,7.615,7.292,7.292,0,0,1,12.419-6.646A14.617,14.617,0,0,0,48.9,18.1a7.316,7.316,0,0,1-3.2,4.031,14.535,14.535,0,0,0,4.185-1.148A14.81,14.81,0,0,1,46.248,24.756Zm0,0" transform="translate(9 6)"/></g></svg>