<svg xmlns="http://www.w3.org/2000/svg" width="20.949" height="20.954" viewBox="0 0 20.949 20.954"><defs><style>.a{fill:#3f8f22;}</style></defs><g transform="translate(2.102 -3.155)"><path class="a" d="M-18235,2861.428a10.376,10.376,0,0,1,10.375-10.375,10.386,10.386,0,0,1,10.375,10.375,10.376,10.376,0,0,1-10.375,10.379A10.38,10.38,0,0,1-18235,2861.428Zm1.648,0c0,5.158,3.574,9.039,8.727,9.039a8.748,8.748,0,0,0,8.92-9.039,8.6,8.6,0,0,0-8.92-8.864C-18229.779,2852.564-18233.354,2856.276-18233.354,2861.428Zm7.172,5.83a.655.655,0,0,1-.545-.641.537.537,0,0,1,.545-.517h.873v-6.229h-.352a.517.517,0,0,1-.521-.517.517.517,0,0,1,.521-.517h1.033c.289,0,.705.229.705.517v6.746h.852a.515.515,0,0,1,.518.517c0,.288-.23.641-.518.641Zm-.014-10.75a1.305,1.305,0,0,1,1.3-1.3,1.307,1.307,0,0,1,1.3,1.3,1.307,1.307,0,0,1-1.3,1.3A1.305,1.305,0,0,1-18226.2,2856.509Z" transform="translate(18233 -2847.799)"/><path class="a" d="M-18224.627,2850.954h0a10.432,10.432,0,0,1,7.406,3.073,10.412,10.412,0,0,1,3.068,7.4,10.409,10.409,0,0,1-3.066,7.409,10.4,10.4,0,0,1-7.408,3.071,10.489,10.489,0,0,1-10.475-10.479A10.487,10.487,0,0,1-18224.627,2850.954Zm0,20.754a10.207,10.207,0,0,0,7.268-3.012,10.216,10.216,0,0,0,3.008-7.268,10.213,10.213,0,0,0-3.012-7.26,10.228,10.228,0,0,0-7.264-3.014,10.286,10.286,0,0,0-10.275,10.274A10.289,10.289,0,0,0-18224.627,2871.708Zm0-19.244a8.7,8.7,0,0,1,9.02,8.964,9.232,9.232,0,0,1-2.557,6.52,8.975,8.975,0,0,1-6.463,2.619h0a8.665,8.665,0,0,1-6.367-2.616,9.364,9.364,0,0,1-2.459-6.522,9.094,9.094,0,0,1,2.459-6.434A8.784,8.784,0,0,1-18224.627,2852.464Zm0,17.9a8.77,8.77,0,0,0,6.318-2.559,9.037,9.037,0,0,0,2.5-6.38,8.5,8.5,0,0,0-8.82-8.764,8.588,8.588,0,0,0-6.225,2.47,8.9,8.9,0,0,0-2.4,6.294,9.163,9.163,0,0,0,2.4,6.385,8.468,8.468,0,0,0,6.223,2.554Zm-.266-15.262a1.405,1.405,0,0,1,1.4,1.4,1.405,1.405,0,0,1-1.4,1.4,1.4,1.4,0,0,1-1.4-1.4A1.4,1.4,0,0,1-18224.893,2855.1Zm0,2.609a1.206,1.206,0,0,0,1.205-1.2,1.206,1.206,0,0,0-1.205-1.2,1.2,1.2,0,0,0-1.2,1.2A1.2,1.2,0,0,0-18224.893,2857.713Zm-.768,1.025h1.033c.324,0,.8.259.8.617V2866h.752a.618.618,0,0,1,.617.617.728.728,0,0,1-.617.741h-3.111a.748.748,0,0,1-.645-.741.64.64,0,0,1,.645-.617h.773v-6.028h-.252a.62.62,0,0,1-.621-.617A.62.62,0,0,1-18225.66,2858.738Zm2.59,8.42c.221,0,.418-.3.418-.541a.413.413,0,0,0-.418-.417h-.852a.1.1,0,0,1-.1-.1v-6.746c0-.211-.348-.417-.605-.417h-1.033a.415.415,0,0,0-.422.417.415.415,0,0,0,.422.417h.352a.1.1,0,0,1,.1.1v6.229a.1.1,0,0,1-.1.1h-.873a.438.438,0,0,0-.445.417c0,.236.217.541.445.541Z" transform="translate(18233 -2847.799)"/></g></svg>