<svg xmlns="http://www.w3.org/2000/svg" width="26.07" height="21" viewBox="0 0 26.07 21"><defs><style>.a{fill:#d9d9d9;}.b{fill:#469a21;}.c{fill:#ffd064;}.d{fill:#fff;}.e{fill:#5b5353;}</style></defs><g transform="translate(-2 -8)"><path class="a" d="M4,0H22a4,4,0,0,1,4,4V17a4,4,0,0,1-4,4H4a4,4,0,0,1-4-4V4A4,4,0,0,1,4,0Z" transform="translate(2 8)"/><path class="b" d="M26.332,8H3.738A1.738,1.738,0,0,0,2,9.738v3.476H28.07V9.738A1.738,1.738,0,0,0,26.332,8Z"/><path class="b" d="M23.29,11.91a1.3,1.3,0,0,0,1.3-1.3V8H3.738A1.738,1.738,0,0,0,2,9.738V11.91Z"/><path class="c" d="M.955,0A.955.955,0,1,1,0,.955.955.955,0,0,1,.955,0Z" transform="translate(24.09 10)"/><path class="c" d="M.992,0a.974.974,0,0,1,.992.955.974.974,0,0,1-.992.955A.974.974,0,0,1,0,.955.974.974,0,0,1,.992,0Z" transform="translate(20.194 10)"/><path class="d" d="M3,0H17a3,3,0,0,1,3,3V9a3,3,0,0,1-3,3H3A3,3,0,0,1,0,9V3A3,3,0,0,1,3,0Z" transform="translate(5 15)"/><path class="e" d="M28.945,41.882H27.129a1.3,1.3,0,0,0-2.451,0H12.434a.434.434,0,1,0,0,.869H24.679a1.3,1.3,0,0,0,2.451,0h1.816a.434.434,0,1,0,0-.869Zm-3.041.869a.434.434,0,1,1,.434-.434A.434.434,0,0,1,25.9,42.751Z" transform="translate(-5.655 -18.675)"/><path class="b" d="M24.5,31.648l-1.3-4.345a.434.434,0,0,0-.834,0l-1.3,4.345a.436.436,0,0,0,.834.252l.278-.995H23.35l.278.995a.452.452,0,0,0,.869-.252Zm-2.068-1.612.33-1.095.33,1.095Z" transform="translate(-10.765 -10.739)"/><path class="b" d="M31.3,32.214h-.869A.434.434,0,0,1,30,31.779V27.434A.434.434,0,0,1,30.434,27H31.3a1.3,1.3,0,0,1,1.3,1.3V30.91A1.3,1.3,0,0,1,31.3,32.214Zm-.434-.869H31.3a.434.434,0,0,0,.434-.434V28.3a.434.434,0,0,0-.434-.434h-.434Z" transform="translate(-15.834 -10.745)"/><path class="b" d="M38.3,32.214a1.3,1.3,0,0,1-1.3-1.3.434.434,0,0,1,.869,0,.434.434,0,1,0,.869,0,.965.965,0,0,0-.539-.869l-.182-.091A1.834,1.834,0,0,1,37,28.3a1.3,1.3,0,0,1,2.607,0,.434.434,0,1,1-.869,0,.434.434,0,1,0-.869,0,.965.965,0,0,0,.539.869l.182.091a1.834,1.834,0,0,1,1.017,1.647A1.3,1.3,0,0,1,38.3,32.214Z" transform="translate(-19.793 -10.745)"/></g></svg>