<svg xmlns="http://www.w3.org/2000/svg" width="22.483" height="22.521" viewBox="0 0 22.483 22.521"><defs><style>.a{fill:#469a09;}</style></defs><path class="a" d="M8.938-3.2A29.446,29.446,0,0,0,12.619-.025,19.625,19.625,0,0,0,16.5,2.2a9.463,9.463,0,0,0,3.669.819,5.75,5.75,0,0,0,2.2-.419A4.972,4.972,0,0,0,24.21,1.27,4.82,4.82,0,0,0,24.965.127,2.876,2.876,0,0,0,25.251-1.1a2.18,2.18,0,0,0-.19-.889,1.749,1.749,0,0,0-.635-.736L20.731-5.345a3.51,3.51,0,0,0-.793-.457,1.92,1.92,0,0,0-.692-.14,1.576,1.576,0,0,0-.793.222,3.689,3.689,0,0,0-.793.641l-.876.838a.6.6,0,0,1-.457.19.8.8,0,0,1-.267-.044q-.127-.044-.216-.083A8.932,8.932,0,0,1,14.39-5.23q-.882-.749-1.771-1.638t-1.65-1.777a8.737,8.737,0,0,1-1.041-1.447,2.19,2.19,0,0,1-.1-.222.786.786,0,0,1-.044-.273.583.583,0,0,1,.19-.444l.851-.863a4.383,4.383,0,0,0,.635-.806,1.564,1.564,0,0,0,.229-.806,1.848,1.848,0,0,0-.146-.692,4.012,4.012,0,0,0-.451-.793l-2.6-3.644a1.871,1.871,0,0,0-.749-.654,2.2,2.2,0,0,0-.952-.209,3.3,3.3,0,0,0-2.323,1.041A5.285,5.285,0,0,0,3.174-16.58,5.888,5.888,0,0,0,2.768-14.4a9.524,9.524,0,0,0,.806,3.669,19.144,19.144,0,0,0,2.2,3.853A30.106,30.106,0,0,0,8.938-3.2Z" transform="translate(-2.768 19.5)"/></svg>