<svg xmlns="http://www.w3.org/2000/svg" width="13.242" height="19.469" viewBox="0 0 13.242 19.469"><defs><style>.a{fill:#469a09;}.b{fill:rgba(0,0,0,0);}</style></defs><g transform="translate(-51.484 -52.531)"><path class="a" d="M2.984-3.086a1.263,1.263,0,0,0,1.352,1.32H8.148V1.875c0,.758.7,2.125.953,2.125s.961-1.367.961-2.125V-1.766h3.813a1.267,1.267,0,0,0,1.352-1.32c0-1.68-1.312-3.281-3.422-4.094l-.242-3.562a8.821,8.821,0,0,0,2.375-1.8,1.471,1.471,0,0,0,.344-.891,1.032,1.032,0,0,0-1.109-1.031H5.039a1.034,1.034,0,0,0-1.117,1.031,1.484,1.484,0,0,0,.352.891,8.752,8.752,0,0,0,2.367,1.8L6.406-7.18C4.289-6.367,2.984-4.766,2.984-3.086Z" transform="translate(49 67.5)"/><path class="b" d="M9.1,4.5c-.243,0-.58-.121-1.025-1.065a4.166,4.166,0,0,1-.428-1.56V-1.266H4.336a1.757,1.757,0,0,1-1.852-1.82A4.207,4.207,0,0,1,3.517-5.777,6.419,6.419,0,0,1,5.928-7.525l.194-2.942A8.742,8.742,0,0,1,3.88-12.239a1.962,1.962,0,0,1-.458-1.2,1.524,1.524,0,0,1,1.617-1.531h8.133a1.537,1.537,0,0,1,1.609,1.531,1.954,1.954,0,0,1-.45,1.2,8.865,8.865,0,0,1-2.249,1.773l.2,2.941a6.44,6.44,0,0,1,2.409,1.747,4.2,4.2,0,0,1,1.035,2.692,1.757,1.757,0,0,1-1.852,1.82H10.562V1.875a4.147,4.147,0,0,1-.429,1.561C9.686,4.379,9.347,4.5,9.1,4.5ZM5.039-13.969c-.375,0-.617.209-.617.531a1,1,0,0,0,.245.582,8.246,8.246,0,0,0,2.221,1.679l.272.155L6.884-6.828l-.3.115c-1.884.723-3.1,2.147-3.1,3.627a.768.768,0,0,0,.852.82H8.648V1.875A3.5,3.5,0,0,0,9.1,3.252a3.475,3.475,0,0,0,.458-1.377V-2.266h4.312a.768.768,0,0,0,.852-.82c0-1.478-1.217-2.9-3.1-3.627l-.3-.115-.285-4.194.274-.155a8.348,8.348,0,0,0,2.231-1.682.982.982,0,0,0,.234-.578.538.538,0,0,0-.609-.531Z" transform="translate(49 67.5)"/></g></svg>