<svg xmlns="http://www.w3.org/2000/svg" width="60.34" height="65.227" viewBox="0 0 60.34 65.227"><defs><style>.a{opacity:0.999;}.b{fill:#d9b66f;}.c{fill:#ffd54f;}.d{fill:#ffc12f;}.e{fill:#fff;}.f{fill:#469a09;}</style></defs><g transform="translate(-109.539 -487.971)"><g class="a" transform="translate(109.539 490.178)"><path class="b" d="M0,0H60.338V38.911H0Z" transform="translate(0 24.108)"/><path class="b" d="M-4776.372,9938.172h-30.168l22.523-20.3a11.4,11.4,0,0,1,7.646-2.906h0a11.4,11.4,0,0,1,7.648,2.906l22.522,20.3Z" transform="translate(4806.542 -9875.153)"/><g transform="translate(0.002 0)"><path class="b" d="M-4770.831,10002.656h0a12.486,12.486,0,0,1-8.374-3.188l-21.793-19.64,21.793-19.642a12.475,12.475,0,0,1,8.374-3.187h0a12.477,12.477,0,0,1,8.375,3.187l21.8,19.642-21.793,19.64a12.492,12.492,0,0,1-8.378,3.188Z" transform="translate(4800.999 -9957)"/><path class="b" d="M-4770.831,10002.656h0a12.486,12.486,0,0,1-8.374-3.188l-21.793-19.64,21.793-19.642a12.475,12.475,0,0,1,8.374-3.187h0a12.477,12.477,0,0,1,8.375,3.187l21.8,19.642-21.793,19.64a12.492,12.492,0,0,1-8.378,3.188Z" transform="translate(4800.999 -9955.721)"/></g><path class="b" d="M-4783.426,9984.063l-6.517-3.744a7.613,7.613,0,0,1-3.824-6.6v-11.962l10.341-4.753,10.341,4.753v11.962a7.615,7.615,0,0,1-3.821,6.6Z" transform="translate(4813.421 -9944.479)"/><path class="b" d="M-4793.766,9963.422l2.55-2.55,2.6,2.6,6.468-6.469,2.549,2.552-7.081,7.082-1.937,1.937Z" transform="translate(4816.681 -9936.936)"/></g><g transform="translate(109.539 487.971)"><path class="c" d="M0,0H58.13V38.911H0Z" transform="translate(0 24.108)"/><path class="d" d="M-4777.476,9938.172h-29.064l21.7-20.3a10.756,10.756,0,0,1,7.366-2.906h0a10.753,10.753,0,0,1,7.368,2.906l21.7,20.3Z" transform="translate(4806.542 -9875.153)"/><g transform="translate(0.002 0)"><path class="c" d="M-4771.935,10002.656h0a11.784,11.784,0,0,1-8.068-3.188l-21-19.64,21-19.642a11.772,11.772,0,0,1,8.068-3.187h0a11.772,11.772,0,0,1,8.068,3.187l21,19.642-21,19.64a11.779,11.779,0,0,1-8.07,3.188Z" transform="translate(4800.999 -9957)"/><path class="e" d="M-4771.935,10002.656h0a11.784,11.784,0,0,1-8.068-3.188l-21-19.64,21-19.642a11.772,11.772,0,0,1,8.068-3.187h0a11.772,11.772,0,0,1,8.068,3.187l21,19.642-21,19.64a11.779,11.779,0,0,1-8.07,3.188Z" transform="translate(4800.999 -9955.721)"/></g><path class="f" d="M-4783.426,9984.063l-6.517-3.744a7.613,7.613,0,0,1-3.824-6.6v-11.962l10.341-4.753,10.341,4.753v11.962a7.615,7.615,0,0,1-3.821,6.6Z" transform="translate(4812.327 -9944.479)"/><path class="e" d="M-4793.766,9963.422l2.55-2.55,2.6,2.6,6.468-6.469,2.549,2.552-7.081,7.082-1.937,1.937Z" transform="translate(4815.585 -9936.936)"/></g></g></svg>