<svg xmlns="http://www.w3.org/2000/svg" xmlns:xlink="http://www.w3.org/1999/xlink" width="68" height="68" viewBox="0 0 68 68"><defs><style>.a{fill:#fff;}.b{fill:#ced5e0;}.c{fill:#f9b54c;}.d{fill:#e6e9ee;}.e{fill:#ffd05b;}.f{fill:#464040;}.g{filter:url(#a);}</style><filter id="a" x="0" y="0" width="68" height="68" filterUnits="userSpaceOnUse"><feOffset dy="3" input="SourceAlpha"/><feGaussianBlur stdDeviation="3" result="b"/><feFlood flood-opacity="0.161"/><feComposite operator="in" in2="b"/><feComposite in="SourceGraphic"/></filter></defs><g transform="translate(9.255 6)"><g class="g" transform="matrix(1, 0, 0, 1, -9.25, -6)"><path class="a" d="M25,0A25,25,0,1,1,0,25,25,25,0,0,1,25,0Z" transform="translate(9 6)"/></g><g transform="translate(12.074 8.173)"><path class="b" d="M184.4,336.027l.259,1.354,4.754,1.037,4.725-1.037.259-1.354A13.818,13.818,0,0,0,184.4,336.027Z" transform="translate(-176.938 -313.871)"/><path class="c" d="M189.976,304.118c-1.585-2.536-2.449-7.318-2.449-7.318h-5.878s-.864,4.812-2.449,7.318Z" transform="translate(-172.112 -278.36)"/><path class="d" d="M-5538.605,22183.652l-.117-.012a.017.017,0,0,1-.01,0q-.789-.079-1.556-.229l-.252-.047v0a18.1,18.1,0,0,1-8.785-4.58c.891-5.184,7.6-4.955,7.6-4.955.635.9,2.594,1.559,4.866,1.559h.062c2.277,0,4.2-.662,4.866-1.559,0,0,.078,0,.218,0h.055a11.23,11.23,0,0,1,1.407.115l.02,0,.04.006c2.054.3,5.27,1.34,5.871,4.834h0s0,0,0,.006a18.4,18.4,0,0,1-12.538,4.955C-5537.445,22183.742-5538.029,22183.709-5538.605,22183.652Z" transform="translate(5549.329 -22150.088)"/><path class="e" d="M161.381,140.537a.937.937,0,0,0-.951.173v-.432c0-4.322-2.824-5.878-6.31-5.878-3.457.029-6.281,1.585-6.281,5.906v.432a.864.864,0,0,0-.951-.173c-.547.288-.605,1.354-.173,2.363s1.239,1.585,1.786,1.325c1.066,3.083,3.169,5.791,5.647,5.791,2.449,0,4.581-2.708,5.618-5.82.547.288,1.325-.317,1.786-1.325C161.986,141.891,161.9,140.854,161.381,140.537Z" transform="translate(-141.702 -127.658)"/><path class="b" d="M-5549.329,22175.469l.29-1.615c.718,1.1,2.677,1.387,3.918,1.441h1.1l.118,0c3.719,0,4.638-1.086,4.823-1.393a.449.449,0,0,0,.041-.078l.345,1.643c-.952,1.3-3.312,1.613-4.525,1.67H-5544c-.13,0-.258,0-.383,0C-5548.2,22177.143-5549.329,22175.469-5549.329,22175.469Z" transform="translate(5556.503 -22151.699)"/><path class="f" d="M-5556.821,22154.811a.72.72,0,0,1,.723-.717.719.719,0,0,1,.717.717.72.72,0,0,1-.717.723A.721.721,0,0,1-5556.821,22154.811Zm-2.508,0a.72.72,0,0,1,.723-.717.719.719,0,0,1,.717.717.72.72,0,0,1-.717.723A.721.721,0,0,1-5559.329,22154.811Zm2.508-2.391a.721.721,0,0,1,.723-.723.72.72,0,0,1,.717.723.724.724,0,0,1-.717.723A.725.725,0,0,1-5556.821,22152.42Zm-2.508,0a.721.721,0,0,1,.723-.723.72.72,0,0,1,.717.723.724.724,0,0,1-.717.723A.725.725,0,0,1-5559.329,22152.42Z" transform="translate(5569.325 -22122.861)"/><path class="b" d="M178.277,102.7a21.6,21.6,0,0,0-12.677,0c.346-3,.691-5.906,1.066-8.7h10.545C177.557,96.795,177.932,99.7,178.277,102.7Z" transform="translate(-159.492 -90.168)"/><path class="d" d="M-5549.291,22180.094a2.839,2.839,0,0,1-1.735.59,2.857,2.857,0,0,1-2.856-2.855,2.856,2.856,0,0,1,2.856-2.85,2.827,2.827,0,0,1,1.735.59,4,4,0,0,1,3.3-1.742,4,4,0,0,1,3.3,1.727,2.841,2.841,0,0,1,1.718-.574,2.851,2.851,0,0,1,2.85,2.85,2.852,2.852,0,0,1-2.85,2.855,2.849,2.849,0,0,1-1.717-.574,4.005,4.005,0,0,1-3.3,1.727A4,4,0,0,1-5549.291,22180.094Z" transform="translate(5558.433 -22173.826)"/></g></g></svg>