<svg xmlns="http://www.w3.org/2000/svg" width="25.582" height="21.014" viewBox="0 0 25.582 21.014"><defs><style>.a{fill:#469a09;}.b{fill:#469a21;}</style></defs><g transform="translate(3.151 -2.851)"><path class="a" d="M-11839.882,3119.739h-13.01a1.111,1.111,0,0,1-1.109-1.11v-13.28a1.11,1.11,0,0,1,1.109-1.107h19.53a1.109,1.109,0,0,1,1.11,1.107v8.821a5.6,5.6,0,0,1,3.531,5.2,5.594,5.594,0,0,1-5.587,5.59A5.593,5.593,0,0,1-11839.882,3119.739Zm.729-.372a4.854,4.854,0,0,0,4.847,4.849,4.851,4.851,0,0,0,4.846-4.849,4.851,4.851,0,0,0-4.846-4.846A4.853,4.853,0,0,0-11839.153,3119.367Zm-13.56-.369h12.831a5.568,5.568,0,0,1,1.978-3.9l-2.921-2.609-.81.723a2.24,2.24,0,0,1-2.983,0l-.807-.723Zm-.548-.506,7.28-6.5-7.28-6.5Zm12.989-6.5,2.975,2.66a5.555,5.555,0,0,1,2.99-.869,5.48,5.48,0,0,1,1.314.158v-8.452Zm-3.853.667a1.5,1.5,0,0,0,2,0l8.588-7.672h-19.173Zm6.3,6.711a3.518,3.518,0,0,1,3.514-3.513,3.52,3.52,0,0,1,3.516,3.513,1.063,1.063,0,0,1-1.591.919,2.138,2.138,0,0,1-1.925,1.217,2.136,2.136,0,0,1-2.134-2.136,2.135,2.135,0,0,1,2.134-2.133,2.135,2.135,0,0,1,2.133,2.133.322.322,0,0,0,.321.321.32.32,0,0,0,.318-.321,2.776,2.776,0,0,0-2.772-2.772,2.776,2.776,0,0,0-2.773,2.772,2.778,2.778,0,0,0,2.773,2.776,2.771,2.771,0,0,0,2.3-1.22.372.372,0,0,1,.515-.1.369.369,0,0,1,.1.515,3.51,3.51,0,0,1-2.909,1.544A3.519,3.519,0,0,1-11837.82,3119.367Zm2.121,0a1.4,1.4,0,0,0,1.393,1.4,1.4,1.4,0,0,0,1.395-1.4,1.4,1.4,0,0,0-1.395-1.392A1.394,1.394,0,0,0-11835.7,3119.367Z" transform="translate(11851 -3101.241)"/><path class="b" d="M-11834.307,3125.107a5.749,5.749,0,0,1-5.714-5.218h-12.871a1.261,1.261,0,0,1-1.26-1.26v-13.28a1.26,1.26,0,0,1,1.26-1.257h19.53a1.26,1.26,0,0,1,1.261,1.257v8.72a5.741,5.741,0,0,1,2.514,2.039,5.7,5.7,0,0,1,1.018,3.26A5.745,5.745,0,0,1-11834.307,3125.107Zm-18.585-20.715a.959.959,0,0,0-.959.957v13.28a.96.96,0,0,0,.959.96h13.15l.009.14a5.448,5.448,0,0,0,5.426,5.078,5.444,5.444,0,0,0,5.437-5.44,5.406,5.406,0,0,0-.963-3.089,5.446,5.446,0,0,0-2.474-1.969l-.095-.038v-8.922a.959.959,0,0,0-.96-.957Zm18.585,19.974a5,5,0,0,1-5-5,5,5,0,0,1,5-5,5,5,0,0,1,5,5A5,5,0,0,1-11834.307,3124.366Zm0-9.7a4.7,4.7,0,0,0-4.7,4.7,4.7,4.7,0,0,0,4.7,4.7,4.7,4.7,0,0,0,4.7-4.7A4.7,4.7,0,0,0-11834.307,3114.67Zm0,8.363a3.669,3.669,0,0,1-3.664-3.667,3.668,3.668,0,0,1,3.664-3.663,3.669,3.669,0,0,1,3.666,3.663,1.215,1.215,0,0,1-1.215,1.213,1.173,1.173,0,0,1-.461-.094,2.3,2.3,0,0,1-1.99,1.167,2.287,2.287,0,0,1-2.284-2.286,2.286,2.286,0,0,1,2.284-2.283,2.286,2.286,0,0,1,2.283,2.283.171.171,0,0,0,.171.171.17.17,0,0,0,.168-.171,2.625,2.625,0,0,0-2.622-2.623,2.626,2.626,0,0,0-2.623,2.623,2.627,2.627,0,0,0,2.623,2.626,2.621,2.621,0,0,0,2.172-1.154.522.522,0,0,1,.431-.228.519.519,0,0,1,.291.089.525.525,0,0,1,.222.336.515.515,0,0,1-.082.388A3.659,3.659,0,0,1-11834.307,3123.033Zm0-7.03a3.367,3.367,0,0,0-3.363,3.364,3.369,3.369,0,0,0,3.363,3.367,3.361,3.361,0,0,0,2.785-1.478.218.218,0,0,0,.035-.164.223.223,0,0,0-.095-.143.221.221,0,0,0-.123-.037.221.221,0,0,0-.183.1,2.92,2.92,0,0,1-2.42,1.285,2.928,2.928,0,0,1-2.924-2.926,2.926,2.926,0,0,1,2.924-2.922,2.926,2.926,0,0,1,2.923,2.922.471.471,0,0,1-.469.471.472.472,0,0,1-.472-.471,1.985,1.985,0,0,0-1.982-1.983,1.985,1.985,0,0,0-1.983,1.983,1.987,1.987,0,0,0,1.983,1.986,1.994,1.994,0,0,0,1.789-1.132l.07-.146.141.081a.893.893,0,0,0,.451.123.914.914,0,0,0,.914-.913A3.368,3.368,0,0,0-11834.307,3116Zm0,4.909a1.546,1.546,0,0,1-1.543-1.545,1.544,1.544,0,0,1,1.543-1.542,1.545,1.545,0,0,1,1.545,1.542A1.547,1.547,0,0,1-11834.307,3120.912Zm0-2.787a1.243,1.243,0,0,0-1.242,1.242,1.245,1.245,0,0,0,1.242,1.245,1.246,1.246,0,0,0,1.244-1.245A1.244,1.244,0,0,0-11834.307,3118.125Zm-5.435,1.023h-13.364l7.681-6.863.1.089.807.723a2.085,2.085,0,0,0,1.392.531,2.089,2.089,0,0,0,1.392-.531l.909-.812.1.089,3.05,2.724-.132.111a5.454,5.454,0,0,0-1.925,3.8Zm-12.579-.3h12.3a5.754,5.754,0,0,1,1.89-3.755l-2.694-2.406-.71.634a2.386,2.386,0,0,1-1.591.607,2.387,2.387,0,0,1-1.592-.607l-.707-.634Zm-1.091-.021V3105.15l7.656,6.838-.126.112Zm.3-13.007v12.336l6.9-6.168Zm15.8,9.015-.084-.076-3.1-2.771.125-.112,7.529-6.727v8.979l-.187-.046a5.339,5.339,0,0,0-1.278-.154,5.417,5.417,0,0,0-2.91.845Zm-2.734-2.847,2.767,2.473a5.71,5.71,0,0,1,2.974-.832,5.659,5.659,0,0,1,1.164.12v-7.929Zm-3.079,1.2a1.644,1.644,0,0,1-1.1-.42l-8.882-7.934h19.959l-8.881,7.934A1.642,1.642,0,0,1-11843.126,3113.187Zm-9.193-8.054,8.295,7.411a1.345,1.345,0,0,0,.9.344,1.347,1.347,0,0,0,.9-.344l8.295-7.411Z" transform="translate(11851 -3101.241)"/></g></svg>