<svg xmlns="http://www.w3.org/2000/svg" xmlns:xlink="http://www.w3.org/1999/xlink" width="69.502" height="69.502" viewBox="0 0 69.502 69.502"><defs><style>.a{fill:#ffcf54;}.b{filter:url(#a);}</style><filter id="a" x="0" y="0" width="69.502" height="69.502" filterUnits="userSpaceOnUse"><feOffset dy="2" input="SourceAlpha"/><feGaussianBlur stdDeviation="1" result="b"/><feFlood flood-opacity="0.161"/><feComposite operator="in" in2="b"/><feComposite in="SourceGraphic"/></filter></defs><g class="b" transform="matrix(1, 0, 0, 1, 0, 0)"><path class="a" d="M4253.749,1178.388a31.661,31.661,0,1,1,12.36-2.5A31.556,31.556,0,0,1,4253.749,1178.388ZM4243.41,1142.9l-4.217,4.2a9.842,9.842,0,0,0-3.08,6.945,9.92,9.92,0,0,0,17.092,7.083l5.711-5.694a9.518,9.518,0,0,0-.034-14.012,7.082,7.082,0,0,0-3.254-1.727l-3.17,3.172a6.244,6.244,0,0,1,3.453,1.527,5.9,5.9,0,0,1,1.844,4.171,5.805,5.805,0,0,1-1.828,4.146l-5.446,5.429a5.785,5.785,0,0,1-4.134,1.836,6.337,6.337,0,0,1-6.009-6.008,5.8,5.8,0,0,1,1.826-4.146l1.677-1.677A7.832,7.832,0,0,1,4243.41,1142.9Zm17.608-13.676a9.967,9.967,0,0,0-7,3.067l-5.694,5.695a9.529,9.529,0,0,0,.016,14.011,7.065,7.065,0,0,0,3.271,1.71l3.171-3.153a6.07,6.07,0,0,1-3.454-1.544,5.617,5.617,0,0,1-.032-8.3l5.445-5.428a5.825,5.825,0,0,1,4.149-1.837,6.338,6.338,0,0,1,6.01,6.008,5.8,5.8,0,0,1-1.826,4.146l-1.677,1.677a7.731,7.731,0,0,1,.415,5.246l4.233-4.2a9.83,9.83,0,0,0,3.074-6.928,10.57,10.57,0,0,0-10.1-10.167Z" transform="translate(-4219 -1113.89)"/></g></svg>