<svg xmlns="http://www.w3.org/2000/svg" width="29.196" height="19.97" viewBox="0 0 29.196 19.97"><defs><style>.a{fill:#948f8c;}.b{fill:#fff;}.c{fill:#baadad;}.d{fill:#5b5353;}</style></defs><g transform="translate(-180 -149)"><path class="a" d="M9.13,0H19.565A9.13,9.13,0,0,1,28.7,9.13v1.3a9.13,9.13,0,0,1-9.13,9.13H9.13A9.13,9.13,0,0,1,0,10.435V9.13A9.13,9.13,0,0,1,9.13,0Z" transform="translate(180.5 149.405)"/><path class="b" d="M9.13,0H19.565A9.13,9.13,0,0,1,28.7,9.13v1.3a9.13,9.13,0,0,1-9.13,9.13H9.13A9.13,9.13,0,0,1,0,10.435V9.13A9.13,9.13,0,0,1,9.13,0Z" transform="translate(180 149)"/><path class="c" d="M4.5,15.859v2.99H7.49l8.818-8.818-2.99-2.99Zm14.12-8.14a.794.794,0,0,0,0-1.124L16.754,4.729a.794.794,0,0,0-1.124,0L14.171,6.188l2.99,2.99Z" transform="translate(183.171 147.113)"/><path class="d" d="M4.5,15.859v2.99H7.49l8.818-8.818-2.99-2.99Zm14.12-8.14a.794.794,0,0,0,0-1.124L16.754,4.729a.794.794,0,0,0-1.124,0L14.171,6.188l2.99,2.99Z" transform="translate(183.326 147.113)"/></g></svg>