<svg xmlns="http://www.w3.org/2000/svg" width="23.664" height="23.804" viewBox="0 0 23.664 23.804"><defs><style>.a{fill:#464040;}</style></defs><path class="a" d="M20.655-4.6A12.5,12.5,0,0,1,16.3-5.313a9.194,9.194,0,0,1-3.32-2.076,9.051,9.051,0,0,1-2.107-3.282,12.107,12.107,0,0,1-.73-4.323,12.461,12.461,0,0,1,.1-1.479A14.217,14.217,0,0,1,10.505-18a7.225,7.225,0,0,1,.387-1.231,1.467,1.467,0,0,0,.127-.368,1.6,1.6,0,0,0,.025-.254.774.774,0,0,0-.184-.5.667.667,0,0,0-.552-.229,2.071,2.071,0,0,0-.311.032,2.384,2.384,0,0,0-.413.108,10.821,10.821,0,0,0-3.9,2.653,12.88,12.88,0,0,0-2.6,4.082,12.779,12.779,0,0,0-.933,4.818,12.3,12.3,0,0,0,.939,4.862A11.559,11.559,0,0,0,5.707-.19,11.947,11.947,0,0,0,9.642,2.33a13.139,13.139,0,0,0,4.894.9,12.367,12.367,0,0,0,3.688-.546,12.77,12.77,0,0,0,3.231-1.511,11.661,11.661,0,0,0,2.552-2.247A9.918,9.918,0,0,0,25.67-3.847a2.038,2.038,0,0,0,.114-.438,2.536,2.536,0,0,0,.025-.3.724.724,0,0,0-.222-.552.7.7,0,0,0-.489-.209,1.865,1.865,0,0,0-.609.127,11.16,11.16,0,0,1-1.708.432A11.725,11.725,0,0,1,20.655-4.6Z" transform="translate(-2.146 20.579)"/></svg>