<svg xmlns="http://www.w3.org/2000/svg" width="25.667" height="25.667" viewBox="0 0 25.667 25.667"><defs><style>.a{fill:#bf2604;}.b{fill:rgba(0,0,0,0);}</style></defs><g transform="translate(-12.646 -192.502)"><path class="a" d="M14.485,3.669A11.813,11.813,0,0,0,19.246,2.7,12.637,12.637,0,0,0,23.182.025,12.568,12.568,0,0,0,25.848-3.9a11.866,11.866,0,0,0,.965-4.767,11.813,11.813,0,0,0-.971-4.761,12.714,12.714,0,0,0-2.672-3.942,12.406,12.406,0,0,0-3.936-2.666A11.947,11.947,0,0,0,14.473-21a11.9,11.9,0,0,0-4.754.958,12.5,12.5,0,0,0-3.936,2.666A12.57,12.57,0,0,0,3.11-13.432a11.88,11.88,0,0,0-.965,4.761A11.8,11.8,0,0,0,3.117-3.9,12.658,12.658,0,0,0,5.789.025,12.658,12.658,0,0,0,9.718,2.7,11.8,11.8,0,0,0,14.485,3.669ZM10.334-3.44a1.028,1.028,0,0,1-.755-.311,1.043,1.043,0,0,1-.311-.768.983.983,0,0,1,.317-.736l3.39-3.4-3.39-3.39a1.024,1.024,0,0,1-.317-.749,1,1,0,0,1,.311-.755,1.051,1.051,0,0,1,.755-.3,1.014,1.014,0,0,1,.749.292L14.5-10.144l3.428-3.415a.983.983,0,0,1,.736-.317,1.033,1.033,0,0,1,.762.3,1.018,1.018,0,0,1,.3.749,1.067,1.067,0,0,1-.317.762l-3.4,3.4,3.39,3.39a1.052,1.052,0,0,1,.317.749,1.055,1.055,0,0,1-.3.768,1.023,1.023,0,0,1-.762.311,1.1,1.1,0,0,1-.774-.3L14.5-7.135l-3.39,3.39A1.049,1.049,0,0,1,10.334-3.44Z" transform="translate(11 214)"/><path class="b" d="M14.485,4.169A12.35,12.35,0,0,1,9.518,3.156,13.215,13.215,0,0,1,5.436.379,13.214,13.214,0,0,1,2.658-3.7,12.35,12.35,0,0,1,1.646-8.671,12.431,12.431,0,0,1,2.651-13.63a13.126,13.126,0,0,1,2.778-4.1A13.057,13.057,0,0,1,9.521-20.5a12.454,12.454,0,0,1,4.952-1,12.5,12.5,0,0,1,4.958,1,12.961,12.961,0,0,1,4.093,2.773,13.271,13.271,0,0,1,2.777,4.1,12.364,12.364,0,0,1,1.013,4.96,12.417,12.417,0,0,1-1.006,4.966A13.124,13.124,0,0,1,23.535.379a13.193,13.193,0,0,1-4.09,2.777A12.364,12.364,0,0,1,14.485,4.169ZM14.473-20.5a11.46,11.46,0,0,0-4.557.918,12.061,12.061,0,0,0-3.78,2.56,12.13,12.13,0,0,0-2.567,3.787,11.437,11.437,0,0,0-.924,4.563A11.356,11.356,0,0,0,3.575-4.1,12.219,12.219,0,0,0,6.143-.328,12.219,12.219,0,0,0,9.918,2.239a11.356,11.356,0,0,0,4.567.93,11.37,11.37,0,0,0,4.561-.93A12.2,12.2,0,0,0,22.828-.328,12.128,12.128,0,0,0,25.389-4.1a11.423,11.423,0,0,0,.924-4.568,11.37,11.37,0,0,0-.93-4.561,12.275,12.275,0,0,0-2.568-3.788,11.966,11.966,0,0,0-3.778-2.559A11.505,11.505,0,0,0,14.473-20.5ZM18.649-2.94a1.6,1.6,0,0,1-1.114-.437l-.015-.015L14.5-6.427,11.462-3.392a1.557,1.557,0,0,1-1.128.451A1.537,1.537,0,0,1,9.225-3.4,1.552,1.552,0,0,1,8.768-4.52a1.489,1.489,0,0,1,.467-1.093l3.034-3.045L9.231-11.694a1.532,1.532,0,0,1-.464-1.1,1.508,1.508,0,0,1,.465-1.116,1.561,1.561,0,0,1,1.1-.437,1.521,1.521,0,0,1,1.1.438L14.5-10.85l3.071-3.059a1.489,1.489,0,0,1,1.093-.467,1.541,1.541,0,0,1,1.115.451,1.526,1.526,0,0,1,.451,1.1,1.556,1.556,0,0,1-.457,1.108l-.007.007L16.716-8.658l3.043,3.043a1.541,1.541,0,0,1,.457,1.1A1.564,1.564,0,0,1,19.768-3.4,1.53,1.53,0,0,1,18.649-2.94Zm-.428-1.166a.607.607,0,0,0,.428.166.524.524,0,0,0,.4-.161.554.554,0,0,0,.162-.418.558.558,0,0,0-.175-.4L15.3-8.658l3.752-3.752a.571.571,0,0,0,.175-.412.519.519,0,0,0-.158-.4.534.534,0,0,0-.408-.158.486.486,0,0,0-.376.164l-.008.008L14.5-9.437l-3.768-3.768a.517.517,0,0,0-.4-.146.55.55,0,0,0-.409.159.5.5,0,0,0-.157.395.525.525,0,0,0,.171.4l3.743,3.743L9.931-4.9a.486.486,0,0,0-.164.376.543.543,0,0,0,.165.415.529.529,0,0,0,.4.165.55.55,0,0,0,.421-.158L14.5-7.843Z" transform="translate(11 214)"/></g></svg>