<svg xmlns="http://www.w3.org/2000/svg" width="74.082" height="70.947" viewBox="0 0 74.082 70.947"><defs><style>.a,.e{fill:#455a64;}.a{opacity:0.928;}.b{fill:#be7316;opacity:0.73;}.c{fill:#ffd54f;}.d{fill:#ffc107;}.f{fill:#ffa000;}</style></defs><g transform="translate(-151 -440)"><g transform="translate(154 430.332)"><path class="a" d="M156.205,267.27c-2.081,0-3.134-1.567-3.134-4.7a7.929,7.929,0,1,0-1.909,5.068,5.588,5.588,0,0,0,5.042,2.767c6.268,0,6.268-5.9,6.268-7.835a17.237,17.237,0,1,0-5.253,12.389,1.572,1.572,0,0,0-2.194-2.253h0a14.1,14.1,0,1,1,4.312-10.135C159.34,266.082,158.55,267.27,156.205,267.27Zm-10.969,0a4.7,4.7,0,1,1,4.7-4.7A4.7,4.7,0,0,1,145.237,267.27Z" transform="translate(-110.197 -199.191)"/><path class="b" d="M-3829.253,12050.813h-7.923a7.778,7.778,0,0,1-5.536-2.29l25.571-25.573,4.325,3.136a6.445,6.445,0,0,0,3.856,1.271,6.434,6.434,0,0,0,3.853-1.271l4.325-3.136,19.891,19.891-19.891-19.891-4.325,3.136a6.442,6.442,0,0,1-3.853,1.268,6.451,6.451,0,0,1-3.856-1.268l-4.325-3.136-25.571,25.573a7.782,7.782,0,0,1-2.29-5.546V12008.5a7.693,7.693,0,0,1,1.473-4.575,7.805,7.805,0,0,1,6.336-3.258h56.437a7.861,7.861,0,0,1,6.33,3.228,7.739,7.739,0,0,1,1.506,4.605v34.476a7.8,7.8,0,0,1-2.289,5.546h0a7.784,7.784,0,0,1-5.535,2.29h-7.929a20.139,20.139,0,0,0-6.265-12.594,48.4,48.4,0,0,0-5.845-5.084c-1.043-.778-.645-.413-4.325-2.134-.514-.039-5.636-.84-6.153-.84a20.8,20.8,0,0,0-13.8,5.884c-3.792,3.5-5.894,9.619-6.285,14.769Z" transform="translate(3844 -11989)"/></g><g transform="translate(151 429.332)"><path class="c" d="M79.13,13.9,52.774,32.95l-4.325,3.134a6.487,6.487,0,0,1-7.709,0L36.415,32.95,10.027,13.927a7.791,7.791,0,0,1,6.362-3.259H72.8A7.835,7.835,0,0,1,79.13,13.9Z" transform="translate(-8.554)"/><g transform="translate(0 13.896)"><path class="d" d="M1.473,32.855,27.86,51.878,2.287,77.451A7.835,7.835,0,0,1,0,71.9V37.431A7.741,7.741,0,0,1,1.473,32.855Z" transform="translate(0 -32.824)"/><path class="d" d="M328.875,37.249V71.722a7.835,7.835,0,0,1-2.288,5.547L301.014,51.7,327.37,32.642A7.791,7.791,0,0,1,328.875,37.249Z" transform="translate(-256.794 -32.642)"/></g><path class="e" d="M156.205,267.27c-2.081,0-3.134-1.567-3.134-4.7a7.929,7.929,0,1,0-1.909,5.068,5.588,5.588,0,0,0,5.042,2.767c6.268,0,6.268-5.9,6.268-7.835a17.237,17.237,0,1,0-5.253,12.389,1.572,1.572,0,0,0-2.194-2.253h0a14.1,14.1,0,1,1,4.312-10.135C159.34,266.082,158.55,267.27,156.205,267.27Zm-10.969,0a4.7,4.7,0,1,1,4.7-4.7A4.7,4.7,0,0,1,145.237,267.27Z" transform="translate(-109.197 -200.191)"/><path class="f" d="M57.506,162.348l-4.325,3.134a6.487,6.487,0,0,1-7.709,0l-4.325-3.134L15.574,187.921a7.834,7.834,0,0,0,5.547,2.288h7.913a20.349,20.349,0,0,1,40.582,0h7.916a7.835,7.835,0,0,0,5.547-2.288Z" transform="translate(-13.287 -129.398)"/></g></g></svg>