<svg xmlns="http://www.w3.org/2000/svg" xmlns:xlink="http://www.w3.org/1999/xlink" width="81.502" height="81.502" viewBox="0 0 81.502 81.502"><defs><style>.a{fill:#6f27aa;}.b{filter:url(#a);}</style><filter id="a" x="0" y="0" width="81.502" height="81.502" filterUnits="userSpaceOnUse"><feOffset dy="3" input="SourceAlpha"/><feGaussianBlur stdDeviation="3" result="b"/><feFlood flood-opacity="0.161"/><feComposite operator="in" in2="b"/><feComposite in="SourceGraphic"/></filter></defs><g class="b" transform="matrix(1, 0, 0, 1, 0, 0)"><path class="a" d="M-15191.251-15300.5a31.557,31.557,0,0,1-12.356-2.5,31.685,31.685,0,0,1-10.093-6.8,31.666,31.666,0,0,1-6.8-10.093,31.558,31.558,0,0,1-2.5-12.357,31.558,31.558,0,0,1,2.5-12.357,31.659,31.659,0,0,1,6.8-10.094,31.663,31.663,0,0,1,10.093-6.806,31.534,31.534,0,0,1,12.356-2.5,31.548,31.548,0,0,1,12.359,2.5,31.635,31.635,0,0,1,10.094,6.806,31.659,31.659,0,0,1,6.8,10.094,31.558,31.558,0,0,1,2.5,12.357,31.558,31.558,0,0,1-2.5,12.357,31.666,31.666,0,0,1-6.8,10.093,31.636,31.636,0,0,1-10.094,6.8A31.564,31.564,0,0,1-15191.251-15300.5Zm-19.653-39.469h0v17.566a4.637,4.637,0,0,0,4.836,4.373h29.644a4.635,4.635,0,0,0,4.831-4.373v-17.57l-18.943,11.089a1.423,1.423,0,0,1-.712.188,1.417,1.417,0,0,1-.711-.188l-18.944-11.085Zm4.836-6.5a5.129,5.129,0,0,0-3.144,1.06,4.281,4.281,0,0,0-1.619,2.657l19.58,11.459,19.584-11.459a4.273,4.273,0,0,0-1.617-2.657,5.121,5.121,0,0,0-3.141-1.06Z" transform="translate(15232 15370)"/></g></svg>