<svg xmlns="http://www.w3.org/2000/svg" width="61.922" height="61.922" viewBox="0 0 61.922 61.922"><defs><style>.a{fill:#ffe2d9;}.b{fill:#ffcfc2;}.c{fill:#b2e59c;}.d{fill:#9ad880;}.e{fill:#ffeb99;}.f{fill:#ffde55;}</style></defs><path class="a" d="M170.331,58.037a3.86,3.86,0,0,0,.486-3.249,3.906,3.906,0,0,0-4.934-2.55l-8.9,2.821a3.526,3.526,0,0,1-4.512-2.628c-.183-.857-.349-1.821-.485-2.9a7.959,7.959,0,0,0-5.161-6.7,2.363,2.363,0,0,0-3.194,2.72,27.371,27.371,0,0,1,.748,7.019c-.36,6.459-8.637,9.865-8.637,9.865l7.235,27.833,29.8-9.446a3.865,3.865,0,0,0,2.512-4.848,4.058,4.058,0,0,0-1.519-2.008.774.774,0,0,1,0-1.242,3.867,3.867,0,0,0-.947-6.7.737.737,0,0,1-.345-1.093,3.865,3.865,0,0,0-1.821-5.773A.745.745,0,0,1,170.331,58.037Zm0,0" transform="translate(-119.329 -37.485)"/><path class="b" d="M150.29,202.8c-7.41-4.023-9.6-12.659-10.211-18.308a19.847,19.847,0,0,1-4.332,2.628l7.235,27.833,18.487-5.861C158.344,207.287,154.27,204.965,150.29,202.8Zm0,0" transform="translate(-119.329 -162.183)"/><path class="c" d="M50.356,235.527l4.7-1.491a5.628,5.628,0,0,0,3.658-7.059l-8.289-26.285-10.051,3.187a4.652,4.652,0,0,0-3.023,5.834L44.538,232.5A4.634,4.634,0,0,0,50.356,235.527Zm0,0" transform="translate(-32.645 -176.42)"/><path class="d" d="M65.43,359.314a4.634,4.634,0,0,0,5.818,3.031l4.7-1.491a5.628,5.628,0,0,0,3.658-7.059l-1.968-6.24c-8.244,1.156-13.593-.694-16.739-2.6Zm0,0" transform="translate(-53.537 -303.238)"/><path class="e" d="M133,401.843a2.973,2.973,0,1,1-3.729-1.943A2.982,2.982,0,0,1,133,401.843Zm0,0" transform="translate(-111.808 -351.414)"/><path class="e" d="M18.667,8.683l.84,1.541a9.146,9.146,0,0,0,3.631,3.641l1.537.843a2.276,2.276,0,0,1,0,3.989l-1.537.843a9.146,9.146,0,0,0-3.631,3.641l-.84,1.541a2.264,2.264,0,0,1-3.978,0l-.84-1.541a9.146,9.146,0,0,0-3.631-3.641L8.681,18.7a2.276,2.276,0,0,1,0-3.989l1.536-.843a9.146,9.146,0,0,0,3.631-3.641l.84-1.541A2.264,2.264,0,0,1,18.667,8.683Zm0,0" transform="translate(-6.594 -6.594)"/><path class="f" d="M402.038,394.465l.612,1.122a6.671,6.671,0,0,0,2.647,2.654l1.12.614a1.659,1.659,0,0,1,0,2.907l-1.12.614a6.671,6.671,0,0,0-2.647,2.654l-.612,1.122a1.65,1.65,0,0,1-2.9,0l-.612-1.122a6.666,6.666,0,0,0-2.647-2.654l-1.12-.614a1.659,1.659,0,0,1,0-2.907l1.12-.614a6.666,6.666,0,0,0,2.647-2.654l.612-1.122A1.65,1.65,0,0,1,402.038,394.465Zm0,0" transform="translate(-346.262 -346)"/><path d="M82.881,69.122a4.884,4.884,0,0,0-1.7-2.356,4.775,4.775,0,0,0-1.1-8.085,4.772,4.772,0,0,0-2.165-6.866,4.762,4.762,0,0,0,.5-3.857,4.686,4.686,0,0,0-2.322-2.818,4.911,4.911,0,0,0-3.756-.338l-8.9,2.821c-2.683.768-3.193-1.219-3.35-1.953-.187-.876-.346-1.827-.472-2.829A8.868,8.868,0,0,0,53.9,35.412a3.27,3.27,0,0,0-4.421,3.761A26.07,26.07,0,0,1,50.2,45.94c-.244,4.378-4.724,7.312-6.724,8.408l-9.968,3.16A5.565,5.565,0,0,0,29.9,64.48l7.185,22.784c.447,1.417,2.2,4.94,6.958,3.623l4.7-1.491a6.543,6.543,0,0,0,4.249-8.2L44.925,55.614a19,19,0,0,0,3.989-3.077,10.1,10.1,0,0,0,3.1-6.5,28.916,28.916,0,0,0-.769-7.27,1.443,1.443,0,0,1,.481-1.444,1.425,1.425,0,0,1,1.484-.236,7.037,7.037,0,0,1,4.6,5.977c.132,1.053.319,2.052.5,2.982.844,4.382,4.486,3.679,5.673,3.3l8.9-2.821a2.989,2.989,0,0,1,3.792,1.945,2.808,2.808,0,0,1-.373,2.487,1.674,1.674,0,0,0-.2,1.442,1.614,1.614,0,0,0,.965,1.021,2.958,2.958,0,0,1,1.392,4.419,1.643,1.643,0,0,0,.773,2.447,2.937,2.937,0,0,1,1.762,1.871,2.967,2.967,0,0,1-1.038,3.255,1.7,1.7,0,0,0-.676,1.363,1.653,1.653,0,0,0,.68,1.334,3.112,3.112,0,0,1,1.191,1.55,2.961,2.961,0,0,1-1.921,3.71L52.789,80.8a.907.907,0,0,0,.548,1.73l26.441-7.424A4.778,4.778,0,0,0,82.881,69.122ZM48.2,87.666l-4.7,1.491a3.727,3.727,0,0,1-4.679-2.44L31.63,63.934a3.749,3.749,0,0,1,2.432-4.7l9.186-2.912,8.016,25.419A4.726,4.726,0,0,1,48.2,87.666Zm0,0" transform="translate(-26.057 -30.914)"/><path d="M6.458,17.02l.84,1.541a3.172,3.172,0,0,0,5.571,0c.075-.137,1.688-2.588,1.843-2.988.3-.782-.836.258-1.14.093-.276-.151.365-1.931-.232-1.279-.314.342-1.974,3.141-2.064,3.305a1.358,1.358,0,0,1-2.386,0l-.84-1.541a10.032,10.032,0,0,0-3.991-4l-1.537-.843a1.369,1.369,0,0,1,0-2.4l1.537-.843a10.032,10.032,0,0,0,3.991-4l.84-1.541a1.358,1.358,0,0,1,2.386,0l.84,1.541a10.034,10.034,0,0,0,3.991,4l1.536.843a1.369,1.369,0,0,1,0,2.4l-1.536.842a10.014,10.014,0,0,0-2.768,2.237.907.907,0,1,0,1.372,1.186,8.223,8.223,0,0,1,2.268-1.833l1.537-.842a3.183,3.183,0,0,0,0-5.58L16.98,6.476A8.223,8.223,0,0,1,13.71,3.2l-.84-1.541a3.172,3.172,0,0,0-5.571,0L6.458,3.2a8.223,8.223,0,0,1-3.271,3.28L1.65,7.318a3.184,3.184,0,0,0,0,5.58l1.537.842A8.226,8.226,0,0,1,6.458,17.02Zm0,0"/><path d="M400.258,391.465l-1.12-.614a5.752,5.752,0,0,1-2.286-2.293l-.612-1.123h0a2.557,2.557,0,0,0-4.492,0l-.613,1.123a5.752,5.752,0,0,1-2.286,2.293l-1.12.614a2.567,2.567,0,0,0,0,4.5l1.12.614a5.748,5.748,0,0,1,2.286,2.292l.613,1.123a2.557,2.557,0,0,0,4.492,0l.612-1.123a5.75,5.75,0,0,1,2.286-2.292l1.12-.614a2.567,2.567,0,0,0,0-4.5Zm-.873,2.908-1.12.614A7.558,7.558,0,0,0,395.26,398l-.613,1.123a.743.743,0,0,1-1.307,0L392.728,398a7.556,7.556,0,0,0-3.007-3.014l-1.12-.614a.752.752,0,0,1,0-1.317l1.12-.614a7.561,7.561,0,0,0,3.007-3.015l.612-1.123a.743.743,0,0,1,1.307,0l.612,1.123a7.562,7.562,0,0,0,3.007,3.015l1.12.614a.751.751,0,0,1,0,1.317Zm0,0" transform="translate(-339.667 -339.406)"/><path d="M123.506,392.254a3.889,3.889,0,1,0,3.889,3.889A3.888,3.888,0,0,0,123.506,392.254Zm0,5.954a2.065,2.065,0,1,1,2.065-2.065A2.065,2.065,0,0,1,123.506,398.207Zm0,0" transform="translate(-105.151 -344.814)"/></svg>