<svg xmlns="http://www.w3.org/2000/svg" width="13.25" height="13.184" viewBox="0 0 13.25 13.184"><defs><style>.a{fill:#707070;}</style></defs><path class="a" d="M5.156-1.846A16.988,16.988,0,0,0,7.28-.015,11.368,11.368,0,0,0,9.518,1.271a5.448,5.448,0,0,0,2.12.472A3.318,3.318,0,0,0,12.909,1.5,2.868,2.868,0,0,0,13.967.732,2.692,2.692,0,0,0,14.4.073a1.691,1.691,0,0,0,.161-.71,1.258,1.258,0,0,0-.11-.513,1.009,1.009,0,0,0-.366-.425L11.96-3.083a2.025,2.025,0,0,0-.458-.264,1.108,1.108,0,0,0-.4-.081.909.909,0,0,0-.458.128,2.278,2.278,0,0,0-.465.37l-.5.483a.36.36,0,0,1-.264.11.462.462,0,0,1-.154-.026q-.073-.026-.125-.048A5.153,5.153,0,0,1,8.3-3.018Q7.793-3.45,7.28-3.962T6.328-4.988a5.5,5.5,0,0,1-.608-.835l-.048-.128a.453.453,0,0,1-.026-.157.348.348,0,0,1,.1-.256l.5-.5a2.528,2.528,0,0,0,.366-.465.9.9,0,0,0,.132-.465,1.028,1.028,0,0,0-.088-.4A2.712,2.712,0,0,0,6.4-8.65l-1.5-2.1a1.14,1.14,0,0,0-.436-.377,1.248,1.248,0,0,0-.546-.121,1.906,1.906,0,0,0-1.34.6,3.092,3.092,0,0,0-.751,1.084,3.351,3.351,0,0,0-.238,1.26,5.458,5.458,0,0,0,.469,2.117A11.187,11.187,0,0,0,3.333-3.966,17.369,17.369,0,0,0,5.156-1.846Zm9.119-9.595a.541.541,0,0,0-.4.168L10.994-8.379l-1,1.1L10.1-9.2V-10.21a.515.515,0,0,0-.15-.374.514.514,0,0,0-.363-.161.538.538,0,0,0-.4.146.508.508,0,0,0-.165.388v3.948a.642.642,0,0,0,.157.472.631.631,0,0,0,.465.157h3.97a.52.52,0,0,0,.392-.165.5.5,0,0,0,.143-.392.512.512,0,0,0-.157-.37.526.526,0,0,0-.377-.143H12.583l-1.926.11L11.77-7.6,14.656-10.5a.575.575,0,0,0,.183-.417.489.489,0,0,0-.165-.377A.572.572,0,0,0,14.275-11.44Z" transform="translate(-1.589 11.44)"/></svg>