<svg xmlns="http://www.w3.org/2000/svg" width="26.432" height="26.495" viewBox="0 0 26.432 26.495"><defs><style>.a{fill:#ffd54f;}</style></defs><path class="a" d="M16.5-20.82a1.106,1.106,0,0,0-.336-.8,1.09,1.09,0,0,0-.806-.343,1.076,1.076,0,0,0-.793.343,1.106,1.106,0,0,0-.336.8v2.476a1.106,1.106,0,0,0,.336.8,1.076,1.076,0,0,0,.793.343,1.09,1.09,0,0,0,.806-.343,1.106,1.106,0,0,0,.336-.8ZM16.5.914a1.1,1.1,0,0,0-.336-.806,1.1,1.1,0,0,0-.806-.336,1.085,1.085,0,0,0-.793.336,1.1,1.1,0,0,0-.336.806V3.377a1.121,1.121,0,0,0,.336.813,1.076,1.076,0,0,0,.793.343,1.09,1.09,0,0,0,.806-.343,1.121,1.121,0,0,0,.336-.812ZM27.447-7.579a1.085,1.085,0,0,0,.793-.336,1.1,1.1,0,0,0,.336-.806,1.085,1.085,0,0,0-.336-.793,1.085,1.085,0,0,0-.793-.336H24.972a1.1,1.1,0,0,0-.806.336,1.085,1.085,0,0,0-.336.793,1.1,1.1,0,0,0,.336.806,1.1,1.1,0,0,0,.806.336ZM3.288-9.852a1.1,1.1,0,0,0-.806.336,1.085,1.085,0,0,0-.336.793,1.1,1.1,0,0,0,.336.806,1.1,1.1,0,0,0,.806.336H5.764a1.085,1.085,0,0,0,.793-.336,1.1,1.1,0,0,0,.336-.806,1.085,1.085,0,0,0-.336-.793,1.085,1.085,0,0,0-.793-.336ZM7.77-14.7a1.055,1.055,0,0,0,.793.33,1.119,1.119,0,0,0,.806-.317A1.1,1.1,0,0,0,9.7-15.5a1.084,1.084,0,0,0-.317-.8L7.63-18.065a1.136,1.136,0,0,0-.806-.33.992.992,0,0,0-.793.317,1.084,1.084,0,0,0-.343.813,1.084,1.084,0,0,0,.317.8Zm13.571-1.6a1.112,1.112,0,0,0-.317.8,1.156,1.156,0,0,0,.317.813,1.127,1.127,0,0,0,.813.317,1.1,1.1,0,0,0,.813-.33l1.765-1.752a1.127,1.127,0,0,0,.317-.812,1.1,1.1,0,0,0-.33-.812,1.042,1.042,0,0,0-.8-.324,1.084,1.084,0,0,0-.8.336ZM22.953-2.729a1.119,1.119,0,0,0-.806-.317,1.119,1.119,0,0,0-.806.317,1.119,1.119,0,0,0-.317.806,1.119,1.119,0,0,0,.317.806L23.131.647a1.077,1.077,0,0,0,.793.317,1.1,1.1,0,0,0,.806-.33,1.119,1.119,0,0,0,.317-.806,1.077,1.077,0,0,0-.317-.793ZM5.992-.978a1.1,1.1,0,0,0-.324.793,1.075,1.075,0,0,0,.324.806,1.084,1.084,0,0,0,.8.336A1.083,1.083,0,0,0,7.6.635L9.369-1.117a1.1,1.1,0,0,0,.33-.806,1.077,1.077,0,0,0-.317-.793,1.1,1.1,0,0,0-.812-.33,1.084,1.084,0,0,0-.8.317Zm9.369-13.978a5.965,5.965,0,0,0-2.406.489,6.444,6.444,0,0,0-1.987,1.346,6.292,6.292,0,0,0-1.352,1.987,6.01,6.01,0,0,0-.489,2.412A6.01,6.01,0,0,0,9.617-6.31a6.292,6.292,0,0,0,1.352,1.987,6.537,6.537,0,0,0,1.987,1.352,5.9,5.9,0,0,0,2.406.5,5.913,5.913,0,0,0,2.4-.5,6.436,6.436,0,0,0,1.987-1.352A6.436,6.436,0,0,0,21.1-6.31a5.943,5.943,0,0,0,.5-2.412,5.943,5.943,0,0,0-.5-2.412,6.436,6.436,0,0,0-1.352-1.987,6.345,6.345,0,0,0-1.987-1.346A5.979,5.979,0,0,0,15.361-14.955Z" transform="translate(-2.146 21.963)"/></svg>