<svg xmlns="http://www.w3.org/2000/svg" width="16.022" height="9.949" viewBox="0 0 16.022 9.949"><defs><style>.a{fill:#ffcf54;}</style></defs><path class="a" d="M10.134-.87a2.1,2.1,0,0,0,.848-.185,2.716,2.716,0,0,0,.769-.562L17.613-7.6a1.786,1.786,0,0,0,.527-1.3,1.845,1.845,0,0,0-.259-.962,2,2,0,0,0-.686-.694,1.783,1.783,0,0,0-.945-.259,1.892,1.892,0,0,0-1.406.633L9.914-5.027h.466L5.423-10.187a1.939,1.939,0,0,0-1.415-.633,1.783,1.783,0,0,0-.945.259,2,2,0,0,0-.686.694,1.845,1.845,0,0,0-.259.962,1.821,1.821,0,0,0,.132.7,1.982,1.982,0,0,0,.4.6L8.517-1.617A2.239,2.239,0,0,0,10.134-.87Z" transform="translate(-2.118 10.819)"/></svg>