<svg xmlns="http://www.w3.org/2000/svg" width="131.489" height="129.254" viewBox="0 0 131.489 129.254"><defs><style>.a{fill:#464040;}.b{fill:#bf2604;}</style></defs><g transform="translate(-121.756 -210.25)"><path class="a" d="M96.985,14.526a27.417,27.417,0,0,0,10.559-2.014,24.259,24.259,0,0,0,8.789-6.348A23.357,23.357,0,0,0,120.026.61,13.828,13.828,0,0,0,121.4-5.31a10.482,10.482,0,0,0-.916-4.272,8.41,8.41,0,0,0-3.052-3.54q-4.456-3.174-8.881-6.317T99.67-25.7a16.874,16.874,0,0,0-3.815-2.2,9.233,9.233,0,0,0-3.326-.671A7.577,7.577,0,0,0,88.715-27.5,17.733,17.733,0,0,0,84.9-24.414l-4.211,4.028a2.871,2.871,0,0,1-2.2.916,3.852,3.852,0,0,1-1.282-.214q-.61-.214-1.038-.4a42.944,42.944,0,0,1-6.989-5.066q-4.242-3.6-8.514-7.874-4.333-4.272-7.9-8.545a46.639,46.639,0,0,1-5.035-6.958,10.529,10.529,0,0,1-.458-1.068,3.778,3.778,0,0,1-.214-1.312,2.928,2.928,0,0,1,.916-2.136l4.089-4.15a21.07,21.07,0,0,0,3.052-3.876,7.521,7.521,0,0,0,1.1-3.876,8.885,8.885,0,0,0-.7-3.326,19.29,19.29,0,0,0-2.167-3.815q-3.113-4.333-6.226-8.728T40.833-89.6a9,9,0,0,0-3.6-3.143,10.6,10.6,0,0,0-4.578-1.007,13.758,13.758,0,0,0-5.829,1.343,19.83,19.83,0,0,0-5.341,3.662,25.411,25.411,0,0,0-6.226,9.033,28.31,28.31,0,0,0-1.953,10.5,41.784,41.784,0,0,0,2.38,13.428,78.9,78.9,0,0,0,6.47,14.1,36.612,36.612,0,0,1,8.789-1.038A36.419,36.419,0,0,1,45.5-39.795,38.113,38.113,0,0,1,57.5-31.677a38.545,38.545,0,0,1,8.148,11.993A36.1,36.1,0,0,1,68.6-5.127a33.222,33.222,0,0,1-1.343,9.4,84.35,84.35,0,0,0,15.32,7.507A42.232,42.232,0,0,0,96.985,14.526Z" transform="translate(131.846 304)"/><path class="b" d="M31.006,24.414c3.988,0,7.762-1.773,11.322-3.319a30.262,30.262,0,0,0,9.43-6.409A30.7,30.7,0,0,0,58.2,5.256a23.463,23.463,0,0,0,2.35-10.383,32.115,32.115,0,0,0-4-15.832A30.273,30.273,0,0,0,45.807-31.67a28.5,28.5,0,0,0-14.8-4,28.287,28.287,0,0,0-14.8,4A30.686,30.686,0,0,0,5.493-20.958,28.282,28.282,0,0,0,1.465-6.127,28.482,28.482,0,0,0,3.784,5.287a30.42,30.42,0,0,0,6.378,9.46,29.381,29.381,0,0,0,9.43,6.378C23.173,22.651,26.978,24.414,31.006,24.414Zm-.061-11.925A3.713,3.713,0,0,1,28.2,11.451a3.634,3.634,0,0,1-1.038-2.686V-2.4H16.052a3.694,3.694,0,0,1-2.686-1.007,3.61,3.61,0,0,1-1.038-2.716,3.61,3.61,0,0,1,1.038-2.716A3.694,3.694,0,0,1,16.052-9.85H27.161V-20.958A3.713,3.713,0,0,1,28.2-23.705a3.713,3.713,0,0,1,2.747-1.038,3.61,3.61,0,0,1,2.716,1.038,3.776,3.776,0,0,1,1.007,2.747V-9.85H45.837a3.694,3.694,0,0,1,2.686,1.007,3.61,3.61,0,0,1,1.038,2.716,3.61,3.61,0,0,1-1.038,2.716A3.694,3.694,0,0,1,45.837-2.4H34.668V8.766a3.694,3.694,0,0,1-1.007,2.686A3.61,3.61,0,0,1,30.945,12.489Z" transform="translate(137.983 279.428) rotate(45)"/></g></svg>