<svg xmlns="http://www.w3.org/2000/svg" width="124.345" height="115.468" viewBox="0 0 124.345 115.468"><defs><style>.a{fill:#464040;}.b{fill:rgba(0,0,0,0);}.c{fill:#bf2604;}</style></defs><g transform="translate(-140.009 -208.765)"><path class="a" d="M-14258.7,8663.039c-1.649,0-2.72-.53-3.179-1.576a3.112,3.112,0,0,1,.6-3.268c.539-.745,1.309-1.708,2.289-2.862.965-1.139,2-2.425,3.088-3.822a42.521,42.521,0,0,0,2.8-4.066,1.177,1.177,0,0,0,.132-.932,1.339,1.339,0,0,0-.666-.756,47.128,47.128,0,0,1-11.708-8.731,37.413,37.413,0,0,1-7.531-11.2,32.325,32.325,0,0,1-2.622-12.822,31.715,31.715,0,0,1,3.733-15.083,40.018,40.018,0,0,1,10.354-12.332,50.508,50.508,0,0,1,15.352-8.33,57.665,57.665,0,0,1,18.773-3,57.885,57.885,0,0,1,18.795,3,50.143,50.143,0,0,1,15.352,8.33,40.084,40.084,0,0,1,10.329,12.332,31.676,31.676,0,0,1,3.733,15.083,32.973,32.973,0,0,1-1.168,8.78,28.275,28.275,0,0,0-3.927-1.3,31.112,31.112,0,0,0-7.563-.948,31.36,31.36,0,0,0-7.584.948,28.4,28.4,0,0,0-13.335,7.639,28.58,28.58,0,0,0-6.431,9.713,30.612,30.612,0,0,0-2.183,11.2c0,.7.021,1.411.069,2.116a78.215,78.215,0,0,1-9.022.506c-.278,0-.547-.007-.8-.021-.28-.015-.542-.021-.8-.021a3.065,3.065,0,0,0-.956.176,4.939,4.939,0,0,0-1.047.534,69.256,69.256,0,0,1-6.262,3.865c-2.287,1.262-4.657,2.429-7.044,3.469a59.2,59.2,0,0,1-6.643,2.465A18.331,18.331,0,0,1-14258.7,8663.039Z" transform="translate(14416 -8365)"/><path class="b" d="M-14258.7,8663.539a5.078,5.078,0,0,1-2.258-.448,2.837,2.837,0,0,1-1.379-1.427,3.577,3.577,0,0,1,.659-3.767c.549-.759,1.326-1.73,2.31-2.888.96-1.134,1.994-2.414,3.073-3.806a42.043,42.043,0,0,0,2.761-4.008.687.687,0,0,0,.087-.538.866.866,0,0,0-.433-.466,47.614,47.614,0,0,1-11.822-8.819,37.9,37.9,0,0,1-7.631-11.346,32.807,32.807,0,0,1-2.663-13.02,32.207,32.207,0,0,1,3.792-15.318,40.514,40.514,0,0,1,10.481-12.486,51.017,51.017,0,0,1,15.5-8.413,58.146,58.146,0,0,1,18.936-3.025,58.371,58.371,0,0,1,18.957,3.025,50.638,50.638,0,0,1,15.5,8.414,40.578,40.578,0,0,1,10.456,12.485,32.176,32.176,0,0,1,3.792,15.318,33.508,33.508,0,0,1-1.186,8.913l-.151.546-.522-.217a27.705,27.705,0,0,0-3.857-1.273,30.609,30.609,0,0,0-7.441-.934,30.871,30.871,0,0,0-7.463.934,27.9,27.9,0,0,0-13.1,7.507,28.085,28.085,0,0,0-6.319,9.544,30.107,30.107,0,0,0-2.147,11.017c0,.686.021,1.386.068,2.08l.032.476-.474.056a78.7,78.7,0,0,1-9.08.509c-.295,0-.573-.008-.828-.022s-.518-.021-.77-.021a2.566,2.566,0,0,0-.793.148,4.387,4.387,0,0,0-.929.476,70,70,0,0,1-6.3,3.89c-2.3,1.268-4.683,2.441-7.085,3.488a59.752,59.752,0,0,1-6.7,2.486A18.79,18.79,0,0,1-14258.7,8663.539Zm31.416-88.774a57.187,57.187,0,0,0-18.611,2.971,50.022,50.022,0,0,0-15.2,8.247,39.529,39.529,0,0,0-10.226,12.178,31.218,31.218,0,0,0-3.675,14.848,31.813,31.813,0,0,0,2.582,12.625,36.905,36.905,0,0,0,7.431,11.045,46.667,46.667,0,0,0,11.585,8.639l.017.009a1.84,1.84,0,0,1,.893,1.045,1.68,1.68,0,0,1-.173,1.315l-.01.016a42.922,42.922,0,0,1-2.832,4.115c-1.089,1.4-2.132,2.7-3.1,3.84s-1.731,2.094-2.266,2.832l-.008.01a2.617,2.617,0,0,0-.542,2.765c.372.847,1.287,1.276,2.721,1.276a17.849,17.849,0,0,0,4.79-.889,58.539,58.539,0,0,0,6.586-2.444c2.373-1.034,4.729-2.194,7-3.447a68.914,68.914,0,0,0,6.217-3.838l.011-.007a5.394,5.394,0,0,1,1.154-.588l.01,0a3.561,3.561,0,0,1,1.114-.2c.27,0,.539.007.825.022.238.014.5.021.772.021a78.3,78.3,0,0,0,8.5-.449c-.029-.561-.044-1.122-.042-1.674a31.1,31.1,0,0,1,2.218-11.383,29.069,29.069,0,0,1,6.542-9.882,28.906,28.906,0,0,1,13.567-7.771,31.879,31.879,0,0,1,7.705-.963,31.638,31.638,0,0,1,7.686.963,28.953,28.953,0,0,1,3.467,1.107,32.571,32.571,0,0,0,1.006-8.105,31.179,31.179,0,0,0-3.675-14.848,39.577,39.577,0,0,0-10.2-12.179,49.659,49.659,0,0,0-15.2-8.246A57.408,57.408,0,0,0-14227.279,8574.765Z" transform="translate(14416 -8365)"/><path class="c" d="M29.21,19.723a25.924,25.924,0,0,0,10.5-2.271,28.32,28.32,0,0,0,8.825-6A28.731,28.731,0,0,0,54.556,2.63a21.957,21.957,0,0,0,2.2-9.717A30.054,30.054,0,0,0,53.014-21.9,28.33,28.33,0,0,0,42.961-31.927,26.666,26.666,0,0,0,29.11-35.668a26.472,26.472,0,0,0-13.851,3.741A28.717,28.717,0,0,0,5.235-21.9a26.467,26.467,0,0,0-3.77,13.88A26.654,26.654,0,0,0,3.635,2.658,28.468,28.468,0,0,0,9.6,11.512a27.5,27.5,0,0,0,8.825,5.969A27.526,27.526,0,0,0,29.21,19.723ZM29.053,9.4a3.474,3.474,0,0,1-2.57-.971,3.4,3.4,0,0,1-.971-2.513V-4.539h-10.4A3.457,3.457,0,0,1,12.6-5.481a3.378,3.378,0,0,1-.971-2.542,3.378,3.378,0,0,1,.971-2.542,3.457,3.457,0,0,1,2.513-.942h10.4V-21.9a3.475,3.475,0,0,1,.971-2.57,3.475,3.475,0,0,1,2.57-.971,3.378,3.378,0,0,1,2.542.971,3.533,3.533,0,0,1,.942,2.57v10.4H42.99a3.457,3.457,0,0,1,2.513.942,3.378,3.378,0,0,1,.971,2.542A3.378,3.378,0,0,1,45.5-5.481a3.457,3.457,0,0,1-2.513.942H32.537V5.914a3.457,3.457,0,0,1-.942,2.513A3.378,3.378,0,0,1,29.053,9.4Z" transform="translate(199.001 270.154) rotate(45)"/></g></svg>