<svg xmlns="http://www.w3.org/2000/svg" width="13.25" height="13.184" viewBox="0 0 13.25 13.184"><defs><style>.a{fill:#707070;}</style></defs><path class="a" d="M5.156-1.846A16.988,16.988,0,0,0,7.28-.015,11.368,11.368,0,0,0,9.518,1.271a5.448,5.448,0,0,0,2.12.472A3.318,3.318,0,0,0,12.909,1.5,2.868,2.868,0,0,0,13.967.732,2.692,2.692,0,0,0,14.4.073a1.691,1.691,0,0,0,.161-.71,1.258,1.258,0,0,0-.11-.513,1.009,1.009,0,0,0-.366-.425L11.96-3.083a2.025,2.025,0,0,0-.458-.264,1.108,1.108,0,0,0-.4-.081.909.909,0,0,0-.458.128,2.278,2.278,0,0,0-.465.37l-.5.483a.36.36,0,0,1-.264.11.462.462,0,0,1-.154-.026q-.073-.026-.125-.048A5.153,5.153,0,0,1,8.3-3.018Q7.793-3.45,7.28-3.962T6.328-4.988a5.5,5.5,0,0,1-.608-.835l-.048-.128a.453.453,0,0,1-.026-.157.348.348,0,0,1,.1-.256l.5-.5a2.528,2.528,0,0,0,.366-.465.9.9,0,0,0,.132-.465,1.028,1.028,0,0,0-.088-.4A2.712,2.712,0,0,0,6.4-8.65l-1.5-2.1a1.14,1.14,0,0,0-.436-.377,1.248,1.248,0,0,0-.546-.121,1.906,1.906,0,0,0-1.34.6,3.092,3.092,0,0,0-.751,1.084,3.351,3.351,0,0,0-.238,1.26,5.458,5.458,0,0,0,.469,2.117A11.187,11.187,0,0,0,3.333-3.966,17.369,17.369,0,0,0,5.156-1.846ZM9.587-5.632a.545.545,0,0,0,.388-.161l2.886-2.9,1.011-1.1-.11,1.919v1.018a.509.509,0,0,0,.146.37.552.552,0,0,0,.374.165.522.522,0,0,0,.392-.15.512.512,0,0,0,.165-.385v-3.962a.633.633,0,0,0-.157-.461.633.633,0,0,0-.472-.161h-3.97a.523.523,0,0,0-.388.165.5.5,0,0,0-.146.4.51.51,0,0,0,.161.366.522.522,0,0,0,.374.146h1.033l1.934-.11-1.113,1L9.207-6.577a.583.583,0,0,0-.183.425.486.486,0,0,0,.161.37A.568.568,0,0,0,9.587-5.632Z" transform="translate(-1.589 11.44)"/></svg>