<svg xmlns="http://www.w3.org/2000/svg" xmlns:xlink="http://www.w3.org/1999/xlink" width="68" height="68" viewBox="0 0 68 68"><defs><style>.a{fill:#fff;}.b{fill:#ffbb85;}.c{fill:#6aa9ff;}.d{fill:#f5a86c;}.e{fill:#6aa9fb;}.f{filter:url(#a);}</style><filter id="a" x="0" y="0" width="68" height="68" filterUnits="userSpaceOnUse"><feOffset dy="3" input="SourceAlpha"/><feGaussianBlur stdDeviation="3" result="b"/><feFlood flood-opacity="0.161"/><feComposite operator="in" in2="b"/><feComposite in="SourceGraphic"/></filter></defs><g transform="translate(9 6)"><g class="f" transform="matrix(1, 0, 0, 1, -9, -6)"><path class="a" d="M25,0A25,25,0,1,1,0,25,25,25,0,0,1,25,0Z" transform="translate(9 6)"/></g><g transform="translate(12.146 9)"><path class="b" d="M101.878,7.421A7.182,7.182,0,0,1,99.7,12.668a7.181,7.181,0,0,1-5.247,2.174h0a7.182,7.182,0,0,1-5.244-2.174,7.181,7.181,0,0,1-2.174-5.247,7.18,7.18,0,0,1,2.174-5.247A7.179,7.179,0,0,1,94.453,0h0A7.183,7.183,0,0,1,99.7,2.174,7.181,7.181,0,0,1,101.878,7.421Zm0,0" transform="translate(-81.797)"/><path class="c" d="M25.707,257.95a5.115,5.115,0,0,1-1.52,3.871,5.47,5.47,0,0,1-3.916,1.428H5.435a5.467,5.467,0,0,1-3.915-1.428A5.115,5.115,0,0,1,0,257.95c0-.619.02-1.231.061-1.82a18.216,18.216,0,0,1,.25-1.948,15.371,15.371,0,0,1,.478-1.957,9.706,9.706,0,0,1,.8-1.826,6.911,6.911,0,0,1,1.213-1.581,5.352,5.352,0,0,1,1.744-1.1,6.028,6.028,0,0,1,2.225-.4,2.255,2.255,0,0,1,1.205.511c.367.24.79.512,1.257.811a7.177,7.177,0,0,0,1.625.716,6.477,6.477,0,0,0,1.791.318q.1,0,.2,0a6.463,6.463,0,0,0,1.989-.321,7.177,7.177,0,0,0,1.626-.716c.472-.3.9-.574,1.257-.81a2.253,2.253,0,0,1,1.206-.512,6.031,6.031,0,0,1,2.225.4,5.356,5.356,0,0,1,1.743,1.1,6.886,6.886,0,0,1,1.213,1.581,9.674,9.674,0,0,1,.8,1.825,15.358,15.358,0,0,1,.479,1.958,18.388,18.388,0,0,1,.249,1.947C25.686,256.717,25.707,257.329,25.707,257.95Zm0,0" transform="translate(0 -232.436)"/><path class="d" d="M210.3,14.842h0V0h0a7.183,7.183,0,0,1,5.247,2.174,7.181,7.181,0,0,1,2.174,5.247,7.182,7.182,0,0,1-2.174,5.247A7.181,7.181,0,0,1,210.3,14.842Zm0,0" transform="translate(-197.637)"/><path class="e" d="M223.345,257.95a5.115,5.115,0,0,1-1.52,3.871,5.47,5.47,0,0,1-3.916,1.428h-7.616V249.676q.1,0,.2,0a6.463,6.463,0,0,0,1.989-.321,7.176,7.176,0,0,0,1.626-.716c.472-.3.9-.574,1.257-.81a2.253,2.253,0,0,1,1.206-.512,6.031,6.031,0,0,1,2.225.4,5.356,5.356,0,0,1,1.743,1.1,6.887,6.887,0,0,1,1.214,1.581,9.678,9.678,0,0,1,.8,1.825,15.369,15.369,0,0,1,.479,1.958,18.4,18.4,0,0,1,.249,1.947C223.324,256.717,223.344,257.329,223.345,257.95Zm0,0" transform="translate(-197.637 -232.436)"/></g></g></svg>