<svg xmlns="http://www.w3.org/2000/svg" xmlns:xlink="http://www.w3.org/1999/xlink" width="87.398" height="83.832" viewBox="0 0 87.398 83.832"><defs><style>.a{fill:url(#a);}.b{fill:url(#b);}.c{fill:#fff;}.d{fill:#464040;}.e{filter:url(#e);}.f{filter:url(#c);}</style><linearGradient id="a" x1="1.086" y1="0.5" x2="-0.013" y2="0.5" gradientUnits="objectBoundingBox"><stop offset="0" stop-color="#b5adb6"/><stop offset="0.511" stop-color="#918291"/><stop offset="1" stop-color="#554e56"/></linearGradient><linearGradient id="b" x1="2.198" y1="0.5" x2="0.298" y2="0.5" xlink:href="#a"/><filter id="c" x="0" y="0" width="83.835" height="83.832" filterUnits="userSpaceOnUse"><feOffset dx="1" dy="1" input="SourceAlpha"/><feGaussianBlur stdDeviation="5" result="d"/><feFlood flood-color="#ffd54f"/><feComposite operator="in" in2="d"/><feComposite in="SourceGraphic"/></filter><filter id="e" x="55.906" y="44.638" width="31.492" height="31.492" filterUnits="userSpaceOnUse"><feOffset dy="1" input="SourceAlpha"/><feGaussianBlur stdDeviation="1.5" result="f"/><feFlood flood-opacity="0.161"/><feComposite operator="in" in2="f"/><feComposite in="SourceGraphic"/></filter></defs><g transform="translate(69.149 10.994) rotate(76)"><path class="a" d="M5.667,0,9.826,4.159,4.159,9.826,0,5.667Z" transform="translate(34.908 12.102)"/><path class="b" d="M6.548,4.159A22.333,22.333,0,0,0,2.389,0L0,2.389,4.159,6.548Z" transform="translate(34.908 15.38)"/><g transform="translate(0 12.426)"><g class="f" transform="matrix(0.24, -0.97, 0.97, 0.24, -27.4, 52.01)"><path class="c" d="M22.205,0A22.206,22.206,0,0,0,6.5,37.906a22.063,22.063,0,0,0,15.7,6.5c.047,0,.095,0,.142,0h.4l.022,0c.039,0,.079,0,.12,0h.154A22.205,22.205,0,0,0,37.9,6.5,22.054,22.054,0,0,0,22.205,0Zm0,37.889a15.684,15.684,0,0,1,0-31.368c.041,0,.085,0,.126,0h.152a15.683,15.683,0,0,1-.12,31.362h-.158Z" transform="translate(57.09 14) rotate(76)"/></g></g><g class="e" transform="matrix(0.24, -0.97, 0.97, 0.24, -27.4, 64.44)"><path class="d" d="M16.854,1.7a5.805,5.805,0,0,1-.7,8.8L5.51,18.226a1.725,1.725,0,0,1-2.233-.177L.505,15.277a1.725,1.725,0,0,1-.177-2.233L8.05,2.4A5.805,5.805,0,0,1,16.854,1.7Z" transform="translate(78.41 48.14) rotate(76)"/></g><path class="d" d="M.505,15.277l2.772,2.772a1.725,1.725,0,0,0,2.233.177L6.93,17.2,5.011,15.277a1.725,1.725,0,0,1-.177-2.233L12.556,2.4A5.768,5.768,0,0,1,15,.453,5.809,5.809,0,0,0,8.05,2.4L.329,13.045A1.725,1.725,0,0,0,.505,15.277Z" transform="translate(38.281 0)"/></g></svg>