<svg xmlns="http://www.w3.org/2000/svg" xmlns:xlink="http://www.w3.org/1999/xlink" width="68" height="68" viewBox="0 0 68 68"><defs><style>.a{fill:#fff;}.b{fill:#36505f;}.c{fill:#ffca0d;}.d{fill:#e15d4a;}.e{filter:url(#a);}</style><filter id="a" x="0" y="0" width="68" height="68" filterUnits="userSpaceOnUse"><feOffset dy="3" input="SourceAlpha"/><feGaussianBlur stdDeviation="3" result="b"/><feFlood flood-opacity="0.161"/><feComposite operator="in" in2="b"/><feComposite in="SourceGraphic"/></filter></defs><g transform="translate(9.349 6)"><g class="e" transform="matrix(1, 0, 0, 1, -9.35, -6)"><path class="a" d="M25,0A25,25,0,1,1,0,25,25,25,0,0,1,25,0Z" transform="translate(9 6)"/></g><g transform="translate(10.515 8.423)"><path class="b" d="M75.57,68.8C68.647,68.8,63,74.2,63,80.81a.6.6,0,0,0,.6.6H87.541a.6.6,0,0,0,.6-.6C88.141,74.2,82.494,68.8,75.57,68.8Z" transform="translate(-61.085 -64.719)"/><path class="b" d="M120.257,47.7a1.781,1.781,0,1,0,1.857,1.779A1.817,1.817,0,0,0,120.257,47.7Z" transform="translate(-105.771 -47.699)"/><path class="c" d="M81.471,139.1H53.7a.6.6,0,0,1,0-1.2H81.471a.6.6,0,0,1,0,1.2Z" transform="translate(-53.1 -120.455)"/><path class="a" d="M149.62,90.165a.319.319,0,0,1-.29-.174c-3.636-7.426-7.33-8.161-7.368-8.161a.323.323,0,1,1,.1-.638c.155.019,4.042.754,7.832,8.529a.336.336,0,0,1-.155.445Z" transform="translate(-124.557 -74.711)"/><path class="d" d="M84.3,149.883a1.6,1.6,0,0,0-1.45-.716c-.677,0-1.818.967-2.05,1.16a4.275,4.275,0,0,1-.774.541,12.385,12.385,0,0,1-7.388,1.45.116.116,0,0,1-.077-.019c-.058-.058.039-.135.116-.155a9.158,9.158,0,0,1,2.069-.174,9.335,9.335,0,0,0,2.727-.522,2.193,2.193,0,0,0,.754-.406,1.154,1.154,0,0,0,.329-1.006,1.466,1.466,0,0,0-1.373-1.238h-.619a76.094,76.094,0,0,0-9.283.483c-3.462.561-7.291,7.155-7.446,7.446a.56.56,0,0,0,0,.6.61.61,0,0,0,.522.309H67.8a.6.6,0,0,0,.541-.348c.483-1.044,1.741-1.508,4.081-1.508.832,0,1.7.058,2.553.116.561.039,1.122.077,1.644.1h.135c3.462,0,7.136-4.293,7.291-4.467.019-.019.019-.039.039-.058A1.563,1.563,0,0,0,84.3,149.883Z" transform="translate(-58.464 -129.248)"/></g></g></svg>