<svg xmlns="http://www.w3.org/2000/svg" width="13.281" height="24.215" viewBox="0 0 13.281 24.215"><defs><style>.a{fill:#469a09;}</style></defs><g transform="translate(-113.692)"><g transform="translate(113.692)"><path class="a" d="M124.445,0h-8.18a2.571,2.571,0,0,0-2.572,2.524V21.693a2.546,2.546,0,0,0,2.547,2.521l8.194-.009a2.53,2.53,0,0,0,2.528-2.522l.012-19.161A2.525,2.525,0,0,0,124.445,0Zm-5.272,1.513h2.373a.378.378,0,0,1,0,.757h-2.373a.378.378,0,0,1,0-.757Zm-1.426.12a.392.392,0,0,1,.535,0,.379.379,0,0,1-.267.647.387.387,0,0,1-.269-.112.382.382,0,0,1,0-.535Zm2.536,21.831a1.132,1.132,0,1,1,1.132-1.132A1.134,1.134,0,0,1,120.283,23.465Zm5.516-3.034H115.016V3.594H125.8V20.431Z" transform="translate(-113.692)"/></g></g></svg>