<svg xmlns="http://www.w3.org/2000/svg" width="34.815" height="34.5" viewBox="0 0 34.815 34.5"><defs><style>.a{fill:#ffcf54;}</style></defs><g transform="translate(2.138 0.674)"><path class="a" d="M3.063,143.94H6.127v14.3H3.063A3.067,3.067,0,0,1,0,155.173V147A3.067,3.067,0,0,1,3.063,143.94Z" transform="translate(0 -134.761)"/><path class="a" d="M140.764,3.772V29.14c0,2.664-2.006,4.153-3.74,3.485-.589-.227-.1.118-9.024-7.578V7.911L136.231.769c1.878-1.629,4.533-.017,4.533,3Z" transform="translate(-119.831 -0.122)"/><path class="a" d="M413.021,130.321a1.021,1.021,0,1,1,0-2.042c1.57,0,3.319-2.936,3.319-7.148s-1.749-7.148-3.319-7.148a1.021,1.021,0,1,1,0-2.042c4.908,0,6.956,9.826,3.971,15.446C415.986,129.278,414.576,130.321,413.021,130.321Z" transform="translate(-385.705 -104.804)"/><path class="a" d="M368.164,170.2a1.021,1.021,0,0,1,0-2.042c.7,0,1.769-1.687,1.769-4.23s-1.065-4.23-1.769-4.23a1.021,1.021,0,0,1,0-2.042c3.53,0,4.887,6.678,2.875,10.465a3.365,3.365,0,0,1-2.875,2.08Z" transform="translate(-343.711 -147.6)"/><path class="a" d="M0,33a1.5,1.5,0,0,1-1.052-.431,1.5,1.5,0,0,1-.017-2.121l31-31.5a1.5,1.5,0,0,1,2.121-.017,1.5,1.5,0,0,1,.017,2.121l-31,31.5A1.5,1.5,0,0,1,0,33Z" transform="translate(-0.638 0.826)"/></g></svg>