<svg xmlns="http://www.w3.org/2000/svg" width="25.353" height="25.353" viewBox="0 0 25.353 25.353"><defs><style>.a{fill:#d9d9d9;}</style></defs><path class="a" d="M13.724,4.012h2.209a1.291,1.291,0,0,0,.857-.292,1.4,1.4,0,0,0,.463-.787l.609-2.59q.317-.1.628-.229t.6-.267l2.26,1.4a1.352,1.352,0,0,0,.876.222,1.28,1.28,0,0,0,.8-.387L24.578-.47a1.238,1.238,0,0,0,.394-.812,1.366,1.366,0,0,0-.241-.889L23.347-4.418q.14-.292.267-.59a5.044,5.044,0,0,0,.216-.616l2.6-.609a1.279,1.279,0,0,0,.787-.457,1.354,1.354,0,0,0,.279-.863V-9.725a1.335,1.335,0,0,0-.279-.851,1.279,1.279,0,0,0-.787-.457l-2.59-.622q-.1-.343-.222-.647t-.248-.571l1.384-2.272A1.382,1.382,0,0,0,25-16.028a1.27,1.27,0,0,0-.394-.806l-1.574-1.549a1.373,1.373,0,0,0-.781-.381,1.392,1.392,0,0,0-.857.19l-2.3,1.422q-.279-.14-.584-.26t-.647-.235l-.609-2.628a1.372,1.372,0,0,0-.463-.781,1.309,1.309,0,0,0-.857-.286H13.724a1.335,1.335,0,0,0-.863.286,1.357,1.357,0,0,0-.47.781l-.609,2.6q-.33.114-.647.241t-.6.267l-2.3-1.409a1.343,1.343,0,0,0-.844-.19,1.373,1.373,0,0,0-.781.381L5.04-16.834a1.27,1.27,0,0,0-.394.806,1.382,1.382,0,0,0,.241.882l1.384,2.272q-.127.267-.248.571t-.235.647l-2.577.622a1.279,1.279,0,0,0-.787.457,1.335,1.335,0,0,0-.279.851v2.171a1.354,1.354,0,0,0,.279.863,1.279,1.279,0,0,0,.787.457l2.6.609a5.85,5.85,0,0,0,.209.616q.121.3.26.59L4.913-2.171a1.3,1.3,0,0,0-.248.889,1.265,1.265,0,0,0,.4.813L6.614,1.079a1.28,1.28,0,0,0,.8.387,1.352,1.352,0,0,0,.876-.222l2.26-1.4q.279.14.59.267t.641.229l.609,2.59a1.388,1.388,0,0,0,.47.787A1.316,1.316,0,0,0,13.724,4.012Zm1.1-8.468A4.075,4.075,0,0,1,12.7-5.027a4.342,4.342,0,0,1-1.53-1.53A4.075,4.075,0,0,1,10.6-8.684a4.028,4.028,0,0,1,.571-2.1,4.342,4.342,0,0,1,1.53-1.53,4.075,4.075,0,0,1,2.126-.571,4.052,4.052,0,0,1,2.114.571,4.342,4.342,0,0,1,1.53,1.53,4.028,4.028,0,0,1,.571,2.1,4.075,4.075,0,0,1-.571,2.126,4.342,4.342,0,0,1-1.53,1.53A4.052,4.052,0,0,1,14.828-4.456Z" transform="translate(-2.146 21.341)"/></svg>