<svg xmlns="http://www.w3.org/2000/svg" width="21.416" height="28.414" viewBox="0 0 21.416 28.414"><defs><style>.a{fill:#469a09;}.b{fill:#469a21;}</style></defs><g transform="translate(5.019 0.101)"><path class="a" d="M-11857.038,3147.213a1.517,1.517,0,0,1-1.516-1.515v-23.16s0-.009,0-.014,0-.007,0-.01v-.345a1.518,1.518,0,0,1,1.516-1.515h5.285c.259-.229.583-.345.8-.783a1.612,1.612,0,0,1,1.438-.872h3.131a1.624,1.624,0,0,1,1.449.866c.227.438.568.565.821.789h5.262a1.515,1.515,0,0,1,1.515,1.515V3145.7a1.515,1.515,0,0,1-1.515,1.515Zm-.687-1.515a.69.69,0,0,0,.688.69h18.187a.69.69,0,0,0,.688-.69v-1.238h-19.562Zm19.562-2.065v-21.464a.69.69,0,0,0-.687-.69h-4.685a2.124,2.124,0,0,1,.137.753.867.867,0,0,1-.854.9h-7.384a.856.856,0,0,1-.854-.854,2.191,2.191,0,0,1,.152-.8h-4.7a.69.69,0,0,0-.687.69v.345s0,.008,0,.013,0,.007,0,.011v21.094h19.562Zm-12.05-23.392c-.51,1.024-1.45.917-1.45,2.039a.027.027,0,0,0,.027.027h7.384c.015,0,.026-.012.026-.074,0-1.071-.923-.982-1.443-1.985a.8.8,0,0,0-.714-.419h-3.131A.786.786,0,0,0-11850.214,3120.24Zm3.351,22.734a1.141,1.141,0,0,1-1.125-1.149v-4.982a1.118,1.118,0,0,1,.929-1.132v-.668a1.51,1.51,0,0,1,1.352-1.625h4.592a1.512,1.512,0,0,1,1.354,1.625v.7a1.122,1.122,0,0,1,.776,1.1v4.982a1.141,1.141,0,0,1-1.125,1.149Zm2.25-4.214a1.12,1.12,0,0,0,.75,1.074v.842a.358.358,0,0,0,.375.381.356.356,0,0,0,.375-.381v-.842a1.116,1.116,0,0,0,.75-1.074,1.115,1.115,0,0,0-1.125-1.149A1.117,1.117,0,0,0-11844.613,3138.76Zm4.16-3.066v-.651a.74.74,0,0,0-.663-.8h-4.592a.741.741,0,0,0-.664.8v.649l2.884,0Zm-15.264,3.542a.415.415,0,0,1-.414-.414.415.415,0,0,1,.414-.414h5.651a.415.415,0,0,1,.414.414.415.415,0,0,1-.414.414Zm0-2.277a.415.415,0,0,1-.414-.414.415.415,0,0,1,.414-.414h5.651a.415.415,0,0,1,.414.414.415.415,0,0,1-.414.414Zm0-2.277a.415.415,0,0,1-.414-.414.415.415,0,0,1,.414-.414h5.651a.415.415,0,0,1,.414.414.415.415,0,0,1-.414.414Zm0-2.277a.415.415,0,0,1-.414-.414.417.417,0,0,1,.414-.414h15.541a.417.417,0,0,1,.414.414.415.415,0,0,1-.414.414Zm0-2.277a.415.415,0,0,1-.414-.414.417.417,0,0,1,.414-.414h15.541a.417.417,0,0,1,.414.414.415.415,0,0,1-.414.414Zm0-2.277a.415.415,0,0,1-.414-.414.414.414,0,0,1,.414-.411h15.541a.414.414,0,0,1,.414.411.415.415,0,0,1-.414.414Zm1.771-2.277a.412.412,0,0,1-.411-.411.412.412,0,0,1,.411-.414h13.771a.415.415,0,0,1,.414.414.414.414,0,0,1-.414.411Zm4.348-4.1a.412.412,0,0,1-.413-.411.413.413,0,0,1,.413-.414h3.307a.415.415,0,0,1,.414.414.414.414,0,0,1-.414.411Z" transform="translate(11853.635 -3119)"/><path class="b" d="M-11838.852,3147.313h-18.187a1.617,1.617,0,0,1-1.615-1.615v-23.529a1.617,1.617,0,0,1,1.615-1.615h5.248c.069-.059.143-.11.214-.161a1.441,1.441,0,0,0,.534-.567,1.713,1.713,0,0,1,1.527-.927h3.131a1.723,1.723,0,0,1,1.538.92,1.544,1.544,0,0,0,.555.574c.075.053.146.1.215.16h5.225a1.616,1.616,0,0,1,1.614,1.615V3145.7A1.616,1.616,0,0,1-11838.852,3147.313Zm-19.6-24.8a.083.083,0,0,1,0,.015.1.1,0,0,1,0,.017V3145.7a1.417,1.417,0,0,0,1.416,1.415h18.187a1.416,1.416,0,0,0,1.415-1.415v-23.529a1.416,1.416,0,0,0-1.415-1.415h-5.3l-.028-.025a2.593,2.593,0,0,0-.227-.172,1.736,1.736,0,0,1-.617-.646,1.523,1.523,0,0,0-1.36-.812h-3.131a1.508,1.508,0,0,0-1.348.816,1.652,1.652,0,0,1-.6.64,2.689,2.689,0,0,0-.226.173l-.028.025h-5.323a1.417,1.417,0,0,0-1.416,1.415Zm19.6,23.979h-18.187a.789.789,0,0,1-.787-.791v-1.338h19.761v1.338A.789.789,0,0,1-11838.852,3146.488Zm-18.774-1.928v1.138a.59.59,0,0,0,.588.59h18.187a.59.59,0,0,0,.588-.59v-1.138Zm19.562-.827h-19.761v-21.19a.087.087,0,0,1,0-.016.091.091,0,0,1,0-.016v-.342a.789.789,0,0,1,.787-.791h4.846l-.054.136a2.114,2.114,0,0,0-.146.764.756.756,0,0,0,.755.754h7.384a.77.77,0,0,0,.754-.8,2.015,2.015,0,0,0-.131-.718l-.051-.135h4.829a.789.789,0,0,1,.787.791Zm-19.562-.2h19.362v-21.364a.59.59,0,0,0-.588-.59h-4.545a2.226,2.226,0,0,1,.1.653.968.968,0,0,1-.953,1h-7.384a.955.955,0,0,1-.954-.954,2.287,2.287,0,0,1,.11-.7h-4.558a.59.59,0,0,0-.588.59v21.364Zm17.516-.458h-6.753a1.238,1.238,0,0,1-1.225-1.249v-4.982a1.217,1.217,0,0,1,.929-1.214v-.586a1.607,1.607,0,0,1,1.451-1.725h4.592a1.609,1.609,0,0,1,1.454,1.725v.634a1.217,1.217,0,0,1,.776,1.167v4.982A1.238,1.238,0,0,1-11840.11,3143.075Zm-5.6-9.556a1.41,1.41,0,0,0-1.252,1.525v.753l-.083.014a1.019,1.019,0,0,0-.846,1.034v4.982a1.038,1.038,0,0,0,1.025,1.049h6.753a1.038,1.038,0,0,0,1.025-1.049v-4.982a1.018,1.018,0,0,0-.707-1l-.069-.022v-.778a1.412,1.412,0,0,0-1.255-1.525Zm2.22,7.64a.457.457,0,0,1-.475-.481v-.773a1.215,1.215,0,0,1-.75-1.144,1.21,1.21,0,0,1,1.225-1.249,1.21,1.21,0,0,1,1.225,1.249,1.213,1.213,0,0,1-.75,1.144v.773A.457.457,0,0,1-11843.488,3141.158Zm0-3.446a1.015,1.015,0,0,0-1.025,1.049,1.017,1.017,0,0,0,.683.98l.067.023v.914a.258.258,0,0,0,.275.281.258.258,0,0,0,.275-.281v-.914l.067-.023a1.015,1.015,0,0,0,.683-.98A1.015,1.015,0,0,0-11843.488,3137.712Zm-6.577,1.625h-5.651a.515.515,0,0,1-.514-.514.514.514,0,0,1,.514-.514h5.651a.514.514,0,0,1,.514.514A.515.515,0,0,1-11850.065,3139.337Zm-5.651-.827a.315.315,0,0,0-.314.313.315.315,0,0,0,.314.314h5.651a.315.315,0,0,0,.314-.314.315.315,0,0,0-.314-.313Zm5.651-1.449h-5.651a.514.514,0,0,1-.514-.514.515.515,0,0,1,.514-.514h5.651a.515.515,0,0,1,.514.514A.514.514,0,0,1-11850.065,3137.06Zm-5.651-.827a.315.315,0,0,0-.314.314.315.315,0,0,0,.314.313h5.651a.315.315,0,0,0,.314-.313.315.315,0,0,0-.314-.314Zm15.363-.438-6.118,0v-.749a.84.84,0,0,1,.764-.9h4.592a.839.839,0,0,1,.763.9Zm-5.919-.2,5.72,0v-.551a.642.642,0,0,0-.563-.7h-4.592a.643.643,0,0,0-.564.7Zm-3.793-.809h-5.651a.515.515,0,0,1-.514-.514.514.514,0,0,1,.514-.514h5.651a.514.514,0,0,1,.514.514A.515.515,0,0,1-11850.065,3134.783Zm-5.651-.827a.315.315,0,0,0-.314.313.315.315,0,0,0,.314.314h5.651a.315.315,0,0,0,.314-.314.315.315,0,0,0-.314-.313Zm15.541-1.449h-15.541a.514.514,0,0,1-.514-.514.515.515,0,0,1,.514-.514h15.541a.515.515,0,0,1,.514.514A.514.514,0,0,1-11840.176,3132.507Zm-15.541-.827a.319.319,0,0,0-.314.314.315.315,0,0,0,.314.313h15.541a.315.315,0,0,0,.314-.313.319.319,0,0,0-.314-.314Zm15.541-1.449h-15.541a.515.515,0,0,1-.514-.514.514.514,0,0,1,.514-.514h15.541a.514.514,0,0,1,.514.514A.515.515,0,0,1-11840.176,3130.23Zm-15.541-.827a.319.319,0,0,0-.314.313.315.315,0,0,0,.314.314h15.541a.315.315,0,0,0,.314-.314.319.319,0,0,0-.314-.313Zm15.541-1.449h-15.541a.514.514,0,0,1-.514-.514.513.513,0,0,1,.514-.511h15.541a.513.513,0,0,1,.514.511A.514.514,0,0,1-11840.176,3127.953Zm-15.541-.824a.313.313,0,0,0-.314.311.315.315,0,0,0,.314.313h15.541a.315.315,0,0,0,.314-.313.313.313,0,0,0-.314-.311Zm15.541-1.452h-13.771a.511.511,0,0,1-.511-.511.513.513,0,0,1,.511-.514h13.771a.515.515,0,0,1,.514.514A.513.513,0,0,1-11840.176,3125.677Zm-13.771-.824a.313.313,0,0,0-.312.314.311.311,0,0,0,.312.311h13.771a.313.313,0,0,0,.314-.311.315.315,0,0,0-.314-.314Zm9.693-2.446h-7.384a.127.127,0,0,1-.127-.127,1.4,1.4,0,0,1,.705-1.24,2.334,2.334,0,0,0,.755-.844.889.889,0,0,1,.789-.469h3.131a.9.9,0,0,1,.8.474,2.407,2.407,0,0,0,.758.831,1.361,1.361,0,0,1,.7,1.2C-11844.127,3122.383-11844.206,3122.406-11844.253,3122.406Zm-7.31-.2h7.235a1.174,1.174,0,0,0-.618-1.016,2.607,2.607,0,0,1-.813-.9.7.7,0,0,0-.625-.365h-3.131a.685.685,0,0,0-.61.359,2.535,2.535,0,0,1-.811.911A1.214,1.214,0,0,0-11851.562,3122.206Zm5.271-.627h-3.307a.512.512,0,0,1-.513-.511.514.514,0,0,1,.513-.514h3.307a.515.515,0,0,1,.514.514A.513.513,0,0,1-11846.292,3121.578Zm-3.307-.824a.314.314,0,0,0-.313.314.312.312,0,0,0,.313.311h3.307a.313.313,0,0,0,.314-.311.315.315,0,0,0-.314-.314Z" transform="translate(11853.635 -3119)"/></g></svg>