<svg xmlns="http://www.w3.org/2000/svg" width="33.943" height="36.438" viewBox="0 0 33.943 36.438"><defs><style>.a{fill:#ffd54f;}.b{fill:rgba(0,0,0,0);}</style></defs><g transform="translate(-291.922 -11.781)"><path class="a" d="M19.92,1.725A5.286,5.286,0,0,0,22.512,1.1a5.28,5.28,0,0,0,1.84-1.645,4.572,4.572,0,0,0,.805-2.22H14.683a4.572,4.572,0,0,0,.805,2.22A5.28,5.28,0,0,0,17.328,1.1,5.286,5.286,0,0,0,19.92,1.725ZM6.615-5.069H26.732l-17.5-17.5a21.26,21.26,0,0,0-.38,2.362q-.133,1.247-.186,2.645-.071,1.044-.23,2.114a11.574,11.574,0,0,1-.469,1.99,3.915,3.915,0,0,1-.876,1.5Q5.978-10.854,4.961-9.7a3.669,3.669,0,0,0-1.017,2.45A1.957,1.957,0,0,0,4.66-5.67,2.946,2.946,0,0,0,6.615-5.069Zm13.3-28.644a4.544,4.544,0,0,0-3.132,1.132A6.068,6.068,0,0,0,15-29.821a9,9,0,0,0-1.212.54,6.644,6.644,0,0,0-1.07.717L35.383-5.883A1.879,1.879,0,0,0,35.9-7.245,3.669,3.669,0,0,0,34.879-9.7q-1.017-1.159-2.114-2.256a3.883,3.883,0,0,1-.9-1.5,10.573,10.573,0,0,1-.469-1.99q-.15-1.07-.239-2.114a24.744,24.744,0,0,0-.743-5.609,10.876,10.876,0,0,0-2.026-4.158,8.166,8.166,0,0,0-3.547-2.495,5.911,5.911,0,0,0-1.778-2.76A4.577,4.577,0,0,0,19.92-33.713Zm-15.5,3.468L34.658-.044a1.221,1.221,0,0,0,.92.389,1.221,1.221,0,0,0,.92-.389,1.268,1.268,0,0,0,.389-.929,1.211,1.211,0,0,0-.389-.911L6.3-32.1a1.337,1.337,0,0,0-.955-.389,1.221,1.221,0,0,0-.92.389,1.231,1.231,0,0,0-.389.929A1.231,1.231,0,0,0,4.422-30.245Z" transform="translate(288.479 45.994)"/><path class="b" d="M19.92,2.225a5.8,5.8,0,0,1-2.833-.69,5.8,5.8,0,0,1-2.011-1.8,5.087,5.087,0,0,1-.891-2.46l-.048-.544H25.7l-.048.544a5.087,5.087,0,0,1-.891,2.46,5.8,5.8,0,0,1-2.011,1.8A5.8,5.8,0,0,1,19.92,2.225ZM15.266-2.269A4.136,4.136,0,0,0,15.9-.831,4.809,4.809,0,0,0,17.569.659a4.817,4.817,0,0,0,2.351.566A4.817,4.817,0,0,0,22.271.659,4.809,4.809,0,0,0,23.94-.831a4.137,4.137,0,0,0,.634-1.437ZM35.578.845A1.731,1.731,0,0,1,34.3.306L4.072-29.888a1.741,1.741,0,0,1-.539-1.286,1.741,1.741,0,0,1,.536-1.282,1.731,1.731,0,0,1,1.274-.536,1.828,1.828,0,0,1,1.3.528l.008.008,30.2,30.215a1.721,1.721,0,0,1,.539,1.268A1.757,1.757,0,0,1,36.856.305,1.731,1.731,0,0,1,35.578.845ZM5.342-31.992a.725.725,0,0,0-.558.234l-.016.016a.735.735,0,0,0-.234.567.735.735,0,0,0,.234.567l.008.008L35.02-.389a.725.725,0,0,0,.558.234.725.725,0,0,0,.558-.234L36.144-.4a.77.77,0,0,0,.243-.575.715.715,0,0,0-.234-.549l-.008-.008L5.948-31.745A.836.836,0,0,0,5.342-31.992Zm22.6,27.423H6.615a3.44,3.44,0,0,1-2.277-.719,2.445,2.445,0,0,1-.9-1.958,4.169,4.169,0,0,1,1.142-2.78c.682-.777,1.406-1.543,2.153-2.278A3.445,3.445,0,0,0,7.5-13.615a11.128,11.128,0,0,0,.448-1.9c.1-.695.179-1.39.225-2.067.036-.936.1-1.835.188-2.672a21.859,21.859,0,0,1,.389-2.418l.2-.889ZM9.544-21.55c-.077.451-.142.919-.193,1.4-.087.817-.149,1.7-.183,2.611v.015c-.048.706-.127,1.431-.234,2.154a12.129,12.129,0,0,1-.49,2.076A4.426,4.426,0,0,1,7.452-11.6l-.008.008c-.731.719-1.44,1.469-2.107,2.229a3.161,3.161,0,0,0-.893,2.121,1.467,1.467,0,0,0,.538,1.192,2.482,2.482,0,0,0,1.634.484H25.525ZM35.389-5.169,11.976-28.6l.426-.35a7.177,7.177,0,0,1,1.151-.77,9.463,9.463,0,0,1,1.05-.484,6.578,6.578,0,0,1,1.853-2.749,5.05,5.05,0,0,1,3.464-1.259,5.083,5.083,0,0,1,3.471,1.257A6.424,6.424,0,0,1,25.241-30.2a8.643,8.643,0,0,1,3.533,2.559A11.42,11.42,0,0,1,30.9-23.3a25.339,25.339,0,0,1,.759,5.708c.058.679.137,1.376.235,2.073a10.122,10.122,0,0,0,.446,1.9,3.408,3.408,0,0,0,.783,1.314c.735.735,1.454,1.5,2.136,2.279A4.169,4.169,0,0,1,36.4-7.245a2.371,2.371,0,0,1-.654,1.71ZM13.481-28.51,35.3-6.671a1.635,1.635,0,0,0,.094-.574A3.161,3.161,0,0,0,34.5-9.366c-.668-.761-1.372-1.512-2.092-2.232a4.394,4.394,0,0,1-1.021-1.694,11.122,11.122,0,0,1-.491-2.084c-.1-.719-.182-1.44-.242-2.142l0-.028a24.363,24.363,0,0,0-.727-5.495A10.433,10.433,0,0,0,28-27.01a7.71,7.71,0,0,0-3.335-2.342l-.231-.087-.072-.236a5.444,5.444,0,0,0-1.631-2.531,4.058,4.058,0,0,0-2.81-1.007,4.026,4.026,0,0,0-2.8,1.006,5.6,5.6,0,0,0-1.642,2.537l-.074.236-.233.084a8.539,8.539,0,0,0-1.145.51A6.253,6.253,0,0,0,13.481-28.51Z" transform="translate(288.479 45.994)"/></g></svg>