<svg xmlns="http://www.w3.org/2000/svg" width="26.257" height="38.559" viewBox="0 0 26.257 38.559"><defs><style>.a{fill:#ffcf54;}.b{fill:rgba(0,0,0,0);}</style></defs><g transform="translate(-4.802 1.433)"><path class="a" d="M5.149-13.821a12.712,12.712,0,0,0,1.418,6.1,11.287,11.287,0,0,0,3.938,4.255,12.715,12.715,0,0,0,5.826,1.9V2.15H10.045A1.443,1.443,0,0,0,9,2.574a1.4,1.4,0,0,0-.434,1.039A1.369,1.369,0,0,0,9,4.643a1.459,1.459,0,0,0,1.048.416H25.528a1.407,1.407,0,0,0,1.021-.416,1.383,1.383,0,0,0,.425-1.03,1.413,1.413,0,0,0-.425-1.039,1.392,1.392,0,0,0-1.021-.425H19.223V-1.572a12.715,12.715,0,0,0,5.826-1.9,11.287,11.287,0,0,0,3.938-4.255,12.712,12.712,0,0,0,1.418-6.1v-3.415a1.392,1.392,0,0,0-.425-1.021,1.392,1.392,0,0,0-1.021-.425,1.413,1.413,0,0,0-1.039.425,1.392,1.392,0,0,0-.425,1.021v3.306a10.286,10.286,0,0,1-1.219,5.095,8.534,8.534,0,0,1-3.406,3.387,10.411,10.411,0,0,1-5.095,1.2,10.411,10.411,0,0,1-5.095-1.2A8.534,8.534,0,0,1,9.277-8.834a10.286,10.286,0,0,1-1.219-5.095v-3.306a1.392,1.392,0,0,0-.425-1.021,1.392,1.392,0,0,0-1.021-.425,1.413,1.413,0,0,0-1.039.425,1.392,1.392,0,0,0-.425,1.021Z" transform="translate(0.153 31.567)"/><path class="b" d="M6.612-19.181a1.882,1.882,0,0,1,1.374.571,1.882,1.882,0,0,1,.571,1.374v3.306A9.841,9.841,0,0,0,9.714-9.078a8.079,8.079,0,0,0,3.21,3.193,9.966,9.966,0,0,0,4.854,1.14,9.966,9.966,0,0,0,4.854-1.14,8.079,8.079,0,0,0,3.21-3.193A9.841,9.841,0,0,0,27-13.929v-3.306a1.882,1.882,0,0,1,.571-1.374,1.9,1.9,0,0,1,1.392-.571,1.882,1.882,0,0,1,1.374.571,1.882,1.882,0,0,1,.571,1.374v3.415a13.263,13.263,0,0,1-1.477,6.334,11.833,11.833,0,0,1-4.11,4.44,13.117,13.117,0,0,1-5.6,1.927V1.65h5.805a1.882,1.882,0,0,1,1.374.571,1.9,1.9,0,0,1,.571,1.392A1.872,1.872,0,0,1,26.9,5a1.9,1.9,0,0,1-1.37.558H10.045A1.951,1.951,0,0,1,8.651,5a1.858,1.858,0,0,1-.588-1.391,1.887,1.887,0,0,1,.584-1.4,1.934,1.934,0,0,1,1.4-.567h5.787V-1.12a13.117,13.117,0,0,1-5.6-1.927,11.833,11.833,0,0,1-4.11-4.44,13.263,13.263,0,0,1-1.477-6.334v-3.415A1.882,1.882,0,0,1,5.22-18.61,1.9,1.9,0,0,1,6.612-19.181ZM17.777-3.746a10.95,10.95,0,0,1-5.336-1.263,9.065,9.065,0,0,1-3.6-3.582,10.825,10.825,0,0,1-1.283-5.338v-3.306A.891.891,0,0,0,7.28-17.9a.891.891,0,0,0-.667-.278.912.912,0,0,0-.685.278.891.891,0,0,0-.278.667v3.415A12.277,12.277,0,0,0,7.008-7.96,10.844,10.844,0,0,0,10.775-3.89a12.279,12.279,0,0,0,5.6,1.82l.456.04V2.65H10.045a.941.941,0,0,0-.7.282.9.9,0,0,0-.283.682.87.87,0,0,0,.28.669.956.956,0,0,0,.7.277H25.528a.905.905,0,0,0,.671-.273.883.883,0,0,0,.274-.672.912.912,0,0,0-.278-.685.891.891,0,0,0-.667-.278H18.723V-2.03l.456-.04a12.279,12.279,0,0,0,5.6-1.82A10.844,10.844,0,0,0,28.547-7.96a12.277,12.277,0,0,0,1.359-5.861v-3.415a.891.891,0,0,0-.278-.667.891.891,0,0,0-.667-.278.912.912,0,0,0-.685.278.891.891,0,0,0-.278.667v3.306a10.825,10.825,0,0,1-1.283,5.338,9.065,9.065,0,0,1-3.6,3.582A10.95,10.95,0,0,1,17.777-3.746Z" transform="translate(0.153 31.567)"/><path class="a" d="M8,0H9a8,8,0,0,1,8,8V19a8,8,0,0,1-8,8H8a8,8,0,0,1-8-8V8A8,8,0,0,1,8,0Z" transform="translate(9.453 -1.433)"/></g></svg>