<svg xmlns="http://www.w3.org/2000/svg" width="29.644" height="19.652" viewBox="0 0 29.644 19.652"><defs><style>.a{fill:#469a09;}</style></defs><path class="a" d="M7.668,1.155H20.427A4,4,0,0,0,23.34.133a3.851,3.851,0,0,0,1.047-2.888V-14.6a3.962,3.962,0,0,0-.99-2.875A3.814,3.814,0,0,0,20.528-18.5H7.668a4.037,4.037,0,0,0-2.895,1.022A3.77,3.77,0,0,0,3.694-14.6V-2.717A3.786,3.786,0,0,0,4.742.152,4.059,4.059,0,0,0,7.668,1.155ZM26.089-4.977l4.24,3.669a3.146,3.146,0,0,0,.711.463,1.706,1.706,0,0,0,.724.171,1.483,1.483,0,0,0,1.136-.47,1.733,1.733,0,0,0,.438-1.231V-14.942a1.733,1.733,0,0,0-.438-1.231,1.483,1.483,0,0,0-1.136-.47,1.691,1.691,0,0,0-.73.171,3.208,3.208,0,0,0-.7.463l-4.24,3.656Z" transform="translate(-3.694 18.497)"/></svg>