<svg xmlns="http://www.w3.org/2000/svg" width="38.698" height="34.5" viewBox="0 0 38.698 34.5"><defs><style>.a{fill:#ffcf54;}</style></defs><g transform="translate(3.224 6.414)"><path class="a" d="M20.123,24.563H5.527a5.346,5.346,0,0,1-3.905-1.621A5.346,5.346,0,0,1,0,19.037V5.527A5.352,5.352,0,0,1,1.621,1.622,5.35,5.35,0,0,1,5.527,0h14.6a5.349,5.349,0,0,1,3.905,1.621,5.349,5.349,0,0,1,1.621,3.905V8.694l0,0v7.166l0,0v3.186a5.534,5.534,0,0,1-5.526,5.526Zm14.124-.614a1.146,1.146,0,0,1-.864-.365l-6.642-6.642V7.6L33.383.979a1.145,1.145,0,0,1,.863-.365,1.344,1.344,0,0,1,.481.1,1.153,1.153,0,0,1,.748,1.133V22.721a1.152,1.152,0,0,1-.748,1.132A1.342,1.342,0,0,1,34.247,23.949Z" transform="translate(0)"/><path class="a" d="M0,33a1.5,1.5,0,0,1-1.052-.431,1.5,1.5,0,0,1-.017-2.121l31-31.5a1.5,1.5,0,0,1,2.121-.017,1.5,1.5,0,0,1,.017,2.121l-31,31.5A1.5,1.5,0,0,1,0,33Z" transform="translate(-1.724 -4.914)"/></g></svg>