<svg xmlns="http://www.w3.org/2000/svg" xmlns:xlink="http://www.w3.org/1999/xlink" width="81.502" height="81.502" viewBox="0 0 81.502 81.502"><defs><style>.a{fill:#0789fa;}.b{filter:url(#a);}</style><filter id="a" x="0" y="0" width="81.502" height="81.502" filterUnits="userSpaceOnUse"><feOffset input="SourceAlpha"/><feGaussianBlur stdDeviation="3" result="b"/><feFlood flood-opacity="0.161"/><feComposite operator="in" in2="b"/><feComposite in="SourceGraphic"/></filter></defs><g class="b" transform="matrix(1, 0, 0, 1, 0, 0)"><path class="a" d="M-3431.249-4756.5a31.552,31.552,0,0,1-12.359-2.5,31.646,31.646,0,0,1-10.092-6.8,31.644,31.644,0,0,1-6.8-10.092,31.547,31.547,0,0,1-2.5-12.358,31.552,31.552,0,0,1,2.5-12.359,31.631,31.631,0,0,1,6.8-10.092,31.647,31.647,0,0,1,10.092-6.805,31.561,31.561,0,0,1,12.359-2.5,31.564,31.564,0,0,1,12.359,2.5,31.645,31.645,0,0,1,10.093,6.805,31.642,31.642,0,0,1,6.8,10.092,31.554,31.554,0,0,1,2.5,12.359,31.549,31.549,0,0,1-2.5,12.358,31.655,31.655,0,0,1-6.8,10.092,31.647,31.647,0,0,1-10.093,6.8A31.555,31.555,0,0,1-3431.249-4756.5Zm-22.2-41.591c-1.121,0-1.621.221-1.621,1.53a23.2,23.2,0,0,0,1.99,7.217,38.139,38.139,0,0,0,6.017,10.021,20.458,20.458,0,0,0,5.5,4.752,31.522,31.522,0,0,0,7.791,3.217c3.169,0,4.706-.222,5.137-.742a1.018,1.018,0,0,0,.091-.9,1.991,1.991,0,0,1-.04-.788c-.008-.988.073-4.789.615-5.348a1.723,1.723,0,0,1,.508-.076c1.33,0,2.782,1.436,4.464,3.1.261.259.5.491.739.727,1.005,1.014,1.662,1.792,2.141,2.36,1.135,1.344,1.4,1.664,3.3,1.664h4.649c1.541,0,1.7-.308,2-.865l.022-.042c.156-.292.145-.306.04-.438a2.793,2.793,0,0,1-.5-1.081c-.851-2.671-3.907-5.829-5.549-7.526l0,0a11.623,11.623,0,0,1-.923-1c.033-.063-.32-.287-.661-.5-.279-.176-.542-.343-.518-.38v-1.111c.128-.169.3-.388.47-.615,1.71-2.229,5.709-7.444,6.357-10.083l0,0c.121-.185,1.175-1.821.826-2.284a1.3,1.3,0,0,0-1.261-.59c-.1,0-.214,0-.333.006h-.021c-.137,0-.325.008-.527.008h-4.963c-1.695,0-2.275,1.391-2.89,2.864a33.412,33.412,0,0,1-4.82,7.6,8.379,8.379,0,0,0-.573.784,3.96,3.96,0,0,1-1.213,1.344.638.638,0,0,1-.305.1,1.319,1.319,0,0,1-.185-.021h-.01a6.563,6.563,0,0,0-.876-.078,41.435,41.435,0,0,0,.037-4.854v-.01c-.026-.72-.049-1.342-.036-1.9.016-.7.081-1.4.145-2.078v-.011c.144-1.539.267-2.867-.257-3.443a.989.989,0,0,0-.777-.3h-.081a2.53,2.53,0,0,0-.254-.006c-.135,0-.3,0-.451,0h-.08l-.249,0-6.627-.194c-.787,0-1.278.191-1.459.569-.291.6.2,1.711,1.459,3.288.776.974.655,2.314.454,4.536a49.594,49.594,0,0,0-.26,5.818c-.118.461-.367.685-.763.685a1.532,1.532,0,0,1-.2-.015l-.031,0a.8.8,0,0,0-.1-.011.065.065,0,0,0-.024,0c-.137-.147-.288-.3-.464-.488l-.017-.018,0,0a40.2,40.2,0,0,1-3.209-3.7,29.507,29.507,0,0,1-3.759-8.033c-.554-1.574-.838-2.084-1.651-2.431l-4.8-.194c-.284,0-.555-.007-.794-.013h-.019C-3453.076-4798.084-3453.272-4798.089-3453.453-4798.089Z" transform="translate(3472 4829)"/></g></svg>