<svg xmlns="http://www.w3.org/2000/svg" width="55.709" height="37.415" viewBox="0 0 55.709 37.415"><defs><style>.a{fill:#fff;opacity:0.535;}</style></defs><path class="a" d="M32.012,2.857A30.539,30.539,0,0,0,37.4,2.4a33.588,33.588,0,0,0,4.963-1.278L39.359-1.848a28.244,28.244,0,0,1-3.556.816,23.435,23.435,0,0,1-3.792.3,24.253,24.253,0,0,1-6.338-.816A30.065,30.065,0,0,1,19.991-3.7a32.765,32.765,0,0,1-4.8-2.922,32.286,32.286,0,0,1-3.706-3.158A17.743,17.743,0,0,1,9.1-12.644a4.272,4.272,0,0,1-.827-2.009A4.953,4.953,0,0,1,9.41-16.919a24.051,24.051,0,0,1,3.233-3.5,31.7,31.7,0,0,1,5-3.685L14.824-26.92a31.893,31.893,0,0,0-5.747,4.49,25.23,25.23,0,0,0-3.652,4.469,7.018,7.018,0,0,0-1.278,3.309,6.135,6.135,0,0,0,.924,2.718A20.88,20.88,0,0,0,7.734-8.271,32.271,32.271,0,0,0,11.945-4.34,35.846,35.846,0,0,0,17.521-.752a33.019,33.019,0,0,0,6.746,2.621A29.46,29.46,0,0,0,32.012,2.857Zm0-35a29.725,29.725,0,0,0-5.081.419,32.08,32.08,0,0,0-4.673,1.171l2.986,2.965a25.37,25.37,0,0,1,3.287-.73,22.869,22.869,0,0,1,3.48-.258,23.623,23.623,0,0,1,6.306.838A28.5,28.5,0,0,1,44-25.513a35.845,35.845,0,0,1,4.8,3,31.2,31.2,0,0,1,3.706,3.2,20.915,20.915,0,0,1,2.374,2.825,3.963,3.963,0,0,1,.827,1.837,4.876,4.876,0,0,1-1.063,2.363,20.984,20.984,0,0,1-3.051,3.384A31.721,31.721,0,0,1,46.9-5.371L49.672-2.6A32.878,32.878,0,0,0,55.15-7.036a24.008,24.008,0,0,0,3.491-4.372,7.009,7.009,0,0,0,1.214-3.244,6.185,6.185,0,0,0-.913-2.718,20.9,20.9,0,0,0-2.632-3.663,31.948,31.948,0,0,0-4.179-3.942,34.086,34.086,0,0,0-5.554-3.577,33.363,33.363,0,0,0-6.768-2.6A29.909,29.909,0,0,0,32.012-32.141Zm0,28.639a10.339,10.339,0,0,0,2.428-.279,11.215,11.215,0,0,0,2.234-.795L21.893-19.357a9.555,9.555,0,0,0-.806,2.234,11.117,11.117,0,0,0-.269,2.471,10.706,10.706,0,0,0,1.5,5.564,11.544,11.544,0,0,0,4.039,4.061A10.748,10.748,0,0,0,32.012-3.5Zm10.27-6.982a10.228,10.228,0,0,0,.666-2,9.877,9.877,0,0,0,.236-2.17,10.809,10.809,0,0,0-1.5-5.64A11.223,11.223,0,0,0,37.641-24.3a10.946,10.946,0,0,0-5.629-1.482,10.777,10.777,0,0,0-2.181.215,10.713,10.713,0,0,0-2.009.623Zm5.65,13.621a1.567,1.567,0,0,0,1.117.483,1.526,1.526,0,0,0,1.139-.483,1.583,1.583,0,0,0,.483-1.149A1.555,1.555,0,0,0,50.188.881L15.984-33.3a1.588,1.588,0,0,0-1.16-.494,1.452,1.452,0,0,0-1.117.494,1.427,1.427,0,0,0-.473,1.106,1.5,1.5,0,0,0,.473,1.128Z" transform="translate(-4.146 33.795)"/></svg>